<?xml version="1.0" encoding="UTF-8" standalone="no"?>
<!-- Created with Inkscape (http://www.inkscape.org/) -->

<svg
   xmlns:dc="http://purl.org/dc/elements/1.1/"
   xmlns:cc="http://creativecommons.org/ns#"
   xmlns:rdf="http://www.w3.org/1999/02/22-rdf-syntax-ns#"
   xmlns:svg="http://www.w3.org/2000/svg"
   xmlns="http://www.w3.org/2000/svg"
   xmlns:sodipodi="http://sodipodi.sourceforge.net/DTD/sodipodi-0.dtd"
   xmlns:inkscape="http://www.inkscape.org/namespaces/inkscape"
   width="210mm"
   height="297mm"
   viewBox="0 0 210 297"
   version="1.1"
   id="svg8"
   inkscape:version="0.92.4 (33fec40, 2019-01-16)"
   sodipodi:docname="dibujo_pcb.svg">
  <defs
     id="defs2" />
  <sodipodi:namedview
     id="base"
     pagecolor="#ffffff"
     bordercolor="#666666"
     borderopacity="1.0"
     inkscape:pageopacity="0.0"
     inkscape:pageshadow="2"
     inkscape:zoom="0.49497475"
     inkscape:cx="-1136.3255"
     inkscape:cy="69.870492"
     inkscape:document-units="mm"
     inkscape:current-layer="layer1"
     showgrid="false"
     inkscape:window-width="1855"
     inkscape:window-height="1056"
     inkscape:window-x="65"
     inkscape:window-y="24"
     inkscape:window-maximized="1" />
  <metadata
     id="metadata5">
    <rdf:RDF>
      <cc:Work
         rdf:about="">
        <dc:format>image/svg+xml</dc:format>
        <dc:type
           rdf:resource="http://purl.org/dc/dcmitype/StillImage" />
        <dc:title></dc:title>
      </cc:Work>
    </rdf:RDF>
  </metadata>
  <g
     inkscape:label="Layer 1"
     inkscape:groupmode="layer"
     id="layer1">
    <g
       id="g337">
      <path
         inkscape:connector-curvature="0"
         id="path3794"
         d="m -356.14528,222.25103 c 0.0551,0.34296 0.12622,0.64503 0.21704,0.8785 0.18042,0.4638 0.40431,0.48466 1.53375,-0.8785 z m 12.20287,0 c -0.91929,0.82108 -2.57822,2.06294 -4.23437,3.14555 -3.95715,2.58673 -6.59546,5.02901 -6.59546,6.10557 0,1.14232 -1.47042,2.91015 -4.01112,4.82244 -0.47764,0.3595 -0.9947,0.78253 -1.50069,1.21853 v 12.25093 c 2.0033,-2.83057 3.74208,-4.77729 6.20789,-7.25072 2.43072,-2.43823 7.4358,-6.87893 11.12232,-9.86813 4.85723,-3.93846 8.82567,-7.51273 11.60911,-10.42417 z m 18.20612,0 c -3.83745,5.15663 -8.82672,10.84627 -15.80833,18.19941 -3.43392,3.61666 -5.15405,5.90979 -7.40782,9.87743 -2.24336,3.94931 -4.23388,6.75418 -7.72666,10.88719 -0.82474,0.97592 -2.15367,2.57594 -3.60495,4.33461 v 11.82978 c 0.10087,-0.18536 0.29138,-0.53401 0.37414,-0.68627 2.10116,-3.86586 5.05893,-7.49279 11.73933,-14.39653 7.5203,-7.77174 7.89547,-8.22577 13.67979,-16.55506 7.62437,-10.97893 11.44708,-15.89338 18.40043,-23.49056 z m 21.55993,0 c -3.863,4.25553 -8.53864,8.74136 -13.90665,13.3227 -7.45374,6.36143 -9.35647,8.74657 -13.31805,16.69459 -3.50462,7.03125 -4.9251,10.79196 -5.34386,14.15159 -0.79159,6.35063 -2.70759,11.08593 -4.93665,12.19875 -0.65839,0.32869 -1.49269,1.04304 -1.85363,1.5875 -0.73935,1.11524 -2.42347,5.37953 -4.50153,11.39671 l -1.40147,4.05712 4.88549,-5.02967 c 10.96116,-11.28427 14.69194,-17.04616 19.58434,-30.24828 5.15255,-13.90416 7.60577,-17.495 16.58658,-24.27811 6.73043,-5.08342 12.16988,-9.43822 17.24081,-13.8529 z m 28.43185,0 c -6.46843,7.21959 -11.77339,11.88964 -18.49602,16.3313 -7.7854,5.14384 -8.72527,6.12646 -12.74858,13.33304 -3.98952,7.14607 -7.45633,12.0414 -16.74006,23.63629 -6.34343,7.9226 -8.53475,10.83492 -11.81323,15.69879 -3.11689,4.62409 -5.69679,7.396 -12.70311,13.64929 -5.12698,4.57592 -8.09439,7.69734 -12.03854,12.76615 v 10.02935 c 2.97354,-1.66074 6.37031,-3.28404 6.96392,-3.28404 0.18027,0 -0.86315,1.43037 -2.31821,3.17863 -1.14642,1.37739 -3.0224,3.74928 -4.64571,5.86113 v 22.52472 c 1.71973,-13.56485 2.90569,-17.50716 6.7567,-22.9402 1.56567,-2.20885 2.5299,-3.2036 2.82153,-2.91198 0.0927,0.0927 0.48444,1.92363 0.87075,4.06901 1.24323,6.90432 3.04961,10.0726 6.0141,10.54666 0.76769,0.12274 1.3963,0.25738 1.3963,0.29919 0,0.0419 -0.31936,1.00383 -0.70952,2.13786 -1.37667,4.00137 -1.57663,8.25119 -0.44132,9.38651 0.1855,0.1855 2.55114,-2.77624 5.74074,-7.18716 10.60756,-14.66932 13.51231,-18.41103 17.62063,-22.6999 2.28748,-2.388 7.65171,-8.51779 11.92072,-13.62192 7.91841,-9.46745 14.22781,-16.16064 18.10742,-19.20864 l 2.16886,-1.70429 -1.18649,-0.25683 c -1.55343,-0.33615 -4.53934,0.21124 -6.80165,1.24696 -0.99494,0.4555 -4.04976,2.33955 -6.78874,4.18681 -3.87826,2.61562 -6.13967,3.84406 -10.22263,5.5516 -9.52366,3.98296 -10.62038,4.57015 -12.52223,6.70398 -2.10318,2.35972 -4.53938,7.20371 -7.10706,14.13196 -1.75813,4.74387 -9.32237,20.75251 -9.82576,20.79511 -0.12261,0.0104 -0.67806,-1.37028 -1.23455,-3.06803 -0.91802,-2.8008 -1.00997,-3.5279 -0.99167,-7.84913 0.016,-3.76992 0.18443,-5.37491 0.80822,-7.7003 1.70322,-6.34934 3.97849,-11.0014 11.67474,-23.87349 2.66823,-4.46262 5.30226,-8.90735 5.85339,-9.87692 0.55114,-0.96954 2.99792,-3.75124 5.43739,-6.18204 4.7268,-4.71001 5.50521,-5.89169 7.27346,-11.0386 2.271,-6.6103 7.37073,-11.8527 11.55382,-11.8768 2.7242,-0.0157 4.38912,-1.46584 11.53986,-10.05158 3.23664,-3.88615 6.30736,-7.45326 6.82387,-7.92665 0.60554,-0.55498 1.25626,-1.86331 1.83142,-3.68401 1.22344,-3.87287 1.9484,-4.99036 4.86637,-7.50238 1.3862,-1.19336 5.93322,-5.15513 10.10481,-8.8036 1.08713,-0.95081 2.16425,-1.88832 3.23442,-2.81585 z m 29.63437,0 c -5.33635,4.28525 -7.34197,6.52314 -11.51041,12.25972 -5.47363,7.53278 -6.95732,9.09175 -10.15803,10.67325 -2.10367,1.03944 -3.09956,1.83373 -5.03226,4.01319 -1.32535,1.49456 -3.75921,4.15211 -5.40845,5.90558 -1.64923,1.75346 -4.17555,4.92874 -5.61413,7.0559 -5.38309,7.95966 -7.29909,9.84381 -16.17007,15.90134 -6.99941,4.77957 -7.99842,5.5939 -14.02033,11.43395 -3.1058,3.01199 -6.42321,6.14748 -7.37216,6.96753 -0.94894,0.82005 -1.64369,1.49085 -1.54358,1.49085 0.1001,0 1.43209,-0.571 2.96003,-1.26915 8.10415,-3.70314 13.55861,-5.39909 18.002,-5.59811 l 2.71456,-0.12197 2.33216,-2.44584 c 1.72333,-1.80731 3.01963,-2.78169 4.96559,-3.73208 2.69171,-1.31461 6.11721,-2.35489 7.75353,-2.35489 2.23251,0 4.3159,-1.6374 11.29285,-8.87543 6.60043,-6.84741 11.35345,-11.21135 16.2295,-14.89986 3.89484,-2.94627 6.79483,-7.20651 10.2092,-15.00063 2.37394,-5.41908 3.70826,-7.58377 9.38392,-15.21768 1.77376,-2.38575 3.31914,-4.36899 4.85603,-6.18567 z m 21.35994,0 c -2.16071,3.33853 -4.63673,7.34556 -7.67705,12.37806 -7.21581,11.94395 -7.52753,12.40525 -17.43822,25.82271 -14.62618,19.80145 -19.70372,26.02157 -28.27631,34.63973 -2.77737,2.79215 -5.26271,5.49125 -5.52317,5.99758 -0.26046,0.50633 -0.80586,2.04031 -1.21233,3.4091 -1.4062,4.73551 -2.88555,6.29357 -12.03906,12.67778 -7.11243,4.96062 -9.42637,6.7795 -12.99869,10.22003 -3.27099,3.15037 -5.21966,5.49521 -8.57674,10.32084 -4.48547,6.44763 -10.96969,12.98776 -19.72334,19.89283 -4.43373,3.49742 -5.48575,5.20613 -7.9561,12.92376 -1.88012,5.87364 -3.60161,9.87316 -5.04724,11.72744 -0.3759,0.48218 -0.76163,0.79849 -0.85783,0.70229 -0.0962,-0.0962 0.0535,-1.44346 0.33279,-2.9936 1.81932,-10.09653 1.98472,-11.37569 1.81127,-13.96506 -0.17312,-2.58421 -0.78504,-4.38295 -1.93839,-5.69835 -0.29771,-0.33954 -0.66423,-0.61754 -0.81442,-0.61754 -0.35759,0 -1.01346,2.34153 -2.79259,9.97201 -1.65597,7.10229 -2.58088,10.31132 -4.80643,15.20217 v 18.06762 c 2.93631,-2.2316 6.43227,-5.7419 10.8102,-10.78642 2.27326,-2.61935 7.74521,-8.5725 12.15998,-13.22917 15.79066,-16.65589 17.67718,-18.78899 23.81663,-26.93374 4.60754,-6.11251 6.90965,-8.34773 10.31617,-10.01593 1.01998,-0.49951 4.1567,-2.01811 6.97011,-3.37447 6.38951,-3.08046 7.86552,-4.46381 12.86175,-12.05457 4.4943,-6.82813 6.44861,-8.97417 10.76058,-11.81735 7.22947,-4.7669 7.76694,-5.39176 14.12886,-16.41348 6.43886,-11.155 8.355,-13.66015 15.51843,-20.29074 1.26118,-1.16737 3.37405,-3.34865 4.69584,-4.84725 2.13514,-2.42078 2.62742,-2.78884 4.41006,-3.30266 2.83329,-0.81666 6.29942,-2.62697 8.5664,-4.47363 3.65785,-2.97965 5.76783,-6.42526 11.26288,-18.39525 5.9559,-12.97387 8.51595,-17.84817 14.0131,-24.74474 h -14.8425 c -0.54013,1.22486 -0.96462,1.97094 -1.16014,1.97094 -0.15233,0 -0.11783,-0.80956 0.0289,-1.97094 z m 37.12434,0 c -1.13079,1.59127 -2.1577,3.02731 -2.79982,3.91191 -5.72479,7.88654 -10.36629,15.042 -13.67307,21.0783 -0.82376,1.50371 -1.38246,2.7342 -1.24127,2.7342 0.61689,0 4.317,-3.2015 7.02645,-6.07974 5.77781,-6.13774 11.23333,-14.28697 14.72623,-21.64467 z m 8.6248,0 c -0.99609,2.08213 -2.19706,4.76228 -3.03806,6.8063 -2.34574,5.70123 -4.47449,9.13574 -7.73492,12.47934 -3.61238,3.70452 -10.07667,9.39972 -12.97389,11.43083 -1.46775,1.02897 -2.91215,2.24528 -3.21014,2.70268 -0.298,0.4574 -0.80695,2.0221 -1.1312,3.47731 -0.77611,3.48327 -3.47635,9.01184 -6.11694,12.52379 -2.62604,3.49261 -3.24834,4.07675 -9.03148,8.48423 -5.43419,4.14153 -6.17567,5.08413 -10.60918,13.486 -3.99118,7.56362 -4.42223,8.20783 -11.15074,16.65894 -11.92332,14.97584 -21.33449,28.13428 -23.72516,33.17213 -1.67936,3.53891 -3.33638,8.36874 -5.50509,16.04656 -4.9585,17.55431 -7.17128,21.22831 -19.39107,32.19442 -9.58858,8.60485 -12.48963,11.56853 -17.45165,22.15679 h 20.72535 c 0.30258,-0.0895 0.6068,-0.1755 0.91416,-0.25324 1.57155,-0.3974 2.92864,-0.65098 3.01584,-0.56377 0.0562,0.0561 -0.26407,0.38674 -0.75706,0.81701 h 7.15615 c 0.65639,-3.72923 1.85591,-8.57287 3.56981,-14.35108 2.42845,-8.18722 3.52935,-12.22505 5.85907,-21.48549 2.04972,-8.1475 4.34028,-16.07201 5.04724,-17.4625 0.29594,-0.58209 1.61357,-2.66319 2.9285,-4.62455 2.98736,-4.45593 3.46269,-5.58797 3.88297,-9.2511 0.68807,-5.99707 2.3259,-8.81835 8.3628,-14.40429 2.27204,-2.10235 6.27414,-5.88965 8.89351,-8.41602 5.58663,-5.38827 9.86438,-9.00541 14.72468,-12.45143 5.73823,-4.06852 9.28257,-8.40607 14.89987,-18.23352 3.05314,-5.34149 5.86169,-9.36598 8.86199,-12.7 8.98041,-9.97926 13.1838,-17.11264 17.11472,-29.04526 4.1188,-12.50296 10.31505,-23.39317 16.47651,-29.19408 z m 18.81539,0 c -1.83057,2.48803 -3.4989,4.82551 -4.2106,5.92677 -2.40082,3.71497 -4.60138,7.68635 -4.25917,7.68635 0.56423,0 5.54509,-4.00581 8.00365,-6.43681 2.08926,-2.06585 4.1639,-4.47336 6.19652,-7.17631 z m 22.77019,0 c -3.33491,4.30644 -4.01981,4.813 -7.98298,7.26571 -1.94028,1.20079 -4.71857,3.33205 -6.17378,4.73614 -3.35039,3.23269 -4.75051,4.02146 -10.4066,5.86114 -5.57345,1.8128 -7.45312,2.72582 -9.37411,4.55321 -1.57057,1.49405 -1.55725,1.39901 -0.6351,4.48965 0.43114,1.44501 0.40067,1.55453 -1.52601,5.47099 -2.41944,4.91812 -2.95068,6.61814 -5.02811,16.08273 -2.10251,9.57887 -3.5691,14.17704 -5.99085,18.78698 -1.06696,2.03102 -3.4339,6.7092 -5.26014,10.39574 -3.54138,7.14873 -3.35896,6.91015 -8.9917,11.75277 -2.44539,2.10235 -3.95031,4.18552 -6.92723,9.59011 -2.87867,5.22624 -3.63503,6.17784 -7.92355,9.96839 -3.85721,3.40932 -5.66993,5.94024 -5.66993,7.91631 0,1.04367 0.0857,1.03066 2.03966,-0.31369 3.97579,-2.7354 6.7944,-6.05946 11.65872,-13.74849 3.46592,-5.4786 4.32453,-6.4657 11.10217,-12.76358 4.28215,-3.97902 4.57565,-4.34189 6.13657,-7.58505 2.2256,-4.6242 2.53728,-5.02079 6.31848,-8.03106 1.81489,-1.44483 4.21148,-3.77319 5.32526,-5.17435 2.32598,-2.92613 4.2945,-4.92532 11.30887,-11.48405 2.76637,-2.58667 5.74513,-5.70569 6.61975,-6.93137 2.02288,-2.8348 4.15017,-7.37089 6.70347,-14.29472 5.22027,-14.15593 8.99023,-18.9808 21.15788,-27.07846 4.62405,-3.07733 8.26448,-5.8756 11.83183,-9.46505 z m 27.35285,0 c -3.801,4.98323 -7.19625,9.98256 -9.22579,13.61312 -2.34269,4.19074 -3.80641,6.05597 -9.68158,12.33413 -6.62363,7.07792 -7.82219,8.89204 -11.31353,17.123 -4.8311,11.38947 -7.81905,15.40946 -13.74386,18.49189 -3.79986,1.97688 -5.03754,3.12361 -6.95306,6.44456 -2.11588,3.66831 -3.13585,4.61949 -6.19601,5.77485 -6.27054,2.36741 -11.94094,5.94987 -16.93178,10.69805 -3.80976,3.62453 -6.11953,6.64472 -8.261,10.80141 -2.10861,4.09292 -3.34611,5.7808 -8.01914,10.93628 -5.29906,5.84613 -6.52665,7.58878 -9.65678,13.70923 -2.1856,4.27358 -3.14647,5.75553 -4.84673,7.47654 -1.16637,1.18063 -7.43876,6.12167 -13.93868,10.98021 -6.49994,4.85857 -13.58044,10.35439 -15.73444,12.21269 -7.18516,6.19885 -12.58784,12.56612 -16.04554,18.91049 -3.60277,6.61056 -6.0845,10.59529 -8.49767,13.64361 -1.34456,1.69844 -3.08998,4.45082 -3.87831,6.11642 -0.29899,0.6317 -0.72611,1.51569 -1.12603,2.35284 h 5.53868 c 1.76224,-2.91616 3.80907,-6.77961 6.38048,-12.00291 5.20953,-10.58201 7.73061,-14.64201 11.73779,-18.90167 4.86446,-5.17094 8.31543,-7.12007 18.15083,-10.25157 9.5657,-3.04562 13.61643,-5.49093 23.58254,-14.23377 7.02509,-6.1628 10.56402,-8.44909 18.22162,-11.77189 9.2264,-4.00352 12.61732,-6.47716 14.84716,-10.83188 0.49675,-0.97015 2.95151,-6.2089 5.45496,-11.64167 9.10389,-19.75644 10.22564,-21.47424 29.37392,-44.97916 8.79402,-10.79487 16.55691,-21.55552 18.22111,-25.25738 0.35718,-0.79452 1.20543,-3.53331 1.88516,-6.08645 1.76506,-6.62974 2.75363,-8.32261 6.46162,-11.06186 2.73046,-2.01712 4.35915,-3.77166 7.79125,-8.39432 1.23977,-1.66982 3.34646,-4.13475 5.27565,-6.20479 z m 17.299201,0 c -3.78927,5.89111 -6.042581,8.80849 -8.216041,10.63501 -1.14082,0.95873 -3.4345,3.0926 -5.09684,4.74183 -3.42101,3.39404 -5.34217,6.6899 -7.50652,12.87673 -4.73602,13.53803 -5.9113,15.47689 -19.19521,31.67611 -3.21532,3.92094 -7.2815,9.03428 -9.03614,11.36261 -3.90301,5.17914 -6.59392,8.03601 -10.29188,10.92698 -4.00755,3.13301 -7.1207,6.58529 -8.41809,9.33484 l -1.09296,2.31614 -0.23254,8.81909 c -0.24457,9.28164 -0.54776,11.53697 -1.95647,14.54589 -1.14898,2.45412 -2.66459,4.21243 -6.37532,7.39593 -6.21169,5.3291 -12.8089,9.21128 -20.54914,12.0928 -7.86368,2.92746 -12.52903,5.7621 -16.44292,9.98956 -1.73031,1.86894 -5.06957,6.14103 -5.9123,7.56441 -0.14194,0.23974 0.90126,-0.18756 2.31769,-0.94983 3.54916,-1.91002 7.66059,-3.20331 16.32975,-5.13612 8.62547,-1.92307 11.44907,-2.88753 17.0279,-5.81773 11.3879,-5.98131 21.35944,-14.20141 23.95771,-19.74969 2.70981,-5.78647 3.06112,-6.29619 8.53488,-12.38012 l 2.59726,-2.88716 -0.15503,-1.80454 c -0.0853,-0.99261 -0.74348,-3.23382 -1.46296,-4.98007 -0.71948,-1.74625 -1.39947,-3.81947 -1.51102,-4.60748 -0.25013,-1.76699 0.39576,-5.00933 1.4919,-7.48792 2.9825,-6.74393 10.86278,-15.18586 19.74453,-21.15116 2.41427,-1.6215 3.71009,-3.36817 4.95887,-6.68589 1.80257,-4.78901 2.40515,-5.55926 7.62796,-9.74926 3.84678,-3.0861 4.64404,-4.20804 10.32185,-14.52367 8.659609,-15.73305 12.586348,-21.24451 18.596798,-26.10332 1.60932,-1.30096 6.815124,-4.94316 11.568802,-8.09356 1.074807,-0.71231 2.166591,-1.44636 3.236495,-2.17041 h -9.565825 c -5.843868,5.6416 -13.905077,11.39112 -25.24445,18.20767 -1.07614,0.64692 -0.30837,-0.32092 3.232874,-4.07778 4.41289,-4.6816 7.788923,-8.48874 12.353768,-14.12989 z m 36.367288,0 c -1.654128,1.01046 -3.43599,2.0647 -5.393986,3.18792 -10.47944,6.01162 -16.14863,10.18703 -19.736779,14.5371 -1.05981,1.28486 -3.629081,5.05259 -5.70973,8.37261 -8.411228,13.42152 -12.980144,19.9123 -20.332094,28.88609 -6.20108,7.56907 -7.6165,9.06743 -11.64838,12.33258 -4.85159,3.92895 -6.80088,6.8899 -6.53914,9.93222 l 0.11317,1.31463 7.58455,-6.83781 c 12.10626,-10.91356 16.3043,-15.71204 20.438549,-23.36342 1.687769,-3.12362 3.564559,-5.41264 7.049699,-8.59794 2.542439,-2.32369 3.510065,-3.52457 5.270997,-6.54327 2.896029,-4.96455 3.883954,-6.03605 6.181534,-6.70398 2.53233,-0.73617 4.689047,-2.47612 7.446058,-6.00687 3.121379,-3.99739 5.064281,-5.65355 9.331211,-7.95507 1.978472,-1.06715 5.451295,-3.3655 7.717877,-5.1077 0.70425,-0.54132 1.531591,-1.22846 2.424139,-1.99884 v -5.44825 z m -61.399869,4.12533 c -0.57602,-0.0194 -3.82501,2.59254 -7.59695,6.14329 -5.33197,5.01931 -9.4534,11.16401 -10.16269,15.15205 l -0.24908,1.40095 1.72961,-1.45159 c 2.96649,-2.48977 9.09039,-8.97894 11.34763,-12.02459 2.10805,-2.84435 5.02191,-8.14066 5.02191,-9.12761 0,-0.0602 -0.0308,-0.0905 -0.0904,-0.0925 z m 65.597544,16.74471 c -1.227897,2.03704 -3.523501,3.76042 -8.794811,6.8802 -6.023599,3.56505 -7.876521,5.32322 -11.479402,10.89443 -5.180809,8.01119 -5.957009,9.04774 -10.70374,14.2875 -13.80544,15.23934 -20.628921,20.29362 -31.707111,23.48746 -5.57135,1.6062 -9.48152,4.47445 -12.57959,9.22734 -2.40546,3.69033 -3.0964,5.45021 -6.69158,17.04237 -2.77355,8.94292 -4.75268,14.09086 -7.43417,19.33731 -2.66356,5.21139 -5.16502,7.73634 -12.28917,12.40287 -2.90335,1.9018 -7.10455,4.68239 -9.33587,6.17948 -5.7979,3.89006 -10.20841,6.40718 -16.71009,9.53532 -8.80421,4.23595 -14.91957,6.44911 -27.65412,10.00921 -7.15368,1.99991 -12.99524,6.3378 -17.25632,12.81369 -3.47609,5.28289 -5.02767,9.88896 -5.9185,17.57307 -0.0425,0.3665 -0.0926,0.72149 -0.14107,1.07903 h 16.75143 c 3.0284,-2.71823 5.87893,-6.84858 14.41152,-19.96157 4.8287,-7.42082 9.69711,-11.981 16.36593,-15.3288 2.96328,-1.48756 10.72874,-4.17496 11.58275,-4.00854 0.36404,0.071 -1.76115,2.21253 -5.92728,5.97329 -7.923,7.15205 -12.63244,11.98062 -15.09986,15.48071 -1.98602,2.81718 -4.02859,6.56334 -3.84989,7.06157 0.0594,0.1655 1.37834,-0.45788 2.93057,-1.38543 1.55222,-0.92755 5.14699,-3.05533 7.98866,-4.7284 2.84167,-1.67306 6.69153,-4.23391 8.55503,-5.6906 1.86351,-1.45669 3.38791,-2.54619 3.38791,-2.42105 0,0.12512 -0.49872,1.1134 -1.10846,2.19626 -3.49448,6.2059 -9.61443,11.66503 -17.14159,15.29 -3.46513,1.66878 -5.09353,3.08031 -8.20312,7.52256 h 10.52442 c 13.62022,-11.42625 16.52871,-14.81858 20.49953,-22.71956 2.05752,-4.09395 3.53401,-7.8535 5.62756,-14.32883 2.7697,-8.56671 5.13372,-11.99944 12.83436,-18.63712 2.58341,-2.22678 6.99088,-6.48131 9.79423,-9.4547 2.80334,-2.97341 7.32584,-7.71684 10.05055,-10.54097 4.11255,-4.26262 5.33369,-5.78721 7.18768,-8.97464 2.56899,-4.41666 3.86605,-5.9649 6.5381,-7.80521 1.74574,-1.20232 2.09663,-1.68987 4.0628,-5.64512 2.55434,-5.13848 4.80682,-7.7886 9.89811,-11.64426 7.557795,-5.7236 21.905046,-14.79137 29.504136,-18.64744 4.86297,-2.46766 6.955925,-4.20534 7.370093,-6.11952 1.72639,-7.97893 5.088532,-14.94379 14.160375,-28.46804 z M -209.1434,256.38951 c -0.12163,-0.0505 -1.01547,0.69182 -3.63337,2.94194 -1.35941,1.16843 -4.53561,3.7763 -7.05797,5.79499 -5.4406,4.35425 -9.62731,8.08024 -12.89482,11.4758 -3.34708,3.47821 -3.88376,4.17237 -6.72156,8.69508 -3.01899,4.8115 -8.30185,11.87707 -12.49587,16.71267 -5.88022,6.77976 -6.48053,7.58754 -8.13181,10.93679 -0.91459,1.85505 -1.83068,3.47628 -2.03553,3.60289 -0.20485,0.1266 -0.96865,0.19491 -1.69757,0.15192 -1.09426,-0.0646 -1.49681,0.11541 -2.30994,1.03198 -0.54166,0.61055 -3.30666,2.98955 -6.14433,5.28701 -9.69212,7.84701 -11.03929,10.22601 -12.97285,22.91024 -1.19257,7.82331 -2.25008,11.14455 -5.76037,18.08676 -2.16386,4.2794 -4.72737,8.12612 -7.72666,11.59515 -1.8426,2.1312 -6.30385,5.94847 -6.95203,5.94847 -0.83951,0 0.62687,-4.57581 2.93936,-9.17204 0.73215,-1.45521 3.21477,-6.10344 5.51697,-10.3296 2.30218,-4.22619 4.18579,-7.77896 4.18579,-7.89461 0,-0.11568 -0.69172,0.42712 -1.53685,1.20613 -2.32151,2.13987 -2.72411,2.27819 -5.84358,2.00607 l -2.7559,-0.2403 -5.67459,6.30299 c -3.121,3.46678 -6.46455,6.97722 -7.43004,7.80055 -3.35384,2.85999 -11.70464,11.12867 -13.40796,13.27618 -2.17444,2.74151 -3.53028,5.44449 -5.29012,10.5482 -0.76967,2.23213 -1.72887,4.70474 -2.13165,5.49423 -0.40278,0.78952 -0.73226,1.58975 -0.73226,1.77819 0,0.61946 5.30095,-1.768 16.50597,-7.43366 6.07079,-3.06959 11.11634,-5.58104 11.21224,-5.58104 0.0959,0 -0.43755,0.83344 -1.18494,1.85208 -0.7474,1.01865 -3.08127,4.27924 -5.18677,7.24607 -5.0539,7.12136 -9.07986,11.93956 -13.13873,15.44971 h 7.65845 c 2.14983,-1.78509 4.22258,-3.69512 6.35878,-5.84513 9.57641,-9.63826 17.69551,-21.23104 29.9992,-42.83408 2.04771,-3.5954 3.3755,-5.40343 6.31693,-8.60155 8.03636,-8.73765 7.80256,-8.29792 7.95042,-14.94637 0.094,-4.22441 0.28742,-5.99313 0.88057,-8.05015 1.72216,-5.9725 5.30071,-10.87803 11.42411,-15.6595 4.82671,-3.76899 11.17353,-10.70367 16.98294,-18.5565 11.0789,-14.97579 13.9575,-18.74986 19.78535,-25.94208 5.71175,-7.04897 12.37509,-15.61847 13.03022,-16.75712 0.0958,-0.16659 0.14131,-0.27151 0.10077,-0.28836 z m 156.944934,3.50418 c -0.323736,0.2966 -0.582909,0.56268 -0.726053,0.75655 -1.002959,1.35839 -1.147371,4.67538 -0.411861,9.45161 0.679931,4.41537 0.574881,5.50952 -0.947227,9.85935 -2.68505,7.67321 -4.730123,9.95 -12.375473,13.77797 -2.781281,1.39258 -5.591902,3.07044 -6.319512,3.7729 -1.657347,1.60005 -3.183742,4.55679 -5.691642,11.02413 -2.457419,6.33717 -4.05778,8.82735 -7.56698,11.77446 -5.584079,4.68972 -9.352182,8.98406 -17.374136,19.79933 -9.55989,12.88873 -12.28132,15.98348 -18.32756,20.84419 -3.95638,3.18064 -10.62054,7.86289 -14.9903,10.53219 -7.20833,4.40325 -8.42382,5.83317 -10.05262,11.82357 -1.50548,5.53678 -1.76444,6.03586 -4.76715,9.18805 -1.84637,1.93831 -3.02035,3.55092 -3.78323,5.19711 -1.81885,3.92488 -2.58007,4.89341 -5.15524,6.55928 -2.93529,1.89884 -3.89048,3.11656 -5.16712,6.5872 -0.43979,1.19563 -0.8284,2.15313 -1.26969,3.02877 h 14.81149 c 1.55155,-3.4712 2.91457,-6.08635 3.73983,-7.09621 l 0.85576,-1.04748 0.0129,0.91879 c 0.0143,1.0378 -0.21426,4.08427 -0.50901,7.2249 h 5.60275 c 0.93505,-5.83949 1.85849,-8.51228 4.15272,-13.08293 2.9488,-5.87468 5.87621,-9.73485 15.78457,-20.81372 7.60139,-8.49937 10.33893,-12.80914 15.01303,-23.63628 5.41614,-12.54596 7.43625,-15.37423 16.589173,-23.22082 10.94828,-9.38569 11.967789,-10.51906 16.233118,-18.05418 2.678938,-4.73261 5.291368,-8.72668 6.925159,-10.58746 0.598369,-0.68152 2.379316,-2.08974 3.957897,-3.12952 5.235861,-3.44882 8.840086,-7.37876 11.756387,-12.81732 z M -340.246,261.96954 c -0.14243,0 -1.2179,0.99236 -2.39003,2.20503 -6.39549,6.61671 -10.49682,12.72797 -17.34054,25.8408 -0.11278,0.21609 -0.20006,0.37928 -0.30748,0.58447 v 5.58725 c 0.73168,-0.94892 1.5198,-1.73953 2.51509,-2.59881 1.54256,-1.33176 2.29809,-2.43668 4.18941,-6.12675 1.26906,-2.47605 3.3474,-5.93029 4.61833,-7.67654 3.17927,-4.3683 9.75756,-17.81545 8.71522,-17.81545 z m 155.00346,3.60651 c -0.0636,-0.0636 -1.00702,1.73815 -2.09651,4.00388 -2.3115,4.80703 -4.50574,8.50794 -7.09414,11.96465 -2.23154,2.9801 -2.88146,4.2314 -4.58318,8.82374 -2.20811,5.9589 -3.7252,8.01968 -8.84804,12.02201 -3.71825,2.90497 -5.58261,4.96557 -6.75411,7.4631 -1.25247,2.67015 -3.54538,4.86897 -9.10901,8.73694 -4.88629,3.39707 -8.13672,6.10042 -14.70453,12.22976 -8.26652,7.71464 -12.08949,13.809 -14.01619,22.34281 -1.54437,6.84036 -2.22474,8.44961 -6.6549,15.74168 -4.99533,8.22235 -6.41614,12.02952 -6.41614,17.1917 v 2.96159 l 1.12809,-0.22582 c 2.48022,-0.49605 3.58024,-1.99454 4.85759,-6.61718 0.3942,-1.42656 1.00575,-2.99069 1.35909,-3.47575 0.68923,-0.94621 2.55107,-1.97327 5.78983,-3.19463 1.67508,-0.6317 2.58305,-1.34877 5.29166,-4.17701 5.54354,-5.78842 9.98651,-12.62068 17.40876,-26.77255 2.57326,-4.90638 5.27661,-9.70553 6.0079,-10.66446 1.67861,-2.20114 4.62856,-4.59433 9.1333,-7.40936 6.69286,-4.1824 7.13072,-4.6909 12.7403,-14.80013 5.70847,-10.28742 8.80919,-17.62675 12.07627,-28.58482 1.57787,-5.29227 4.66441,-17.37971 4.48396,-17.56015 z m 118.434632,19.33937 c -0.22357,0.0101 -0.553201,0.16357 -0.989087,0.46355 -0.382719,0.26337 -3.394662,1.95331 -6.693132,3.75531 -11.54039,6.30463 -17.911175,10.66443 -22.929866,15.69207 -3.712837,3.71946 -4.999887,5.74857 -7.275527,11.47114 -2.51204,6.31701 -3.76959,8.1144 -8.35659,11.94189 -5.99968,5.00629 -7.60889,6.88356 -9.64282,11.25204 -3.24936,6.97892 -3.6449,7.66585 -5.43637,9.43819 -1.33173,1.31749 -2.53683,2.06957 -4.7625,2.97191 -6.18123,2.506 -10.86728,6.13148 -15.72203,12.16308 -5.00967,6.22406 -8.09581,11.49427 -10.50169,17.93533 -1.27227,3.40617 -3.03721,10.02139 -3.03651,11.37968 2.9e-4,0.45437 0.42729,-0.003 1.19941,-1.28312 0.65944,-1.09358 2.29898,-3.63323 3.64371,-5.64412 2.975,-4.44873 4.68417,-7.50308 5.89525,-10.53526 1.2686,-3.17622 3.92575,-6.63985 6.62853,-8.64031 1.25177,-0.92647 4.53031,-3.00284 7.28586,-4.61418 5.23489,-3.0612 9.09148,-5.74971 10.67584,-7.44296 1.33595,-1.42777 2.41487,-3.3364 2.41587,-4.27572 7.2e-4,-0.44429 0.30427,-1.39679 0.67438,-2.11667 0.75512,-1.46873 4.84898,-5.60245 7.79332,-7.86876 9.12471,-7.02347 15.1826,-14.92144 19.547643,-25.48528 2.96028,-7.16412 5.347714,-10.83304 8.674923,-13.33301 1.067149,-0.80185 4.84455,-2.87819 8.394319,-4.61367 7.12248,-3.48221 10.0882,-5.74318 11.658722,-8.88783 1.243695,-2.49026 1.529056,-3.75343 0.858345,-3.7233 z m 14.609442,11.03757 c -1.593897,1.37157 -2.451968,3.10298 -3.488674,6.65438 -0.583771,1.99974 -1.302972,4.1122 -1.598353,4.69429 -0.936969,1.84639 -4.31863,5.80472 -9.785448,11.45407 -5.933911,6.13204 -7.986363,8.64997 -9.923941,12.17497 h -5.19e-4 l -1.326533,2.41278 1.294495,-0.20981 c 1.701361,-0.27609 6.096548,-2.88922 13.498917,-8.02587 3.312811,-2.29881 7.326291,-4.97954 8.919353,-5.95725 0.633428,-0.38876 1.487352,-0.9566 2.410703,-1.58338 z m 0,28.17813 c -1.959221,0.68958 -4.255026,1.49619 -5.005895,1.76527 -1.68923,0.60531 -2.721854,1.34289 -5.114933,3.653 -1.649241,1.59207 -3.661984,3.22778 -4.472593,3.63492 -0.810602,0.40714 -3.668102,1.38766 -6.35,2.17869 -9.684531,2.85641 -13.609154,4.87021 -17.669724,9.06713 -3.962451,4.09552 -7.267335,9.8915 -11.718659,20.55069 -4.53588,10.86168 -5.52205,12.53726 -16.16078,27.46344 -3.81588,5.35368 -8.33614,11.9607 -10.04538,14.68281 -1.38646,2.20808 -2.69722,4.47283 -3.9119,6.74328 h 6.71638 c 1.80768,-2.33921 3.65926,-4.37735 6.1681,-6.90915 4.56602,-4.60782 6.09687,-6.70279 11.07684,-15.1629 2.94337,-5.00025 5.54565,-7.96348 11.872664,-13.517 3.069982,-2.69468 7.716515,-8.30541 11.014316,-13.30048 1.21694,-1.84327 4.242591,-6.44027 6.723621,-10.2154 4.924559,-7.49318 8.865425,-11.92242 13.189375,-14.82339 2.48951,-1.67023 12.910701,-6.83683 13.416751,-6.65178 0.175771,0.0643 -1.552366,1.73575 -3.840075,3.71451 -5.28152,4.56824 -6.748428,6.30902 -9.900687,11.74811 -3.353192,5.78578 -6.166689,9.87676 -9.081616,13.20538 -4.83796,5.52461 -7.271674,8.6228 -10.869105,13.83689 -5.352989,7.75859 -7.342814,10.25006 -12.023555,15.05283 -4.586149,4.70572 -6.694399,7.35941 -11.941909,15.03164 -2.43008,3.55296 -4.12091,5.89434 -5.90765,7.99074 h 5.7981 c 3.31348,-3.72296 5.82549,-6.71002 6.23683,-7.52462 0.36793,-0.72864 0.93932,-2.27695 1.26969,-3.44112 0.50145,-1.76699 0.9382,-2.43739 2.6448,-4.05712 1.124378,-1.06714 3.454142,-2.79755 5.176942,-3.84524 7.59391,-4.61822 7.914505,-4.88249 16.714224,-13.78419 7.558558,-7.64614 9.417791,-9.31756 14.817701,-13.32063 3.868661,-2.8679 7.228282,-5.69195 8.995833,-7.56129 0.872001,-0.92223 1.529633,-1.66306 2.182294,-2.53989 z m 0,37.40237 c -0.410358,0.34769 -0.834218,0.70371 -1.275373,1.07021 -2.8277,2.34913 -6.296327,5.43314 -7.708056,6.85385 -2.3295,2.34429 -5.370732,6.44429 -5.370732,7.24037 0,0.1754 0.124843,0.2417 0.277503,0.1473 0.152648,-0.0943 2.255922,-0.74959 4.674134,-1.45624 2.418218,-0.70665 5.094777,-1.69093 5.947955,-2.18747 0.519186,-0.30218 1.817687,-1.3774 3.454569,-2.81223 z m -171.809664,12.9904 c -1.10647,0.0401 -4.711,1.27781 -7.46828,2.61483 -7.39748,3.58714 -17.6703,13.00821 -23.20065,21.27676 -0.87271,1.30479 -3.66257,6.49978 -6.19962,11.54451 -0.71871,1.42909 -1.36724,2.70552 -1.98696,3.91036 h 24.06726 c 0.96723,-3.29655 1.7347,-6.94931 2.38849,-11.18899 1.60627,-10.41617 3.55591,-14.99802 10.40918,-24.46002 1.37228,-1.89465 2.40852,-3.53219 2.30219,-3.63852 -0.0464,-0.0464 -0.15354,-0.0646 -0.31161,-0.0589 z m 170.182892,1.08935 c -0.04592,-0.041 -0.441081,0.20145 -1.262457,0.79634 -0.970139,0.70263 -3.589512,2.4134 -5.820833,3.80132 -11.027939,6.85956 -11.93696,7.54457 -17.4625,13.15837 -2.910408,2.9569 -6.640692,6.38471 -8.289932,7.61761 -4.465641,3.33833 -6.56245,5.44984 -8.91005,8.97258 -1.074365,1.61219 -1.94413,2.81326 -2.903699,3.91089 h 5.506124 c 3.843626,-3.61032 6.089865,-6.15297 7.550444,-8.52043 4.05134,-6.56683 6.156195,-8.66675 18.795235,-18.75235 6.638962,-5.2977 12.996651,-10.80651 12.797668,-10.98433 z m 1.626772,10.43194 c -1.343533,1.10474 -2.971956,2.32296 -5.046718,3.82455 -6.307262,4.56485 -8.623776,6.5056 -11.761557,9.85213 -6.401723,6.8276 -11.152436,11.40645 -14.685925,14.14849 h 10.116179 c 3.271597,-3.55487 6.192412,-6.60429 6.755143,-7.028 0.632699,-0.47638 3.110191,-1.83047 5.505091,-3.00913 3.455577,-1.70066 5.130686,-2.76847 9.117787,-6.18257 z M -343.73415,399.788 c -0.2809,0.0224 -0.73176,0.37659 -1.54978,1.17047 -2.02621,1.96638 -4.92308,3.37486 -11.95793,5.81411 -1.01747,0.3528 -2.04501,0.73036 -3.04219,1.10588 v 5.99189 h 10.03711 c 6.65673,-8.29464 8.26608,-11.6799 6.80889,-13.91751 -0.0761,-0.11687 -0.16843,-0.17502 -0.2961,-0.16484 z m 291.535684,0.59013 c -1.078071,1.11144 -2.265312,2.31161 -3.554304,3.58481 -3.003732,2.96688 -6.742131,6.8443 -9.576159,9.90741 h 7.169073 c 2.146538,-2.09974 4.114035,-3.95769 5.96139,-5.62759 z M -183.04009,413.7117 c -0.11081,-7.4e-4 -0.30103,0.0587 -0.54157,0.15865 h 0.65629 c 0.0122,-0.082 -0.003,-0.1338 -0.0517,-0.14986 -0.0173,-0.006 -0.0384,-0.009 -0.0631,-0.009 z"
         style="fill:#000000;stroke-width:0.35277775" />
      <g
         transform="translate(238.81389,55.798637)"
         id="g302">
        <rect
           id="rect3796"
           width="176.96991"
           height="42.436733"
           x="-533.5401"
           y="241.04369"
           style="fill:#ffffff;stroke:#ffffff;stroke-width:0.11912991"
           ry="6.8035712" />
        <g
           id="g4116"
           transform="matrix(1.6645662,0,0,1.6645662,-17.75749,76.51317)">
          <g
             style="display:inline;fill:#000000"
             transform="matrix(0.17868638,0,0,0.17868638,-324.68518,387.53034)"
             id="g11">
            <path
               d="m 255.688,-1502.962 6.496,0.082 c -1,3.625 -2.854,6.374 -5.561,8.244 -2.71,1.96 -6.099,2.911 -10.168,2.859 -4.938,-0.062 -8.771,-1.71 -11.5,-4.949 -2.732,-3.151 -4.062,-7.629 -3.988,-13.432 0.068,-5.54 1.464,-9.855 4.188,-12.938 2.812,-3.167 6.686,-4.724 11.621,-4.66 5.195,0.064 9.202,1.676 12.021,4.828 1.534,1.925 2.632,4.147 3.296,6.665 l -9.094,-0.114 c -0.423,-0.869 -0.848,-1.523 -1.273,-1.964 -1.111,-1.225 -2.705,-1.853 -4.783,-1.878 -1.906,-0.024 -3.472,0.563 -4.699,1.759 -1.58,1.715 -2.396,4.562 -2.446,8.544 -0.049,3.983 0.694,6.809 2.233,8.472 1.106,1.401 2.786,2.112 5.039,2.141 1.471,0.019 2.732,-0.267 3.778,-0.86 0.261,-0.082 0.499,-0.23 0.719,-0.445 0.22,-0.212 0.461,-0.449 0.725,-0.706 0.175,-0.257 0.527,-0.598 1.053,-1.026 0.522,-0.426 1.304,-0.635 2.343,-0.622 z"
               id="path13"
               inkscape:connector-curvature="0"
               style="fill:#000000" />
          </g>
          <g
             style="display:inline;fill:#000000"
             transform="matrix(0.17868638,0,0,0.17868638,-324.68518,387.53034)"
             id="g15">
            <path
               d="m 269.464,-1495.254 c -1.797,-1.582 -3.069,-3.696 -3.817,-6.349 -0.743,-2.65 -1.101,-5.404 -1.064,-8.263 0.03,-2.338 0.385,-4.672 1.062,-7.001 0.679,-2.331 1.721,-4.266 3.128,-5.808 2.281,-2.57 5.2,-4.068 8.759,-4.502 3.554,-0.43 6.758,-0.11 9.602,0.966 3.272,1.339 5.669,3.622 7.188,6.844 1.437,2.878 2.132,6.222 2.084,10.029 -0.035,2.773 -0.369,5.151 -0.999,7.133 -0.632,1.986 -1.433,3.665 -2.402,5.037 -2.112,2.831 -4.778,4.575 -7.99,5.226 -2.867,0.744 -5.747,0.772 -8.639,0.087 -2.896,-0.685 -5.198,-1.819 -6.912,-3.399 z m 6.525,-22.783 c -1.844,1.972 -2.705,4.925 -2.58,8.868 0.122,3.942 0.825,6.699 2.105,8.274 0.51,0.702 1.413,1.298 2.705,1.788 1.292,0.493 2.611,0.553 3.96,0.179 1.345,-0.371 2.549,-1.331 3.609,-2.877 1.057,-1.545 1.65,-4.049 1.782,-7.512 0.039,-3.118 -0.431,-5.462 -1.406,-7.033 -0.977,-1.571 -2.11,-2.581 -3.404,-3.031 -1.294,-0.448 -2.594,-0.486 -3.895,-0.112 -1.306,0.372 -2.266,0.859 -2.876,1.456 z"
               id="path17"
               inkscape:connector-curvature="0"
               style="fill:#000000" />
          </g>
          <g
             style="display:inline;fill:#000000"
             transform="matrix(0.17868638,0,0,0.17868638,-324.68518,387.53034)"
             id="g19">
            <path
               d="m 329.41,-1491.385 -8.962,-0.112 0.255,-20.264 0.022,-1.817 c 0.026,-2.078 -0.584,-3.6 -1.827,-4.569 -1.243,-0.968 -2.644,-1.462 -4.202,-1.481 -1.56,-0.02 -2.952,0.439 -4.176,1.377 -1.225,0.938 -1.85,2.443 -1.875,4.521 l -0.277,22.082 -9.093,-0.114 0.255,-20.263 c 0.073,-5.888 1.66,-9.807 4.759,-11.761 3.098,-1.954 6.512,-2.992 10.237,-3.12 1.991,0.024 3.937,0.267 5.837,0.723 1.897,0.457 3.621,1.344 5.165,2.664 1.311,-1.108 2.858,-1.892 4.639,-2.346 1.78,-0.453 3.625,-0.713 5.53,-0.776 3.812,0.048 7.306,1.09 10.485,3.121 3.178,2.032 4.73,6.079 4.654,12.138 l -0.254,20.265 -4.546,-0.058 c -1.299,-0.017 -2.356,-0.439 -3.167,-1.273 -0.814,-0.832 -1.211,-1.9 -1.193,-3.199 l 0.222,-17.665 c 0.025,-2.077 -0.584,-3.599 -1.828,-4.568 -1.243,-0.968 -2.646,-1.462 -4.204,-1.482 -1.558,-0.019 -2.974,0.44 -4.238,1.376 -1.27,0.939 -1.915,2.445 -1.941,4.521 l -0.022,1.818 z"
               id="path21"
               inkscape:connector-curvature="0"
               style="fill:#000000" />
          </g>
          <g
             style="display:inline;fill:#000000"
             transform="matrix(0.17868638,0,0,0.17868638,-324.68518,387.53034)"
             id="g23">
            <path
               d="m 363.44,-1482.644 c -0.016,1.213 -0.463,2.247 -1.337,3.102 -0.876,0.854 -1.924,1.274 -3.133,1.26 l -4.417,-0.056 0.406,-32.342 c 0.075,-6.06 1.9,-10.175 5.479,-12.338 3.578,-2.164 7.444,-3.22 11.603,-3.168 2.162,0.027 4.346,0.468 6.544,1.317 2.197,0.851 3.936,2.063 5.214,3.638 2.558,3.41 3.802,7.757 3.735,13.038 -0.068,5.456 -1.422,9.855 -4.063,13.2 -2.64,3.259 -5.993,4.859 -10.062,4.809 -2.167,-0.027 -4.066,-0.439 -5.702,-1.239 -1.723,-0.887 -3.088,-2.247 -4.105,-4.079 z m 15.126,-25.272 c 0.042,-3.376 -0.574,-5.982 -1.85,-7.816 -1.276,-1.836 -3.128,-2.769 -5.552,-2.799 -2.335,-0.03 -4.167,0.856 -5.489,2.66 -1.232,1.631 -1.872,4.221 -1.917,7.771 -0.042,3.292 0.578,5.768 1.855,7.427 1.277,1.836 3.129,2.768 5.552,2.798 2.25,0.029 4.038,-0.857 5.36,-2.661 1.323,-1.803 2.002,-4.263 2.041,-7.38 z"
               id="path25"
               inkscape:connector-curvature="0"
               style="fill:#000000" />
          </g>
          <g
             style="display:inline;fill:#000000"
             transform="matrix(0.17868638,0,0,0.17868638,-324.68518,387.53034)"
             id="g27">
            <path
               d="m 391.528,-1538.682 4.677,0.058 c 1.212,0.016 2.244,0.439 3.101,1.272 0.855,0.836 1.276,1.857 1.262,3.068 l -0.55,43.784 -9.093,-0.114 z"
               id="path29"
               inkscape:connector-curvature="0"
               style="fill:#000000" />
          </g>
          <g
             style="display:inline;fill:#000000"
             transform="matrix(0.17868638,0,0,0.17868638,-324.68518,387.53034)"
             id="g31">
            <path
               d="m 435.285,-1524.612 -0.255,20.263 c -0.076,6.151 -1.731,10.157 -4.957,12.02 -3.23,1.866 -6.748,2.773 -10.558,2.725 -3.723,-0.219 -7.108,-1.299 -10.156,-3.244 -3.052,-1.942 -4.538,-5.902 -4.463,-11.878 l 0.255,-20.263 9.091,0.114 -0.277,22.081 c -0.025,2.078 0.56,3.603 1.763,4.569 1.198,0.969 2.58,1.461 4.139,1.48 1.558,0.02 2.97,-0.438 4.239,-1.376 1.266,-0.935 1.914,-2.444 1.94,-4.522 l 0.222,-17.664 c 0.015,-1.212 0.438,-2.247 1.272,-3.103 0.832,-0.854 1.9,-1.275 3.199,-1.259 z"
               id="path33"
               inkscape:connector-curvature="0"
               style="fill:#000000" />
          </g>
          <g
             style="display:inline;fill:#000000"
             transform="matrix(0.17868638,0,0,0.17868638,-324.68518,387.53034)"
             id="g35">
            <g
               style="fill:#000000"
               id="g37">
              <path
                 d="m 448.897,-1534.372 -0.034,13.782 c 0.955,-1.643 2.345,-2.982 4.167,-4.017 1.561,-0.861 3.465,-1.291 5.717,-1.287 4.07,0.011 7.402,1.707 9.992,5.091 2.59,3.384 3.88,7.761 3.864,13.13 -0.011,5.369 -1.321,9.739 -3.927,13.109 -1.304,1.645 -3.06,2.83 -5.269,3.56 -2.212,0.729 -4.4,1.094 -6.564,1.088 -4.157,-0.01 -8.009,-1.098 -11.554,-3.274 -3.546,-2.171 -5.309,-6.333 -5.294,-12.483 l 0.08,-33.136 4.416,0.011 c 1.21,0 2.249,0.44 3.112,1.307 0.865,0.867 1.296,1.907 1.294,3.119 z m 14.743,26.287 c 0.008,-3.117 -0.635,-5.542 -1.929,-7.279 -1.295,-1.82 -3.069,-2.735 -5.32,-2.74 -2.426,-0.01 -4.286,0.857 -5.592,2.585 -1.303,1.815 -1.958,4.281 -1.967,7.398 -0.008,3.638 0.592,6.281 1.8,7.929 1.296,1.821 3.111,2.735 5.451,2.741 2.423,0.01 4.288,-0.899 5.591,-2.715 1.305,-1.815 1.959,-4.453 1.966,-7.919 z"
                 id="path39"
                 inkscape:connector-curvature="0"
                 style="fill:#000000" />
            </g>
            <g
               style="fill:#000000"
               id="g41">
              <path
                 d="m 480.077,-1493.627 c -1.813,-1.563 -3.107,-3.665 -3.879,-6.309 -0.773,-2.643 -1.159,-5.395 -1.15,-8.251 0.005,-2.339 0.336,-4.677 0.993,-7.012 0.653,-2.338 1.674,-4.284 3.065,-5.84 2.256,-2.594 5.162,-4.121 8.715,-4.591 3.55,-0.465 6.755,-0.18 9.609,0.868 3.286,1.307 5.708,3.566 7.258,6.771 1.464,2.863 2.193,6.199 2.185,10.008 -0.007,2.772 -0.316,5.153 -0.926,7.143 -0.613,1.992 -1.396,3.68 -2.35,5.062 -2.088,2.851 -4.734,4.623 -7.938,5.306 -2.86,0.771 -5.74,0.831 -8.638,0.174 -2.901,-0.656 -5.215,-1.766 -6.944,-3.329 z m 6.292,-22.847 c -1.823,1.989 -2.654,4.951 -2.49,8.893 0.163,3.942 0.895,6.691 2.19,8.254 0.518,0.695 1.426,1.282 2.722,1.76 1.3,0.479 2.617,0.526 3.963,0.139 1.341,-0.385 2.535,-1.357 3.579,-2.914 1.043,-1.556 1.61,-4.064 1.706,-7.529 0.007,-3.118 -0.486,-5.457 -1.477,-7.019 -0.994,-1.562 -2.137,-2.559 -3.435,-2.996 -1.297,-0.435 -2.598,-0.461 -3.898,-0.073 -1.298,0.384 -2.254,0.882 -2.86,1.485 z"
                 id="path43"
                 inkscape:connector-curvature="0"
                 style="fill:#000000" />
            </g>
          </g>
          <g
             style="display:inline;fill:#000000"
             transform="matrix(0.17868638,0,0,0.17868638,-324.68518,387.53034)"
             id="g45">
            <path
               d="m 525.25,-1490.399 c -2.857,0.166 -5.954,0.115 -9.285,-0.152 -3.337,-0.268 -4.997,-2.394 -4.987,-6.379 l 0.099,-41.578 4.677,0.013 c 1.125,0 2.121,0.438 2.984,1.306 0.863,0.868 1.295,1.908 1.293,3.121 l -0.023,9.233 5.326,0.013 -0.005,1.818 c -0.004,1.299 -0.439,2.358 -1.306,3.179 -0.87,0.822 -1.911,1.23 -3.121,1.229 h -0.91 l -0.046,19.225 c -0.004,1.474 0.86,2.211 2.594,2.215 l 2.728,0.01 -0.018,6.754 z"
               id="path47"
               inkscape:connector-curvature="0"
               style="fill:#000000" />
          </g>
          <path
             d="m -287.5141,117.95263 c -1.95986,1.24293 -4.22828,1.89979 -6.56066,1.89979 -5.13582,0 -9.31886,-3.46599 -11.19684,-7.59362 0.69919,0.26849 1.45877,0.41363 2.25303,0.40577 3.37897,-0.0342 6.09019,-2.80106 6.05605,-6.17985 -0.0342,-3.37897 -2.8011,-6.09018 -6.18021,-6.05604 -3.37843,0.0342 -6.09018,2.80109 -6.05587,6.18003 0.015,1.52777 0.59093,2.91778 1.5276,3.98042 0.59305,2.39868 1.87084,4.70751 3.70506,6.60782 2.71406,2.81201 6.22685,4.36066 9.891,4.36066 2.65616,0 5.24069,-0.74851 7.47392,-2.16478 z"
             id="path49"
             inkscape:connector-curvature="0"
             style="display:inline;fill:#000000;stroke-width:0.18662804" />
          <circle
             cx="-303.08041"
             cy="106.54654"
             r="4.0038257"
             id="circle51"
             style="display:inline;fill:#ffffff;stroke-width:0.17868638" />
          <circle
             cx="-301.89108"
             cy="104.05994"
             r="1.21471"
             id="circle53"
             style="display:inline;fill:#000000;stroke-width:0.17868638" />
          <g
             style="display:inline;fill:#000000"
             transform="matrix(0.17868638,0,0,0.17868638,-324.68518,387.53034)"
             id="g55">
            <circle
               cx="196.593"
               cy="-1573.264"
               r="34.241001"
               id="circle57"
               style="fill:#000000" />
          </g>
          <g
             style="display:inline;fill:#ffffff"
             transform="matrix(0.17868638,0,0,0.17868638,-324.68518,387.53034)"
             id="g59">
            <circle
               cx="196.59399"
               cy="-1573.265"
               r="22.408001"
               id="circle61"
               style="fill:#ffffff" />
          </g>
          <g
             style="display:inline;fill:#000000"
             transform="matrix(0.17868638,0,0,0.17868638,-324.68518,387.53034)"
             id="g63">
            <circle
               cx="203.25"
               cy="-1587.1801"
               r="6.7969999"
               id="circle65"
               style="fill:#000000" />
          </g>
        </g>
        <path
           style="fill:#000000;stroke-width:0.12725197"
           d="m -398.61801,276.41533 v -5.34459 h 5.34459 5.34458 v 5.34459 5.34458 h -5.34458 -5.34459 z m 9.16214,0 v -3.81756 h -3.81755 -3.81756 v 3.81756 3.81756 h 3.81756 3.81755 z m -6.10809,0 v -2.29054 h 2.29054 2.29053 v 2.29054 2.29053 h -2.29053 -2.29054 z m 9.16214,4.58107 v -0.76351 h 0.76351 0.76352 v -0.76352 -0.76351 h -0.76352 -0.76351 v -0.76351 -0.76351 h 0.76351 0.76352 v 0.76351 0.76351 h 2.29053 2.29054 v -1.52702 -1.52702 h -0.76351 -0.76352 v 0.76351 0.76351 h -0.76351 -0.76351 v -0.76351 -0.76351 h -0.76351 -0.76351 v -0.76352 -0.76351 h 0.76351 0.76351 v 0.76351 0.76352 h 0.76351 0.76351 v -0.76352 -0.76351 h 1.52703 1.52702 v -0.76351 -0.76351 h 0.76351 0.76351 v 1.52702 1.52703 h -0.76351 -0.76351 v 0.76351 0.76351 h 1.52702 1.52703 v -2.29054 -2.29053 h 0.76351 0.76351 v -1.52703 -1.52702 h -1.52702 -1.52703 v 0.76351 0.76351 h -0.76351 -0.76351 v -1.52702 -1.52702 h -1.52702 -1.52703 v 1.52702 1.52702 h 0.76352 0.76351 v 0.76352 0.76351 h -0.76351 -0.76352 v -0.76351 -0.76352 h -0.76351 -0.76351 v 0.76352 0.76351 h -1.52702 -1.52703 v -2.29054 -2.29053 h -0.76351 -0.76351 v 0.76351 0.76351 h -1.52703 -1.52702 v -0.76351 -0.76351 h -0.76351 -0.76351 v 0.76351 0.76351 h -1.52703 -1.52702 v -0.76351 -0.76351 h -1.52702 -1.52703 v -0.76352 -0.76351 h 2.29054 2.29053 v -0.76351 -0.76351 h 0.76352 0.76351 v 0.76351 0.76351 h 1.52702 1.52702 v -0.76351 -0.76351 h -0.76351 -0.76351 v -0.76351 -0.76351 h -0.76351 -0.76351 v -0.76352 -0.76351 h -0.76351 -0.76352 v 0.76351 0.76352 h -0.76351 -0.76351 v 0.76351 0.76351 h -1.52702 -1.52703 v -1.52702 -1.52703 h 1.52703 1.52702 v -0.76351 -0.76351 h 0.76351 0.76351 v -0.76351 -0.76352 h -0.76351 -0.76351 v -1.52702 -1.52702 h 0.76351 0.76351 v 0.76351 0.76351 h 0.76352 0.76351 v 1.52702 1.52703 h 0.76351 0.76351 v -1.52703 -1.52702 h 0.76351 0.76351 v -0.76351 -0.76351 h 1.52703 1.52702 v 0.76351 0.76351 h 0.76351 0.76352 v -0.76351 -0.76351 h 0.76351 0.76351 v 0.76351 0.76351 h 0.76351 0.76351 v -1.52702 -1.52703 h -0.76351 -0.76351 v -0.76351 -0.76351 h 0.76351 0.76351 v -0.76351 -0.76351 h -0.76351 -0.76351 v -0.76352 -0.76351 h -0.76351 -0.76351 v -0.76351 -0.76351 h -0.76352 -0.76351 v -0.76351 -0.76352 h 0.76351 0.76352 v 0.76352 0.76351 h 0.76351 0.76351 v 0.76351 0.76351 h 1.52702 1.52703 v -0.76351 -0.76351 h -0.76351 -0.76352 v -0.76351 -0.76352 h 0.76352 0.76351 v 0.76352 0.76351 h 0.76351 0.76351 v -1.52703 -1.52702 h -0.76351 -0.76351 v -0.76351 -0.76351 h 2.29053 2.29054 v 0.76351 0.76351 h -0.76351 -0.76352 v 1.52702 1.52703 h 1.52703 1.52702 v 0.76351 0.76351 h 0.76351 0.76351 v 0.76351 0.76352 h -0.76351 -0.76351 v -0.76352 -0.76351 h -0.76351 -0.76351 v 3.05405 3.05405 h 0.76351 0.76351 v -1.52703 -1.52702 h 0.76351 0.76351 v 1.52702 1.52703 h -0.76351 -0.76351 v 0.76351 0.76351 h 0.76351 0.76351 v 0.76351 0.76351 h -0.76351 -0.76351 v 0.76352 0.76351 h 1.52702 1.52703 v 0.76351 0.76351 h 0.76351 0.76351 v -0.76351 -0.76351 h 1.52703 1.52702 v -1.52703 -1.52702 h 0.76351 0.76351 v -0.76351 -0.76351 h 0.76351 0.76352 v 0.76351 0.76351 h 0.76351 0.76351 v -0.76351 -0.76351 h 0.76351 0.76351 v 2.29053 2.29054 h -0.76351 -0.76351 v -0.76351 -0.76352 h -0.76351 -0.76351 v 0.76352 0.76351 h -0.76352 -0.76351 v 0.76351 0.76351 h -1.52702 -1.52702 v 1.52703 1.52702 h -0.76352 -0.76351 v 0.76351 0.76351 h -2.29053 -2.29054 v 0.76351 0.76352 h 3.81756 3.81756 v 1.52702 1.52702 h 0.76351 0.76351 v -0.76351 -0.76351 h 0.76351 0.76352 v -0.76351 -0.76351 h 0.76351 0.76351 v 0.76351 0.76351 h 0.76351 0.76351 v 1.52702 1.52703 h -0.76351 -0.76351 v 0.76351 0.76351 h 0.76351 0.76351 v 0.76351 0.76352 h -0.76351 -0.76351 v 0.76351 0.76351 h 0.76351 0.76351 v 0.76351 0.76351 h -1.52702 -1.52702 v -0.76351 -0.76351 h -1.52703 -1.52702 v 1.52702 1.52703 h 0.76351 0.76351 v 0.76351 0.76351 h -0.76351 -0.76351 v -0.76351 -0.76351 h -1.52702 -1.52703 v 0.76351 0.76351 h -2.29053 -2.29054 v -0.76351 -0.76351 h -0.76351 -0.76351 v 0.76351 0.76351 h -1.52703 -1.52702 v -0.76351 -0.76351 h -3.05405 -3.05404 v 0.76351 0.76351 h -0.76352 -0.76351 z m 9.16214,-1.52703 v -0.76351 h -0.76351 -0.76351 v 0.76351 0.76352 h 0.76351 0.76351 z m 3.05405,-1.52702 v -0.76351 h 0.76351 0.76351 v -0.76351 -0.76351 h -0.76351 -0.76351 v 0.76351 0.76351 h -0.76351 -0.76351 v 0.76351 0.76351 h 0.76351 0.76351 z m 6.1081,-0.76351 v -1.52702 h -1.52703 -1.52702 v 1.52702 1.52702 h 1.52702 1.52703 z m 6.10809,-2.29054 v -0.76351 h -0.76351 -0.76351 v -0.76351 -0.76351 h 0.76351 0.76351 v -1.52703 -1.52702 h -0.76351 -0.76351 v 0.76351 0.76351 h -0.76352 -0.76351 v 0.76352 0.76351 h -0.76351 -0.76351 v 0.76351 0.76351 h 0.76351 0.76351 v 0.76351 0.76352 h 1.52703 1.52702 z m -6.10809,-3.05404 v -2.29054 h -2.29054 -2.29054 v 2.29054 2.29053 h 2.29054 2.29054 z m -3.05405,0 v -0.76352 h 0.76351 0.76351 v 0.76352 0.76351 h -0.76351 -0.76351 z m -21.37833,-4.58108 v -0.76351 h -0.76351 -0.76352 v 0.76351 0.76352 h 0.76352 0.76351 z m 4.58107,0 v -0.76351 h 1.52702 1.52703 v 0.76351 0.76352 h 0.76351 0.76351 v -1.52703 -1.52702 h 0.76351 0.76351 v 0.76351 0.76351 h 0.76352 0.76351 v -1.52702 -1.52702 h -0.76351 -0.76352 v -0.76352 -0.76351 h 0.76352 0.76351 v -1.52702 -1.52703 h 0.76351 0.76351 v -0.76351 -0.76351 h 0.76351 0.76351 v 1.52702 1.52703 h -0.76351 -0.76351 v 1.52702 1.52703 h 0.76351 0.76351 v 0.76351 0.76351 h -0.76351 -0.76351 v 1.52702 1.52703 h 0.76351 0.76351 v -0.76352 -0.76351 h 0.76352 0.76351 v -1.52702 -1.52702 h 0.76351 0.76351 v -0.76352 -0.76351 h -0.76351 -0.76351 v 0.76351 0.76352 h -0.76351 -0.76352 v -1.52703 -1.52702 h 0.76352 0.76351 v -2.29054 -2.29053 h -0.76351 -0.76352 v -1.52703 -1.52702 h -0.76351 -0.76351 v 0.76351 0.76351 h -0.76351 -0.76351 v -0.76351 -0.76351 h -0.76351 -0.76352 v 0.76351 0.76351 h 0.76352 0.76351 v 2.29054 2.29053 h -1.52703 -1.52702 v -0.76351 -0.76351 h -0.76351 -0.76351 v 1.52702 1.52703 h -0.76352 -0.76351 v -0.76351 -0.76352 h -0.76351 -0.76351 v -0.76351 -0.76351 h -0.76351 -0.76352 v 0.76351 0.76351 h 0.76352 0.76351 v 0.76352 0.76351 h -0.76351 -0.76352 v 0.76351 0.76351 h 1.52703 1.52702 v 0.76351 0.76352 h -1.52702 -1.52703 v 0.76351 0.76351 h 0.76352 0.76351 v 0.76351 0.76351 h -0.76351 -0.76352 v 0.76351 0.76352 h 0.76352 0.76351 z m 1.52702,-3.05404 v -0.76351 h 0.76351 0.76352 v -1.52703 -1.52702 h 1.52702 1.52702 v 0.76351 0.76351 h -0.76351 -0.76351 v 0.76351 0.76352 h -0.76351 -0.76351 v 0.76351 0.76351 h -0.76352 -0.76351 z m 15.27024,-1.52703 v -0.76351 h -0.76351 -0.76352 v 0.76351 0.76352 h 0.76352 0.76351 z m 7.63512,-4.58107 v -0.76351 h -0.76352 -0.76351 v 0.76351 0.76351 h 0.76351 0.76352 z m -13.74322,-7.63512 v -0.76351 h -0.76351 -0.76351 v 0.76351 0.76352 h 0.76351 0.76351 z m 15.27024,30.54048 v -0.76351 h 0.76351 0.76351 v 0.76351 0.76351 h -0.76351 -0.76351 z m -4.58107,-15.27024 v -0.76351 h 1.52702 1.52703 v -0.76351 -0.76351 h 0.76351 0.76351 v -0.76352 -0.76351 h 0.76351 0.76351 v 2.29054 2.29053 h -0.76351 -0.76351 v -0.76351 -0.76351 h -0.76351 -0.76351 v 0.76351 0.76351 h -1.52703 -1.52702 z m -32.0675,-8.39863 v -1.52702 h 0.76351 0.76352 v 1.52702 1.52702 h -0.76352 -0.76351 z m 27.48643,0.76351 v -0.76351 h 0.76351 0.76351 v -0.76351 -0.76351 h 0.76351 0.76352 v 1.52702 1.52702 h -1.52703 -1.52702 z m -27.48643,-9.16214 v -5.34458 h 5.34459 5.34458 v 5.34458 5.34458 h -5.34458 -5.34459 z m 9.16214,0 v -3.81756 h -3.81755 -3.81756 v 3.81756 3.81756 h 3.81756 3.81755 z m -6.10809,0 v -2.29054 h 2.29054 2.29053 v 2.29054 2.29054 h -2.29053 -2.29054 z m 9.16214,3.81756 v -1.52702 h 0.76351 0.76352 v 1.52702 1.52702 h -0.76352 -0.76351 z m 15.27024,-3.81756 v -5.34458 h 5.34458 5.34458 v 5.34458 5.34458 h -5.34458 -5.34458 z m 9.16214,0 v -3.81756 h -3.81756 -3.81756 v 3.81756 3.81756 h 3.81756 3.81756 z m -6.10809,0 v -2.29054 h 2.29053 2.29054 v 2.29054 2.29054 h -2.29054 -2.29053 z m -18.32429,-4.58107 v -0.76351 h 0.76351 0.76352 v 0.76351 0.76351 h -0.76352 -0.76351 z m 3.05405,0 v -0.76351 h 0.76351 0.76351 v 0.76351 0.76351 h -0.76351 -0.76351 z"
           id="path132"
           inkscape:connector-curvature="0" />
      </g>
    </g>
  </g>
</svg>
