<?xml version="1.0" encoding="UTF-8" standalone="no"?>
<!-- Created with Inkscape (http://www.inkscape.org/) -->

<svg
   xmlns:dc="http://purl.org/dc/elements/1.1/"
   xmlns:cc="http://creativecommons.org/ns#"
   xmlns:rdf="http://www.w3.org/1999/02/22-rdf-syntax-ns#"
   xmlns:svg="http://www.w3.org/2000/svg"
   xmlns="http://www.w3.org/2000/svg"
   xmlns:sodipodi="http://sodipodi.sourceforge.net/DTD/sodipodi-0.dtd"
   xmlns:inkscape="http://www.inkscape.org/namespaces/inkscape"
   width="210mm"
   height="297mm"
   viewBox="0 0 210 297"
   version="1.1"
   id="svg8"
   inkscape:version="0.92.4 (33fec40, 2019-01-16)"
   sodipodi:docname="drawing.svg">
  <defs
     id="defs2" />
  <sodipodi:namedview
     id="base"
     pagecolor="#ffffff"
     bordercolor="#666666"
     borderopacity="1.0"
     inkscape:pageopacity="0.0"
     inkscape:pageshadow="2"
     inkscape:zoom="0.35"
     inkscape:cx="-1192.6655"
     inkscape:cy="-246.55052"
     inkscape:document-units="mm"
     inkscape:current-layer="layer1"
     showgrid="false"
     inkscape:window-width="1855"
     inkscape:window-height="1056"
     inkscape:window-x="65"
     inkscape:window-y="24"
     inkscape:window-maximized="1" />
  <metadata
     id="metadata5">
    <rdf:RDF>
      <cc:Work
         rdf:about="">
        <dc:format>image/svg+xml</dc:format>
        <dc:type
           rdf:resource="http://purl.org/dc/dcmitype/StillImage" />
        <dc:title></dc:title>
      </cc:Work>
    </rdf:RDF>
  </metadata>
  <g
     inkscape:label="Layer 1"
     inkscape:groupmode="layer"
     id="layer1">
    <path
       style="fill:#000000;stroke-width:0.35277775"
       d="M -461.23419,389.95673 V 254.49007 h 180.62222 180.622203 v 13.10285 13.10285 l -1.358373,2.15479 c -0.74712,1.18513 -2.99685,5.17104 -4.99947,8.85757 -4.75804,8.75902 -5.14859,9.37189 -14.45605,22.68529 -13.53208,19.3563 -17.86214,27.36978 -19.91441,36.85485 -0.41417,1.91418 -2.50698,3.65193 -7.36995,6.11958 -7.59909,3.85606 -21.94655,12.92413 -29.50435,18.64772 -5.09129,3.85567 -7.34373,6.50539 -9.89807,11.64386 -1.96617,3.95527 -2.31708,4.44284 -4.06282,5.64517 -2.67205,1.84032 -3.96918,3.38889 -6.53817,7.80556 -1.85399,3.18744 -3.07481,4.7118 -7.18736,8.97442 -2.72471,2.82414 -7.24767,7.56758 -10.05101,10.54099 -2.80335,2.97339 -7.21069,7.2281 -9.7941,9.4549 -7.70064,6.63767 -10.06437,10.07012 -12.83407,18.63681 -2.09355,6.47535 -3.57013,10.23498 -5.62765,14.32894 -4.33577,8.62713 -7.36482,11.84852 -24.50274,26.05862 -13.52571,11.21499 -13.54606,11.23466 -20.4273,19.738 -5.54245,6.84897 -9.2738,10.88224 -11.88026,12.84155 l -2.15818,1.62234 4.35648,-0.0254 4.35648,-0.0254 1.50066,-3.06337 c 2.11311,-4.3136 5.31492,-8.40644 10.55401,-13.4911 2.48504,-2.4118 6.82185,-6.69331 9.63735,-9.51448 2.8155,-2.82116 6.11031,-5.94881 7.3218,-6.95033 2.50233,-2.06862 6.93853,-4.80514 7.49109,-4.62095 0.94735,0.31578 -10.14388,13.81892 -18.20897,22.16873 -4.0942,4.23874 -6.13586,6.66105 -7.51166,8.91215 -1.9758,3.23284 -3.92047,5.28144 -5.79436,6.10404 -0.98524,0.4325 -0.34183,0.47818 5.75076,0.40831 l 6.86012,-0.0787 2.96195,-4.7625 c 4.29028,-6.89833 5.18851,-7.98551 8.18864,-9.91131 1.45521,-0.9341 3.80326,-2.4406 5.21788,-3.34776 1.4801,-0.94915 3.42712,-2.63617 4.58611,-3.97371 1.10774,-1.27837 4.33814,-4.63115 7.17868,-7.45062 5.40125,-5.3612 6.29358,-6.5988 7.89306,-10.94716 1.27664,-3.47066 2.232,-4.68858 5.16729,-6.58741 2.57517,-1.66587 3.33633,-2.63433 5.15518,-6.55922 0.76288,-1.6462 1.93692,-3.25905 3.78329,-5.19734 3.00271,-3.15219 3.26166,-3.6513 4.76714,-9.18809 1.6288,-5.9904 2.84438,-7.42008 10.05271,-11.82333 4.36976,-2.66929 11.03393,-7.35153 14.99031,-10.53216 6.04624,-4.86073 8.76743,-7.95565 18.32732,-20.84439 8.02195,-10.81526 11.79035,-15.1096 17.37443,-19.79929 3.5092,-2.94714 5.10942,-5.43714 7.56684,-11.77432 2.5079,-6.46735 4.03445,-9.42404 5.6918,-11.02409 0.72761,-0.70245 3.53832,-2.38061 6.3196,-3.77318 7.64535,-3.82796 9.69016,-6.10451 12.37521,-13.77773 1.52211,-4.34983 1.62722,-5.44377 0.94729,-9.85912 -0.73551,-4.77624 -0.5909,-8.09327 0.41206,-9.45166 0.39551,-0.53566 1.65809,-1.61545 2.80575,-2.39952 1.92358,-1.31417 2.30003,-1.81039 4.81728,-6.35 1.50185,-2.70843 2.73216,-4.81618 2.73402,-4.6839 0.002,0.13228 -0.47737,1.54442 -1.06497,3.13807 -3.26877,8.86538 -4.89333,16.44997 -5.28353,24.66725 -0.32866,6.92113 -0.78705,8.825 -3.22758,13.40555 -2.92588,5.49146 -6.543,9.44733 -11.8115,12.91764 -1.57858,1.03979 -3.35972,2.44813 -3.95809,3.12963 -1.63379,1.86079 -4.2463,5.85484 -6.92524,10.58745 -4.26533,7.53513 -5.28436,8.66851 -16.23264,18.05421 -9.15292,7.84659 -11.1735,10.67482 -16.58963,23.22079 -4.67411,10.82714 -7.4114,15.13673 -15.01279,23.63611 -9.90836,11.07888 -12.83594,14.93922 -15.78474,20.81389 -2.81824,5.61458 -3.56805,8.36321 -4.81174,17.63888 -1.86036,13.87491 -2.96201,16.79204 -8.62255,22.83206 -4.31518,4.60448 -8.52052,7.56641 -13.22675,9.31597 l -2.15178,0.79993 6.95883,0.0184 c 6.35238,0.0168 7.0595,-0.043 8.11389,-0.68585 0.63528,-0.38734 1.75037,-0.70484 2.47797,-0.70556 1.08817,-10e-4 1.32292,0.12388 1.32292,0.70424 0,0.65214 0.23365,0.7052 3.0868,0.70094 l 3.08681,-0.005 4.93889,-3.89599 c 6.17472,-4.87086 7.66155,-6.31405 9.24244,-8.97118 2.4795,-4.16751 3.07792,-4.8322 6.43768,-7.15062 10.41015,-7.18354 12.92819,-8.97413 16.77542,-11.929 5.09469,-3.913 6.49492,-5.34913 9.25801,-9.49536 2.3476,-3.52274 4.4444,-5.63427 8.91004,-8.9726 1.64924,-1.23291 5.37987,-4.66093 8.29028,-7.61783 5.52554,-5.61379 6.43456,-6.29875 17.4625,-13.15832 2.23132,-1.38792 4.85069,-3.09836 5.82083,-3.80098 4.38066,-3.17268 -3.36418,3.66739 -11.53521,10.18764 -12.63904,10.08558 -14.74408,12.18584 -18.79542,18.75267 -1.78083,2.88656 -4.6886,6.00571 -10.29466,11.04301 -2.38312,2.14134 -4.65094,4.77844 -8.64305,10.05043 -8.51606,11.24631 -11.51491,14.54039 -16.80952,18.46444 -1.02977,0.76321 -2.81773,2.53859 -3.97325,3.94529 l -2.10094,2.55764 h 7.02775 7.02777 l 2.50492,-3.28916 c 1.37771,-1.80904 3.52148,-5.1031 4.76395,-7.32014 3.62082,-6.46095 3.72057,-6.58867 7.8549,-10.05745 4.77696,-4.00796 5.63636,-5.08461 6.16676,-7.72563 0.6449,-3.21123 2.04358,-4.93683 6.29073,-7.7611 3.67129,-2.44134 8.96357,-7.39548 16.59573,-15.53537 3.13778,-3.34653 5.45474,-5.28727 11.762,-9.85211 8.00215,-5.79151 9.45733,-7.40357 12.91408,-14.30626 2.50397,-5.00013 4.38918,-7.78686 7.39821,-10.93611 3.58127,-3.74817 7.30561,-8.22067 9.36192,-11.24263 l 1.76389,-2.5922 0.093,11.70641 c 0.0849,10.69365 0.0371,11.83382 -0.55242,13.17921 -0.35496,0.81005 -1.25031,3.35211 -1.98966,5.64902 -1.43764,4.46618 -2.6978,6.53838 -4.79774,7.88947 -2.82779,1.81938 -2.80734,1.79292 -2.80734,3.63281 0,2.64378 -0.5244,3.36893 -4.21393,5.82713 -7.28557,4.85411 -13.92862,10.75292 -25.4193,22.57149 -3.39554,3.49243 -10.94024,11.1918 -16.766,17.10972 -5.82575,5.91791 -10.95625,11.27578 -11.4011,11.90637 l -0.80882,1.14653 h 4.25736 4.25735 v -0.86228 c 0,-1.26033 1.21411,-2.47029 4.55107,-4.53552 2.77313,-1.71628 3.08034,-2.03043 4.78043,-4.88846 2.11486,-3.55529 2.04555,-3.4672 8.46494,-10.75944 6.08055,-6.90731 9.12683,-9.9141 12.34319,-12.18318 2.54139,-1.7929 5.13815,-3.2743 5.13815,-2.93121 0,0.1047 -1.1351,1.49699 -2.52245,3.09397 -3.09004,3.55699 -4.33282,5.45994 -5.09759,7.80546 -0.68809,2.11031 -1.06472,2.64913 -2.1366,3.05666 -1.16222,0.44188 -1.88003,1.76195 -2.1224,3.90313 -0.21199,1.87284 -3.38242,10.42016 -5.18347,13.97436 -0.51032,1.00706 -1.42084,2.3925 -2.02338,3.07876 l -1.09553,1.24775 h 2.97939 2.9794 l 2.38065,-4.45587 c 4.11369,-7.6996 7.60279,-13.61123 9.75876,-16.53441 4.26287,-5.77985 6.24345,-8.96614 7.31099,-11.76175 2.34967,-6.15316 6.6658,-11.0576 15.7625,-17.91097 l 3.88056,-2.92358 0.0997,4.07962 0.0998,4.07963 -2.155153,2.13518 c -3.63693,3.60324 -5.70689,7.04426 -12.91469,21.46886 -2.58271,5.16865 -5.51613,10.62398 -6.51871,12.12296 -2.36915,3.54218 -5.97104,7.11594 -8.61165,8.5444 l -2.10207,1.13712 6.9072,0.009 6.90719,0.009 2.16336,-3.79236 c 2.43569,-4.26976 3.56508,-6.66385 7.49005,-15.87742 1.50904,-3.54234 3.25392,-7.23574 3.87756,-8.20757 1.09012,-1.69884 4.00251,-4.5782 4.6307,-4.5782 0.16672,0 0.303113,6.33919 0.303113,14.08709 v 14.08708 l -0.970143,0.68351 c -1.51282,1.06586 -3.96177,2.24603 -6.08542,2.93262 l -1.94028,0.62731 4.49792,0.019 4.497923,0.019 v 1.05833 1.05833 H -280.61197 -461.23419 V 389.95678 Z m 9.59888,125.3243 c 2.98057,-10.13251 3.28802,-11.38208 3.98983,-16.21624 0.81363,-5.60438 0.67478,-6.08959 -0.98759,-3.45112 -0.73348,1.16417 -2.61755,4.68789 -4.18681,7.8305 -1.57616,3.15642 -3.62404,6.67043 -4.57542,7.85108 l -1.72222,2.13725 v 4.93711 4.93712 h 2.56069 2.56068 z m 14.69275,4.22655 c 1.42454,-4.55199 3.8842,-9.88497 6.22043,-13.48696 2.20812,-3.40449 8.49471,-9.66033 11.39277,-11.33704 1.21953,-0.70558 3.60078,-1.88701 5.29167,-2.6254 8.45837,-3.69369 14.19512,-9.07317 23.18592,-21.74196 2.1055,-2.96682 4.43969,-6.22765 5.18709,-7.2463 0.74739,-1.01864 1.28046,-1.85208 1.18458,-1.85208 -0.0959,0 -5.14133,2.51149 -11.21212,5.58109 -11.20502,5.66564 -16.50586,8.05287 -16.50586,7.43342 0,-0.18844 0.32954,-0.98858 0.73232,-1.77809 0.40278,-0.78951 1.36206,-3.26176 2.13173,-5.4939 1.75984,-5.10372 3.11545,-7.8069 5.28989,-10.54839 1.70332,-2.14752 10.05411,-10.41634 13.40795,-13.27634 0.96549,-0.82332 4.30898,-4.33342 7.42998,-7.80021 l 5.67454,-6.30325 2.75612,0.24042 c 3.11947,0.27212 3.52214,0.13389 5.84365,-2.006 0.84513,-0.77901 1.5366,-1.32176 1.5366,-1.2061 0,0.11566 -1.88362,3.66807 -4.1858,7.89424 -2.3022,4.22617 -4.78484,8.87457 -5.51699,10.32978 -2.31249,4.59624 -3.77898,9.17222 -2.93947,9.17222 0.64818,0 5.10949,-3.81722 6.95209,-5.94841 2.99929,-3.46902 5.56278,-7.31611 7.72664,-11.59551 3.51029,-6.94221 4.56808,-10.26332 5.76065,-18.08663 1.93356,-12.68422 3.28052,-15.06298 12.97264,-22.90999 2.83767,-2.29746 5.60257,-4.67675 6.14423,-5.28731 0.81313,-0.91658 1.21586,-1.09647 2.31012,-1.03191 0.72892,0.043 1.49292,-0.0254 1.69777,-0.15199 0.20485,-0.1266 1.12075,-1.74796 2.03534,-3.60301 1.65128,-3.34927 2.25177,-4.15687 8.13199,-10.93663 4.19402,-4.83559 9.47668,-11.90095 12.49568,-16.71247 2.83779,-4.52271 3.37452,-5.21705 6.7216,-8.69528 3.26751,-3.39554 7.45429,-7.12157 12.89489,-11.4758 2.52236,-2.0187 5.69837,-4.62636 7.05778,-5.79479 3.49054,-3.00016 3.91632,-3.31997 3.53292,-2.6536 -0.65513,1.13865 -7.31886,9.70799 -13.03061,16.75695 -5.82785,7.19224 -8.70619,10.9663 -19.78509,25.9421 -5.80941,7.85283 -12.15614,14.78772 -16.98285,18.5567 -6.1234,4.78149 -9.70217,9.68695 -11.42433,15.65946 -0.59315,2.05702 -0.7866,3.82557 -0.88055,8.05 -0.14786,6.64845 0.086,6.20882 -7.95036,14.94647 -2.94143,3.19811 -4.26914,5.00601 -6.31684,8.6014 -12.30369,21.60304 -20.42282,33.19588 -29.99923,42.83415 -6.24853,6.28891 -11.93554,10.55207 -20.68725,15.50784 -5.28353,2.99186 -8.23904,5.21855 -10.17853,7.66853 -0.88893,1.12292 -2.98206,4.74042 -4.6514,8.03889 -3.38358,6.68569 -4.49333,8.48364 -6.58679,10.67153 l -1.4346,1.49931 h 3.89838 3.89837 l 1.33897,-2.91042 c 5.91343,-12.85366 7.77053,-16.04313 11.03575,-18.95337 2.14512,-1.91192 5.93408,-3.99639 11.54904,-6.35363 1.94028,-0.81456 4.19105,-1.86324 5.00171,-2.33041 1.9016,-1.09585 1.98536,-1.07483 1.18389,0.29713 -1.44023,2.46539 -2.22335,5.27411 -3.36563,12.07105 -0.65356,3.88889 -1.30199,7.3874 -1.44097,7.77448 -0.75621,2.10623 -3.47453,8.2716 -4.08214,9.25864 l -0.70579,1.14653 h 1.55997 1.55997 l 1.66814,-2.91042 c 2.68206,-4.67944 6.23075,-12.15087 10.26294,-21.60764 9.51443,-22.31444 10.49679,-23.80593 23.17093,-35.17978 12.21979,-10.96611 14.43255,-14.63988 19.39105,-32.1942 2.16872,-7.6778 3.82581,-12.50804 5.50517,-16.04696 2.39067,-5.03785 11.80168,-18.19626 23.725,-33.17211 6.72851,-8.4511 7.15972,-9.0953 11.1509,-16.65893 4.43351,-8.40187 5.17486,-9.34424 10.60905,-13.48576 5.78315,-4.40747 6.4052,-4.99186 9.03124,-8.48447 2.64058,-3.51194 5.34083,-9.04034 6.11694,-12.52361 0.32425,-1.45521 0.83334,-3.02007 1.13134,-3.47747 0.29799,-0.4574 1.74269,-1.67353 3.21044,-2.7025 2.89722,-2.03111 9.36114,-7.7265 12.97352,-11.43101 3.26043,-3.3436 5.3892,-6.77811 7.73494,-12.47934 1.13397,-2.75609 2.92569,-6.67795 3.9816,-8.71524 4.76811,-9.19966 5.99502,-11.9228 7.93453,-17.61078 2.8699,-8.41655 3.29046,-8.99744 12.37737,-17.09585 l 1.41111,-1.25761 -9.78958,-0.01 c -8.12062,-0.008 -9.78959,0.0739 -9.78959,0.48016 0,1.32803 -1.98271,7.05888 -3.48856,10.08334 -2.93157,5.888 -6.7177,11.12094 -14.68382,20.29501 -10.19457,11.74044 -12.17636,14.90108 -19.92005,31.76936 -5.49505,11.96999 -7.60474,15.4158 -11.26259,18.39546 -2.26698,1.84666 -5.73344,3.65683 -8.56673,4.47349 -1.78264,0.51382 -2.27458,0.8823 -4.40972,3.30308 -1.32179,1.4986 -3.43512,3.67985 -4.6963,4.84722 -7.16343,6.6306 -9.07919,9.13554 -15.51805,20.29055 -6.36192,11.02172 -6.8997,11.64644 -14.12917,16.41332 -4.31197,2.84318 -6.26607,4.98923 -10.76037,11.81738 -4.99623,7.59074 -6.47234,8.97419 -12.86185,12.05465 -2.81341,1.35637 -5.94982,2.87482 -6.96981,3.37432 -3.40651,1.6682 -5.70876,3.90343 -10.3163,10.01593 -6.13945,8.14477 -8.02598,10.27824 -23.81664,26.93413 -4.41477,4.65666 -9.88678,10.60979 -12.16004,13.22916 -8.47172,9.7616 -13.64606,13.79079 -17.8383,13.89044 -1.0245,0.0243 -1.97586,-0.0683 -2.11414,-0.20594 -0.51505,-0.5126 1.90697,-6.34588 6.10037,-14.69242 4.70117,-9.35719 5.58974,-11.78859 7.84839,-21.47572 1.77913,-7.63046 2.43479,-9.97191 2.79238,-9.97191 0.15019,0 0.51666,0.27781 0.81437,0.61736 1.15335,1.3154 1.76527,3.11438 1.93838,5.69861 0.17345,2.58937 0.008,3.86846 -1.81131,13.96499 -0.27926,1.55015 -0.42904,2.89716 -0.33286,2.99334 0.0962,0.0962 0.48244,-0.21963 0.85834,-0.7018 1.44563,-1.85429 3.16684,-5.85384 5.04695,-11.72747 2.47035,-7.71764 3.52238,-9.42657 7.95611,-12.924 8.75365,-6.90506 15.2379,-13.44495 19.72337,-19.89258 3.35708,-4.82563 5.30581,-7.17066 8.5768,-10.32101 3.57232,-3.44055 5.88595,-5.25971 12.99838,-10.22034 9.15351,-6.3842 10.63288,-7.94203 12.03908,-12.67754 0.40647,-1.3688 0.95213,-2.903 1.21259,-3.40934 0.26046,-0.50634 2.74595,-3.20509 5.52332,-5.99722 8.57259,-8.61818 13.6499,-14.83814 28.27608,-34.6396 9.91069,-13.41746 10.22248,-13.87917 17.43828,-25.82312 9.97368,-16.50892 13.92352,-22.08181 20.31853,-28.66772 2.31036,-2.37933 4.26412,-4.26259 4.34169,-4.18502 0.0776,0.0776 -0.67481,1.38929 -1.67197,2.91494 -2.5672,3.92786 -4.50802,8.16759 -5.44926,11.90394 -0.8402,3.33523 -1.46347,7.62691 -1.10765,7.62691 0.36972,0 1.54716,-2.61552 2.80766,-6.23685 2.449,-7.03579 3.67695,-8.58697 10.21595,-12.90512 4.14727,-2.73872 4.91811,-3.50184 8.09366,-8.01263 1.47871,-2.10045 2.35812,-2.94307 4.32505,-4.14402 1.35791,-0.82911 3.23324,-2.16061 4.1674,-2.95889 1.74706,-1.49294 4.47514,-4.71489 4.47514,-5.28527 0,-0.17661 -1.87344,-0.3211 -4.16321,-0.3211 h -4.16321 l -4.22945,4.32152 c -2.3262,2.37684 -4.89222,5.11528 -5.70225,6.08542 -1.34094,1.60597 -1.47359,1.68493 -1.48167,0.88194 -0.0115,-1.14811 1.23341,-3.78184 3.27865,-6.93601 0.90095,-1.38946 1.79436,-2.93727 1.98534,-3.43958 l 0.34723,-0.91329 h -2.38258 -2.38259 l -2.45938,4.99825 c -2.86076,5.814 -5.56005,10.27067 -7.82984,12.92749 -0.88495,1.03584 -4.563,4.39203 -8.17343,7.45818 -8.64969,7.34573 -12.0123,10.87171 -17.82869,18.69491 -5.67566,7.63391 -7.01033,9.79817 -9.38427,15.21725 -3.41437,7.79412 -6.31393,12.05481 -10.20877,15.00108 -4.87605,3.68851 -9.62943,8.05232 -16.22986,14.89973 -6.97695,7.23803 -9.06021,8.87533 -11.29272,8.87533 -1.63632,0 -5.06188,1.04049 -7.75359,2.3551 -1.94596,0.95039 -3.24232,1.92468 -4.96565,3.73198 l -2.33219,2.44581 -2.71457,0.1216 c -4.44339,0.19902 -9.89749,1.89519 -18.00164,5.59832 -1.52794,0.69817 -2.85998,1.2694 -2.96008,1.2694 -0.10011,0 0.5944,-0.67094 1.54334,-1.49099 0.94895,-0.82004 4.26647,-3.95536 7.37227,-6.96736 6.02191,-5.84005 7.02075,-6.65466 14.02016,-11.4342 8.87098,-6.05755 10.78701,-7.94174 16.1701,-15.9014 1.43858,-2.12716 3.96499,-5.30223 5.61422,-7.05569 1.64924,-1.75347 4.08298,-4.41095 5.40833,-5.90551 1.9327,-2.17946 2.92891,-2.97392 5.03258,-4.01336 3.20071,-1.5815 4.68433,-3.14036 10.15796,-10.67314 4.86969,-6.70163 6.77259,-8.61951 14.50252,-14.61674 6.04068,-4.68662 10.59471,-8.99158 18.29555,-17.29488 2.30143,-2.48149 5.72593,-5.76016 7.61,-7.28593 5.35794,-4.33901 8.10646,-7.77442 8.12976,-10.16148 0.008,-0.77024 -0.0957,-0.79375 -3.48613,-0.79375 h -3.49388 l -4.88459,3.5795 c -14.90128,10.91987 -29.4176,22.64115 -45.98321,37.12937 -4.17159,3.64847 -8.71889,7.60997 -10.10509,8.80333 -2.91797,2.51202 -3.64289,3.62965 -4.86633,7.50252 -0.57516,1.8207 -1.22554,3.12932 -1.83108,3.6843 -0.51651,0.47339 -3.58726,4.04028 -6.8239,7.92643 -7.15074,8.58574 -8.81579,10.03605 -11.53999,10.05173 -4.18309,0.0241 -9.28306,5.26652 -11.55406,11.87683 -1.76825,5.14692 -2.54661,6.32817 -7.27341,11.03819 -2.43947,2.43081 -4.88633,5.21293 -5.43747,6.18247 -0.55113,0.96955 -3.18516,5.41407 -5.85339,9.8767 -7.69625,12.87207 -9.97116,17.52414 -11.67438,23.87348 -0.62379,2.32539 -0.79223,3.9302 -0.80821,7.70013 -0.0183,4.32123 0.0736,5.04851 0.99162,7.84931 0.55649,1.69774 1.11211,3.07832 1.23472,3.06796 0.50339,-0.0426 8.06726,-16.05117 9.82539,-20.79504 2.56768,-6.92825 5.00376,-11.77238 7.10694,-14.13209 1.90185,-2.13383 2.99864,-2.72101 12.5223,-6.70396 4.08296,-1.70756 6.34455,-2.93568 10.22281,-5.55131 2.73898,-1.84726 5.79401,-3.73134 6.78894,-4.18684 2.26231,-1.03572 5.24809,-1.58311 6.80152,-1.24695 l 1.18665,0.2568 -2.16915,1.70418 c -3.87961,3.04799 -10.18897,9.74102 -18.10738,19.20848 -4.26901,5.10413 -9.63341,11.23407 -11.92089,13.62207 -4.10832,4.28886 -7.01289,8.03075 -17.62045,22.70008 -3.1896,4.41093 -5.55509,7.37238 -5.74059,7.18688 -1.13531,-1.13531 -0.93562,-5.38511 0.44105,-9.38648 0.39016,-1.13402 0.70939,-2.0961 0.70939,-2.13794 0,-0.0418 -0.62811,-0.17651 -1.3958,-0.29927 -2.96449,-0.47404 -4.7712,-3.64216 -6.01443,-10.54649 -0.38631,-2.14539 -0.77821,-3.97652 -0.87089,-4.0692 -0.29163,-0.29163 -1.25544,0.70327 -2.82111,2.91211 -3.96027,5.58718 -5.1007,9.56683 -6.90309,24.08899 -1.2353,9.95301 -1.96982,13.69492 -3.42276,17.4367 -2.28834,5.89322 -6.17063,9.78456 -9.79275,9.81559 -1.55094,0.0133 -2.87178,0.95653 -7.21417,5.15183 l -3.89833,3.76627 0.0207,8.33236 c 0.0164,6.59985 0.10813,8.19047 0.44098,7.64996 1.31605,-2.1371 3.37218,-3.84859 6.47281,-5.38782 1.81129,-0.89917 3.40472,-1.5234 3.54094,-1.38719 0.42198,0.42199 -0.54726,5.05634 -1.66212,7.94727 -1.0623,2.75464 -4.55369,8.90605 -7.35008,12.94998 l -1.48739,2.15095 0.10026,4.02266 0.10025,4.02266 2.49589,-3.35139 c 1.37275,-1.84326 3.97662,-5.55145 5.78639,-8.2404 3.96564,-5.89217 8.31573,-10.60604 11.19513,-12.13136 1.12312,-0.59495 4.66141,-1.98998 7.86286,-3.10004 7.03485,-2.43926 9.93158,-3.84769 11.95779,-5.81407 1.18985,-1.15472 1.60239,-1.37941 1.84593,-1.00545 1.5646,2.40254 -0.3992,6.12131 -8.35813,15.82743 -6.78125,8.2699 -8.62059,10.96188 -8.62059,12.61667 0,1.26747 -1.77892,4.1773 -4.2565,6.96249 -3.39047,3.81143 -4.74097,5.88799 -5.74013,8.82621 -1.0213,3.00331 -2.18117,5.36586 -3.15745,6.43143 l -0.72724,0.79375 5.26497,-0.007 5.26497,-0.007 z M -278.45809,319.1366 c 3.30678,-6.0363 7.94854,-13.19193 13.67333,-21.07847 1.26759,-1.74625 4.03191,-5.63563 6.14292,-8.64306 2.11103,-3.00743 3.9719,-5.6063 4.13529,-5.77527 0.16339,-0.16897 0.1451,0.36913 -0.0406,1.19578 -1.98019,8.81316 -9.71181,22.01726 -18.12592,30.95553 -2.70945,2.87823 -6.40914,6.07951 -7.02603,6.07951 -0.14119,0 0.41728,-1.23031 1.24104,-2.73402 z m -111.49379,201.46092 c 3.54258,-3.38456 6.89661,-7.51355 11.98428,-14.75329 7.17006,-10.20296 11.95115,-15.79905 16.4903,-19.30124 1.02358,-0.78975 1.78974,-1.50722 1.70258,-1.59438 -0.0872,-0.0872 -1.44429,0.16668 -3.01584,0.56409 -3.87029,0.97871 -7.38108,2.89748 -10.03383,5.48383 -2.21609,2.16062 -10.97707,13.57961 -14.93647,19.46809 -3.68327,5.4778 -7.3889,9.89314 -9.97333,11.88342 l -1.23472,0.95086 3.09067,0.004 3.09067,0.004 2.83569,-2.7092 z m 23.807,0.87698 c 0.76747,-1.00772 4.94531,-5.49241 9.28406,-9.96597 13.06712,-13.4731 14.42287,-15.33216 21.62507,-29.65319 2.53705,-5.04472 5.32685,-10.23979 6.19956,-11.5446 5.53035,-8.26855 15.80313,-17.68936 23.20061,-21.27648 3.15117,-1.52804 7.40864,-2.92676 7.77955,-2.55585 0.10633,0.10633 -0.92946,1.74351 -2.30174,3.63817 -6.85327,9.462 -8.80325,14.04405 -10.40952,24.46022 -1.87336,12.14821 -4.67588,19.48833 -10.45654,27.38687 -1.59236,2.17576 -2.69947,4.36672 -4.53647,8.97771 -2.07323,5.20389 -3.96535,8.78759 -5.64393,10.68965 l -1.47881,1.6757 h 4.20876 4.20876 l 1.87029,-3.08681 c 1.02867,-1.69774 3.16663,-4.99181 4.75104,-7.32014 8.94165,-13.14 11.69098,-19.23223 12.73215,-28.21304 0.89083,-7.68411 2.44211,-12.29043 5.9182,-17.57331 4.26108,-6.47589 10.1027,-10.81346 17.25638,-12.81336 12.73456,-3.56011 18.84973,-5.77352 27.65394,-10.00948 6.50168,-3.12814 10.91253,-5.645 16.71043,-9.53507 2.23132,-1.49709 6.43241,-4.27798 9.33576,-6.17977 7.12415,-4.66654 9.6257,-7.19115 12.28926,-12.40253 2.68149,-5.24647 4.66059,-10.39441 7.43414,-19.33732 3.59518,-11.59217 4.28621,-13.35208 6.69167,-17.0424 3.09807,-4.7529 7.00836,-7.62113 12.57971,-9.22735 11.07819,-3.19384 17.90134,-8.24827 31.70678,-23.48761 4.74673,-5.23975 5.52317,-6.2761 10.70398,-14.28729 3.60288,-5.57121 5.45562,-7.32959 11.47922,-10.89463 6.72932,-3.9827 8.61782,-5.68747 9.61289,-8.67768 0.60885,-1.8296 1.12932,-2.63278 2.56941,-3.96508 4.99134,-4.61774 5.64722,-5.61192 9.21871,-13.9736 1.79502,-4.20257 4.94361,-13.23707 4.69859,-13.48209 -0.0858,-0.0858 -1.00127,0.99758 -2.03435,2.40753 -2.70057,3.6857 -12.87246,13.68124 -17.69435,17.38757 -2.26658,1.7422 -5.7398,4.04076 -7.71827,5.10791 -4.26693,2.30152 -6.20952,3.95766 -9.3309,7.95505 -2.75701,3.53075 -4.91395,5.27075 -7.44628,6.00692 -2.29758,0.66793 -3.28538,1.73919 -6.18141,6.70374 -1.76093,3.0187 -2.72857,4.21997 -5.27101,6.54366 -3.48514,3.18529 -5.36172,5.47397 -7.04949,8.59757 -4.13425,7.65139 -8.33226,12.45024 -20.43852,23.36381 l -7.58472,6.8375 -0.11308,-1.31445 c -0.26174,-3.04232 1.68761,-6.00308 6.5392,-9.93204 4.03188,-3.26514 5.44713,-4.76353 11.64821,-12.3326 7.35195,-8.9738 11.92076,-15.46488 20.33199,-28.8864 2.08065,-3.32002 4.65012,-7.08765 5.70993,-8.37251 3.58815,-4.35007 9.25709,-8.52562 19.73653,-14.53724 14.11049,-8.0946 19.83749,-12.85168 24.28379,-20.17107 0.70489,-1.16039 2.2497,-4.55371 3.4329,-7.54073 2.69345,-6.79962 3.92087,-9.11501 6.09056,-11.48897 l 1.71771,-1.87946 h -3.22682 -3.22679 l -0.60095,1.08271 c -1.69626,3.05607 -6.99106,10.82135 -9.60513,14.08674 -3.60437,4.50241 -12.88602,13.88899 -16.74861,16.93793 -1.55222,1.22525 -6.71159,4.80533 -11.46527,7.95573 -4.75368,3.1504 -9.95977,6.79242 -11.56909,8.09338 -6.01045,4.85881 -9.93685,10.37018 -18.59646,26.10323 -5.67781,10.31564 -6.47525,11.43769 -10.32203,14.52378 -5.22281,4.19 -5.82534,4.96008 -7.62791,9.74909 -1.24878,3.3177 -2.54444,5.06474 -4.95871,6.68625 -8.88175,5.96529 -16.76217,14.40696 -19.74467,21.15092 -1.09614,2.47857 -1.7422,5.72077 -1.49207,7.48777 0.11155,0.78801 0.79148,2.86149 1.51096,4.60774 0.71948,1.74625 1.37795,3.98713 1.46327,4.97973 l 0.15513,1.80472 -2.5974,2.88694 c -5.47376,6.08394 -5.82529,6.59384 -8.5351,12.38031 -2.59827,5.54829 -12.56966,13.76828 -23.95756,19.74959 -5.57883,2.93019 -8.40242,3.89494 -17.02789,5.81801 -8.66916,1.9328 -12.78078,3.22597 -16.32994,5.136 -1.41643,0.76227 -2.45919,1.18979 -2.31725,0.95004 0.84273,-1.42336 4.1818,-5.69585 5.91211,-7.56479 3.91389,-4.22747 8.57928,-7.06172 16.44296,-9.98919 7.74023,-2.88151 14.3374,-6.7639 20.54909,-12.093 3.71073,-3.18349 5.22634,-4.94172 6.37532,-7.39586 1.40871,-3.0089 1.71208,-5.2642 1.95665,-14.54583 l 0.23239,-8.81945 1.09271,-2.31577 c 1.29739,-2.74955 4.41086,-6.20203 8.41841,-9.33504 3.69796,-2.89098 6.38871,-5.74782 10.29172,-10.92696 1.75464,-2.32834 5.82096,-7.44138 9.03628,-11.36233 13.28391,-16.1992 14.45909,-18.13853 19.19511,-31.67656 2.16435,-6.18683 4.08554,-9.48235 7.50655,-12.87639 1.66234,-1.64923 3.95586,-3.78303 5.09669,-4.74176 2.2627,-1.90152 4.59384,-4.95009 8.67406,-11.34353 2.17001,-3.40028 3.60276,-5.10232 7.96691,-9.46431 2.9266,-2.92515 7.39229,-7.85845 9.92376,-10.9629 2.53148,-3.10444 6.01074,-7.00133 7.7317,-8.65976 2.9892,-2.88058 6.7214,-5.85853 6.99549,-5.58176 0.071,0.0717 -0.97839,1.47979 -2.33206,3.12903 -1.35367,1.64923 -6.28908,7.99923 -10.96759,14.11111 -14.02597,18.32312 -18.59502,23.88796 -26.49272,32.26656 -3.54124,3.75686 -4.30857,4.72491 -3.23243,4.078 20.85265,-12.53537 30.63667,-21.46313 35.88535,-32.7448 0.81884,-1.76005 2.38635,-4.25044 3.67265,-5.83494 1.56107,-1.923 2.41354,-3.34727 2.80085,-4.6796 0.3396,-1.16815 1.34425,-2.97965 2.57554,-4.64398 1.11033,-1.50081 2.14755,-2.94002 2.30494,-3.19825 0.25604,-0.42004 1.22347,-4.06917 1.25504,-4.73397 0.007,-0.14552 -2.49976,-0.26458 -5.57038,-0.26458 -5.56771,0 -5.58529,0.002 -6.4382,0.92269 -0.47038,0.50748 -2.99836,2.83397 -5.61774,5.16999 -15.14482,13.5065 -15.65105,14.03749 -20.65413,21.66449 -2.04151,3.1122 -3.77686,5.19778 -6.84475,8.22616 -2.26042,2.23132 -5.4653,5.88257 -7.12196,8.11389 -3.43211,4.62266 -5.06075,6.3774 -7.79121,8.39452 -3.70799,2.73925 -4.69685,4.43201 -6.46191,11.06175 -0.67973,2.55314 -1.52812,5.29213 -1.8853,6.08665 -1.6642,3.70186 -9.42692,14.46221 -18.22094,25.25708 -19.14828,23.50494 -20.27008,25.22272 -29.37397,44.97916 -2.50345,5.43278 -4.95817,10.67153 -5.45492,11.64167 -2.22984,4.35473 -5.62054,6.82852 -14.84693,10.83205 -7.6576,3.3228 -11.19665,5.60917 -18.22174,11.77198 -9.96611,8.74283 -14.01714,11.18784 -23.58284,14.23347 -9.8354,3.1315 -13.28621,5.08051 -18.15067,10.25145 -4.00718,4.25966 -6.52845,8.31968 -11.73798,18.90171 -4.92549,10.0051 -7.93628,15.0559 -10.68067,17.91758 -0.90249,0.94105 -3.63753,3.26848 -6.07787,5.17206 -6.05446,4.72274 -7.41094,6.3089 -9.95261,11.63775 -2.3536,4.93456 -4.21267,7.6071 -6.212,8.93019 -0.95252,0.63035 -1.41626,1.23474 -1.58156,2.06126 -0.12863,0.64317 -0.71409,1.76696 -1.30102,2.49731 l -1.06714,1.32791 h 2.94275 2.94274 z m 13.45677,-0.31752 c 1.90347,-1.18237 3.84106,-2.49205 4.30573,-2.91042 1.13983,-1.02622 3.63653,-6.33915 5.1497,-10.95847 0.68056,-2.07755 1.23026,-3.96671 1.22157,-4.19812 -0.009,-0.23141 -0.68338,0.31274 -1.49931,1.20922 -9.43696,10.36868 -16.12377,18.13288 -16.12377,18.72167 0,0.15723 0.78417,0.28587 1.74261,0.28587 1.51902,0 2.18665,-0.27582 5.20347,-2.14975 z m 47.76502,1.18745 c 0.20123,-0.52927 0.50078,-2.51546 0.66567,-4.41376 0.53418,-6.14987 2.41984,-8.23011 16.23711,-17.91272 5.45235,-3.8208 8.39864,-6.82381 12.09047,-12.32324 4.03346,-6.0083 5.59861,-7.56173 9.52307,-9.4517 7.52716,-3.62499 13.64726,-9.08389 17.14174,-15.28981 0.60974,-1.08284 1.10861,-2.07118 1.10861,-2.19631 0,-0.12514 -1.52468,0.96432 -3.38819,2.42101 -1.8635,1.4567 -5.71319,4.01742 -8.55486,5.69049 -2.84167,1.67307 -6.43667,3.80085 -7.98889,4.72839 -1.55223,0.92754 -2.87079,1.55104 -2.93015,1.38554 -0.1787,-0.49825 1.86345,-4.2445 3.84947,-7.0617 2.46742,-3.50008 7.17717,-8.32845 15.10016,-15.48051 4.16613,-3.76076 6.29102,-5.9022 5.92698,-5.97315 -0.85401,-0.16644 -8.61902,2.52099 -11.5823,4.00857 -6.66882,3.34779 -11.53729,7.90761 -16.36599,15.32842 -10.93332,16.80249 -12.53588,18.86829 -17.13985,22.09438 -2.75072,1.92748 -3.56465,2.93338 -5.62054,6.9462 -0.47911,0.93518 -2.11614,3.15768 -3.63784,4.93889 -5.91045,6.91846 -7.48839,9.7548 -8.82553,15.86382 -0.50062,2.28721 -1.23248,4.88708 -1.62634,5.77748 -0.39387,0.89041 -0.71613,1.67811 -0.71613,1.75046 0,0.0723 1.43268,0.13155 3.18373,0.13155 3.14228,0 3.1885,-0.0125 3.5496,-0.9623 z m 59.09324,0.20315 c 0.94239,-1.06455 4.66242,-3.41778 8.5904,-5.43416 8.29815,-4.25975 11.96877,-10.76269 13.92779,-24.67475 0.53093,-3.77047 1.27373,-12.04158 1.24811,-13.89776 l -0.0127,-0.9189 -0.85613,1.04766 c -1.24024,1.5177 -3.6847,6.61586 -6.17907,12.88706 -5.1306,12.89901 -8.0277,16.94139 -15.92958,22.22687 -5.77922,3.86567 -11.93198,6.60682 -20.40151,9.08921 -0.9193,0.26944 1.34229,0.37109 8.85296,0.3979 9.90406,0.0354 10.09992,0.0222 10.75972,-0.72313 z m 73.22825,-1.48014 c 0.31521,-4.9503 3.77927,-9.27168 13.90959,-17.35207 9.38143,-7.48304 11.42203,-9.35537 16.28771,-14.94455 2.63551,-3.0274 8.16699,-8.83812 12.29216,-12.9127 4.54641,-4.49066 8.00695,-8.21874 8.78672,-9.46605 0.70753,-1.13175 1.225,-2.11914 1.14994,-2.1942 -0.0751,-0.0751 -1.31867,0.91009 -2.76358,2.18922 -6.91987,6.12592 -8.38279,7.1989 -12.73662,9.34163 -2.3949,1.17865 -4.87203,2.53277 -5.50473,3.00915 -0.63269,0.47639 -4.21743,4.23021 -7.96609,8.34181 -8.20425,8.99861 -9.91421,10.59433 -13.90973,12.98042 -4.15545,2.48159 -7.58259,5.02438 -8.63517,6.4069 -1.33596,1.75472 -2.21486,3.66343 -3.7889,8.22833 -1.70912,4.95664 -2.8302,6.99793 -4.35327,7.92663 l -1.1187,0.68213 4.10404,10e-4 4.10405,0.001 0.14258,-2.23929 z m -177.71371,-31.45099 c 0.84499,-1.74625 2.18135,-4.53777 2.9697,-6.20338 0.78834,-1.6656 2.53344,-4.418 3.878,-6.11643 2.41317,-3.04832 4.895,-7.03301 8.49777,-13.64358 3.4577,-6.34436 8.8605,-12.71187 16.04566,-18.9107 2.154,-1.85832 9.2345,-7.35396 15.73443,-12.21251 6.49993,-4.85856 12.77236,-9.7997 13.93873,-10.9803 1.70026,-1.72101 2.6611,-3.20326 4.8467,-7.47684 3.13013,-6.12046 4.35749,-7.86289 9.65655,-13.70903 4.67303,-5.15548 5.9106,-6.8432 8.01922,-10.93611 2.14147,-4.15669 4.4514,-7.17691 8.26116,-10.80144 4.99084,-4.74817 10.66101,-8.33092 16.93155,-10.69833 3.06016,-1.15535 4.08046,-2.10619 6.19634,-5.7745 1.91552,-3.32094 3.15284,-4.46788 6.9527,-6.44478 5.92481,-3.08243 8.9127,-7.10258 13.7438,-18.49206 3.49134,-8.23095 4.68991,-10.04498 11.31354,-17.1229 5.87517,-6.27816 7.33928,-8.14331 9.68196,-12.33405 2.26511,-4.05196 6.22735,-9.80929 10.56114,-15.34583 8.27053,-10.56584 11.10668,-14.72537 14.67288,-21.51944 2.91524,-5.5539 6.13826,-10.72243 8.04829,-12.90649 l 1.53708,-1.7576 -4.00469,0.1001 -4.00468,0.1001 -4.46728,7.05556 c -16.16278,25.52728 -21.47222,31.79526 -33.98916,40.12537 -12.16765,8.09765 -15.93785,12.92286 -21.15812,27.07879 -2.5533,6.92384 -4.68035,11.45976 -6.70323,14.29457 -0.87462,1.22567 -3.85362,4.34486 -6.61999,6.93154 -7.01437,6.55874 -8.98297,8.5578 -11.30895,11.48393 -1.11378,1.40115 -3.50995,3.7297 -5.32484,5.17454 -3.7812,3.01025 -4.09329,3.40691 -6.31889,8.03109 -1.56092,3.24316 -1.85424,3.60571 -6.13639,7.58473 -6.77764,6.29786 -7.63646,7.28519 -11.10238,12.76377 -4.86432,7.68905 -7.68293,11.01282 -11.65872,13.74824 -1.95393,1.34433 -2.03932,1.35747 -2.03932,0.31379 0,-1.97606 1.81256,-4.50674 5.66977,-7.91605 4.28852,-3.79054 5.04501,-4.74226 7.92368,-9.96849 2.97692,-5.40459 4.48169,-7.48789 6.92708,-9.59025 5.63274,-4.84261 5.45024,-4.60406 8.99162,-11.7528 1.82625,-3.68653 4.19344,-8.36453 5.2604,-10.39556 2.42175,-4.60992 3.88806,-9.2085 5.99057,-18.78736 2.07743,-9.4646 2.60894,-11.16459 5.02838,-16.08271 1.92668,-3.91646 1.95722,-4.02595 1.52608,-5.47096 -0.92215,-3.09064 -0.93559,-2.99559 0.63498,-4.48964 1.92099,-1.82739 3.80037,-2.74024 9.37382,-4.55304 5.65609,-1.83968 7.05656,-2.62841 10.40695,-5.8611 1.45521,-1.40409 4.23333,-3.53536 6.17361,-4.73615 4.48777,-2.77737 4.75849,-3.0402 9.45045,-9.17487 8.82614,-11.54005 13.95613,-17.53238 20.58374,-24.04382 4.87184,-4.78644 6.36228,-6.08437 10.74267,-9.35513 l 3.22491,-2.40799 -10.83357,-0.0933 -10.83357,-0.0933 -0.74905,0.97529 c -1.65126,2.14998 -5.22358,5.66176 -9.27442,9.11724 -2.34817,2.00305 -5.76129,5.21647 -7.58472,7.14092 -2.74793,2.90017 -3.73259,4.27054 -5.75336,8.00708 -4.41451,8.16271 -9.2801,14.94779 -14.22615,19.83841 -2.45856,2.431 -7.43961,6.43691 -8.00384,6.43691 -0.34221,0 1.85843,-3.97128 4.25925,-7.68625 1.03922,-1.60806 4.08149,-5.81493 6.7606,-9.34861 9.15877,-12.08016 12.3524,-17.43848 14.34235,-24.06375 1.76417,-5.87359 2.28328,-7.1502 3.61912,-8.90024 l 1.16416,-1.52513 -5.37518,0.0974 -5.37518,0.0974 -1.48824,3.88055 c -4.68806,12.22395 -5.96024,15.3747 -8.39342,20.78756 -3.8676,8.60387 -4.21006,9.15991 -6.764,10.98236 -6.93881,4.95143 -14.2903,17.06861 -18.96515,31.2595 -3.93092,11.93262 -8.13437,19.06633 -17.11478,29.04558 -3.0003,3.33401 -5.80846,7.35852 -8.8616,12.7 -5.6173,9.82746 -9.16161,14.1647 -14.89984,18.2332 -4.8603,3.44603 -9.13816,7.06354 -14.72479,12.4518 -2.61937,2.52637 -6.62145,6.3135 -8.8935,8.41584 -6.03689,5.58595 -7.67483,8.40714 -8.3629,14.4042 -0.42028,3.66314 -0.89539,4.79514 -3.88275,9.25109 -1.31493,1.96135 -2.63291,4.04234 -2.92885,4.62442 -0.70696,1.39049 -2.99731,9.31501 -5.04703,17.4625 -2.32972,9.26044 -3.43093,13.29845 -5.85938,21.48568 -3.46248,11.67333 -4.8335,19.54775 -3.84408,22.07828 l 0.4122,1.05423 0.69303,-0.87784 c 0.38116,-0.48282 1.38438,-2.3066 2.22937,-4.05285 z m 10.43667,-31.6248 c 0,-5.16219 1.42088,-8.96928 6.41621,-17.19164 4.43015,-7.29206 5.11057,-8.90154 6.65493,-15.74189 1.9267,-8.53381 5.74973,-14.62787 14.01626,-22.34252 6.56781,-6.12932 9.81816,-8.83264 14.70445,-12.2297 5.56363,-3.86796 7.85628,-6.06712 9.10875,-8.73727 1.1715,-2.49754 3.03614,-4.55771 6.75439,-7.46268 5.12284,-4.00233 6.63966,-6.06337 8.84777,-12.02227 1.70172,-4.59233 2.35171,-5.84371 4.58325,-8.82383 2.5884,-3.4567 4.78272,-7.15746 7.09422,-11.96451 1.08949,-2.26573 2.03292,-4.06749 2.09651,-4.0039 0.18045,0.18045 -2.90601,12.26801 -4.48388,17.56029 -3.26708,10.95806 -6.36762,18.29717 -12.07609,28.5846 -5.60958,10.10923 -6.04751,10.61796 -12.74038,14.80037 -4.50474,2.81503 -7.45466,5.20811 -9.13327,7.40925 -0.73129,0.95893 -3.43502,5.75783 -6.00828,10.66423 -7.42225,14.15187 -11.86509,20.98457 -17.40863,26.77299 -2.70861,2.82825 -3.61659,3.5449 -5.29167,4.17658 -3.23876,1.22137 -5.10025,2.24857 -5.78948,3.19476 -0.35334,0.48507 -0.96495,2.04911 -1.35915,3.47566 -1.27735,4.62263 -2.3776,6.12143 -4.85782,6.61747 l -1.12809,0.22562 z m 129.9636,-138.42431 c 0.70929,-3.98804 4.83086,-10.13316 10.16283,-15.15246 4.16214,-3.91807 7.68744,-6.69283 7.68744,-6.05078 0,0.98695 -2.91417,6.28337 -5.02222,9.12772 -2.25724,3.04565 -8.38114,9.53499 -11.34763,12.02476 l -1.72958,1.45165 z m -245.92078,108.34292 c 6.56336,-4.33567 10.85352,-8.83715 19.9459,-20.92837 1.78584,-2.37485 4.43749,-5.74829 5.89256,-7.49653 1.45506,-1.74825 2.49808,-3.17863 2.31781,-3.17863 -0.69795,0 -5.27561,2.2428 -8.47813,4.15381 -1.84626,1.10171 -5.26022,3.38967 -7.58657,5.08438 -2.32635,1.6947 -4.2844,3.02661 -4.35123,2.95978 -0.16908,-0.16909 7.7433,-11.41725 11.93063,-16.96047 4.76739,-6.31109 7.79323,-9.60232 13.55983,-14.74912 7.00632,-6.25329 9.58621,-9.02538 12.70309,-13.64949 3.27849,-4.86386 5.46991,-7.77601 11.81334,-15.69861 9.28374,-11.59488 12.75074,-16.49004 16.74026,-23.63611 4.02331,-7.20658 4.96302,-8.1894 12.74841,-13.33324 7.24508,-4.78685 12.84153,-9.83342 20.02466,-18.05712 2.16389,-2.47736 3.19068,-4.05422 4.70916,-7.23195 2.59644,-5.43355 3.69437,-6.73076 6.71089,-7.92897 3.40929,-1.35423 3.68403,-1.58253 6.49613,-5.39809 1.48029,-2.00852 5.088,-5.96568 8.68127,-9.52215 l 6.14836,-6.08542 -7.35029,0.002 -7.35029,0.002 -3.2191,4.31946 c -5.45673,7.32195 -10.57916,13.18171 -18.29827,20.93216 -9.76817,9.80782 -17.90811,16.83285 -30.69374,26.48969 -8.98081,6.78311 -11.43408,10.374 -16.58664,24.27816 -4.8924,13.20213 -8.62298,18.96412 -19.58414,30.24838 l -4.88539,5.02939 1.40108,-4.05694 c 2.07806,-6.01719 3.76256,-10.28159 4.50191,-11.39683 0.36094,-0.54444 1.19494,-1.25881 1.85333,-1.5875 2.22906,-1.11281 4.14542,-5.84779 4.93701,-12.19843 0.41876,-3.35963 1.83887,-7.12071 5.34349,-14.15196 3.96158,-7.94802 5.86422,-10.33303 13.31796,-16.69446 9.37791,-8.00361 16.65619,-15.71888 21.14643,-22.41608 2.56535,-3.82623 3.3156,-5.6094 4.92327,-11.70149 0.76629,-2.9038 1.65246,-5.89135 1.96925,-6.63901 0.68349,-1.61309 3.0164,-4.18069 5.99247,-6.59531 1.18377,-0.96044 2.43611,-2.2267 2.78298,-2.8139 l 0.63067,-1.06764 -5.52008,0.0973 -5.52009,0.0973 -4.06058,7.76111 c -7.75115,14.81499 -11.35752,20.24124 -18.76075,28.22799 -8.0043,8.63521 -11.80401,13.42831 -19.99131,25.21784 -5.78432,8.32929 -6.15917,8.78293 -13.67947,16.55467 -6.6804,6.90375 -9.63811,10.53106 -11.73927,14.39692 -0.71322,1.31225 -2.16429,3.97341 -3.22459,5.91369 -4.4552,8.15275 -10.80096,16.80899 -17.76016,24.22661 l -3.86376,4.11828 0.0141,6.28867 0.0141,6.28866 3.79884,-3.9178 c 3.66484,-3.77961 6.1325,-7.09827 9.15332,-12.30998 0.78724,-1.35819 2.35588,-3.50468 3.48588,-4.76996 3.90866,-4.37662 4.64922,-5.49126 8.31558,-12.51615 6.84372,-13.11282 10.94472,-19.22427 17.34021,-25.84097 1.17213,-1.21267 2.24768,-2.20486 2.39011,-2.20486 1.04233,0 -5.53584,13.44697 -8.71512,17.81527 -1.27092,1.74625 -3.34911,5.20085 -4.61817,7.67688 -1.89132,3.69008 -2.64676,4.79486 -4.18932,6.12661 -2.65275,2.29023 -3.83754,4.09089 -6.38828,9.70906 -1.22842,2.70569 -2.76358,5.7103 -3.41145,6.67692 -1.89176,2.82249 -12.28959,13.44139 -14.85527,15.17112 l -2.31223,1.55886 -0.0112,6.96736 c -0.006,3.83205 0.0611,6.96736 0.14936,6.96736 0.0883,0 1.12682,-1.26936 2.30783,-2.82081 1.18101,-1.55143 2.60901,-3.05956 3.17334,-3.35138 1.10272,-0.57024 3.37337,-0.7175 3.66972,-0.23799 0.29788,0.48199 -1.16965,2.24305 -3.41208,4.09457 -2.60109,2.14764 -3.2473,3.1824 -3.79276,6.0732 -0.23519,1.24648 -0.80539,2.82299 -1.2671,3.50336 -0.77298,1.13905 -0.83948,1.58513 -0.83948,5.6311 0,2.41673 0.0877,4.39406 0.19489,4.39406 0.1072,0 1.49626,-0.85966 3.08681,-1.91036 z m -0.53198,-64.50723 c 0.46907,-0.53752 1.88605,-2.44252 3.14885,-4.23333 1.2628,-1.79081 3.99042,-5.00227 6.06138,-7.13658 2.07096,-2.1343 5.89844,-6.49993 8.50551,-9.70139 2.60707,-3.20145 6.03323,-7.35096 7.61369,-9.22112 3.49278,-4.13301 5.48345,-6.9379 7.72681,-10.88721 2.25377,-3.96764 3.97372,-6.26112 7.40764,-9.87778 14.1603,-14.91382 20.13493,-22.98742 24.89527,-33.64129 4.57788,-10.24552 10.33089,-17.5207 16.60713,-21.00116 l 2.59649,-1.43988 -5.01467,-0.005 c -4.63759,-0.004 -5.04275,0.0478 -5.38811,0.69312 -0.63666,1.1896 -6.01543,7.82619 -8.29788,10.23832 -2.81292,2.97275 -3.03885,3.38099 -6.84448,12.36737 -1.77132,4.18267 -3.81267,8.62509 -4.53633,9.87203 -1.83739,3.16603 -7.44183,8.66673 -15.42686,15.14134 -3.68652,2.9892 -8.69155,7.42982 -11.12227,9.86805 -5.11052,5.12631 -7.08624,7.95436 -14.80369,21.1901 -5.92911,10.16865 -9.54781,15.60263 -13.21213,19.83982 l -2.66607,3.08289 v 3.76958 3.76958 l 0.94844,-0.85524 c 0.52164,-0.47039 1.33222,-1.29504 1.80128,-1.83256 z m 1.29738,-37.53025 c 0.8755,-0.80625 2.82337,-2.13513 4.3286,-2.95307 6.44776,-3.50368 9.2454,-5.77886 13.63486,-11.08853 0.75518,-0.9135 2.53913,-2.53857 3.96434,-3.61127 2.54071,-1.91229 4.01121,-3.68023 4.01121,-4.82255 0,-1.07656 2.63825,-3.5189 6.5954,-6.10563 2.17226,-1.41998 4.35905,-3.11863 4.85953,-3.7748 0.50048,-0.65616 1.38449,-2.49324 1.96446,-4.0824 1.55692,-4.26608 2.16134,-5.2543 4.7588,-7.78057 1.29672,-1.26118 5.33656,-5.70618 8.97742,-9.87778 6.3162,-7.23693 10.28501,-11.32682 13.76661,-14.18656 l 1.5875,-1.30395 -2.37347,-0.0159 -2.37346,-0.0159 -6.0932,5.30865 c -3.35126,2.91975 -7.09962,6.53132 -8.32969,8.02569 -3.45566,4.19819 -5.7042,6.38848 -7.77115,7.56987 -3.15572,1.80368 -5.88177,4.67424 -11.26104,11.85798 -4.75057,6.34417 -5.1589,6.79323 -5.46397,6.00899 -0.56015,-1.43994 -0.42843,-5.30432 0.25135,-7.37396 1.90202,-5.79084 6.17356,-10.67425 17.83824,-20.39347 7.61219,-6.34261 11.2546,-9.57944 11.68783,-10.38639 0.30579,-0.56958 0.0484,-0.61736 -3.32578,-0.61736 h -3.65721 l -6.49756,5.19419 c -13.01859,10.40713 -16.64637,14.85307 -19.36601,23.73358 -2.46987,8.06497 -6.35734,14.41144 -14.47808,23.63611 -1.79348,2.03729 -5.06577,5.75931 -7.27175,8.27115 l -4.01088,4.56699 0.008,5.1344 0.008,5.1344 1.21963,-2.29306 c 0.6708,-1.26118 1.93595,-2.95271 2.81145,-3.75895 z m 0.20159,-22.88927 c 7.70105,-6.77146 10.57197,-10.33406 16.19341,-20.09483 3.45608,-6.00096 4.25308,-7.1471 9.3605,-13.46096 1.78706,-2.20919 4.02786,-5.39512 4.97955,-7.07984 0.95169,-1.68472 2.40782,-3.74506 3.23585,-4.57852 l 1.5055,-1.5154 h -4.3607 -4.36069 l -1.39518,1.6757 c -1.96538,2.36054 -2.61139,3.34051 -4.70925,7.14375 -1.43354,2.59889 -2.69178,4.2227 -5.60377,7.23194 -2.06532,2.1343 -7.20636,8.27436 -11.42453,13.64456 l -7.66938,9.764 v 5.31724 c 0,2.92449 0.0949,5.31725 0.21093,5.31725 0.11601,0 1.93301,-1.5142 4.03776,-3.36489 z m -2.83787,-21.06497 c 1.6e-4,-0.14552 -0.31721,0.0529 -0.70527,0.44098 -0.46357,0.46357 -0.69989,1.15926 -0.68905,2.02847 l 0.0165,1.32291 0.68877,-1.76388 c 0.37882,-0.97014 0.68889,-1.88296 0.68905,-2.02848 z m 6.52668,-8.33045 c 2.73688,-1.43744 6.45161,-4.84929 11.65032,-10.70042 2.29356,-2.58139 4.56927,-5.12999 5.05714,-5.66357 l 0.88704,-0.97014 -4.38753,0.003 -4.38753,0.003 -4.09798,3.96555 c -2.25389,2.18106 -4.51398,4.6903 -5.02243,5.5761 -0.50844,0.88581 -1.38598,3.34643 -1.95008,5.46806 -0.5641,2.12163 -1.13456,4.17501 -1.26767,4.56306 -0.19629,0.57221 -0.0867,0.53178 0.58001,-0.21389 0.45212,-0.5057 1.77454,-1.41971 2.93871,-2.03115 z m -6.02361,-5.56054 c 2.4635,-4.63091 4.57996,-7.62361 6.93042,-9.79972 l 2.13202,-1.97387 -3.98886,0.019 -3.98886,0.019 -1.49931,2.10238 -1.4993,2.10239 v 5.28693 c 0,2.90781 0.0664,5.28693 0.14753,5.28693 0.0811,0 0.87601,-1.36939 1.76636,-3.04308 z m 302.77082,-7.67501 c 0.54846,-0.46217 1.52301,-1.57342 2.16566,-2.46945 l 1.16844,-1.62913 h -2.63465 -2.63465 l -0.23501,1.85208 c -0.12925,1.01865 -0.3136,2.1299 -0.40965,2.46945 -0.26504,0.9369 1.37127,0.79549 2.57986,-0.22295 z m -59.41597,251.79177 c -0.75742,-0.31822 -0.48589,-1.70159 0.67927,-3.46066 1.67787,-2.53313 8.17601,-9.14027 15.01373,-15.2656 6.65529,-5.9619 8.46083,-8.02816 13.66925,-15.64324 5.24751,-7.67224 7.35565,-10.32582 11.9418,-15.03154 4.68074,-4.80278 6.67074,-7.29409 12.02373,-15.05268 3.59743,-5.21409 6.03127,-8.31248 10.86923,-13.83707 2.91493,-3.32863 5.72817,-7.41934 9.08136,-13.20512 3.15226,-5.43909 4.61931,-7.17986 9.90083,-11.74811 2.28771,-1.97875 4.01566,-3.65031 3.83989,-3.71459 -0.50605,-0.18505 -10.92702,4.98161 -13.41653,6.65184 -4.32395,2.90098 -8.265,7.33021 -13.18956,14.82339 -2.48103,3.77512 -5.50665,8.37198 -6.72359,10.21524 -3.2978,4.99507 -7.94418,10.60605 -11.01416,13.30072 -6.32701,5.55352 -8.92955,8.51637 -11.87291,13.51663 -4.97997,8.46011 -6.51056,10.5554 -11.07658,15.16321 -5.14365,5.19073 -7.5262,8.29774 -12.42682,16.2054 -5.42728,8.75748 -8.51837,13.47263 -8.70793,13.28306 -0.0933,-0.0933 0.10578,-1.40766 0.44241,-2.92078 1.66344,-7.47682 6.0708,-17.4058 11.71943,-26.40171 1.70924,-2.72212 6.2298,-9.3296 10.04568,-14.68329 10.63873,-14.92618 11.62459,-16.60155 16.16046,-27.46324 4.45133,-10.65919 7.75636,-16.45502 11.71881,-20.55053 4.06057,-4.19694 7.98534,-6.21094 17.66987,-9.06735 2.6819,-0.79102 5.5394,-1.77132 6.35,-2.17847 0.81061,-0.40714 2.82321,-2.04285 4.47245,-3.63491 2.39308,-2.31011 3.42605,-3.04782 5.11528,-3.65313 1.16416,-0.41717 4.65666,-1.64862 7.76111,-2.73657 6.51651,-2.2837 10.00146,-4.04562 13.22916,-6.6884 3.37827,-2.76607 7.46284,-7.09298 9.12414,-9.66547 l 1.459203,-2.25955 v 5.38554 5.38554 l -2.418753,3.04762 c -5.36039,6.75407 -11.35453,16.40796 -18.96402,30.54258 -4.10299,7.62129 -4.82155,8.73593 -7.36754,11.42854 -1.76755,1.86933 -5.12718,4.69311 -8.99584,7.56102 -5.39991,4.00306 -7.25918,5.67449 -14.81774,13.32063 -8.79972,8.9017 -9.1204,9.16616 -16.71431,13.78437 -1.7228,1.04771 -4.05231,2.77806 -5.17669,3.84521 -1.7066,1.61974 -2.14355,2.28995 -2.645,4.05694 -0.33037,1.16417 -0.90171,2.71284 -1.26964,3.44149 -0.8803,1.74332 -11.21131,13.27846 -18.98831,21.20146 -9.55694,9.73638 -14.50095,13.54197 -16.50117,12.70158 z m 101.19168,-37.07994 c 1.54809,-2.02555 7.42311,-8.82583 9.82909,-11.37709 l 2.8279,-2.99861 -0.083,2.98321 -0.083,2.9832 -2.46945,2.07804 c -2.69173,2.26508 -9.51028,6.94861 -10.11622,6.94861 -0.23155,0 -0.19498,-0.2383 0.0947,-0.61736 z m -123.85629,-9.78959 c -7e-4,-1.35828 1.7644,-7.97339 3.03667,-11.37956 2.40588,-6.44107 5.4917,-11.71141 10.50137,-17.93547 4.85475,-6.0316 9.54107,-9.65701 15.7223,-12.16302 2.22567,-0.90233 3.43098,-1.65445 4.76271,-2.97194 1.79147,-1.77234 2.18687,-2.45879 5.43622,-9.43771 2.03394,-4.36849 3.64298,-6.24614 9.64266,-11.25242 4.587,-3.82749 5.84473,-5.6248 8.35677,-11.94182 2.27564,-5.72256 3.56249,-7.75153 7.27533,-11.471 5.01869,-5.02765 11.38948,-9.38753 22.92987,-15.69215 3.29847,-1.80199 6.31036,-3.49183 6.69308,-3.7552 1.74354,-1.19985 1.78936,-0.0606 0.1311,3.25975 -1.57052,3.14466 -4.53647,5.40567 -11.65895,8.88788 -3.54977,1.7355 -7.32725,3.81149 -8.3944,4.61332 -3.32721,2.49998 -5.71436,6.16911 -8.67464,13.33325 -4.36505,10.56383 -10.42287,18.4617 -19.54758,25.48517 -2.94434,2.26632 -7.03861,6.39995 -7.79373,7.86868 -0.37011,0.71987 -0.67353,1.67237 -0.67425,2.11666 -0.001,0.93931 -1.07995,2.84785 -2.4159,4.27562 -1.58436,1.69325 -5.44069,4.38191 -10.67558,7.44309 -2.75555,1.61135 -6.03426,3.68777 -7.28603,4.61425 -2.70278,2.00045 -5.35984,5.4639 -6.62844,8.64012 -1.21108,3.0322 -2.92021,6.08657 -5.89521,10.53531 -1.34473,2.01087 -2.9845,4.55087 -3.64394,5.64444 -0.77212,1.28043 -1.19914,1.73712 -1.19943,1.28275 z m 95.6014,-16.68143 c 0,-0.79608 3.04121,-4.89592 5.37071,-7.24022 1.41173,-1.4207 4.88036,-4.50511 7.70806,-6.85425 6.80121,-5.65017 9.82248,-8.93418 12.77778,-13.88896 3.54543,-5.9442 8.32856,-12.45863 13.2617,-18.06191 l 1.803973,-2.049 v 4.66812 4.66811 l -2.433433,3.20172 c -2.95345,3.88587 -5.22122,7.40098 -6.671,10.34018 -1.5715,3.18596 -2.86343,4.93701 -5.96084,8.07914 -5.05248,5.12543 -13.3881,12.72728 -14.95711,13.64045 -0.85318,0.49655 -3.52977,1.48099 -5.94799,2.18764 -2.41821,0.70665 -4.52165,1.36201 -4.6743,1.45635 -0.15266,0.0944 -0.27755,0.028 -0.27755,-0.14737 z m -10.44215,-45.76722 c 1.93758,-3.525 3.98996,-6.04293 9.92387,-12.17497 5.46682,-5.64935 8.84857,-9.60775 9.78554,-11.45415 0.29538,-0.58208 1.01467,-2.6945 1.59844,-4.69425 1.28773,-4.41132 2.29724,-6.0157 4.78756,-7.60874 3.99418,-2.55504 4.58229,-4.40879 3.58527,-11.30087 -0.87856,-6.07317 -0.4286,-8.12425 3.68311,-16.78919 1.51916,-3.20146 3.43437,-7.80521 4.25603,-10.23056 2.1356,-6.30384 2.69331,-7.43726 6.44448,-13.09706 1.84852,-2.78905 4.24483,-6.73787 5.32515,-8.77516 l 1.96423,-3.70417 0.005,19.67909 0.005,19.67909 -0.859723,1.69657 c -0.47283,0.93311 -1.80213,3.98377 -2.95395,6.77924 -6.37416,15.46987 -6.75541,16.51657 -7.47424,20.52 -1.08221,6.0272 -1.63578,7.63109 -3.1287,9.06495 -1.7853,1.71466 -11.02318,8.45841 -14.56119,10.62982 -1.59306,0.97771 -5.60694,3.65851 -8.91975,5.95733 -7.40237,5.13664 -11.79757,7.74985 -13.49893,8.02595 l -1.29421,0.21002 1.32632,-2.41294 z"
       id="path3794"
       inkscape:connector-curvature="0" />
    <rect
       id="rect3796"
       width="233.60019"
       height="88.800072"
       x="-397.40051"
       y="345.55609"
       style="fill:#ffffff;stroke:#ffffff;stroke-width:0.19799006"
       ry="24.000019" />
    <g
       id="g4116"
       transform="matrix(2.3357103,0,0,2.3357103,350.05779,128.73889)">
      <g
         style="display:inline;fill:#000000"
         transform="matrix(0.17868638,0,0,0.17868638,-324.68518,387.53034)"
         id="g11">
        <path
           d="m 255.688,-1502.962 6.496,0.082 c -1,3.625 -2.854,6.374 -5.561,8.244 -2.71,1.96 -6.099,2.911 -10.168,2.859 -4.938,-0.062 -8.771,-1.71 -11.5,-4.949 -2.732,-3.151 -4.062,-7.629 -3.988,-13.432 0.068,-5.54 1.464,-9.855 4.188,-12.938 2.812,-3.167 6.686,-4.724 11.621,-4.66 5.195,0.064 9.202,1.676 12.021,4.828 1.534,1.925 2.632,4.147 3.296,6.665 l -9.094,-0.114 c -0.423,-0.869 -0.848,-1.523 -1.273,-1.964 -1.111,-1.225 -2.705,-1.853 -4.783,-1.878 -1.906,-0.024 -3.472,0.563 -4.699,1.759 -1.58,1.715 -2.396,4.562 -2.446,8.544 -0.049,3.983 0.694,6.809 2.233,8.472 1.106,1.401 2.786,2.112 5.039,2.141 1.471,0.019 2.732,-0.267 3.778,-0.86 0.261,-0.082 0.499,-0.23 0.719,-0.445 0.22,-0.212 0.461,-0.449 0.725,-0.706 0.175,-0.257 0.527,-0.598 1.053,-1.026 0.522,-0.426 1.304,-0.635 2.343,-0.622 z"
           id="path13"
           inkscape:connector-curvature="0"
           style="fill:#000000" />
      </g>
      <g
         style="display:inline;fill:#000000"
         transform="matrix(0.17868638,0,0,0.17868638,-324.68518,387.53034)"
         id="g15">
        <path
           d="m 269.464,-1495.254 c -1.797,-1.582 -3.069,-3.696 -3.817,-6.349 -0.743,-2.65 -1.101,-5.404 -1.064,-8.263 0.03,-2.338 0.385,-4.672 1.062,-7.001 0.679,-2.331 1.721,-4.266 3.128,-5.808 2.281,-2.57 5.2,-4.068 8.759,-4.502 3.554,-0.43 6.758,-0.11 9.602,0.966 3.272,1.339 5.669,3.622 7.188,6.844 1.437,2.878 2.132,6.222 2.084,10.029 -0.035,2.773 -0.369,5.151 -0.999,7.133 -0.632,1.986 -1.433,3.665 -2.402,5.037 -2.112,2.831 -4.778,4.575 -7.99,5.226 -2.867,0.744 -5.747,0.772 -8.639,0.087 -2.896,-0.685 -5.198,-1.819 -6.912,-3.399 z m 6.525,-22.783 c -1.844,1.972 -2.705,4.925 -2.58,8.868 0.122,3.942 0.825,6.699 2.105,8.274 0.51,0.702 1.413,1.298 2.705,1.788 1.292,0.493 2.611,0.553 3.96,0.179 1.345,-0.371 2.549,-1.331 3.609,-2.877 1.057,-1.545 1.65,-4.049 1.782,-7.512 0.039,-3.118 -0.431,-5.462 -1.406,-7.033 -0.977,-1.571 -2.11,-2.581 -3.404,-3.031 -1.294,-0.448 -2.594,-0.486 -3.895,-0.112 -1.306,0.372 -2.266,0.859 -2.876,1.456 z"
           id="path17"
           inkscape:connector-curvature="0"
           style="fill:#000000" />
      </g>
      <g
         style="display:inline;fill:#000000"
         transform="matrix(0.17868638,0,0,0.17868638,-324.68518,387.53034)"
         id="g19">
        <path
           d="m 329.41,-1491.385 -8.962,-0.112 0.255,-20.264 0.022,-1.817 c 0.026,-2.078 -0.584,-3.6 -1.827,-4.569 -1.243,-0.968 -2.644,-1.462 -4.202,-1.481 -1.56,-0.02 -2.952,0.439 -4.176,1.377 -1.225,0.938 -1.85,2.443 -1.875,4.521 l -0.277,22.082 -9.093,-0.114 0.255,-20.263 c 0.073,-5.888 1.66,-9.807 4.759,-11.761 3.098,-1.954 6.512,-2.992 10.237,-3.12 1.991,0.024 3.937,0.267 5.837,0.723 1.897,0.457 3.621,1.344 5.165,2.664 1.311,-1.108 2.858,-1.892 4.639,-2.346 1.78,-0.453 3.625,-0.713 5.53,-0.776 3.812,0.048 7.306,1.09 10.485,3.121 3.178,2.032 4.73,6.079 4.654,12.138 l -0.254,20.265 -4.546,-0.058 c -1.299,-0.017 -2.356,-0.439 -3.167,-1.273 -0.814,-0.832 -1.211,-1.9 -1.193,-3.199 l 0.222,-17.665 c 0.025,-2.077 -0.584,-3.599 -1.828,-4.568 -1.243,-0.968 -2.646,-1.462 -4.204,-1.482 -1.558,-0.019 -2.974,0.44 -4.238,1.376 -1.27,0.939 -1.915,2.445 -1.941,4.521 l -0.022,1.818 z"
           id="path21"
           inkscape:connector-curvature="0"
           style="fill:#000000" />
      </g>
      <g
         style="display:inline;fill:#000000"
         transform="matrix(0.17868638,0,0,0.17868638,-324.68518,387.53034)"
         id="g23">
        <path
           d="m 363.44,-1482.644 c -0.016,1.213 -0.463,2.247 -1.337,3.102 -0.876,0.854 -1.924,1.274 -3.133,1.26 l -4.417,-0.056 0.406,-32.342 c 0.075,-6.06 1.9,-10.175 5.479,-12.338 3.578,-2.164 7.444,-3.22 11.603,-3.168 2.162,0.027 4.346,0.468 6.544,1.317 2.197,0.851 3.936,2.063 5.214,3.638 2.558,3.41 3.802,7.757 3.735,13.038 -0.068,5.456 -1.422,9.855 -4.063,13.2 -2.64,3.259 -5.993,4.859 -10.062,4.809 -2.167,-0.027 -4.066,-0.439 -5.702,-1.239 -1.723,-0.887 -3.088,-2.247 -4.105,-4.079 z m 15.126,-25.272 c 0.042,-3.376 -0.574,-5.982 -1.85,-7.816 -1.276,-1.836 -3.128,-2.769 -5.552,-2.799 -2.335,-0.03 -4.167,0.856 -5.489,2.66 -1.232,1.631 -1.872,4.221 -1.917,7.771 -0.042,3.292 0.578,5.768 1.855,7.427 1.277,1.836 3.129,2.768 5.552,2.798 2.25,0.029 4.038,-0.857 5.36,-2.661 1.323,-1.803 2.002,-4.263 2.041,-7.38 z"
           id="path25"
           inkscape:connector-curvature="0"
           style="fill:#000000" />
      </g>
      <g
         style="display:inline;fill:#000000"
         transform="matrix(0.17868638,0,0,0.17868638,-324.68518,387.53034)"
         id="g27">
        <path
           d="m 391.528,-1538.682 4.677,0.058 c 1.212,0.016 2.244,0.439 3.101,1.272 0.855,0.836 1.276,1.857 1.262,3.068 l -0.55,43.784 -9.093,-0.114 z"
           id="path29"
           inkscape:connector-curvature="0"
           style="fill:#000000" />
      </g>
      <g
         style="display:inline;fill:#000000"
         transform="matrix(0.17868638,0,0,0.17868638,-324.68518,387.53034)"
         id="g31">
        <path
           d="m 435.285,-1524.612 -0.255,20.263 c -0.076,6.151 -1.731,10.157 -4.957,12.02 -3.23,1.866 -6.748,2.773 -10.558,2.725 -3.723,-0.219 -7.108,-1.299 -10.156,-3.244 -3.052,-1.942 -4.538,-5.902 -4.463,-11.878 l 0.255,-20.263 9.091,0.114 -0.277,22.081 c -0.025,2.078 0.56,3.603 1.763,4.569 1.198,0.969 2.58,1.461 4.139,1.48 1.558,0.02 2.97,-0.438 4.239,-1.376 1.266,-0.935 1.914,-2.444 1.94,-4.522 l 0.222,-17.664 c 0.015,-1.212 0.438,-2.247 1.272,-3.103 0.832,-0.854 1.9,-1.275 3.199,-1.259 z"
           id="path33"
           inkscape:connector-curvature="0"
           style="fill:#000000" />
      </g>
      <g
         style="display:inline;fill:#000000"
         transform="matrix(0.17868638,0,0,0.17868638,-324.68518,387.53034)"
         id="g35">
        <g
           style="fill:#000000"
           id="g37">
          <path
             d="m 448.897,-1534.372 -0.034,13.782 c 0.955,-1.643 2.345,-2.982 4.167,-4.017 1.561,-0.861 3.465,-1.291 5.717,-1.287 4.07,0.011 7.402,1.707 9.992,5.091 2.59,3.384 3.88,7.761 3.864,13.13 -0.011,5.369 -1.321,9.739 -3.927,13.109 -1.304,1.645 -3.06,2.83 -5.269,3.56 -2.212,0.729 -4.4,1.094 -6.564,1.088 -4.157,-0.01 -8.009,-1.098 -11.554,-3.274 -3.546,-2.171 -5.309,-6.333 -5.294,-12.483 l 0.08,-33.136 4.416,0.011 c 1.21,0 2.249,0.44 3.112,1.307 0.865,0.867 1.296,1.907 1.294,3.119 z m 14.743,26.287 c 0.008,-3.117 -0.635,-5.542 -1.929,-7.279 -1.295,-1.82 -3.069,-2.735 -5.32,-2.74 -2.426,-0.01 -4.286,0.857 -5.592,2.585 -1.303,1.815 -1.958,4.281 -1.967,7.398 -0.008,3.638 0.592,6.281 1.8,7.929 1.296,1.821 3.111,2.735 5.451,2.741 2.423,0.01 4.288,-0.899 5.591,-2.715 1.305,-1.815 1.959,-4.453 1.966,-7.919 z"
             id="path39"
             inkscape:connector-curvature="0"
             style="fill:#000000" />
        </g>
        <g
           style="fill:#000000"
           id="g41">
          <path
             d="m 480.077,-1493.627 c -1.813,-1.563 -3.107,-3.665 -3.879,-6.309 -0.773,-2.643 -1.159,-5.395 -1.15,-8.251 0.005,-2.339 0.336,-4.677 0.993,-7.012 0.653,-2.338 1.674,-4.284 3.065,-5.84 2.256,-2.594 5.162,-4.121 8.715,-4.591 3.55,-0.465 6.755,-0.18 9.609,0.868 3.286,1.307 5.708,3.566 7.258,6.771 1.464,2.863 2.193,6.199 2.185,10.008 -0.007,2.772 -0.316,5.153 -0.926,7.143 -0.613,1.992 -1.396,3.68 -2.35,5.062 -2.088,2.851 -4.734,4.623 -7.938,5.306 -2.86,0.771 -5.74,0.831 -8.638,0.174 -2.901,-0.656 -5.215,-1.766 -6.944,-3.329 z m 6.292,-22.847 c -1.823,1.989 -2.654,4.951 -2.49,8.893 0.163,3.942 0.895,6.691 2.19,8.254 0.518,0.695 1.426,1.282 2.722,1.76 1.3,0.479 2.617,0.526 3.963,0.139 1.341,-0.385 2.535,-1.357 3.579,-2.914 1.043,-1.556 1.61,-4.064 1.706,-7.529 0.007,-3.118 -0.486,-5.457 -1.477,-7.019 -0.994,-1.562 -2.137,-2.559 -3.435,-2.996 -1.297,-0.435 -2.598,-0.461 -3.898,-0.073 -1.298,0.384 -2.254,0.882 -2.86,1.485 z"
             id="path43"
             inkscape:connector-curvature="0"
             style="fill:#000000" />
        </g>
      </g>
      <g
         style="display:inline;fill:#000000"
         transform="matrix(0.17868638,0,0,0.17868638,-324.68518,387.53034)"
         id="g45">
        <path
           d="m 525.25,-1490.399 c -2.857,0.166 -5.954,0.115 -9.285,-0.152 -3.337,-0.268 -4.997,-2.394 -4.987,-6.379 l 0.099,-41.578 4.677,0.013 c 1.125,0 2.121,0.438 2.984,1.306 0.863,0.868 1.295,1.908 1.293,3.121 l -0.023,9.233 5.326,0.013 -0.005,1.818 c -0.004,1.299 -0.439,2.358 -1.306,3.179 -0.87,0.822 -1.911,1.23 -3.121,1.229 h -0.91 l -0.046,19.225 c -0.004,1.474 0.86,2.211 2.594,2.215 l 2.728,0.01 -0.018,6.754 z"
           id="path47"
           inkscape:connector-curvature="0"
           style="fill:#000000" />
      </g>
      <path
         d="m -287.5141,117.95263 c -1.95986,1.24293 -4.22828,1.89979 -6.56066,1.89979 -5.13582,0 -9.31886,-3.46599 -11.19684,-7.59362 0.69919,0.26849 1.45877,0.41363 2.25303,0.40577 3.37897,-0.0342 6.09019,-2.80106 6.05605,-6.17985 -0.0342,-3.37897 -2.8011,-6.09018 -6.18021,-6.05604 -3.37843,0.0342 -6.09018,2.80109 -6.05587,6.18003 0.015,1.52777 0.59093,2.91778 1.5276,3.98042 0.59305,2.39868 1.87084,4.70751 3.70506,6.60782 2.71406,2.81201 6.22685,4.36066 9.891,4.36066 2.65616,0 5.24069,-0.74851 7.47392,-2.16478 z"
         id="path49"
         inkscape:connector-curvature="0"
         style="display:inline;fill:#000000;stroke-width:0.18662804" />
      <circle
         cx="-303.08041"
         cy="106.54654"
         r="4.0038257"
         id="circle51"
         style="display:inline;fill:#ffffff;stroke-width:0.17868638" />
      <circle
         cx="-301.89108"
         cy="104.05994"
         r="1.21471"
         id="circle53"
         style="display:inline;fill:#000000;stroke-width:0.17868638" />
      <g
         style="display:inline;fill:#000000"
         transform="matrix(0.17868638,0,0,0.17868638,-324.68518,387.53034)"
         id="g55">
        <circle
           cx="196.593"
           cy="-1573.264"
           r="34.241001"
           id="circle57"
           style="fill:#000000" />
      </g>
      <g
         style="display:inline;fill:#ffffff"
         transform="matrix(0.17868638,0,0,0.17868638,-324.68518,387.53034)"
         id="g59">
        <circle
           cx="196.59399"
           cy="-1573.265"
           r="22.408001"
           id="circle61"
           style="fill:#ffffff" />
      </g>
      <g
         style="display:inline;fill:#000000"
         transform="matrix(0.17868638,0,0,0.17868638,-324.68518,387.53034)"
         id="g63">
        <circle
           cx="203.25"
           cy="-1587.1801"
           r="6.7969999"
           id="circle65"
           style="fill:#000000" />
      </g>
    </g>
  </g>
</svg>
