  0
SECTION
  2
HEADER
  9
$ANGBASE
  50
0.0
  9
$ANGDIR
  70
  1
  9
$MEASUREMENT
  70
0
  0
ENDSEC
  0
SECTION
  2
TABLES
  0
TABLE
  2
LTYPE
  70
4
  0
LTYPE
  5
40F
  2
CONTINUOUS
  70
0
  3
Solid line
  72
65
  73
0
  40
0.0
  0
LTYPE
  5
410
  2
DASHDOT
 70
0
  3
Dash Dot ____ _ ____ _
 72
65
 73
4
 40
2.0
 49
1.25
 49
-0.25
 49
0.25
 49
-0.25
  0
LTYPE
  5
411
  2
DASHED
 70
0
  3
Dashed __ __ __ __ __
 72
65
 73
2
 40
0.75
 49
0.5
 49
-0.25
  0
LTYPE
  5
43B
  2
DOTTED
 70
0
  3
Dotted .  .  .  .
 72
65
 73
2
 40
0.2
 49
0.0
 49
-0.2
  0
ENDTAB
  0
TABLE
  2
STYLE
  70
4
  0
STYLE
  2
KICAD
  70
0
  40
0
  41
1
  42
1
  50
0
  71
0
  3
isocp.shx
  0
STYLE
  2
KICADB
  70
0
  40
0
  41
1
  42
1
  50
0
  71
0
  3
isocp.shx
  0
STYLE
  2
KICADI
  70
0
  40
0
  41
1
  42
1
  50
15
  71
0
  3
isocp.shx
  0
STYLE
  2
KICADBI
  70
0
  40
0
  41
1
  42
1
  50
15
  71
0
  3
isocp.shx
  0
ENDTAB
  0
TABLE
  2
LAYER
  70
30
  0
LAYER
  2
BLACK
  70
0
  62
7
  6
CONTINUOUS
  0
LAYER
  2
GRAY1
  70
0
  62
251
  6
CONTINUOUS
  0
LAYER
  2
GRAY2
  70
0
  62
8
  6
CONTINUOUS
  0
LAYER
  2
GRAY3
  70
0
  62
9
  6
CONTINUOUS
  0
LAYER
  2
WHITE
  70
0
  62
7
  6
CONTINUOUS
  0
LAYER
  2
LYELLOW
  70
0
  62
51
  6
CONTINUOUS
  0
LAYER
  2
BLUE1
  70
0
  62
178
  6
CONTINUOUS
  0
LAYER
  2
GREEN1
  70
0
  62
98
  6
CONTINUOUS
  0
LAYER
  2
CYAN1
  70
0
  62
138
  6
CONTINUOUS
  0
LAYER
  2
RED1
  70
0
  62
18
  6
CONTINUOUS
  0
LAYER
  2
MAGENTA1
  70
0
  62
228
  6
CONTINUOUS
  0
LAYER
  2
BROWN1
  70
0
  62
58
  6
CONTINUOUS
  0
LAYER
  2
BLUE2
  70
0
  62
5
  6
CONTINUOUS
  0
LAYER
  2
GREEN2
  70
0
  62
3
  6
CONTINUOUS
  0
LAYER
  2
CYAN2
  70
0
  62
4
  6
CONTINUOUS
  0
LAYER
  2
RED2
  70
0
  62
1
  6
CONTINUOUS
  0
LAYER
  2
MAGENTA2
  70
0
  62
6
  6
CONTINUOUS
  0
LAYER
  2
BROWN2
  70
0
  62
54
  6
CONTINUOUS
  0
LAYER
  2
BLUE3
  70
0
  62
171
  6
CONTINUOUS
  0
LAYER
  2
GREEN3
  70
0
  62
91
  6
CONTINUOUS
  0
LAYER
  2
CYAN3
  70
0
  62
131
  6
CONTINUOUS
  0
LAYER
  2
RED3
  70
0
  62
11
  6
CONTINUOUS
  0
LAYER
  2
MAGENTA3
  70
0
  62
221
  6
CONTINUOUS
  0
LAYER
  2
YELLOW3
  70
0
  62
2
  6
CONTINUOUS
  0
LAYER
  2
BLUE4
  70
0
  62
5
  6
CONTINUOUS
  0
LAYER
  2
GREEN4
  70
0
  62
3
  6
CONTINUOUS
  0
LAYER
  2
CYAN4
  70
0
  62
4
  6
CONTINUOUS
  0
LAYER
  2
RED4
  70
0
  62
1
  6
CONTINUOUS
  0
LAYER
  2
MAGENTA4
  70
0
  62
6
  6
CONTINUOUS
  0
LAYER
  2
YELLOW4
  70
0
  62
2
  6
CONTINUOUS
  0
ENDTAB
  0
ENDSEC
  0
SECTION
  2
ENTITIES
0
LINE
8
BLACK
6
CONTINUOUS
10
213.432
20
-45.112
11
213.441
21
-45.112
0
LINE
8
BLACK
6
CONTINUOUS
10
213.441
20
-45.112
11
213.449
21
-45.115
0
LINE
8
BLACK
6
CONTINUOUS
10
213.449
20
-45.115
11
213.458
21
-45.1166
0
LINE
8
BLACK
6
CONTINUOUS
10
213.458
20
-45.1166
11
213.466
21
-45.121
0
LINE
8
BLACK
6
CONTINUOUS
10
213.466
20
-45.121
11
213.474
21
-45.1241
0
LINE
8
BLACK
6
CONTINUOUS
10
213.474
20
-45.1241
11
213.481
21
-45.1298
0
LINE
8
BLACK
6
CONTINUOUS
10
213.481
20
-45.1298
11
213.489
21
-45.1342
0
LINE
8
BLACK
6
CONTINUOUS
10
213.489
20
-45.1342
11
213.494
21
-45.141
0
LINE
8
BLACK
6
CONTINUOUS
10
213.494
20
-45.141
11
213.501
21
-45.1467
0
LINE
8
BLACK
6
CONTINUOUS
10
213.501
20
-45.1467
11
213.506
21
-45.1544
0
LINE
8
BLACK
6
CONTINUOUS
10
213.506
20
-45.1544
11
213.511
21
-45.1612
0
LINE
8
BLACK
6
CONTINUOUS
10
213.511
20
-45.1612
11
213.514
21
-45.1696
0
LINE
8
BLACK
6
CONTINUOUS
10
213.514
20
-45.1696
11
213.519
21
-45.1773
0
LINE
8
BLACK
6
CONTINUOUS
10
213.519
20
-45.1773
11
213.52
21
-45.186
0
LINE
8
BLACK
6
CONTINUOUS
10
213.52
20
-45.186
11
213.523
21
-45.1944
0
LINE
8
BLACK
6
CONTINUOUS
10
213.523
20
-45.1944
11
213.523
21
-45.2032
0
LINE
8
BLACK
6
CONTINUOUS
10
213.523
20
-45.2032
11
213.523
21
-45.2033
0
LINE
8
BLACK
6
CONTINUOUS
10
213.523
20
-45.2033
11
213.523
21
-93.3537
0
LINE
8
BLACK
6
CONTINUOUS
10
213.523
20
-93.3537
11
213.523
21
-93.3538
0
LINE
8
BLACK
6
CONTINUOUS
10
213.523
20
-93.3538
11
213.523
21
-93.3626
0
LINE
8
BLACK
6
CONTINUOUS
10
213.523
20
-93.3626
11
213.52
21
-93.371
0
LINE
8
BLACK
6
CONTINUOUS
10
213.52
20
-93.371
11
213.519
21
-93.3797
0
LINE
8
BLACK
6
CONTINUOUS
10
213.519
20
-93.3797
11
213.514
21
-93.3874
0
LINE
8
BLACK
6
CONTINUOUS
10
213.514
20
-93.3874
11
213.511
21
-93.3958
0
LINE
8
BLACK
6
CONTINUOUS
10
213.511
20
-93.3958
11
213.506
21
-93.4026
0
LINE
8
BLACK
6
CONTINUOUS
10
213.506
20
-93.4026
11
213.501
21
-93.4103
0
LINE
8
BLACK
6
CONTINUOUS
10
213.501
20
-93.4103
11
213.494
21
-93.416
0
LINE
8
BLACK
6
CONTINUOUS
10
213.494
20
-93.416
11
213.489
21
-93.4228
0
LINE
8
BLACK
6
CONTINUOUS
10
213.489
20
-93.4228
11
213.481
21
-93.4272
0
LINE
8
BLACK
6
CONTINUOUS
10
213.481
20
-93.4272
11
213.474
21
-93.4329
0
LINE
8
BLACK
6
CONTINUOUS
10
213.474
20
-93.4329
11
213.466
21
-93.436
0
LINE
8
BLACK
6
CONTINUOUS
10
213.466
20
-93.436
11
213.458
21
-93.4404
0
LINE
8
BLACK
6
CONTINUOUS
10
213.458
20
-93.4404
11
213.449
21
-93.442
0
LINE
8
BLACK
6
CONTINUOUS
10
213.449
20
-93.442
11
213.441
21
-93.445
0
LINE
8
BLACK
6
CONTINUOUS
10
213.441
20
-93.445
11
213.432
21
-93.445
0
LINE
8
BLACK
6
CONTINUOUS
10
213.432
20
-93.445
11
213.432
21
-93.445
0
LINE
8
BLACK
6
CONTINUOUS
10
213.432
20
-93.445
11
176.966
21
-93.445
0
LINE
8
BLACK
6
CONTINUOUS
10
176.966
20
-93.445
11
176.943
21
-93.4409
0
LINE
8
BLACK
6
CONTINUOUS
10
176.943
20
-93.4409
11
176.92
21
-93.445
0
LINE
8
BLACK
6
CONTINUOUS
10
176.92
20
-93.445
11
176.458
21
-93.445
0
LINE
8
BLACK
6
CONTINUOUS
10
176.458
20
-93.445
11
176.458
21
-93.445
0
LINE
8
BLACK
6
CONTINUOUS
10
176.458
20
-93.445
11
176.449
21
-93.445
0
LINE
8
BLACK
6
CONTINUOUS
10
176.449
20
-93.445
11
176.441
21
-93.442
0
LINE
8
BLACK
6
CONTINUOUS
10
176.441
20
-93.442
11
176.432
21
-93.4404
0
LINE
8
BLACK
6
CONTINUOUS
10
176.432
20
-93.4404
11
176.424
21
-93.436
0
LINE
8
BLACK
6
CONTINUOUS
10
176.424
20
-93.436
11
176.416
21
-93.4329
0
LINE
8
BLACK
6
CONTINUOUS
10
176.416
20
-93.4329
11
176.409
21
-93.4272
0
LINE
8
BLACK
6
CONTINUOUS
10
176.409
20
-93.4272
11
176.401
21
-93.4228
0
LINE
8
BLACK
6
CONTINUOUS
10
176.401
20
-93.4228
11
176.396
21
-93.416
0
LINE
8
BLACK
6
CONTINUOUS
10
176.396
20
-93.416
11
176.389
21
-93.4103
0
LINE
8
BLACK
6
CONTINUOUS
10
176.389
20
-93.4103
11
176.384
21
-93.4026
0
LINE
8
BLACK
6
CONTINUOUS
10
176.384
20
-93.4026
11
176.379
21
-93.3958
0
LINE
8
BLACK
6
CONTINUOUS
10
176.379
20
-93.3958
11
176.376
21
-93.3874
0
LINE
8
BLACK
6
CONTINUOUS
10
176.376
20
-93.3874
11
176.371
21
-93.3797
0
LINE
8
BLACK
6
CONTINUOUS
10
176.371
20
-93.3797
11
176.37
21
-93.371
0
LINE
8
BLACK
6
CONTINUOUS
10
176.37
20
-93.371
11
176.367
21
-93.3626
0
LINE
8
BLACK
6
CONTINUOUS
10
176.367
20
-93.3626
11
176.367
21
-93.3274
0
LINE
8
BLACK
6
CONTINUOUS
10
176.367
20
-93.3274
11
176.367
21
-45.2033
0
LINE
8
BLACK
6
CONTINUOUS
10
176.367
20
-45.2033
11
176.367
21
-45.2032
0
LINE
8
BLACK
6
CONTINUOUS
10
176.367
20
-45.2032
11
176.367
21
-45.1944
0
LINE
8
BLACK
6
CONTINUOUS
10
176.367
20
-45.1944
11
176.37
21
-45.186
0
LINE
8
BLACK
6
CONTINUOUS
10
176.37
20
-45.186
11
176.371
21
-45.1773
0
LINE
8
BLACK
6
CONTINUOUS
10
176.371
20
-45.1773
11
176.376
21
-45.1696
0
LINE
8
BLACK
6
CONTINUOUS
10
176.376
20
-45.1696
11
176.379
21
-45.1612
0
LINE
8
BLACK
6
CONTINUOUS
10
176.379
20
-45.1612
11
176.384
21
-45.1544
0
LINE
8
BLACK
6
CONTINUOUS
10
176.384
20
-45.1544
11
176.389
21
-45.1467
0
LINE
8
BLACK
6
CONTINUOUS
10
176.389
20
-45.1467
11
176.396
21
-45.141
0
LINE
8
BLACK
6
CONTINUOUS
10
176.396
20
-45.141
11
176.401
21
-45.1342
0
LINE
8
BLACK
6
CONTINUOUS
10
176.401
20
-45.1342
11
176.409
21
-45.1298
0
LINE
8
BLACK
6
CONTINUOUS
10
176.409
20
-45.1298
11
176.416
21
-45.1241
0
LINE
8
BLACK
6
CONTINUOUS
10
176.416
20
-45.1241
11
176.424
21
-45.121
0
LINE
8
BLACK
6
CONTINUOUS
10
176.424
20
-45.121
11
176.432
21
-45.1166
0
LINE
8
BLACK
6
CONTINUOUS
10
176.432
20
-45.1166
11
176.441
21
-45.115
0
LINE
8
BLACK
6
CONTINUOUS
10
176.441
20
-45.115
11
176.449
21
-45.112
0
LINE
8
BLACK
6
CONTINUOUS
10
176.449
20
-45.112
11
176.458
21
-45.112
0
LINE
8
BLACK
6
CONTINUOUS
10
176.458
20
-45.112
11
176.458
21
-45.112
0
LINE
8
BLACK
6
CONTINUOUS
10
176.458
20
-45.112
11
213.432
21
-45.112
0
LINE
8
BLACK
6
CONTINUOUS
10
213.432
20
-45.112
11
213.432
21
-45.112
0
LINE
8
BLACK
6
CONTINUOUS
10
176.566
20
-45.312
11
176.566
21
-93.245
0
LINE
8
BLACK
6
CONTINUOUS
10
176.566
20
-93.245
11
176.92
21
-93.245
0
LINE
8
BLACK
6
CONTINUOUS
10
176.92
20
-93.245
11
176.943
21
-93.2491
0
LINE
8
BLACK
6
CONTINUOUS
10
176.943
20
-93.2491
11
176.966
21
-93.245
0
LINE
8
BLACK
6
CONTINUOUS
10
176.966
20
-93.245
11
213.323
21
-93.245
0
LINE
8
BLACK
6
CONTINUOUS
10
213.323
20
-93.245
11
213.324
21
-45.312
0
LINE
8
BLACK
6
CONTINUOUS
10
213.324
20
-45.312
11
176.566
21
-45.312
  0
ENDSEC
  0
EOF
