  0
SECTION
  2
HEADER
  9
$ANGBASE
  50
0.0
  9
$ANGDIR
  70
  1
  9
$MEASUREMENT
  70
0
  0
ENDSEC
  0
SECTION
  2
TABLES
  0
TABLE
  2
LTYPE
  70
4
  0
LTYPE
  5
40F
  2
CONTINUOUS
  70
0
  3
Solid line
  72
65
  73
0
  40
0.0
  0
LTYPE
  5
410
  2
DASHDOT
 70
0
  3
Dash Dot ____ _ ____ _
 72
65
 73
4
 40
2.0
 49
1.25
 49
-0.25
 49
0.25
 49
-0.25
  0
LTYPE
  5
411
  2
DASHED
 70
0
  3
Dashed __ __ __ __ __
 72
65
 73
2
 40
0.75
 49
0.5
 49
-0.25
  0
LTYPE
  5
43B
  2
DOTTED
 70
0
  3
Dotted .  .  .  .
 72
65
 73
2
 40
0.2
 49
0.0
 49
-0.2
  0
ENDTAB
  0
TABLE
  2
STYLE
  70
4
  0
STYLE
  2
KICAD
  70
0
  40
0
  41
1
  42
1
  50
0
  71
0
  3
isocp.shx
  0
STYLE
  2
KICADB
  70
0
  40
0
  41
1
  42
1
  50
0
  71
0
  3
isocp.shx
  0
STYLE
  2
KICADI
  70
0
  40
0
  41
1
  42
1
  50
15
  71
0
  3
isocp.shx
  0
STYLE
  2
KICADBI
  70
0
  40
0
  41
1
  42
1
  50
15
  71
0
  3
isocp.shx
  0
ENDTAB
  0
TABLE
  2
LAYER
  70
30
  0
LAYER
  2
BLACK
  70
0
  62
7
  6
CONTINUOUS
  0
LAYER
  2
GRAY1
  70
0
  62
251
  6
CONTINUOUS
  0
LAYER
  2
GRAY2
  70
0
  62
8
  6
CONTINUOUS
  0
LAYER
  2
GRAY3
  70
0
  62
9
  6
CONTINUOUS
  0
LAYER
  2
WHITE
  70
0
  62
7
  6
CONTINUOUS
  0
LAYER
  2
LYELLOW
  70
0
  62
51
  6
CONTINUOUS
  0
LAYER
  2
BLUE1
  70
0
  62
178
  6
CONTINUOUS
  0
LAYER
  2
GREEN1
  70
0
  62
98
  6
CONTINUOUS
  0
LAYER
  2
CYAN1
  70
0
  62
138
  6
CONTINUOUS
  0
LAYER
  2
RED1
  70
0
  62
18
  6
CONTINUOUS
  0
LAYER
  2
MAGENTA1
  70
0
  62
228
  6
CONTINUOUS
  0
LAYER
  2
BROWN1
  70
0
  62
58
  6
CONTINUOUS
  0
LAYER
  2
BLUE2
  70
0
  62
5
  6
CONTINUOUS
  0
LAYER
  2
GREEN2
  70
0
  62
3
  6
CONTINUOUS
  0
LAYER
  2
CYAN2
  70
0
  62
4
  6
CONTINUOUS
  0
LAYER
  2
RED2
  70
0
  62
1
  6
CONTINUOUS
  0
LAYER
  2
MAGENTA2
  70
0
  62
6
  6
CONTINUOUS
  0
LAYER
  2
BROWN2
  70
0
  62
54
  6
CONTINUOUS
  0
LAYER
  2
BLUE3
  70
0
  62
171
  6
CONTINUOUS
  0
LAYER
  2
GREEN3
  70
0
  62
91
  6
CONTINUOUS
  0
LAYER
  2
CYAN3
  70
0
  62
131
  6
CONTINUOUS
  0
LAYER
  2
RED3
  70
0
  62
11
  6
CONTINUOUS
  0
LAYER
  2
MAGENTA3
  70
0
  62
221
  6
CONTINUOUS
  0
LAYER
  2
YELLOW3
  70
0
  62
2
  6
CONTINUOUS
  0
LAYER
  2
BLUE4
  70
0
  62
5
  6
CONTINUOUS
  0
LAYER
  2
GREEN4
  70
0
  62
3
  6
CONTINUOUS
  0
LAYER
  2
CYAN4
  70
0
  62
4
  6
CONTINUOUS
  0
LAYER
  2
RED4
  70
0
  62
1
  6
CONTINUOUS
  0
LAYER
  2
MAGENTA4
  70
0
  62
6
  6
CONTINUOUS
  0
LAYER
  2
YELLOW4
  70
0
  62
2
  6
CONTINUOUS
  0
ENDTAB
  0
ENDSEC
  0
SECTION
  2
ENTITIES
0
LINE
8
BLACK
6
CONTINUOUS
10
212.216
20
-77.7654
11
212.213
21
-77.7984
0
LINE
8
BLACK
6
CONTINUOUS
10
212.213
20
-77.7984
11
212.213
21
-88.1906
0
LINE
8
BLACK
6
CONTINUOUS
10
212.213
20
-88.1906
11
212.216
21
-88.2236
0
LINE
8
BLACK
6
CONTINUOUS
10
212.216
20
-88.2236
11
212.207
21
-88.2557
0
LINE
8
BLACK
6
CONTINUOUS
10
212.207
20
-88.2557
11
212.202
21
-88.2883
0
LINE
8
BLACK
6
CONTINUOUS
10
212.202
20
-88.2883
11
212.196
21
-88.298
0
LINE
8
BLACK
6
CONTINUOUS
10
212.196
20
-88.298
11
212.193
21
-88.3088
0
LINE
8
BLACK
6
CONTINUOUS
10
212.193
20
-88.3088
11
212.174
21
-88.336
0
LINE
8
BLACK
6
CONTINUOUS
10
212.174
20
-88.336
11
212.157
21
-88.3647
0
LINE
8
BLACK
6
CONTINUOUS
10
212.157
20
-88.3647
11
212.132
21
-88.386
0
LINE
8
BLACK
6
CONTINUOUS
10
212.132
20
-88.386
11
208.274
21
-92.2441
0
LINE
8
BLACK
6
CONTINUOUS
10
208.274
20
-92.2441
11
208.253
21
-92.2695
0
LINE
8
BLACK
6
CONTINUOUS
10
208.253
20
-92.2695
11
208.224
21
-92.286
0
LINE
8
BLACK
6
CONTINUOUS
10
208.224
20
-92.286
11
208.197
21
-92.3051
0
LINE
8
BLACK
6
CONTINUOUS
10
208.197
20
-92.3051
11
208.186
21
-92.308
0
LINE
8
BLACK
6
CONTINUOUS
10
208.186
20
-92.308
11
208.176
21
-92.3135
0
LINE
8
BLACK
6
CONTINUOUS
10
208.176
20
-92.3135
11
208.144
21
-92.3193
0
LINE
8
BLACK
6
CONTINUOUS
10
208.144
20
-92.3193
11
208.112
21
-92.3279
0
LINE
8
BLACK
6
CONTINUOUS
10
208.112
20
-92.3279
11
208.079
21
-92.325
0
LINE
8
BLACK
6
CONTINUOUS
10
208.079
20
-92.325
11
180.271
21
-92.325
0
LINE
8
BLACK
6
CONTINUOUS
10
180.271
20
-92.325
11
180.238
21
-92.3279
0
LINE
8
BLACK
6
CONTINUOUS
10
180.238
20
-92.3279
11
180.206
21
-92.3193
0
LINE
8
BLACK
6
CONTINUOUS
10
180.206
20
-92.3193
11
180.173
21
-92.3135
0
LINE
8
BLACK
6
CONTINUOUS
10
180.173
20
-92.3135
11
180.164
21
-92.308
0
LINE
8
BLACK
6
CONTINUOUS
10
180.164
20
-92.308
11
180.153
21
-92.3051
0
LINE
8
BLACK
6
CONTINUOUS
10
180.153
20
-92.3051
11
180.126
21
-92.286
0
LINE
8
BLACK
6
CONTINUOUS
10
180.126
20
-92.286
11
180.097
21
-92.2695
0
LINE
8
BLACK
6
CONTINUOUS
10
180.097
20
-92.2695
11
180.076
21
-92.2441
0
LINE
8
BLACK
6
CONTINUOUS
10
180.076
20
-92.2441
11
179.79
21
-91.9585
0
LINE
8
BLACK
6
CONTINUOUS
10
179.79
20
-91.9585
11
179.765
21
-91.9372
0
LINE
8
BLACK
6
CONTINUOUS
10
179.765
20
-91.9372
11
179.748
21
-91.9085
0
LINE
8
BLACK
6
CONTINUOUS
10
179.748
20
-91.9085
11
179.729
21
-91.8813
0
LINE
8
BLACK
6
CONTINUOUS
10
179.729
20
-91.8813
11
179.726
21
-91.8705
0
LINE
8
BLACK
6
CONTINUOUS
10
179.726
20
-91.8705
11
179.72
21
-91.8608
0
LINE
8
BLACK
6
CONTINUOUS
10
179.72
20
-91.8608
11
179.715
21
-91.8282
0
LINE
8
BLACK
6
CONTINUOUS
10
179.715
20
-91.8282
11
179.706
21
-91.7961
0
LINE
8
BLACK
6
CONTINUOUS
10
179.706
20
-91.7961
11
179.709
21
-91.7631
0
LINE
8
BLACK
6
CONTINUOUS
10
179.709
20
-91.7631
11
179.709
21
-91.274
0
LINE
8
BLACK
6
CONTINUOUS
10
179.709
20
-91.274
11
179.109
21
-91.274
0
LINE
8
BLACK
6
CONTINUOUS
10
179.109
20
-91.274
11
179.109
21
-89.574
0
LINE
8
BLACK
6
CONTINUOUS
10
179.109
20
-89.574
11
179.709
21
-89.574
0
LINE
8
BLACK
6
CONTINUOUS
10
179.709
20
-89.574
11
179.709
21
-82.5446
0
LINE
8
BLACK
6
CONTINUOUS
10
179.709
20
-82.5446
11
179.709
21
-82.5446
0
LINE
8
BLACK
6
CONTINUOUS
10
179.709
20
-82.5446
11
179.709
21
-82.0665
0
LINE
8
BLACK
6
CONTINUOUS
10
179.709
20
-82.0665
11
179.109
21
-82.0665
0
LINE
8
BLACK
6
CONTINUOUS
10
179.109
20
-82.0665
11
179.109
21
-80.3665
0
LINE
8
BLACK
6
CONTINUOUS
10
179.109
20
-80.3665
11
180.809
21
-80.3665
0
LINE
8
BLACK
6
CONTINUOUS
10
180.809
20
-80.3665
11
180.809
21
-82.0665
0
LINE
8
BLACK
6
CONTINUOUS
10
180.809
20
-82.0665
11
180.209
21
-82.0665
0
LINE
8
BLACK
6
CONTINUOUS
10
180.209
20
-82.0665
11
180.209
21
-89.574
0
LINE
8
BLACK
6
CONTINUOUS
10
180.209
20
-89.574
11
180.809
21
-89.574
0
LINE
8
BLACK
6
CONTINUOUS
10
180.809
20
-89.574
11
180.809
21
-91.274
0
LINE
8
BLACK
6
CONTINUOUS
10
180.809
20
-91.274
11
180.209
21
-91.274
0
LINE
8
BLACK
6
CONTINUOUS
10
180.209
20
-91.274
11
180.209
21
-91.6704
0
LINE
8
BLACK
6
CONTINUOUS
10
180.209
20
-91.6704
11
180.364
21
-91.825
0
LINE
8
BLACK
6
CONTINUOUS
10
180.364
20
-91.825
11
190.187
21
-91.825
0
LINE
8
BLACK
6
CONTINUOUS
10
190.187
20
-91.825
11
190.187
21
-91.274
0
LINE
8
BLACK
6
CONTINUOUS
10
190.187
20
-91.274
11
189.587
21
-91.274
0
LINE
8
BLACK
6
CONTINUOUS
10
189.587
20
-91.274
11
189.587
21
-89.574
0
LINE
8
BLACK
6
CONTINUOUS
10
189.587
20
-89.574
11
191.286
21
-89.574
0
LINE
8
BLACK
6
CONTINUOUS
10
191.286
20
-89.574
11
191.286
21
-91.274
0
LINE
8
BLACK
6
CONTINUOUS
10
191.286
20
-91.274
11
190.686
21
-91.274
0
LINE
8
BLACK
6
CONTINUOUS
10
190.686
20
-91.274
11
190.686
21
-91.825
0
LINE
8
BLACK
6
CONTINUOUS
10
190.686
20
-91.825
11
207.986
21
-91.825
0
LINE
8
BLACK
6
CONTINUOUS
10
207.986
20
-91.825
11
211.713
21
-88.0979
0
LINE
8
BLACK
6
CONTINUOUS
10
211.713
20
-88.0979
11
211.713
21
-77.8911
0
LINE
8
BLACK
6
CONTINUOUS
10
211.713
20
-77.8911
11
210.598
21
-76.7765
0
LINE
8
BLACK
6
CONTINUOUS
10
210.598
20
-76.7765
11
206.567
21
-76.7765
0
LINE
8
BLACK
6
CONTINUOUS
10
206.567
20
-76.7765
11
206.567
21
-76.8515
0
LINE
8
BLACK
6
CONTINUOUS
10
206.567
20
-76.8515
11
206.552
21
-76.937
0
LINE
8
BLACK
6
CONTINUOUS
10
206.552
20
-76.937
11
206.509
21
-77.0122
0
LINE
8
BLACK
6
CONTINUOUS
10
206.509
20
-77.0122
11
206.442
21
-77.068
0
LINE
8
BLACK
6
CONTINUOUS
10
206.442
20
-77.068
11
206.317
21
-77.1015
0
LINE
8
BLACK
6
CONTINUOUS
10
206.317
20
-77.1015
11
205.417
21
-77.1015
0
LINE
8
BLACK
6
CONTINUOUS
10
205.417
20
-77.1015
11
205.331
21
-77.0864
0
LINE
8
BLACK
6
CONTINUOUS
10
205.331
20
-77.0864
11
205.256
21
-77.043
0
LINE
8
BLACK
6
CONTINUOUS
10
205.256
20
-77.043
11
205.2
21
-76.9765
0
LINE
8
BLACK
6
CONTINUOUS
10
205.2
20
-76.9765
11
205.167
21
-76.8515
0
LINE
8
BLACK
6
CONTINUOUS
10
205.167
20
-76.8515
11
205.167
21
-76.2015
0
LINE
8
BLACK
6
CONTINUOUS
10
205.167
20
-76.2015
11
205.182
21
-76.116
0
LINE
8
BLACK
6
CONTINUOUS
10
205.182
20
-76.116
11
205.225
21
-76.0408
0
LINE
8
BLACK
6
CONTINUOUS
10
205.225
20
-76.0408
11
205.292
21
-75.985
0
LINE
8
BLACK
6
CONTINUOUS
10
205.292
20
-75.985
11
205.417
21
-75.9515
0
LINE
8
BLACK
6
CONTINUOUS
10
205.417
20
-75.9515
11
206.317
21
-75.9515
0
LINE
8
BLACK
6
CONTINUOUS
10
206.317
20
-75.9515
11
206.403
21
-75.9666
0
LINE
8
BLACK
6
CONTINUOUS
10
206.403
20
-75.9666
11
206.478
21
-76.01
0
LINE
8
BLACK
6
CONTINUOUS
10
206.478
20
-76.01
11
206.534
21
-76.0765
0
LINE
8
BLACK
6
CONTINUOUS
10
206.534
20
-76.0765
11
206.567
21
-76.2015
0
LINE
8
BLACK
6
CONTINUOUS
10
206.567
20
-76.2015
11
206.567
21
-76.2765
0
LINE
8
BLACK
6
CONTINUOUS
10
206.567
20
-76.2765
11
210.691
21
-76.2765
0
LINE
8
BLACK
6
CONTINUOUS
10
210.691
20
-76.2765
11
210.724
21
-76.2736
0
LINE
8
BLACK
6
CONTINUOUS
10
210.724
20
-76.2736
11
210.756
21
-76.2822
0
LINE
8
BLACK
6
CONTINUOUS
10
210.756
20
-76.2822
11
210.789
21
-76.288
0
LINE
8
BLACK
6
CONTINUOUS
10
210.789
20
-76.288
11
210.798
21
-76.2935
0
LINE
8
BLACK
6
CONTINUOUS
10
210.798
20
-76.2935
11
210.809
21
-76.2964
0
LINE
8
BLACK
6
CONTINUOUS
10
210.809
20
-76.2964
11
210.836
21
-76.3154
0
LINE
8
BLACK
6
CONTINUOUS
10
210.836
20
-76.3154
11
210.865
21
-76.332
0
LINE
8
BLACK
6
CONTINUOUS
10
210.865
20
-76.332
11
210.886
21
-76.3574
0
LINE
8
BLACK
6
CONTINUOUS
10
210.886
20
-76.3574
11
211.713
21
-77.1839
0
LINE
8
BLACK
6
CONTINUOUS
10
211.713
20
-77.1839
11
211.713
21
-65.2105
0
LINE
8
BLACK
6
CONTINUOUS
10
211.713
20
-65.2105
11
210.971
21
-65.2105
0
LINE
8
BLACK
6
CONTINUOUS
10
210.971
20
-65.2105
11
210.181
21
-66.0001
0
LINE
8
BLACK
6
CONTINUOUS
10
210.181
20
-66.0001
11
210.181
21
-66.3965
0
LINE
8
BLACK
6
CONTINUOUS
10
210.181
20
-66.3965
11
210.781
21
-66.3965
0
LINE
8
BLACK
6
CONTINUOUS
10
210.781
20
-66.3965
11
210.781
21
-68.0965
0
LINE
8
BLACK
6
CONTINUOUS
10
210.781
20
-68.0965
11
209.081
21
-68.0965
0
LINE
8
BLACK
6
CONTINUOUS
10
209.081
20
-68.0965
11
209.081
21
-67.6235
0
LINE
8
BLACK
6
CONTINUOUS
10
209.081
20
-67.6235
11
207.422
21
-67.6235
0
LINE
8
BLACK
6
CONTINUOUS
10
207.422
20
-67.6235
11
206.435
21
-68.6101
0
LINE
8
BLACK
6
CONTINUOUS
10
206.435
20
-68.6101
11
206.44
21
-68.627
0
LINE
8
BLACK
6
CONTINUOUS
10
206.44
20
-68.627
11
206.44
21
-69.277
0
LINE
8
BLACK
6
CONTINUOUS
10
206.44
20
-69.277
11
206.425
21
-69.3625
0
LINE
8
BLACK
6
CONTINUOUS
10
206.425
20
-69.3625
11
206.382
21
-69.4377
0
LINE
8
BLACK
6
CONTINUOUS
10
206.382
20
-69.4377
11
206.315
21
-69.4935
0
LINE
8
BLACK
6
CONTINUOUS
10
206.315
20
-69.4935
11
206.19
21
-69.527
0
LINE
8
BLACK
6
CONTINUOUS
10
206.19
20
-69.527
11
205.29
21
-69.527
0
LINE
8
BLACK
6
CONTINUOUS
10
205.29
20
-69.527
11
205.204
21
-69.5119
0
LINE
8
BLACK
6
CONTINUOUS
10
205.204
20
-69.5119
11
205.129
21
-69.4685
0
LINE
8
BLACK
6
CONTINUOUS
10
205.129
20
-69.4685
11
205.073
21
-69.402
0
LINE
8
BLACK
6
CONTINUOUS
10
205.073
20
-69.402
11
205.04
21
-69.277
0
LINE
8
BLACK
6
CONTINUOUS
10
205.04
20
-69.277
11
205.04
21
-68.627
0
LINE
8
BLACK
6
CONTINUOUS
10
205.04
20
-68.627
11
205.055
21
-68.5415
0
LINE
8
BLACK
6
CONTINUOUS
10
205.055
20
-68.5415
11
205.098
21
-68.4663
0
LINE
8
BLACK
6
CONTINUOUS
10
205.098
20
-68.4663
11
205.165
21
-68.4105
0
LINE
8
BLACK
6
CONTINUOUS
10
205.165
20
-68.4105
11
205.29
21
-68.377
0
LINE
8
BLACK
6
CONTINUOUS
10
205.29
20
-68.377
11
205.961
21
-68.377
0
LINE
8
BLACK
6
CONTINUOUS
10
205.961
20
-68.377
11
206.715
21
-67.6235
0
LINE
8
BLACK
6
CONTINUOUS
10
206.715
20
-67.6235
11
202.589
21
-67.6235
0
LINE
8
BLACK
6
CONTINUOUS
10
202.589
20
-67.6235
11
202.589
21
-68.2235
0
LINE
8
BLACK
6
CONTINUOUS
10
202.589
20
-68.2235
11
200.889
21
-68.2235
0
LINE
8
BLACK
6
CONTINUOUS
10
200.889
20
-68.2235
11
200.889
21
-66.5235
0
LINE
8
BLACK
6
CONTINUOUS
10
200.889
20
-66.5235
11
202.589
21
-66.5235
0
LINE
8
BLACK
6
CONTINUOUS
10
202.589
20
-66.5235
11
202.589
21
-67.1235
0
LINE
8
BLACK
6
CONTINUOUS
10
202.589
20
-67.1235
11
207.286
21
-67.1235
0
LINE
8
BLACK
6
CONTINUOUS
10
207.286
20
-67.1235
11
207.296
21
-67.1206
0
LINE
8
BLACK
6
CONTINUOUS
10
207.296
20
-67.1206
11
207.329
21
-67.1235
0
LINE
8
BLACK
6
CONTINUOUS
10
207.329
20
-67.1235
11
209.081
21
-67.1235
0
LINE
8
BLACK
6
CONTINUOUS
10
209.081
20
-67.1235
11
209.081
21
-66.3965
0
LINE
8
BLACK
6
CONTINUOUS
10
209.081
20
-66.3965
11
209.681
21
-66.3965
0
LINE
8
BLACK
6
CONTINUOUS
10
209.681
20
-66.3965
11
209.681
21
-65.9074
0
LINE
8
BLACK
6
CONTINUOUS
10
209.681
20
-65.9074
11
209.678
21
-65.8744
0
LINE
8
BLACK
6
CONTINUOUS
10
209.678
20
-65.8744
11
209.687
21
-65.8423
0
LINE
8
BLACK
6
CONTINUOUS
10
209.687
20
-65.8423
11
209.692
21
-65.8097
0
LINE
8
BLACK
6
CONTINUOUS
10
209.692
20
-65.8097
11
209.698
21
-65.8
0
LINE
8
BLACK
6
CONTINUOUS
10
209.698
20
-65.8
11
209.701
21
-65.7892
0
LINE
8
BLACK
6
CONTINUOUS
10
209.701
20
-65.7892
11
209.72
21
-65.762
0
LINE
8
BLACK
6
CONTINUOUS
10
209.72
20
-65.762
11
209.737
21
-65.7333
0
LINE
8
BLACK
6
CONTINUOUS
10
209.737
20
-65.7333
11
209.762
21
-65.712
0
LINE
8
BLACK
6
CONTINUOUS
10
209.762
20
-65.712
11
210.683
21
-64.7914
0
LINE
8
BLACK
6
CONTINUOUS
10
210.683
20
-64.7914
11
210.704
21
-64.766
0
LINE
8
BLACK
6
CONTINUOUS
10
210.704
20
-64.766
11
210.733
21
-64.7495
0
LINE
8
BLACK
6
CONTINUOUS
10
210.733
20
-64.7495
11
210.76
21
-64.7304
0
LINE
8
BLACK
6
CONTINUOUS
10
210.76
20
-64.7304
11
210.771
21
-64.7275
0
LINE
8
BLACK
6
CONTINUOUS
10
210.771
20
-64.7275
11
210.78
21
-64.722
0
LINE
8
BLACK
6
CONTINUOUS
10
210.78
20
-64.722
11
210.813
21
-64.7162
0
LINE
8
BLACK
6
CONTINUOUS
10
210.813
20
-64.7162
11
210.845
21
-64.7076
0
LINE
8
BLACK
6
CONTINUOUS
10
210.845
20
-64.7076
11
210.878
21
-64.7105
0
LINE
8
BLACK
6
CONTINUOUS
10
210.878
20
-64.7105
11
211.763
21
-64.7105
0
LINE
8
BLACK
6
CONTINUOUS
10
211.763
20
-64.7105
11
211.763
21
-52.5278
0
LINE
8
BLACK
6
CONTINUOUS
10
211.763
20
-52.5278
11
210.772
21
-51.5365
0
LINE
8
BLACK
6
CONTINUOUS
10
210.772
20
-51.5365
11
210.054
21
-51.5365
0
LINE
8
BLACK
6
CONTINUOUS
10
210.054
20
-51.5365
11
210.054
21
-56.2675
0
LINE
8
BLACK
6
CONTINUOUS
10
210.054
20
-56.2675
11
210.099
21
-56.2754
0
LINE
8
BLACK
6
CONTINUOUS
10
210.099
20
-56.2754
11
210.359
21
-56.4253
0
LINE
8
BLACK
6
CONTINUOUS
10
210.359
20
-56.4253
11
210.551
21
-56.6549
0
LINE
8
BLACK
6
CONTINUOUS
10
210.551
20
-56.6549
11
210.654
21
-56.9366
0
LINE
8
BLACK
6
CONTINUOUS
10
210.654
20
-56.9366
11
210.654
21
-57.2364
0
LINE
8
BLACK
6
CONTINUOUS
10
210.654
20
-57.2364
11
210.551
21
-57.5181
0
LINE
8
BLACK
6
CONTINUOUS
10
210.551
20
-57.5181
11
210.359
21
-57.7477
0
LINE
8
BLACK
6
CONTINUOUS
10
210.359
20
-57.7477
11
210.099
21
-57.8976
0
LINE
8
BLACK
6
CONTINUOUS
10
210.099
20
-57.8976
11
209.878
21
-57.9365
0
LINE
8
BLACK
6
CONTINUOUS
10
209.878
20
-57.9365
11
209.73
21
-57.9365
0
LINE
8
BLACK
6
CONTINUOUS
10
209.73
20
-57.9365
11
209.509
21
-57.8976
0
LINE
8
BLACK
6
CONTINUOUS
10
209.509
20
-57.8976
11
209.249
21
-57.7477
0
LINE
8
BLACK
6
CONTINUOUS
10
209.249
20
-57.7477
11
209.057
21
-57.5181
0
LINE
8
BLACK
6
CONTINUOUS
10
209.057
20
-57.5181
11
208.954
21
-57.2364
0
LINE
8
BLACK
6
CONTINUOUS
10
208.954
20
-57.2364
11
208.954
21
-56.9366
0
LINE
8
BLACK
6
CONTINUOUS
10
208.954
20
-56.9366
11
209.057
21
-56.6549
0
LINE
8
BLACK
6
CONTINUOUS
10
209.057
20
-56.6549
11
209.249
21
-56.4253
0
LINE
8
BLACK
6
CONTINUOUS
10
209.249
20
-56.4253
11
209.509
21
-56.2754
0
LINE
8
BLACK
6
CONTINUOUS
10
209.509
20
-56.2754
11
209.554
21
-56.2675
0
LINE
8
BLACK
6
CONTINUOUS
10
209.554
20
-56.2675
11
209.554
21
-51.5365
0
LINE
8
BLACK
6
CONTINUOUS
10
209.554
20
-51.5365
11
208.754
21
-51.5365
0
LINE
8
BLACK
6
CONTINUOUS
10
208.754
20
-51.5365
11
208.669
21
-51.5214
0
LINE
8
BLACK
6
CONTINUOUS
10
208.669
20
-51.5214
11
208.594
21
-51.478
0
LINE
8
BLACK
6
CONTINUOUS
10
208.594
20
-51.478
11
208.538
21
-51.4115
0
LINE
8
BLACK
6
CONTINUOUS
10
208.538
20
-51.4115
11
208.504
21
-51.2865
0
LINE
8
BLACK
6
CONTINUOUS
10
208.504
20
-51.2865
11
208.504
21
-50.1865
0
LINE
8
BLACK
6
CONTINUOUS
10
208.504
20
-50.1865
11
208.52
21
-50.101
0
LINE
8
BLACK
6
CONTINUOUS
10
208.52
20
-50.101
11
208.563
21
-50.0258
0
LINE
8
BLACK
6
CONTINUOUS
10
208.563
20
-50.0258
11
208.629
21
-49.97
0
LINE
8
BLACK
6
CONTINUOUS
10
208.629
20
-49.97
11
208.754
21
-49.9365
0
LINE
8
BLACK
6
CONTINUOUS
10
208.754
20
-49.9365
11
209.101
21
-49.9365
0
LINE
8
BLACK
6
CONTINUOUS
10
209.101
20
-49.9365
11
208.309
21
-49.145
0
LINE
8
BLACK
6
CONTINUOUS
10
208.309
20
-49.145
11
202.602
21
-49.145
0
LINE
8
BLACK
6
CONTINUOUS
10
202.602
20
-49.145
11
201.476
21
-50.2706
0
LINE
8
BLACK
6
CONTINUOUS
10
201.476
20
-50.2706
11
201.455
21
-50.296
0
LINE
8
BLACK
6
CONTINUOUS
10
201.455
20
-50.296
11
201.426
21
-50.3125
0
LINE
8
BLACK
6
CONTINUOUS
10
201.426
20
-50.3125
11
201.399
21
-50.3316
0
LINE
8
BLACK
6
CONTINUOUS
10
201.399
20
-50.3316
11
201.388
21
-50.3345
0
LINE
8
BLACK
6
CONTINUOUS
10
201.388
20
-50.3345
11
201.379
21
-50.34
0
LINE
8
BLACK
6
CONTINUOUS
10
201.379
20
-50.34
11
201.346
21
-50.3458
0
LINE
8
BLACK
6
CONTINUOUS
10
201.346
20
-50.3458
11
201.314
21
-50.3544
0
LINE
8
BLACK
6
CONTINUOUS
10
201.314
20
-50.3544
11
201.281
21
-50.3515
0
LINE
8
BLACK
6
CONTINUOUS
10
201.281
20
-50.3515
11
200.792
21
-50.3515
0
LINE
8
BLACK
6
CONTINUOUS
10
200.792
20
-50.3515
11
200.792
21
-51.2515
0
LINE
8
BLACK
6
CONTINUOUS
10
200.792
20
-51.2515
11
199.292
21
-51.2515
0
LINE
8
BLACK
6
CONTINUOUS
10
199.292
20
-51.2515
11
199.292
21
-54.0404
0
LINE
8
BLACK
6
CONTINUOUS
10
199.292
20
-54.0404
11
199.928
21
-54.6765
0
LINE
8
BLACK
6
CONTINUOUS
10
199.928
20
-54.6765
11
199.945
21
-54.672
0
LINE
8
BLACK
6
CONTINUOUS
10
199.945
20
-54.672
11
200.595
21
-54.672
0
LINE
8
BLACK
6
CONTINUOUS
10
200.595
20
-54.672
11
200.681
21
-54.6871
0
LINE
8
BLACK
6
CONTINUOUS
10
200.681
20
-54.6871
11
200.756
21
-54.7305
0
LINE
8
BLACK
6
CONTINUOUS
10
200.756
20
-54.7305
11
200.812
21
-54.797
0
LINE
8
BLACK
6
CONTINUOUS
10
200.812
20
-54.797
11
200.845
21
-54.922
0
LINE
8
BLACK
6
CONTINUOUS
10
200.845
20
-54.922
11
200.845
21
-55.822
0
LINE
8
BLACK
6
CONTINUOUS
10
200.845
20
-55.822
11
200.83
21
-55.9075
0
LINE
8
BLACK
6
CONTINUOUS
10
200.83
20
-55.9075
11
200.787
21
-55.9827
0
LINE
8
BLACK
6
CONTINUOUS
10
200.787
20
-55.9827
11
200.72
21
-56.0385
0
LINE
8
BLACK
6
CONTINUOUS
10
200.72
20
-56.0385
11
200.647
21
-56.0581
0
LINE
8
BLACK
6
CONTINUOUS
10
200.647
20
-56.0581
11
200.647
21
-58.2915
0
LINE
8
BLACK
6
CONTINUOUS
10
200.647
20
-58.2915
11
200.722
21
-58.2915
0
LINE
8
BLACK
6
CONTINUOUS
10
200.722
20
-58.2915
11
200.808
21
-58.3066
0
LINE
8
BLACK
6
CONTINUOUS
10
200.808
20
-58.3066
11
200.883
21
-58.35
0
LINE
8
BLACK
6
CONTINUOUS
10
200.883
20
-58.35
11
200.939
21
-58.4165
0
LINE
8
BLACK
6
CONTINUOUS
10
200.939
20
-58.4165
11
200.972
21
-58.5415
0
LINE
8
BLACK
6
CONTINUOUS
10
200.972
20
-58.5415
11
200.972
21
-59.4415
0
LINE
8
BLACK
6
CONTINUOUS
10
200.972
20
-59.4415
11
200.957
21
-59.527
0
LINE
8
BLACK
6
CONTINUOUS
10
200.957
20
-59.527
11
200.914
21
-59.6022
0
LINE
8
BLACK
6
CONTINUOUS
10
200.914
20
-59.6022
11
200.847
21
-59.658
0
LINE
8
BLACK
6
CONTINUOUS
10
200.847
20
-59.658
11
200.722
21
-59.6915
0
LINE
8
BLACK
6
CONTINUOUS
10
200.722
20
-59.6915
11
200.072
21
-59.6915
0
LINE
8
BLACK
6
CONTINUOUS
10
200.072
20
-59.6915
11
199.986
21
-59.6764
0
LINE
8
BLACK
6
CONTINUOUS
10
199.986
20
-59.6764
11
199.911
21
-59.633
0
LINE
8
BLACK
6
CONTINUOUS
10
199.911
20
-59.633
11
199.855
21
-59.5665
0
LINE
8
BLACK
6
CONTINUOUS
10
199.855
20
-59.5665
11
199.822
21
-59.4415
0
LINE
8
BLACK
6
CONTINUOUS
10
199.822
20
-59.4415
11
199.822
21
-58.5415
0
LINE
8
BLACK
6
CONTINUOUS
10
199.822
20
-58.5415
11
199.837
21
-58.456
0
LINE
8
BLACK
6
CONTINUOUS
10
199.837
20
-58.456
11
199.88
21
-58.3808
0
LINE
8
BLACK
6
CONTINUOUS
10
199.88
20
-58.3808
11
199.947
21
-58.325
0
LINE
8
BLACK
6
CONTINUOUS
10
199.947
20
-58.325
11
200.072
21
-58.2915
0
LINE
8
BLACK
6
CONTINUOUS
10
200.072
20
-58.2915
11
200.147
21
-58.2915
0
LINE
8
BLACK
6
CONTINUOUS
10
200.147
20
-58.2915
11
200.147
21
-56.072
0
LINE
8
BLACK
6
CONTINUOUS
10
200.147
20
-56.072
11
199.945
21
-56.072
0
LINE
8
BLACK
6
CONTINUOUS
10
199.945
20
-56.072
11
199.859
21
-56.0569
0
LINE
8
BLACK
6
CONTINUOUS
10
199.859
20
-56.0569
11
199.784
21
-56.0135
0
LINE
8
BLACK
6
CONTINUOUS
10
199.784
20
-56.0135
11
199.728
21
-55.947
0
LINE
8
BLACK
6
CONTINUOUS
10
199.728
20
-55.947
11
199.695
21
-55.822
0
LINE
8
BLACK
6
CONTINUOUS
10
199.695
20
-55.822
11
199.695
21
-55.1506
0
LINE
8
BLACK
6
CONTINUOUS
10
199.695
20
-55.1506
11
198.873
21
-54.3285
0
LINE
8
BLACK
6
CONTINUOUS
10
198.873
20
-54.3285
11
198.848
21
-54.3072
0
LINE
8
BLACK
6
CONTINUOUS
10
198.848
20
-54.3072
11
198.831
21
-54.2785
0
LINE
8
BLACK
6
CONTINUOUS
10
198.831
20
-54.2785
11
198.812
21
-54.2513
0
LINE
8
BLACK
6
CONTINUOUS
10
198.812
20
-54.2513
11
198.809
21
-54.2405
0
LINE
8
BLACK
6
CONTINUOUS
10
198.809
20
-54.2405
11
198.803
21
-54.2308
0
LINE
8
BLACK
6
CONTINUOUS
10
198.803
20
-54.2308
11
198.798
21
-54.1982
0
LINE
8
BLACK
6
CONTINUOUS
10
198.798
20
-54.1982
11
198.789
21
-54.1661
0
LINE
8
BLACK
6
CONTINUOUS
10
198.789
20
-54.1661
11
198.792
21
-54.1331
0
LINE
8
BLACK
6
CONTINUOUS
10
198.792
20
-54.1331
11
198.792
21
-51.2515
0
LINE
8
BLACK
6
CONTINUOUS
10
198.792
20
-51.2515
11
197.292
21
-51.2515
0
LINE
8
BLACK
6
CONTINUOUS
10
197.292
20
-51.2515
11
197.292
21
-48.9515
0
LINE
8
BLACK
6
CONTINUOUS
10
197.292
20
-48.9515
11
200.792
21
-48.9515
0
LINE
8
BLACK
6
CONTINUOUS
10
200.792
20
-48.9515
11
200.792
21
-49.8515
0
LINE
8
BLACK
6
CONTINUOUS
10
200.792
20
-49.8515
11
201.188
21
-49.8515
0
LINE
8
BLACK
6
CONTINUOUS
10
201.188
20
-49.8515
11
202.314
21
-48.7259
0
LINE
8
BLACK
6
CONTINUOUS
10
202.314
20
-48.7259
11
202.335
21
-48.7005
0
LINE
8
BLACK
6
CONTINUOUS
10
202.335
20
-48.7005
11
202.364
21
-48.684
0
LINE
8
BLACK
6
CONTINUOUS
10
202.364
20
-48.684
11
202.391
21
-48.6649
0
LINE
8
BLACK
6
CONTINUOUS
10
202.391
20
-48.6649
11
202.402
21
-48.662
0
LINE
8
BLACK
6
CONTINUOUS
10
202.402
20
-48.662
11
202.412
21
-48.6565
0
LINE
8
BLACK
6
CONTINUOUS
10
202.412
20
-48.6565
11
202.444
21
-48.6507
0
LINE
8
BLACK
6
CONTINUOUS
10
202.444
20
-48.6507
11
202.476
21
-48.6421
0
LINE
8
BLACK
6
CONTINUOUS
10
202.476
20
-48.6421
11
202.509
21
-48.645
0
LINE
8
BLACK
6
CONTINUOUS
10
202.509
20
-48.645
11
208.402
21
-48.645
0
LINE
8
BLACK
6
CONTINUOUS
10
208.402
20
-48.645
11
208.435
21
-48.6421
0
LINE
8
BLACK
6
CONTINUOUS
10
208.435
20
-48.6421
11
208.467
21
-48.6507
0
LINE
8
BLACK
6
CONTINUOUS
10
208.467
20
-48.6507
11
208.5
21
-48.6565
0
LINE
8
BLACK
6
CONTINUOUS
10
208.5
20
-48.6565
11
208.509
21
-48.662
0
LINE
8
BLACK
6
CONTINUOUS
10
208.509
20
-48.662
11
208.52
21
-48.6649
0
LINE
8
BLACK
6
CONTINUOUS
10
208.52
20
-48.6649
11
208.547
21
-48.6839
0
LINE
8
BLACK
6
CONTINUOUS
10
208.547
20
-48.6839
11
208.576
21
-48.7005
0
LINE
8
BLACK
6
CONTINUOUS
10
208.576
20
-48.7005
11
208.597
21
-48.7259
0
LINE
8
BLACK
6
CONTINUOUS
10
208.597
20
-48.7259
11
209.808
21
-49.9365
0
LINE
8
BLACK
6
CONTINUOUS
10
209.808
20
-49.9365
11
211.754
21
-49.9365
0
LINE
8
BLACK
6
CONTINUOUS
10
211.754
20
-49.9365
11
211.84
21
-49.9516
0
LINE
8
BLACK
6
CONTINUOUS
10
211.84
20
-49.9516
11
211.915
21
-49.995
0
LINE
8
BLACK
6
CONTINUOUS
10
211.915
20
-49.995
11
211.971
21
-50.0615
0
LINE
8
BLACK
6
CONTINUOUS
10
211.971
20
-50.0615
11
212.004
21
-50.1865
0
LINE
8
BLACK
6
CONTINUOUS
10
212.004
20
-50.1865
11
212.004
21
-51.2865
0
LINE
8
BLACK
6
CONTINUOUS
10
212.004
20
-51.2865
11
211.989
21
-51.372
0
LINE
8
BLACK
6
CONTINUOUS
10
211.989
20
-51.372
11
211.946
21
-51.4472
0
LINE
8
BLACK
6
CONTINUOUS
10
211.946
20
-51.4472
11
211.879
21
-51.503
0
LINE
8
BLACK
6
CONTINUOUS
10
211.879
20
-51.503
11
211.754
21
-51.5365
0
LINE
8
BLACK
6
CONTINUOUS
10
211.754
20
-51.5365
11
211.337
21
-51.5365
0
LINE
8
BLACK
6
CONTINUOUS
10
211.337
20
-51.5365
11
212.098
21
-52.2974
0
LINE
8
BLACK
6
CONTINUOUS
10
212.098
20
-52.2974
11
212.119
21
-52.3145
0
LINE
8
BLACK
6
CONTINUOUS
10
212.119
20
-52.3145
11
212.132
21
-52.3374
0
LINE
8
BLACK
6
CONTINUOUS
10
212.132
20
-52.3374
11
212.147
21
-52.3592
0
LINE
8
BLACK
6
CONTINUOUS
10
212.147
20
-52.3592
11
212.149
21
-52.3678
0
LINE
8
BLACK
6
CONTINUOUS
10
212.149
20
-52.3678
11
212.154
21
-52.3755
0
LINE
8
BLACK
6
CONTINUOUS
10
212.154
20
-52.3755
11
212.158
21
-52.4017
0
LINE
8
BLACK
6
CONTINUOUS
10
212.158
20
-52.4017
11
212.165
21
-52.4273
0
LINE
8
BLACK
6
CONTINUOUS
10
212.165
20
-52.4273
11
212.163
21
-52.4537
0
LINE
8
BLACK
6
CONTINUOUS
10
212.163
20
-52.4537
11
212.163
21
-64.8069
0
LINE
8
BLACK
6
CONTINUOUS
10
212.163
20
-64.8069
11
212.169
21
-64.8166
0
LINE
8
BLACK
6
CONTINUOUS
10
212.169
20
-64.8166
11
212.183
21
-64.8336
0
LINE
8
BLACK
6
CONTINUOUS
10
212.183
20
-64.8336
11
212.19
21
-64.8544
0
LINE
8
BLACK
6
CONTINUOUS
10
212.19
20
-64.8544
11
212.202
21
-64.8737
0
LINE
8
BLACK
6
CONTINUOUS
10
212.202
20
-64.8737
11
212.205
21
-64.8956
0
LINE
8
BLACK
6
CONTINUOUS
10
212.205
20
-64.8956
11
212.213
21
-64.9164
0
LINE
8
BLACK
6
CONTINUOUS
10
212.213
20
-64.9164
11
212.213
21
-64.9386
0
LINE
8
BLACK
6
CONTINUOUS
10
212.213
20
-64.9386
11
212.213
21
-64.9386
0
LINE
8
BLACK
6
CONTINUOUS
10
212.213
20
-64.9386
11
212.213
21
-77.7546
0
LINE
8
BLACK
6
CONTINUOUS
10
212.213
20
-77.7546
11
212.216
21
-77.7654
0
LINE
8
BLACK
6
CONTINUOUS
10
195.766
20
-89.605
11
195.812
21
-89.6129
0
LINE
8
BLACK
6
CONTINUOUS
10
195.812
20
-89.6129
11
196.071
21
-89.7628
0
LINE
8
BLACK
6
CONTINUOUS
10
196.071
20
-89.7628
11
196.264
21
-89.9924
0
LINE
8
BLACK
6
CONTINUOUS
10
196.264
20
-89.9924
11
196.366
21
-90.2741
0
LINE
8
BLACK
6
CONTINUOUS
10
196.366
20
-90.2741
11
196.366
21
-90.5739
0
LINE
8
BLACK
6
CONTINUOUS
10
196.366
20
-90.5739
11
196.264
21
-90.8556
0
LINE
8
BLACK
6
CONTINUOUS
10
196.264
20
-90.8556
11
196.071
21
-91.0852
0
LINE
8
BLACK
6
CONTINUOUS
10
196.071
20
-91.0852
11
195.812
21
-91.2351
0
LINE
8
BLACK
6
CONTINUOUS
10
195.812
20
-91.2351
11
195.591
21
-91.274
0
LINE
8
BLACK
6
CONTINUOUS
10
195.591
20
-91.274
11
195.442
21
-91.274
0
LINE
8
BLACK
6
CONTINUOUS
10
195.442
20
-91.274
11
195.221
21
-91.2351
0
LINE
8
BLACK
6
CONTINUOUS
10
195.221
20
-91.2351
11
194.962
21
-91.0852
0
LINE
8
BLACK
6
CONTINUOUS
10
194.962
20
-91.0852
11
194.769
21
-90.8556
0
LINE
8
BLACK
6
CONTINUOUS
10
194.769
20
-90.8556
11
194.667
21
-90.5739
0
LINE
8
BLACK
6
CONTINUOUS
10
194.667
20
-90.5739
11
194.667
21
-90.2741
0
LINE
8
BLACK
6
CONTINUOUS
10
194.667
20
-90.2741
11
194.769
21
-89.9924
0
LINE
8
BLACK
6
CONTINUOUS
10
194.769
20
-89.9924
11
194.962
21
-89.7628
0
LINE
8
BLACK
6
CONTINUOUS
10
194.962
20
-89.7628
11
195.221
21
-89.6129
0
LINE
8
BLACK
6
CONTINUOUS
10
195.221
20
-89.6129
11
195.267
21
-89.605
0
LINE
8
BLACK
6
CONTINUOUS
10
195.267
20
-89.605
11
195.266
21
-88.6241
0
LINE
8
BLACK
6
CONTINUOUS
10
195.266
20
-88.6241
11
195.267
21
-88.6241
0
LINE
8
BLACK
6
CONTINUOUS
10
195.267
20
-88.6241
11
195.267
21
-88.6019
0
LINE
8
BLACK
6
CONTINUOUS
10
195.267
20
-88.6019
11
195.274
21
-88.581
0
LINE
8
BLACK
6
CONTINUOUS
10
195.274
20
-88.581
11
195.278
21
-88.5592
0
LINE
8
BLACK
6
CONTINUOUS
10
195.278
20
-88.5592
11
195.289
21
-88.5399
0
LINE
8
BLACK
6
CONTINUOUS
10
195.289
20
-88.5399
11
195.297
21
-88.5191
0
LINE
8
BLACK
6
CONTINUOUS
10
195.297
20
-88.5191
11
195.311
21
-88.5021
0
LINE
8
BLACK
6
CONTINUOUS
10
195.311
20
-88.5021
11
195.322
21
-88.4828
0
LINE
8
BLACK
6
CONTINUOUS
10
195.322
20
-88.4828
11
195.339
21
-88.4685
0
LINE
8
BLACK
6
CONTINUOUS
10
195.339
20
-88.4685
11
195.353
21
-88.4515
0
LINE
8
BLACK
6
CONTINUOUS
10
195.353
20
-88.4515
11
195.373
21
-88.4404
0
LINE
8
BLACK
6
CONTINUOUS
10
195.373
20
-88.4404
11
195.39
21
-88.4262
0
LINE
8
BLACK
6
CONTINUOUS
10
195.39
20
-88.4262
11
195.41
21
-88.4186
0
LINE
8
BLACK
6
CONTINUOUS
10
195.41
20
-88.4186
11
195.43
21
-88.4075
0
LINE
8
BLACK
6
CONTINUOUS
10
195.43
20
-88.4075
11
195.452
21
-88.4036
0
LINE
8
BLACK
6
CONTINUOUS
10
195.452
20
-88.4036
11
195.472
21
-88.396
0
LINE
8
BLACK
6
CONTINUOUS
10
195.472
20
-88.396
11
195.495
21
-88.396
0
LINE
8
BLACK
6
CONTINUOUS
10
195.495
20
-88.396
11
195.495
21
-88.396
0
LINE
8
BLACK
6
CONTINUOUS
10
195.495
20
-88.396
11
198.569
21
-88.396
0
LINE
8
BLACK
6
CONTINUOUS
10
198.569
20
-88.396
11
198.569
21
-83.2291
0
LINE
8
BLACK
6
CONTINUOUS
10
198.569
20
-83.2291
11
197.142
21
-81.8025
0
LINE
8
BLACK
6
CONTINUOUS
10
197.142
20
-81.8025
11
195.398
21
-81.8025
0
LINE
8
BLACK
6
CONTINUOUS
10
195.398
20
-81.8025
11
195.398
21
-82.2025
0
LINE
8
BLACK
6
CONTINUOUS
10
195.398
20
-82.2025
11
193.398
21
-82.2025
0
LINE
8
BLACK
6
CONTINUOUS
10
193.398
20
-82.2025
11
193.398
21
-80.9025
0
LINE
8
BLACK
6
CONTINUOUS
10
193.398
20
-80.9025
11
194.148
21
-80.9025
0
LINE
8
BLACK
6
CONTINUOUS
10
194.148
20
-80.9025
11
194.149
21
-80.4511
0
LINE
8
BLACK
6
CONTINUOUS
10
194.149
20
-80.4511
11
194.084
21
-80.4397
0
LINE
8
BLACK
6
CONTINUOUS
10
194.084
20
-80.4397
11
193.886
21
-80.3251
0
LINE
8
BLACK
6
CONTINUOUS
10
193.886
20
-80.3251
11
193.738
21
-80.1495
0
LINE
8
BLACK
6
CONTINUOUS
10
193.738
20
-80.1495
11
193.66
21
-79.9341
0
LINE
8
BLACK
6
CONTINUOUS
10
193.66
20
-79.9341
11
193.66
21
-79.7049
0
LINE
8
BLACK
6
CONTINUOUS
10
193.66
20
-79.7049
11
193.738
21
-79.4895
0
LINE
8
BLACK
6
CONTINUOUS
10
193.738
20
-79.4895
11
193.886
21
-79.3139
0
LINE
8
BLACK
6
CONTINUOUS
10
193.886
20
-79.3139
11
194.084
21
-79.1993
0
LINE
8
BLACK
6
CONTINUOUS
10
194.084
20
-79.1993
11
194.31
21
-79.1595
0
LINE
8
BLACK
6
CONTINUOUS
10
194.31
20
-79.1595
11
194.536
21
-79.1993
0
LINE
8
BLACK
6
CONTINUOUS
10
194.536
20
-79.1993
11
194.734
21
-79.3139
0
LINE
8
BLACK
6
CONTINUOUS
10
194.734
20
-79.3139
11
194.882
21
-79.4895
0
LINE
8
BLACK
6
CONTINUOUS
10
194.882
20
-79.4895
11
194.96
21
-79.7049
0
LINE
8
BLACK
6
CONTINUOUS
10
194.96
20
-79.7049
11
194.96
21
-79.9341
0
LINE
8
BLACK
6
CONTINUOUS
10
194.96
20
-79.9341
11
194.882
21
-80.1495
0
LINE
8
BLACK
6
CONTINUOUS
10
194.882
20
-80.1495
11
194.734
21
-80.3251
0
LINE
8
BLACK
6
CONTINUOUS
10
194.734
20
-80.3251
11
194.648
21
-80.3746
0
LINE
8
BLACK
6
CONTINUOUS
10
194.648
20
-80.3746
11
194.648
21
-80.9025
0
LINE
8
BLACK
6
CONTINUOUS
10
194.648
20
-80.9025
11
195.398
21
-80.9025
0
LINE
8
BLACK
6
CONTINUOUS
10
195.398
20
-80.9025
11
195.398
21
-81.3025
0
LINE
8
BLACK
6
CONTINUOUS
10
195.398
20
-81.3025
11
197.235
21
-81.3025
0
LINE
8
BLACK
6
CONTINUOUS
10
197.235
20
-81.3025
11
197.268
21
-81.2996
0
LINE
8
BLACK
6
CONTINUOUS
10
197.268
20
-81.2996
11
197.3
21
-81.3082
0
LINE
8
BLACK
6
CONTINUOUS
10
197.3
20
-81.3082
11
197.332
21
-81.314
0
LINE
8
BLACK
6
CONTINUOUS
10
197.332
20
-81.314
11
197.342
21
-81.3195
0
LINE
8
BLACK
6
CONTINUOUS
10
197.342
20
-81.3195
11
197.353
21
-81.3224
0
LINE
8
BLACK
6
CONTINUOUS
10
197.353
20
-81.3224
11
197.38
21
-81.3414
0
LINE
8
BLACK
6
CONTINUOUS
10
197.38
20
-81.3414
11
197.409
21
-81.358
0
LINE
8
BLACK
6
CONTINUOUS
10
197.409
20
-81.358
11
197.43
21
-81.3834
0
LINE
8
BLACK
6
CONTINUOUS
10
197.43
20
-81.3834
11
198.988
21
-82.941
0
LINE
8
BLACK
6
CONTINUOUS
10
198.988
20
-82.941
11
199.013
21
-82.9624
0
LINE
8
BLACK
6
CONTINUOUS
10
199.013
20
-82.9624
11
199.03
21
-82.9911
0
LINE
8
BLACK
6
CONTINUOUS
10
199.03
20
-82.9911
11
199.049
21
-83.0182
0
LINE
8
BLACK
6
CONTINUOUS
10
199.049
20
-83.0182
11
199.051
21
-83.029
0
LINE
8
BLACK
6
CONTINUOUS
10
199.051
20
-83.029
11
199.057
21
-83.0387
0
LINE
8
BLACK
6
CONTINUOUS
10
199.057
20
-83.0387
11
199.063
21
-83.0714
0
LINE
8
BLACK
6
CONTINUOUS
10
199.063
20
-83.0714
11
199.071
21
-83.1034
0
LINE
8
BLACK
6
CONTINUOUS
10
199.071
20
-83.1034
11
199.069
21
-83.1364
0
LINE
8
BLACK
6
CONTINUOUS
10
199.069
20
-83.1364
11
199.069
21
-88.396
0
LINE
8
BLACK
6
CONTINUOUS
10
199.069
20
-88.396
11
199.905
21
-88.396
0
LINE
8
BLACK
6
CONTINUOUS
10
199.905
20
-88.396
11
199.947
21
-88.3605
0
LINE
8
BLACK
6
CONTINUOUS
10
199.947
20
-88.3605
11
200.072
21
-88.327
0
LINE
8
BLACK
6
CONTINUOUS
10
200.072
20
-88.327
11
200.722
21
-88.327
0
LINE
8
BLACK
6
CONTINUOUS
10
200.722
20
-88.327
11
200.74
21
-88.3302
0
LINE
8
BLACK
6
CONTINUOUS
10
200.74
20
-88.3302
11
200.859
21
-88.2114
0
LINE
8
BLACK
6
CONTINUOUS
10
200.859
20
-88.2114
11
200.859
21
-88.2114
0
LINE
8
BLACK
6
CONTINUOUS
10
200.859
20
-88.2114
11
201.363
21
-87.7079
0
LINE
8
BLACK
6
CONTINUOUS
10
201.363
20
-87.7079
11
201.384
21
-87.6825
0
LINE
8
BLACK
6
CONTINUOUS
10
201.384
20
-87.6825
11
201.413
21
-87.6659
0
LINE
8
BLACK
6
CONTINUOUS
10
201.413
20
-87.6659
11
201.44
21
-87.6469
0
LINE
8
BLACK
6
CONTINUOUS
10
201.44
20
-87.6469
11
201.451
21
-87.644
0
LINE
8
BLACK
6
CONTINUOUS
10
201.451
20
-87.644
11
201.46
21
-87.6384
0
LINE
8
BLACK
6
CONTINUOUS
10
201.46
20
-87.6384
11
201.493
21
-87.6327
0
LINE
8
BLACK
6
CONTINUOUS
10
201.493
20
-87.6327
11
201.525
21
-87.6241
0
LINE
8
BLACK
6
CONTINUOUS
10
201.525
20
-87.6241
11
201.558
21
-87.627
0
LINE
8
BLACK
6
CONTINUOUS
10
201.558
20
-87.627
11
203.051
21
-87.627
0
LINE
8
BLACK
6
CONTINUOUS
10
203.051
20
-87.627
11
203.084
21
-87.6241
0
LINE
8
BLACK
6
CONTINUOUS
10
203.084
20
-87.6241
11
203.116
21
-87.6327
0
LINE
8
BLACK
6
CONTINUOUS
10
203.116
20
-87.6327
11
203.149
21
-87.6384
0
LINE
8
BLACK
6
CONTINUOUS
10
203.149
20
-87.6384
11
203.158
21
-87.644
0
LINE
8
BLACK
6
CONTINUOUS
10
203.158
20
-87.644
11
203.169
21
-87.6469
0
LINE
8
BLACK
6
CONTINUOUS
10
203.169
20
-87.6469
11
203.196
21
-87.6659
0
LINE
8
BLACK
6
CONTINUOUS
10
203.196
20
-87.6659
11
203.225
21
-87.6825
0
LINE
8
BLACK
6
CONTINUOUS
10
203.225
20
-87.6825
11
203.246
21
-87.7079
0
LINE
8
BLACK
6
CONTINUOUS
10
203.246
20
-87.7079
11
203.3
21
-87.761
0
LINE
8
BLACK
6
CONTINUOUS
10
203.3
20
-87.761
11
208.555
21
-87.761
0
LINE
8
BLACK
6
CONTINUOUS
10
208.555
20
-87.761
11
209.29
21
-87.0264
0
LINE
8
BLACK
6
CONTINUOUS
10
209.29
20
-87.0264
11
209.29
21
-85.8416
0
LINE
8
BLACK
6
CONTINUOUS
10
209.29
20
-85.8416
11
208.398
21
-84.95
0
LINE
8
BLACK
6
CONTINUOUS
10
208.398
20
-84.95
11
202.185
21
-84.95
0
LINE
8
BLACK
6
CONTINUOUS
10
202.185
20
-84.95
11
202.185
21
-85.025
0
LINE
8
BLACK
6
CONTINUOUS
10
202.185
20
-85.025
11
202.17
21
-85.1105
0
LINE
8
BLACK
6
CONTINUOUS
10
202.17
20
-85.1105
11
202.127
21
-85.1857
0
LINE
8
BLACK
6
CONTINUOUS
10
202.127
20
-85.1857
11
202.061
21
-85.2415
0
LINE
8
BLACK
6
CONTINUOUS
10
202.061
20
-85.2415
11
201.936
21
-85.275
0
LINE
8
BLACK
6
CONTINUOUS
10
201.936
20
-85.275
11
201.035
21
-85.275
0
LINE
8
BLACK
6
CONTINUOUS
10
201.035
20
-85.275
11
200.95
21
-85.2599
0
LINE
8
BLACK
6
CONTINUOUS
10
200.95
20
-85.2599
11
200.875
21
-85.2165
0
LINE
8
BLACK
6
CONTINUOUS
10
200.875
20
-85.2165
11
200.819
21
-85.15
0
LINE
8
BLACK
6
CONTINUOUS
10
200.819
20
-85.15
11
200.785
21
-85.025
0
LINE
8
BLACK
6
CONTINUOUS
10
200.785
20
-85.025
11
200.785
21
-84.375
0
LINE
8
BLACK
6
CONTINUOUS
10
200.785
20
-84.375
11
200.801
21
-84.2895
0
LINE
8
BLACK
6
CONTINUOUS
10
200.801
20
-84.2895
11
200.844
21
-84.2143
0
LINE
8
BLACK
6
CONTINUOUS
10
200.844
20
-84.2143
11
200.91
21
-84.1585
0
LINE
8
BLACK
6
CONTINUOUS
10
200.91
20
-84.1585
11
201.035
21
-84.125
0
LINE
8
BLACK
6
CONTINUOUS
10
201.035
20
-84.125
11
201.236
21
-84.125
0
LINE
8
BLACK
6
CONTINUOUS
10
201.236
20
-84.125
11
201.236
21
-82.7533
0
LINE
8
BLACK
6
CONTINUOUS
10
201.236
20
-82.7533
11
201.233
21
-82.7203
0
LINE
8
BLACK
6
CONTINUOUS
10
201.233
20
-82.7203
11
201.241
21
-82.6883
0
LINE
8
BLACK
6
CONTINUOUS
10
201.241
20
-82.6883
11
201.247
21
-82.6556
0
LINE
8
BLACK
6
CONTINUOUS
10
201.247
20
-82.6556
11
201.253
21
-82.6459
0
LINE
8
BLACK
6
CONTINUOUS
10
201.253
20
-82.6459
11
201.255
21
-82.6351
0
LINE
8
BLACK
6
CONTINUOUS
10
201.255
20
-82.6351
11
201.274
21
-82.608
0
LINE
8
BLACK
6
CONTINUOUS
10
201.274
20
-82.608
11
201.291
21
-82.5793
0
LINE
8
BLACK
6
CONTINUOUS
10
201.291
20
-82.5793
11
201.316
21
-82.5579
0
LINE
8
BLACK
6
CONTINUOUS
10
201.316
20
-82.5579
11
201.992
21
-81.8824
0
LINE
8
BLACK
6
CONTINUOUS
10
201.992
20
-81.8824
11
201.992
21
-81.211
0
LINE
8
BLACK
6
CONTINUOUS
10
201.992
20
-81.211
11
202.007
21
-81.1255
0
LINE
8
BLACK
6
CONTINUOUS
10
202.007
20
-81.1255
11
202.05
21
-81.0503
0
LINE
8
BLACK
6
CONTINUOUS
10
202.05
20
-81.0503
11
202.117
21
-80.9945
0
LINE
8
BLACK
6
CONTINUOUS
10
202.117
20
-80.9945
11
202.242
21
-80.961
0
LINE
8
BLACK
6
CONTINUOUS
10
202.242
20
-80.961
11
202.892
21
-80.961
0
LINE
8
BLACK
6
CONTINUOUS
10
202.892
20
-80.961
11
202.977
21
-80.9761
0
LINE
8
BLACK
6
CONTINUOUS
10
202.977
20
-80.9761
11
203.053
21
-81.0195
0
LINE
8
BLACK
6
CONTINUOUS
10
203.053
20
-81.0195
11
203.108
21
-81.086
0
LINE
8
BLACK
6
CONTINUOUS
10
203.108
20
-81.086
11
203.142
21
-81.211
0
LINE
8
BLACK
6
CONTINUOUS
10
203.142
20
-81.211
11
203.142
21
-82.111
0
LINE
8
BLACK
6
CONTINUOUS
10
203.142
20
-82.111
11
203.127
21
-82.1965
0
LINE
8
BLACK
6
CONTINUOUS
10
203.127
20
-82.1965
11
203.083
21
-82.2717
0
LINE
8
BLACK
6
CONTINUOUS
10
203.083
20
-82.2717
11
203.017
21
-82.3275
0
LINE
8
BLACK
6
CONTINUOUS
10
203.017
20
-82.3275
11
202.892
21
-82.361
0
LINE
8
BLACK
6
CONTINUOUS
10
202.892
20
-82.361
11
202.242
21
-82.361
0
LINE
8
BLACK
6
CONTINUOUS
10
202.242
20
-82.361
11
202.224
21
-82.3578
0
LINE
8
BLACK
6
CONTINUOUS
10
202.224
20
-82.3578
11
201.736
21
-82.846
0
LINE
8
BLACK
6
CONTINUOUS
10
201.736
20
-82.846
11
201.736
21
-84.125
0
LINE
8
BLACK
6
CONTINUOUS
10
201.736
20
-84.125
11
201.936
21
-84.125
0
LINE
8
BLACK
6
CONTINUOUS
10
201.936
20
-84.125
11
202.021
21
-84.1401
0
LINE
8
BLACK
6
CONTINUOUS
10
202.021
20
-84.1401
11
202.096
21
-84.1835
0
LINE
8
BLACK
6
CONTINUOUS
10
202.096
20
-84.1835
11
202.152
21
-84.25
0
LINE
8
BLACK
6
CONTINUOUS
10
202.152
20
-84.25
11
202.185
21
-84.375
0
LINE
8
BLACK
6
CONTINUOUS
10
202.185
20
-84.375
11
202.185
21
-84.45
0
LINE
8
BLACK
6
CONTINUOUS
10
202.185
20
-84.45
11
203.775
21
-84.45
0
LINE
8
BLACK
6
CONTINUOUS
10
203.775
20
-84.45
11
203.776
21
-77.3831
0
LINE
8
BLACK
6
CONTINUOUS
10
203.776
20
-77.3831
11
202.138
21
-75.7452
0
LINE
8
BLACK
6
CONTINUOUS
10
202.138
20
-75.7452
11
202.035
21
-75.8046
0
LINE
8
BLACK
6
CONTINUOUS
10
202.035
20
-75.8046
11
201.814
21
-75.8435
0
LINE
8
BLACK
6
CONTINUOUS
10
201.814
20
-75.8435
11
201.665
21
-75.8435
0
LINE
8
BLACK
6
CONTINUOUS
10
201.665
20
-75.8435
11
201.444
21
-75.8046
0
LINE
8
BLACK
6
CONTINUOUS
10
201.444
20
-75.8046
11
201.185
21
-75.6547
0
LINE
8
BLACK
6
CONTINUOUS
10
201.185
20
-75.6547
11
200.992
21
-75.4251
0
LINE
8
BLACK
6
CONTINUOUS
10
200.992
20
-75.4251
11
200.89
21
-75.1434
0
LINE
8
BLACK
6
CONTINUOUS
10
200.89
20
-75.1434
11
200.89
21
-74.8436
0
LINE
8
BLACK
6
CONTINUOUS
10
200.89
20
-74.8436
11
200.992
21
-74.5619
0
LINE
8
BLACK
6
CONTINUOUS
10
200.992
20
-74.5619
11
201.185
21
-74.3323
0
LINE
8
BLACK
6
CONTINUOUS
10
201.185
20
-74.3323
11
201.444
21
-74.1824
0
LINE
8
BLACK
6
CONTINUOUS
10
201.444
20
-74.1824
11
201.665
21
-74.1435
0
LINE
8
BLACK
6
CONTINUOUS
10
201.665
20
-74.1435
11
201.814
21
-74.1435
0
LINE
8
BLACK
6
CONTINUOUS
10
201.814
20
-74.1435
11
202.035
21
-74.1824
0
LINE
8
BLACK
6
CONTINUOUS
10
202.035
20
-74.1824
11
202.294
21
-74.3323
0
LINE
8
BLACK
6
CONTINUOUS
10
202.294
20
-74.3323
11
202.487
21
-74.5619
0
LINE
8
BLACK
6
CONTINUOUS
10
202.487
20
-74.5619
11
202.553
21
-74.7435
0
LINE
8
BLACK
6
CONTINUOUS
10
202.553
20
-74.7435
11
202.838
21
-74.7435
0
LINE
8
BLACK
6
CONTINUOUS
10
202.838
20
-74.7435
11
204.408
21
-73.1734
0
LINE
8
BLACK
6
CONTINUOUS
10
204.408
20
-73.1734
11
204.429
21
-73.148
0
LINE
8
BLACK
6
CONTINUOUS
10
204.429
20
-73.148
11
204.458
21
-73.1315
0
LINE
8
BLACK
6
CONTINUOUS
10
204.458
20
-73.1315
11
204.485
21
-73.1124
0
LINE
8
BLACK
6
CONTINUOUS
10
204.485
20
-73.1124
11
204.496
21
-73.1095
0
LINE
8
BLACK
6
CONTINUOUS
10
204.496
20
-73.1095
11
204.506
21
-73.104
0
LINE
8
BLACK
6
CONTINUOUS
10
204.506
20
-73.104
11
204.538
21
-73.0982
0
LINE
8
BLACK
6
CONTINUOUS
10
204.538
20
-73.0982
11
204.57
21
-73.0896
0
LINE
8
BLACK
6
CONTINUOUS
10
204.57
20
-73.0896
11
204.603
21
-73.0925
0
LINE
8
BLACK
6
CONTINUOUS
10
204.603
20
-73.0925
11
208.396
21
-73.0925
0
LINE
8
BLACK
6
CONTINUOUS
10
208.396
20
-73.0925
11
208.429
21
-73.0896
0
LINE
8
BLACK
6
CONTINUOUS
10
208.429
20
-73.0896
11
208.461
21
-73.0982
0
LINE
8
BLACK
6
CONTINUOUS
10
208.461
20
-73.0982
11
208.494
21
-73.104
0
LINE
8
BLACK
6
CONTINUOUS
10
208.494
20
-73.104
11
208.503
21
-73.1095
0
LINE
8
BLACK
6
CONTINUOUS
10
208.503
20
-73.1095
11
208.514
21
-73.1124
0
LINE
8
BLACK
6
CONTINUOUS
10
208.514
20
-73.1124
11
208.541
21
-73.1315
0
LINE
8
BLACK
6
CONTINUOUS
10
208.541
20
-73.1315
11
208.57
21
-73.148
0
LINE
8
BLACK
6
CONTINUOUS
10
208.57
20
-73.148
11
208.591
21
-73.1734
0
LINE
8
BLACK
6
CONTINUOUS
10
208.591
20
-73.1734
11
209.533
21
-74.1148
0
LINE
8
BLACK
6
CONTINUOUS
10
209.533
20
-74.1148
11
209.636
21
-74.0554
0
LINE
8
BLACK
6
CONTINUOUS
10
209.636
20
-74.0554
11
209.857
21
-74.0165
0
LINE
8
BLACK
6
CONTINUOUS
10
209.857
20
-74.0165
11
210.005
21
-74.0165
0
LINE
8
BLACK
6
CONTINUOUS
10
210.005
20
-74.0165
11
210.226
21
-74.0554
0
LINE
8
BLACK
6
CONTINUOUS
10
210.226
20
-74.0554
11
210.486
21
-74.2053
0
LINE
8
BLACK
6
CONTINUOUS
10
210.486
20
-74.2053
11
210.678
21
-74.4349
0
LINE
8
BLACK
6
CONTINUOUS
10
210.678
20
-74.4349
11
210.781
21
-74.7166
0
LINE
8
BLACK
6
CONTINUOUS
10
210.781
20
-74.7166
11
210.781
21
-75.0164
0
LINE
8
BLACK
6
CONTINUOUS
10
210.781
20
-75.0164
11
210.678
21
-75.2981
0
LINE
8
BLACK
6
CONTINUOUS
10
210.678
20
-75.2981
11
210.486
21
-75.5277
0
LINE
8
BLACK
6
CONTINUOUS
10
210.486
20
-75.5277
11
210.226
21
-75.6776
0
LINE
8
BLACK
6
CONTINUOUS
10
210.226
20
-75.6776
11
210.005
21
-75.7165
0
LINE
8
BLACK
6
CONTINUOUS
10
210.005
20
-75.7165
11
209.857
21
-75.7165
0
LINE
8
BLACK
6
CONTINUOUS
10
209.857
20
-75.7165
11
209.636
21
-75.6776
0
LINE
8
BLACK
6
CONTINUOUS
10
209.636
20
-75.6776
11
209.376
21
-75.5277
0
LINE
8
BLACK
6
CONTINUOUS
10
209.376
20
-75.5277
11
209.184
21
-75.2981
0
LINE
8
BLACK
6
CONTINUOUS
10
209.184
20
-75.2981
11
209.081
21
-75.0164
0
LINE
8
BLACK
6
CONTINUOUS
10
209.081
20
-75.0164
11
209.081
21
-74.7166
0
LINE
8
BLACK
6
CONTINUOUS
10
209.081
20
-74.7166
11
209.173
21
-74.4625
0
LINE
8
BLACK
6
CONTINUOUS
10
209.173
20
-74.4625
11
208.303
21
-73.5925
0
LINE
8
BLACK
6
CONTINUOUS
10
208.303
20
-73.5925
11
204.696
21
-73.5925
0
LINE
8
BLACK
6
CONTINUOUS
10
204.696
20
-73.5925
11
203.126
21
-75.1626
0
LINE
8
BLACK
6
CONTINUOUS
10
203.126
20
-75.1626
11
203.105
21
-75.188
0
LINE
8
BLACK
6
CONTINUOUS
10
203.105
20
-75.188
11
203.076
21
-75.2045
0
LINE
8
BLACK
6
CONTINUOUS
10
203.076
20
-75.2045
11
203.049
21
-75.2236
0
LINE
8
BLACK
6
CONTINUOUS
10
203.049
20
-75.2236
11
203.038
21
-75.2265
0
LINE
8
BLACK
6
CONTINUOUS
10
203.038
20
-75.2265
11
203.028
21
-75.232
0
LINE
8
BLACK
6
CONTINUOUS
10
203.028
20
-75.232
11
202.996
21
-75.2378
0
LINE
8
BLACK
6
CONTINUOUS
10
202.996
20
-75.2378
11
202.964
21
-75.2464
0
LINE
8
BLACK
6
CONTINUOUS
10
202.964
20
-75.2464
11
202.931
21
-75.2435
0
LINE
8
BLACK
6
CONTINUOUS
10
202.931
20
-75.2435
11
202.553
21
-75.2435
0
LINE
8
BLACK
6
CONTINUOUS
10
202.553
20
-75.2435
11
202.497
21
-75.3975
0
LINE
8
BLACK
6
CONTINUOUS
10
202.497
20
-75.3975
11
204.195
21
-77.095
0
LINE
8
BLACK
6
CONTINUOUS
10
204.195
20
-77.095
11
204.22
21
-77.1163
0
LINE
8
BLACK
6
CONTINUOUS
10
204.22
20
-77.1163
11
204.237
21
-77.145
0
LINE
8
BLACK
6
CONTINUOUS
10
204.237
20
-77.145
11
204.256
21
-77.1722
0
LINE
8
BLACK
6
CONTINUOUS
10
204.256
20
-77.1722
11
204.258
21
-77.183
0
LINE
8
BLACK
6
CONTINUOUS
10
204.258
20
-77.183
11
204.264
21
-77.1927
0
LINE
8
BLACK
6
CONTINUOUS
10
204.264
20
-77.1927
11
204.27
21
-77.2253
0
LINE
8
BLACK
6
CONTINUOUS
10
204.27
20
-77.2253
11
204.278
21
-77.2574
0
LINE
8
BLACK
6
CONTINUOUS
10
204.278
20
-77.2574
11
204.275
21
-77.2904
0
LINE
8
BLACK
6
CONTINUOUS
10
204.275
20
-77.2904
11
204.275
21
-84.45
0
LINE
8
BLACK
6
CONTINUOUS
10
204.275
20
-84.45
11
208.491
21
-84.45
0
LINE
8
BLACK
6
CONTINUOUS
10
208.491
20
-84.45
11
208.524
21
-84.4471
0
LINE
8
BLACK
6
CONTINUOUS
10
208.524
20
-84.4471
11
208.556
21
-84.4557
0
LINE
8
BLACK
6
CONTINUOUS
10
208.556
20
-84.4557
11
208.588
21
-84.4615
0
LINE
8
BLACK
6
CONTINUOUS
10
208.588
20
-84.4615
11
208.598
21
-84.467
0
LINE
8
BLACK
6
CONTINUOUS
10
208.598
20
-84.467
11
208.609
21
-84.4699
0
LINE
8
BLACK
6
CONTINUOUS
10
208.609
20
-84.4699
11
208.636
21
-84.489
0
LINE
8
BLACK
6
CONTINUOUS
10
208.636
20
-84.489
11
208.665
21
-84.5055
0
LINE
8
BLACK
6
CONTINUOUS
10
208.665
20
-84.5055
11
208.686
21
-84.5309
0
LINE
8
BLACK
6
CONTINUOUS
10
208.686
20
-84.5309
11
209.709
21
-85.5535
0
LINE
8
BLACK
6
CONTINUOUS
10
209.709
20
-85.5535
11
209.734
21
-85.5748
0
LINE
8
BLACK
6
CONTINUOUS
10
209.734
20
-85.5748
11
209.751
21
-85.6035
0
LINE
8
BLACK
6
CONTINUOUS
10
209.751
20
-85.6035
11
209.77
21
-85.6307
0
LINE
8
BLACK
6
CONTINUOUS
10
209.77
20
-85.6307
11
209.772
21
-85.6415
0
LINE
8
BLACK
6
CONTINUOUS
10
209.772
20
-85.6415
11
209.778
21
-85.6512
0
LINE
8
BLACK
6
CONTINUOUS
10
209.778
20
-85.6512
11
209.784
21
-85.6838
0
LINE
8
BLACK
6
CONTINUOUS
10
209.784
20
-85.6838
11
209.792
21
-85.7159
0
LINE
8
BLACK
6
CONTINUOUS
10
209.792
20
-85.7159
11
209.79
21
-85.7489
0
LINE
8
BLACK
6
CONTINUOUS
10
209.79
20
-85.7489
11
209.79
21
-87.1191
0
LINE
8
BLACK
6
CONTINUOUS
10
209.79
20
-87.1191
11
209.792
21
-87.1521
0
LINE
8
BLACK
6
CONTINUOUS
10
209.792
20
-87.1521
11
209.784
21
-87.1842
0
LINE
8
BLACK
6
CONTINUOUS
10
209.784
20
-87.1842
11
209.778
21
-87.2168
0
LINE
8
BLACK
6
CONTINUOUS
10
209.778
20
-87.2168
11
209.772
21
-87.2265
0
LINE
8
BLACK
6
CONTINUOUS
10
209.772
20
-87.2265
11
209.77
21
-87.2373
0
LINE
8
BLACK
6
CONTINUOUS
10
209.77
20
-87.2373
11
209.751
21
-87.2645
0
LINE
8
BLACK
6
CONTINUOUS
10
209.751
20
-87.2645
11
209.734
21
-87.2932
0
LINE
8
BLACK
6
CONTINUOUS
10
209.734
20
-87.2932
11
209.709
21
-87.3145
0
LINE
8
BLACK
6
CONTINUOUS
10
209.709
20
-87.3145
11
208.843
21
-88.1801
0
LINE
8
BLACK
6
CONTINUOUS
10
208.843
20
-88.1801
11
208.822
21
-88.2055
0
LINE
8
BLACK
6
CONTINUOUS
10
208.822
20
-88.2055
11
208.793
21
-88.222
0
LINE
8
BLACK
6
CONTINUOUS
10
208.793
20
-88.222
11
208.766
21
-88.2411
0
LINE
8
BLACK
6
CONTINUOUS
10
208.766
20
-88.2411
11
208.755
21
-88.244
0
LINE
8
BLACK
6
CONTINUOUS
10
208.755
20
-88.244
11
208.745
21
-88.2495
0
LINE
8
BLACK
6
CONTINUOUS
10
208.745
20
-88.2495
11
208.713
21
-88.2553
0
LINE
8
BLACK
6
CONTINUOUS
10
208.713
20
-88.2553
11
208.681
21
-88.2639
0
LINE
8
BLACK
6
CONTINUOUS
10
208.681
20
-88.2639
11
208.648
21
-88.261
0
LINE
8
BLACK
6
CONTINUOUS
10
208.648
20
-88.261
11
203.207
21
-88.261
0
LINE
8
BLACK
6
CONTINUOUS
10
203.207
20
-88.261
11
203.174
21
-88.2639
0
LINE
8
BLACK
6
CONTINUOUS
10
203.174
20
-88.2639
11
203.142
21
-88.2553
0
LINE
8
BLACK
6
CONTINUOUS
10
203.142
20
-88.2553
11
203.109
21
-88.2495
0
LINE
8
BLACK
6
CONTINUOUS
10
203.109
20
-88.2495
11
203.099
21
-88.244
0
LINE
8
BLACK
6
CONTINUOUS
10
203.099
20
-88.244
11
203.089
21
-88.2411
0
LINE
8
BLACK
6
CONTINUOUS
10
203.089
20
-88.2411
11
203.062
21
-88.222
0
LINE
8
BLACK
6
CONTINUOUS
10
203.062
20
-88.222
11
203.033
21
-88.2055
0
LINE
8
BLACK
6
CONTINUOUS
10
203.033
20
-88.2055
11
203.011
21
-88.1801
0
LINE
8
BLACK
6
CONTINUOUS
10
203.011
20
-88.1801
11
202.958
21
-88.127
0
LINE
8
BLACK
6
CONTINUOUS
10
202.958
20
-88.127
11
201.651
21
-88.127
0
LINE
8
BLACK
6
CONTINUOUS
10
201.651
20
-88.127
11
201.213
21
-88.5649
0
LINE
8
BLACK
6
CONTINUOUS
10
201.213
20
-88.5649
11
201.213
21
-88.5649
0
LINE
8
BLACK
6
CONTINUOUS
10
201.213
20
-88.5649
11
200.972
21
-88.8056
0
LINE
8
BLACK
6
CONTINUOUS
10
200.972
20
-88.8056
11
200.972
21
-89.477
0
LINE
8
BLACK
6
CONTINUOUS
10
200.972
20
-89.477
11
200.957
21
-89.5625
0
LINE
8
BLACK
6
CONTINUOUS
10
200.957
20
-89.5625
11
200.914
21
-89.6377
0
LINE
8
BLACK
6
CONTINUOUS
10
200.914
20
-89.6377
11
200.847
21
-89.6935
0
LINE
8
BLACK
6
CONTINUOUS
10
200.847
20
-89.6935
11
200.722
21
-89.727
0
LINE
8
BLACK
6
CONTINUOUS
10
200.722
20
-89.727
11
200.072
21
-89.727
0
LINE
8
BLACK
6
CONTINUOUS
10
200.072
20
-89.727
11
199.986
21
-89.7119
0
LINE
8
BLACK
6
CONTINUOUS
10
199.986
20
-89.7119
11
199.911
21
-89.6685
0
LINE
8
BLACK
6
CONTINUOUS
10
199.911
20
-89.6685
11
199.855
21
-89.602
0
LINE
8
BLACK
6
CONTINUOUS
10
199.855
20
-89.602
11
199.822
21
-89.477
0
LINE
8
BLACK
6
CONTINUOUS
10
199.822
20
-89.477
11
199.822
21
-88.896
0
LINE
8
BLACK
6
CONTINUOUS
10
199.822
20
-88.896
11
195.766
21
-88.896
0
LINE
8
BLACK
6
CONTINUOUS
10
195.766
20
-88.896
11
195.766
21
-89.605
0
LINE
8
BLACK
6
CONTINUOUS
10
186.902
20
-75.2574
11
191.28
21
-79.635
0
LINE
8
BLACK
6
CONTINUOUS
10
191.28
20
-79.635
11
191.305
21
-79.6563
0
LINE
8
BLACK
6
CONTINUOUS
10
191.305
20
-79.6563
11
191.322
21
-79.685
0
LINE
8
BLACK
6
CONTINUOUS
10
191.322
20
-79.685
11
191.341
21
-79.7122
0
LINE
8
BLACK
6
CONTINUOUS
10
191.341
20
-79.7122
11
191.343
21
-79.723
0
LINE
8
BLACK
6
CONTINUOUS
10
191.343
20
-79.723
11
191.349
21
-79.7327
0
LINE
8
BLACK
6
CONTINUOUS
10
191.349
20
-79.7327
11
191.355
21
-79.7653
0
LINE
8
BLACK
6
CONTINUOUS
10
191.355
20
-79.7653
11
191.363
21
-79.7974
0
LINE
8
BLACK
6
CONTINUOUS
10
191.363
20
-79.7974
11
191.361
21
-79.8304
0
LINE
8
BLACK
6
CONTINUOUS
10
191.361
20
-79.8304
11
191.361
21
-86.6764
0
LINE
8
BLACK
6
CONTINUOUS
10
191.361
20
-86.6764
11
193.146
21
-88.4615
0
LINE
8
BLACK
6
CONTINUOUS
10
193.146
20
-88.4615
11
193.171
21
-88.4828
0
LINE
8
BLACK
6
CONTINUOUS
10
193.171
20
-88.4828
11
193.188
21
-88.5115
0
LINE
8
BLACK
6
CONTINUOUS
10
193.188
20
-88.5115
11
193.207
21
-88.5387
0
LINE
8
BLACK
6
CONTINUOUS
10
193.207
20
-88.5387
11
193.209
21
-88.5495
0
LINE
8
BLACK
6
CONTINUOUS
10
193.209
20
-88.5495
11
193.215
21
-88.5592
0
LINE
8
BLACK
6
CONTINUOUS
10
193.215
20
-88.5592
11
193.221
21
-88.5918
0
LINE
8
BLACK
6
CONTINUOUS
10
193.221
20
-88.5918
11
193.229
21
-88.6239
0
LINE
8
BLACK
6
CONTINUOUS
10
193.229
20
-88.6239
11
193.226
21
-88.6569
0
LINE
8
BLACK
6
CONTINUOUS
10
193.226
20
-88.6569
11
193.226
21
-89.605
0
LINE
8
BLACK
6
CONTINUOUS
10
193.226
20
-89.605
11
193.272
21
-89.6129
0
LINE
8
BLACK
6
CONTINUOUS
10
193.272
20
-89.6129
11
193.531
21
-89.7628
0
LINE
8
BLACK
6
CONTINUOUS
10
193.531
20
-89.7628
11
193.724
21
-89.9924
0
LINE
8
BLACK
6
CONTINUOUS
10
193.724
20
-89.9924
11
193.826
21
-90.2741
0
LINE
8
BLACK
6
CONTINUOUS
10
193.826
20
-90.2741
11
193.826
21
-90.5739
0
LINE
8
BLACK
6
CONTINUOUS
10
193.826
20
-90.5739
11
193.724
21
-90.8556
0
LINE
8
BLACK
6
CONTINUOUS
10
193.724
20
-90.8556
11
193.531
21
-91.0852
0
LINE
8
BLACK
6
CONTINUOUS
10
193.531
20
-91.0852
11
193.272
21
-91.2351
0
LINE
8
BLACK
6
CONTINUOUS
10
193.272
20
-91.2351
11
193.051
21
-91.274
0
LINE
8
BLACK
6
CONTINUOUS
10
193.051
20
-91.274
11
192.902
21
-91.274
0
LINE
8
BLACK
6
CONTINUOUS
10
192.902
20
-91.274
11
192.681
21
-91.2351
0
LINE
8
BLACK
6
CONTINUOUS
10
192.681
20
-91.2351
11
192.422
21
-91.0852
0
LINE
8
BLACK
6
CONTINUOUS
10
192.422
20
-91.0852
11
192.229
21
-90.8556
0
LINE
8
BLACK
6
CONTINUOUS
10
192.229
20
-90.8556
11
192.127
21
-90.5739
0
LINE
8
BLACK
6
CONTINUOUS
10
192.127
20
-90.5739
11
192.127
21
-90.2741
0
LINE
8
BLACK
6
CONTINUOUS
10
192.127
20
-90.2741
11
192.229
21
-89.9924
0
LINE
8
BLACK
6
CONTINUOUS
10
192.229
20
-89.9924
11
192.422
21
-89.7628
0
LINE
8
BLACK
6
CONTINUOUS
10
192.422
20
-89.7628
11
192.681
21
-89.6129
0
LINE
8
BLACK
6
CONTINUOUS
10
192.681
20
-89.6129
11
192.727
21
-89.605
0
LINE
8
BLACK
6
CONTINUOUS
10
192.727
20
-89.605
11
192.726
21
-88.7496
0
LINE
8
BLACK
6
CONTINUOUS
10
192.726
20
-88.7496
11
190.941
21
-86.9645
0
LINE
8
BLACK
6
CONTINUOUS
10
190.941
20
-86.9645
11
190.916
21
-86.9432
0
LINE
8
BLACK
6
CONTINUOUS
10
190.916
20
-86.9432
11
190.899
21
-86.9145
0
LINE
8
BLACK
6
CONTINUOUS
10
190.899
20
-86.9145
11
190.88
21
-86.8873
0
LINE
8
BLACK
6
CONTINUOUS
10
190.88
20
-86.8873
11
190.878
21
-86.8765
0
LINE
8
BLACK
6
CONTINUOUS
10
190.878
20
-86.8765
11
190.872
21
-86.8668
0
LINE
8
BLACK
6
CONTINUOUS
10
190.872
20
-86.8668
11
190.866
21
-86.8342
0
LINE
8
BLACK
6
CONTINUOUS
10
190.866
20
-86.8342
11
190.858
21
-86.8021
0
LINE
8
BLACK
6
CONTINUOUS
10
190.858
20
-86.8021
11
190.861
21
-86.7691
0
LINE
8
BLACK
6
CONTINUOUS
10
190.861
20
-86.7691
11
190.861
21
-79.9231
0
LINE
8
BLACK
6
CONTINUOUS
10
190.861
20
-79.9231
11
186.548
21
-75.611
0
LINE
8
BLACK
6
CONTINUOUS
10
186.548
20
-75.611
11
184.952
21
-75.611
0
LINE
8
BLACK
6
CONTINUOUS
10
184.952
20
-75.611
11
184.952
21
-75.011
0
LINE
8
BLACK
6
CONTINUOUS
10
184.952
20
-75.011
11
186.902
21
-75.011
0
LINE
8
BLACK
6
CONTINUOUS
10
186.902
20
-75.011
11
186.902
21
-75.2574
0
LINE
8
BLACK
6
CONTINUOUS
10
186.902
20
-76.881
11
184.952
21
-76.881
0
LINE
8
BLACK
6
CONTINUOUS
10
184.952
20
-76.881
11
184.952
21
-76.831
0
LINE
8
BLACK
6
CONTINUOUS
10
184.952
20
-76.831
11
184.556
21
-76.831
0
LINE
8
BLACK
6
CONTINUOUS
10
184.556
20
-76.831
11
182.685
21
-78.7011
0
LINE
8
BLACK
6
CONTINUOUS
10
182.685
20
-78.7011
11
182.685
21
-88.4761
0
LINE
8
BLACK
6
CONTINUOUS
10
182.685
20
-88.4761
11
182.693
21
-88.4828
0
LINE
8
BLACK
6
CONTINUOUS
10
182.693
20
-88.4828
11
182.71
21
-88.5116
0
LINE
8
BLACK
6
CONTINUOUS
10
182.71
20
-88.5116
11
182.729
21
-88.5387
0
LINE
8
BLACK
6
CONTINUOUS
10
182.729
20
-88.5387
11
182.732
21
-88.5495
0
LINE
8
BLACK
6
CONTINUOUS
10
182.732
20
-88.5495
11
182.738
21
-88.5592
0
LINE
8
BLACK
6
CONTINUOUS
10
182.738
20
-88.5592
11
182.743
21
-88.5918
0
LINE
8
BLACK
6
CONTINUOUS
10
182.743
20
-88.5918
11
182.752
21
-88.6239
0
LINE
8
BLACK
6
CONTINUOUS
10
182.752
20
-88.6239
11
182.749
21
-88.6569
0
LINE
8
BLACK
6
CONTINUOUS
10
182.749
20
-88.6569
11
182.749
21
-89.605
0
LINE
8
BLACK
6
CONTINUOUS
10
182.749
20
-89.605
11
182.794
21
-89.6129
0
LINE
8
BLACK
6
CONTINUOUS
10
182.794
20
-89.6129
11
183.054
21
-89.7628
0
LINE
8
BLACK
6
CONTINUOUS
10
183.054
20
-89.7628
11
183.246
21
-89.9924
0
LINE
8
BLACK
6
CONTINUOUS
10
183.246
20
-89.9924
11
183.349
21
-90.2741
0
LINE
8
BLACK
6
CONTINUOUS
10
183.349
20
-90.2741
11
183.349
21
-90.5739
0
LINE
8
BLACK
6
CONTINUOUS
10
183.349
20
-90.5739
11
183.246
21
-90.8556
0
LINE
8
BLACK
6
CONTINUOUS
10
183.246
20
-90.8556
11
183.054
21
-91.0852
0
LINE
8
BLACK
6
CONTINUOUS
10
183.054
20
-91.0852
11
182.794
21
-91.2351
0
LINE
8
BLACK
6
CONTINUOUS
10
182.794
20
-91.2351
11
182.573
21
-91.274
0
LINE
8
BLACK
6
CONTINUOUS
10
182.573
20
-91.274
11
182.425
21
-91.274
0
LINE
8
BLACK
6
CONTINUOUS
10
182.425
20
-91.274
11
182.204
21
-91.2351
0
LINE
8
BLACK
6
CONTINUOUS
10
182.204
20
-91.2351
11
181.944
21
-91.0852
0
LINE
8
BLACK
6
CONTINUOUS
10
181.944
20
-91.0852
11
181.752
21
-90.8556
0
LINE
8
BLACK
6
CONTINUOUS
10
181.752
20
-90.8556
11
181.649
21
-90.5739
0
LINE
8
BLACK
6
CONTINUOUS
10
181.649
20
-90.5739
11
181.649
21
-90.2741
0
LINE
8
BLACK
6
CONTINUOUS
10
181.649
20
-90.2741
11
181.752
21
-89.9924
0
LINE
8
BLACK
6
CONTINUOUS
10
181.752
20
-89.9924
11
181.944
21
-89.7628
0
LINE
8
BLACK
6
CONTINUOUS
10
181.944
20
-89.7628
11
182.204
21
-89.6129
0
LINE
8
BLACK
6
CONTINUOUS
10
182.204
20
-89.6129
11
182.249
21
-89.605
0
LINE
8
BLACK
6
CONTINUOUS
10
182.249
20
-89.605
11
182.249
21
-88.7524
0
LINE
8
BLACK
6
CONTINUOUS
10
182.249
20
-88.7524
11
182.241
21
-88.7457
0
LINE
8
BLACK
6
CONTINUOUS
10
182.241
20
-88.7457
11
182.224
21
-88.717
0
LINE
8
BLACK
6
CONTINUOUS
10
182.224
20
-88.717
11
182.205
21
-88.6898
0
LINE
8
BLACK
6
CONTINUOUS
10
182.205
20
-88.6898
11
182.203
21
-88.679
0
LINE
8
BLACK
6
CONTINUOUS
10
182.203
20
-88.679
11
182.197
21
-88.6693
0
LINE
8
BLACK
6
CONTINUOUS
10
182.197
20
-88.6693
11
182.191
21
-88.6367
0
LINE
8
BLACK
6
CONTINUOUS
10
182.191
20
-88.6367
11
182.183
21
-88.6046
0
LINE
8
BLACK
6
CONTINUOUS
10
182.183
20
-88.6046
11
182.186
21
-88.5716
0
LINE
8
BLACK
6
CONTINUOUS
10
182.186
20
-88.5716
11
182.185
21
-78.6084
0
LINE
8
BLACK
6
CONTINUOUS
10
182.185
20
-78.6084
11
182.183
21
-78.5754
0
LINE
8
BLACK
6
CONTINUOUS
10
182.183
20
-78.5754
11
182.191
21
-78.5433
0
LINE
8
BLACK
6
CONTINUOUS
10
182.191
20
-78.5433
11
182.197
21
-78.5107
0
LINE
8
BLACK
6
CONTINUOUS
10
182.197
20
-78.5107
11
182.203
21
-78.501
0
LINE
8
BLACK
6
CONTINUOUS
10
182.203
20
-78.501
11
182.205
21
-78.4902
0
LINE
8
BLACK
6
CONTINUOUS
10
182.205
20
-78.4902
11
182.224
21
-78.463
0
LINE
8
BLACK
6
CONTINUOUS
10
182.224
20
-78.463
11
182.241
21
-78.4343
0
LINE
8
BLACK
6
CONTINUOUS
10
182.241
20
-78.4343
11
182.266
21
-78.413
0
LINE
8
BLACK
6
CONTINUOUS
10
182.266
20
-78.413
11
184.268
21
-76.4119
0
LINE
8
BLACK
6
CONTINUOUS
10
184.268
20
-76.4119
11
184.289
21
-76.3865
0
LINE
8
BLACK
6
CONTINUOUS
10
184.289
20
-76.3865
11
184.318
21
-76.37
0
LINE
8
BLACK
6
CONTINUOUS
10
184.318
20
-76.37
11
184.345
21
-76.3509
0
LINE
8
BLACK
6
CONTINUOUS
10
184.345
20
-76.3509
11
184.356
21
-76.348
0
LINE
8
BLACK
6
CONTINUOUS
10
184.356
20
-76.348
11
184.365
21
-76.3425
0
LINE
8
BLACK
6
CONTINUOUS
10
184.365
20
-76.3425
11
184.398
21
-76.3367
0
LINE
8
BLACK
6
CONTINUOUS
10
184.398
20
-76.3367
11
184.43
21
-76.3281
0
LINE
8
BLACK
6
CONTINUOUS
10
184.43
20
-76.3281
11
184.463
21
-76.331
0
LINE
8
BLACK
6
CONTINUOUS
10
184.463
20
-76.331
11
184.952
21
-76.331
0
LINE
8
BLACK
6
CONTINUOUS
10
184.952
20
-76.331
11
184.952
21
-76.281
0
LINE
8
BLACK
6
CONTINUOUS
10
184.952
20
-76.281
11
186.902
21
-76.281
0
LINE
8
BLACK
6
CONTINUOUS
10
186.902
20
-76.281
11
186.902
21
-76.881
0
LINE
8
BLACK
6
CONTINUOUS
10
186.18
20
-80.0956
11
186.177
21
-80.1064
0
LINE
8
BLACK
6
CONTINUOUS
10
186.177
20
-80.1064
11
186.177
21
-87.6201
0
LINE
8
BLACK
6
CONTINUOUS
10
186.177
20
-87.6201
11
186.18
21
-87.6531
0
LINE
8
BLACK
6
CONTINUOUS
10
186.18
20
-87.6531
11
186.171
21
-87.6852
0
LINE
8
BLACK
6
CONTINUOUS
10
186.171
20
-87.6852
11
186.166
21
-87.7178
0
LINE
8
BLACK
6
CONTINUOUS
10
186.166
20
-87.7178
11
186.16
21
-87.7275
0
LINE
8
BLACK
6
CONTINUOUS
10
186.16
20
-87.7275
11
186.157
21
-87.7383
0
LINE
8
BLACK
6
CONTINUOUS
10
186.157
20
-87.7383
11
186.138
21
-87.7655
0
LINE
8
BLACK
6
CONTINUOUS
10
186.138
20
-87.7655
11
186.121
21
-87.7942
0
LINE
8
BLACK
6
CONTINUOUS
10
186.121
20
-87.7942
11
186.096
21
-87.8155
0
LINE
8
BLACK
6
CONTINUOUS
10
186.096
20
-87.8155
11
185.225
21
-88.6861
0
LINE
8
BLACK
6
CONTINUOUS
10
185.225
20
-88.6861
11
185.225
21
-89.0521
0
LINE
8
BLACK
6
CONTINUOUS
10
185.225
20
-89.0521
11
185.233
21
-89.0587
0
LINE
8
BLACK
6
CONTINUOUS
10
185.233
20
-89.0587
11
185.25
21
-89.0875
0
LINE
8
BLACK
6
CONTINUOUS
10
185.25
20
-89.0875
11
185.269
21
-89.1146
0
LINE
8
BLACK
6
CONTINUOUS
10
185.269
20
-89.1146
11
185.272
21
-89.1254
0
LINE
8
BLACK
6
CONTINUOUS
10
185.272
20
-89.1254
11
185.278
21
-89.1351
0
LINE
8
BLACK
6
CONTINUOUS
10
185.278
20
-89.1351
11
185.283
21
-89.1678
0
LINE
8
BLACK
6
CONTINUOUS
10
185.283
20
-89.1678
11
185.292
21
-89.1998
0
LINE
8
BLACK
6
CONTINUOUS
10
185.292
20
-89.1998
11
185.289
21
-89.2328
0
LINE
8
BLACK
6
CONTINUOUS
10
185.289
20
-89.2328
11
185.289
21
-89.605
0
LINE
8
BLACK
6
CONTINUOUS
10
185.289
20
-89.605
11
185.334
21
-89.6129
0
LINE
8
BLACK
6
CONTINUOUS
10
185.334
20
-89.6129
11
185.594
21
-89.7628
0
LINE
8
BLACK
6
CONTINUOUS
10
185.594
20
-89.7628
11
185.786
21
-89.9924
0
LINE
8
BLACK
6
CONTINUOUS
10
185.786
20
-89.9924
11
185.889
21
-90.2741
0
LINE
8
BLACK
6
CONTINUOUS
10
185.889
20
-90.2741
11
185.889
21
-90.5739
0
LINE
8
BLACK
6
CONTINUOUS
10
185.889
20
-90.5739
11
185.786
21
-90.8556
0
LINE
8
BLACK
6
CONTINUOUS
10
185.786
20
-90.8556
11
185.594
21
-91.0852
0
LINE
8
BLACK
6
CONTINUOUS
10
185.594
20
-91.0852
11
185.334
21
-91.2351
0
LINE
8
BLACK
6
CONTINUOUS
10
185.334
20
-91.2351
11
185.113
21
-91.274
0
LINE
8
BLACK
6
CONTINUOUS
10
185.113
20
-91.274
11
184.965
21
-91.274
0
LINE
8
BLACK
6
CONTINUOUS
10
184.965
20
-91.274
11
184.744
21
-91.2351
0
LINE
8
BLACK
6
CONTINUOUS
10
184.744
20
-91.2351
11
184.484
21
-91.0852
0
LINE
8
BLACK
6
CONTINUOUS
10
184.484
20
-91.0852
11
184.292
21
-90.8556
0
LINE
8
BLACK
6
CONTINUOUS
10
184.292
20
-90.8556
11
184.189
21
-90.5739
0
LINE
8
BLACK
6
CONTINUOUS
10
184.189
20
-90.5739
11
184.189
21
-90.2741
0
LINE
8
BLACK
6
CONTINUOUS
10
184.189
20
-90.2741
11
184.292
21
-89.9924
0
LINE
8
BLACK
6
CONTINUOUS
10
184.292
20
-89.9924
11
184.484
21
-89.7628
0
LINE
8
BLACK
6
CONTINUOUS
10
184.484
20
-89.7628
11
184.744
21
-89.6129
0
LINE
8
BLACK
6
CONTINUOUS
10
184.744
20
-89.6129
11
184.789
21
-89.605
0
LINE
8
BLACK
6
CONTINUOUS
10
184.789
20
-89.605
11
184.789
21
-89.3283
0
LINE
8
BLACK
6
CONTINUOUS
10
184.789
20
-89.3283
11
184.781
21
-89.3216
0
LINE
8
BLACK
6
CONTINUOUS
10
184.781
20
-89.3216
11
184.764
21
-89.2929
0
LINE
8
BLACK
6
CONTINUOUS
10
184.764
20
-89.2929
11
184.745
21
-89.2657
0
LINE
8
BLACK
6
CONTINUOUS
10
184.745
20
-89.2657
11
184.743
21
-89.2549
0
LINE
8
BLACK
6
CONTINUOUS
10
184.743
20
-89.2549
11
184.737
21
-89.2452
0
LINE
8
BLACK
6
CONTINUOUS
10
184.737
20
-89.2452
11
184.731
21
-89.2126
0
LINE
8
BLACK
6
CONTINUOUS
10
184.731
20
-89.2126
11
184.723
21
-89.1805
0
LINE
8
BLACK
6
CONTINUOUS
10
184.723
20
-89.1805
11
184.725
21
-89.1475
0
LINE
8
BLACK
6
CONTINUOUS
10
184.725
20
-89.1475
11
184.726
21
-88.5934
0
LINE
8
BLACK
6
CONTINUOUS
10
184.726
20
-88.5934
11
184.723
21
-88.5604
0
LINE
8
BLACK
6
CONTINUOUS
10
184.723
20
-88.5604
11
184.731
21
-88.5283
0
LINE
8
BLACK
6
CONTINUOUS
10
184.731
20
-88.5283
11
184.737
21
-88.4957
0
LINE
8
BLACK
6
CONTINUOUS
10
184.737
20
-88.4957
11
184.743
21
-88.486
0
LINE
8
BLACK
6
CONTINUOUS
10
184.743
20
-88.486
11
184.745
21
-88.4752
0
LINE
8
BLACK
6
CONTINUOUS
10
184.745
20
-88.4752
11
184.764
21
-88.448
0
LINE
8
BLACK
6
CONTINUOUS
10
184.764
20
-88.448
11
184.781
21
-88.4193
0
LINE
8
BLACK
6
CONTINUOUS
10
184.781
20
-88.4193
11
184.806
21
-88.398
0
LINE
8
BLACK
6
CONTINUOUS
10
184.806
20
-88.398
11
185.677
21
-87.5274
0
LINE
8
BLACK
6
CONTINUOUS
10
185.677
20
-87.5274
11
185.677
21
-80.4655
0
LINE
8
BLACK
6
CONTINUOUS
10
185.677
20
-80.4655
11
184.493
21
-80.4655
0
LINE
8
BLACK
6
CONTINUOUS
10
184.493
20
-80.4655
11
184.46
21
-80.4684
0
LINE
8
BLACK
6
CONTINUOUS
10
184.46
20
-80.4684
11
184.428
21
-80.4598
0
LINE
8
BLACK
6
CONTINUOUS
10
184.428
20
-80.4598
11
184.396
21
-80.454
0
LINE
8
BLACK
6
CONTINUOUS
10
184.396
20
-80.454
11
184.386
21
-80.4485
0
LINE
8
BLACK
6
CONTINUOUS
10
184.386
20
-80.4485
11
184.375
21
-80.4456
0
LINE
8
BLACK
6
CONTINUOUS
10
184.375
20
-80.4456
11
184.348
21
-80.4265
0
LINE
8
BLACK
6
CONTINUOUS
10
184.348
20
-80.4265
11
184.319
21
-80.41
0
LINE
8
BLACK
6
CONTINUOUS
10
184.319
20
-80.41
11
184.298
21
-80.3846
0
LINE
8
BLACK
6
CONTINUOUS
10
184.298
20
-80.3846
11
184.084
21
-80.1707
0
LINE
8
BLACK
6
CONTINUOUS
10
184.084
20
-80.1707
11
184.058
21
-80.1857
0
LINE
8
BLACK
6
CONTINUOUS
10
184.058
20
-80.1857
11
183.832
21
-80.2255
0
LINE
8
BLACK
6
CONTINUOUS
10
183.832
20
-80.2255
11
183.607
21
-80.1857
0
LINE
8
BLACK
6
CONTINUOUS
10
183.607
20
-80.1857
11
183.408
21
-80.0711
0
LINE
8
BLACK
6
CONTINUOUS
10
183.408
20
-80.0711
11
183.261
21
-79.8955
0
LINE
8
BLACK
6
CONTINUOUS
10
183.261
20
-79.8955
11
183.183
21
-79.6801
0
LINE
8
BLACK
6
CONTINUOUS
10
183.183
20
-79.6801
11
183.183
21
-79.4509
0
LINE
8
BLACK
6
CONTINUOUS
10
183.183
20
-79.4509
11
183.261
21
-79.2355
0
LINE
8
BLACK
6
CONTINUOUS
10
183.261
20
-79.2355
11
183.408
21
-79.0599
0
LINE
8
BLACK
6
CONTINUOUS
10
183.408
20
-79.0599
11
183.607
21
-78.9453
0
LINE
8
BLACK
6
CONTINUOUS
10
183.607
20
-78.9453
11
183.832
21
-78.9055
0
LINE
8
BLACK
6
CONTINUOUS
10
183.832
20
-78.9055
11
184.058
21
-78.9453
0
LINE
8
BLACK
6
CONTINUOUS
10
184.058
20
-78.9453
11
184.257
21
-79.0599
0
LINE
8
BLACK
6
CONTINUOUS
10
184.257
20
-79.0599
11
184.404
21
-79.2355
0
LINE
8
BLACK
6
CONTINUOUS
10
184.404
20
-79.2355
11
184.482
21
-79.4509
0
LINE
8
BLACK
6
CONTINUOUS
10
184.482
20
-79.4509
11
184.482
21
-79.6801
0
LINE
8
BLACK
6
CONTINUOUS
10
184.482
20
-79.6801
11
184.434
21
-79.8134
0
LINE
8
BLACK
6
CONTINUOUS
10
184.434
20
-79.8134
11
184.586
21
-79.9655
0
LINE
8
BLACK
6
CONTINUOUS
10
184.586
20
-79.9655
11
185.677
21
-79.9655
0
LINE
8
BLACK
6
CONTINUOUS
10
185.677
20
-79.9655
11
185.677
21
-78.151
0
LINE
8
BLACK
6
CONTINUOUS
10
185.677
20
-78.151
11
184.952
21
-78.151
0
LINE
8
BLACK
6
CONTINUOUS
10
184.952
20
-78.151
11
184.952
21
-77.551
0
LINE
8
BLACK
6
CONTINUOUS
10
184.952
20
-77.551
11
186.902
21
-77.551
0
LINE
8
BLACK
6
CONTINUOUS
10
186.902
20
-77.551
11
186.902
21
-78.151
0
LINE
8
BLACK
6
CONTINUOUS
10
186.902
20
-78.151
11
186.177
21
-78.151
0
LINE
8
BLACK
6
CONTINUOUS
10
186.177
20
-78.151
11
186.177
21
-80.0626
0
LINE
8
BLACK
6
CONTINUOUS
10
186.177
20
-80.0626
11
186.18
21
-80.0956
0
LINE
8
BLACK
6
CONTINUOUS
10
208.437
20
-80.5798
11
208.742
21
-80.7561
0
LINE
8
BLACK
6
CONTINUOUS
10
208.742
20
-80.7561
11
208.969
21
-81.0263
0
LINE
8
BLACK
6
CONTINUOUS
10
208.969
20
-81.0263
11
209.089
21
-81.3577
0
LINE
8
BLACK
6
CONTINUOUS
10
209.089
20
-81.3577
11
209.089
21
-81.7103
0
LINE
8
BLACK
6
CONTINUOUS
10
209.089
20
-81.7103
11
208.969
21
-82.0417
0
LINE
8
BLACK
6
CONTINUOUS
10
208.969
20
-82.0417
11
208.928
21
-82.09
0
LINE
8
BLACK
6
CONTINUOUS
10
208.928
20
-82.09
11
210.892
21
-84.0534
0
LINE
8
BLACK
6
CONTINUOUS
10
210.892
20
-84.0534
11
210.912
21
-84.0705
0
LINE
8
BLACK
6
CONTINUOUS
10
210.912
20
-84.0705
11
210.925
21
-84.0934
0
LINE
8
BLACK
6
CONTINUOUS
10
210.925
20
-84.0934
11
210.941
21
-84.1152
0
LINE
8
BLACK
6
CONTINUOUS
10
210.941
20
-84.1152
11
210.943
21
-84.1238
0
LINE
8
BLACK
6
CONTINUOUS
10
210.943
20
-84.1238
11
210.947
21
-84.1315
0
LINE
8
BLACK
6
CONTINUOUS
10
210.947
20
-84.1315
11
210.952
21
-84.1577
0
LINE
8
BLACK
6
CONTINUOUS
10
210.952
20
-84.1577
11
210.959
21
-84.1833
0
LINE
8
BLACK
6
CONTINUOUS
10
210.959
20
-84.1833
11
210.956
21
-84.2097
0
LINE
8
BLACK
6
CONTINUOUS
10
210.956
20
-84.2097
11
210.956
21
-87.7483
0
LINE
8
BLACK
6
CONTINUOUS
10
210.956
20
-87.7483
11
210.959
21
-87.7747
0
LINE
8
BLACK
6
CONTINUOUS
10
210.959
20
-87.7747
11
210.952
21
-87.8003
0
LINE
8
BLACK
6
CONTINUOUS
10
210.952
20
-87.8003
11
210.947
21
-87.8265
0
LINE
8
BLACK
6
CONTINUOUS
10
210.947
20
-87.8265
11
210.943
21
-87.8342
0
LINE
8
BLACK
6
CONTINUOUS
10
210.943
20
-87.8342
11
210.941
21
-87.8428
0
LINE
8
BLACK
6
CONTINUOUS
10
210.941
20
-87.8428
11
210.925
21
-87.8646
0
LINE
8
BLACK
6
CONTINUOUS
10
210.925
20
-87.8646
11
210.912
21
-87.8875
0
LINE
8
BLACK
6
CONTINUOUS
10
210.912
20
-87.8875
11
210.892
21
-87.9046
0
LINE
8
BLACK
6
CONTINUOUS
10
210.892
20
-87.9046
11
209.011
21
-89.7856
0
LINE
8
BLACK
6
CONTINUOUS
10
209.011
20
-89.7856
11
208.994
21
-89.8059
0
LINE
8
BLACK
6
CONTINUOUS
10
208.994
20
-89.8059
11
208.971
21
-89.8192
0
LINE
8
BLACK
6
CONTINUOUS
10
208.971
20
-89.8192
11
208.949
21
-89.8344
0
LINE
8
BLACK
6
CONTINUOUS
10
208.949
20
-89.8344
11
208.94
21
-89.8367
0
LINE
8
BLACK
6
CONTINUOUS
10
208.94
20
-89.8367
11
208.933
21
-89.8412
0
LINE
8
BLACK
6
CONTINUOUS
10
208.933
20
-89.8412
11
208.906
21
-89.8458
0
LINE
8
BLACK
6
CONTINUOUS
10
208.906
20
-89.8458
11
208.881
21
-89.8527
0
LINE
8
BLACK
6
CONTINUOUS
10
208.881
20
-89.8527
11
208.854
21
-89.8504
0
LINE
8
BLACK
6
CONTINUOUS
10
208.854
20
-89.8504
11
203.079
21
-89.8504
0
LINE
8
BLACK
6
CONTINUOUS
10
203.079
20
-89.8504
11
203.053
21
-89.8527
0
LINE
8
BLACK
6
CONTINUOUS
10
203.053
20
-89.8527
11
203.027
21
-89.8458
0
LINE
8
BLACK
6
CONTINUOUS
10
203.027
20
-89.8458
11
203.001
21
-89.8412
0
LINE
8
BLACK
6
CONTINUOUS
10
203.001
20
-89.8412
11
202.993
21
-89.8367
0
LINE
8
BLACK
6
CONTINUOUS
10
202.993
20
-89.8367
11
202.985
21
-89.8344
0
LINE
8
BLACK
6
CONTINUOUS
10
202.985
20
-89.8344
11
202.963
21
-89.8192
0
LINE
8
BLACK
6
CONTINUOUS
10
202.963
20
-89.8192
11
202.94
21
-89.8059
0
LINE
8
BLACK
6
CONTINUOUS
10
202.94
20
-89.8059
11
202.923
21
-89.7856
0
LINE
8
BLACK
6
CONTINUOUS
10
202.923
20
-89.7856
11
202.845
21
-89.7075
0
LINE
8
BLACK
6
CONTINUOUS
10
202.845
20
-89.7075
11
202.772
21
-89.727
0
LINE
8
BLACK
6
CONTINUOUS
10
202.772
20
-89.727
11
202.122
21
-89.727
0
LINE
8
BLACK
6
CONTINUOUS
10
202.122
20
-89.727
11
202.036
21
-89.7119
0
LINE
8
BLACK
6
CONTINUOUS
10
202.036
20
-89.7119
11
201.961
21
-89.6685
0
LINE
8
BLACK
6
CONTINUOUS
10
201.961
20
-89.6685
11
201.905
21
-89.602
0
LINE
8
BLACK
6
CONTINUOUS
10
201.905
20
-89.602
11
201.872
21
-89.477
0
LINE
8
BLACK
6
CONTINUOUS
10
201.872
20
-89.477
11
201.872
21
-88.577
0
LINE
8
BLACK
6
CONTINUOUS
10
201.872
20
-88.577
11
201.887
21
-88.4915
0
LINE
8
BLACK
6
CONTINUOUS
10
201.887
20
-88.4915
11
201.93
21
-88.4163
0
LINE
8
BLACK
6
CONTINUOUS
10
201.93
20
-88.4163
11
201.997
21
-88.3605
0
LINE
8
BLACK
6
CONTINUOUS
10
201.997
20
-88.3605
11
202.122
21
-88.327
0
LINE
8
BLACK
6
CONTINUOUS
10
202.122
20
-88.327
11
202.772
21
-88.327
0
LINE
8
BLACK
6
CONTINUOUS
10
202.772
20
-88.327
11
202.858
21
-88.3421
0
LINE
8
BLACK
6
CONTINUOUS
10
202.858
20
-88.3421
11
202.933
21
-88.3855
0
LINE
8
BLACK
6
CONTINUOUS
10
202.933
20
-88.3855
11
202.989
21
-88.452
0
LINE
8
BLACK
6
CONTINUOUS
10
202.989
20
-88.452
11
203.022
21
-88.577
0
LINE
8
BLACK
6
CONTINUOUS
10
203.022
20
-88.577
11
203.022
21
-89.3192
0
LINE
8
BLACK
6
CONTINUOUS
10
203.022
20
-89.3192
11
203.153
21
-89.4504
0
LINE
8
BLACK
6
CONTINUOUS
10
203.153
20
-89.4504
11
208.78
21
-89.4504
0
LINE
8
BLACK
6
CONTINUOUS
10
208.78
20
-89.4504
11
210.556
21
-87.6742
0
LINE
8
BLACK
6
CONTINUOUS
10
210.556
20
-87.6742
11
210.557
21
-84.2838
0
LINE
8
BLACK
6
CONTINUOUS
10
210.557
20
-84.2838
11
208.642
21
-82.3696
0
LINE
8
BLACK
6
CONTINUOUS
10
208.642
20
-82.3696
11
208.437
21
-82.4882
0
LINE
8
BLACK
6
CONTINUOUS
10
208.437
20
-82.4882
11
208.089
21
-82.5494
0
LINE
8
BLACK
6
CONTINUOUS
10
208.089
20
-82.5494
11
207.742
21
-82.4882
0
LINE
8
BLACK
6
CONTINUOUS
10
207.742
20
-82.4882
11
207.437
21
-82.3119
0
LINE
8
BLACK
6
CONTINUOUS
10
207.437
20
-82.3119
11
207.21
21
-82.0417
0
LINE
8
BLACK
6
CONTINUOUS
10
207.21
20
-82.0417
11
207.089
21
-81.7103
0
LINE
8
BLACK
6
CONTINUOUS
10
207.089
20
-81.7103
11
207.089
21
-81.3577
0
LINE
8
BLACK
6
CONTINUOUS
10
207.089
20
-81.3577
11
207.21
21
-81.0263
0
LINE
8
BLACK
6
CONTINUOUS
10
207.21
20
-81.0263
11
207.437
21
-80.7561
0
LINE
8
BLACK
6
CONTINUOUS
10
207.437
20
-80.7561
11
207.742
21
-80.5798
0
LINE
8
BLACK
6
CONTINUOUS
10
207.742
20
-80.5798
11
208.089
21
-80.5186
0
LINE
8
BLACK
6
CONTINUOUS
10
208.089
20
-80.5186
11
208.437
21
-80.5798
0
LINE
8
BLACK
6
CONTINUOUS
10
196.302
20
-76.5274
11
199.496
21
-79.721
0
LINE
8
BLACK
6
CONTINUOUS
10
199.496
20
-79.721
11
199.521
21
-79.7423
0
LINE
8
BLACK
6
CONTINUOUS
10
199.521
20
-79.7423
11
199.538
21
-79.771
0
LINE
8
BLACK
6
CONTINUOUS
10
199.538
20
-79.771
11
199.557
21
-79.7982
0
LINE
8
BLACK
6
CONTINUOUS
10
199.557
20
-79.7982
11
199.559
21
-79.809
0
LINE
8
BLACK
6
CONTINUOUS
10
199.559
20
-79.809
11
199.565
21
-79.8187
0
LINE
8
BLACK
6
CONTINUOUS
10
199.565
20
-79.8187
11
199.571
21
-79.8513
0
LINE
8
BLACK
6
CONTINUOUS
10
199.571
20
-79.8513
11
199.579
21
-79.8834
0
LINE
8
BLACK
6
CONTINUOUS
10
199.579
20
-79.8834
11
199.576
21
-79.9164
0
LINE
8
BLACK
6
CONTINUOUS
10
199.576
20
-79.9164
11
199.576
21
-82.54
0
LINE
8
BLACK
6
CONTINUOUS
10
199.576
20
-82.54
11
199.877
21
-82.8401
0
LINE
8
BLACK
6
CONTINUOUS
10
199.877
20
-82.8401
11
199.902
21
-82.8614
0
LINE
8
BLACK
6
CONTINUOUS
10
199.902
20
-82.8614
11
199.919
21
-82.8901
0
LINE
8
BLACK
6
CONTINUOUS
10
199.919
20
-82.8901
11
199.938
21
-82.9173
0
LINE
8
BLACK
6
CONTINUOUS
10
199.938
20
-82.9173
11
199.94
21
-82.9281
0
LINE
8
BLACK
6
CONTINUOUS
10
199.94
20
-82.9281
11
199.946
21
-82.9377
0
LINE
8
BLACK
6
CONTINUOUS
10
199.946
20
-82.9377
11
199.952
21
-82.9704
0
LINE
8
BLACK
6
CONTINUOUS
10
199.952
20
-82.9704
11
199.96
21
-83.0024
0
LINE
8
BLACK
6
CONTINUOUS
10
199.96
20
-83.0024
11
199.957
21
-83.0355
0
LINE
8
BLACK
6
CONTINUOUS
10
199.957
20
-83.0355
11
199.957
21
-84.8684
0
LINE
8
BLACK
6
CONTINUOUS
10
199.957
20
-84.8684
11
200.004
21
-84.9145
0
LINE
8
BLACK
6
CONTINUOUS
10
200.004
20
-84.9145
11
200.029
21
-84.9358
0
LINE
8
BLACK
6
CONTINUOUS
10
200.029
20
-84.9358
11
200.046
21
-84.9645
0
LINE
8
BLACK
6
CONTINUOUS
10
200.046
20
-84.9645
11
200.065
21
-84.9917
0
LINE
8
BLACK
6
CONTINUOUS
10
200.065
20
-84.9917
11
200.067
21
-85.0025
0
LINE
8
BLACK
6
CONTINUOUS
10
200.067
20
-85.0025
11
200.073
21
-85.0122
0
LINE
8
BLACK
6
CONTINUOUS
10
200.073
20
-85.0122
11
200.079
21
-85.0448
0
LINE
8
BLACK
6
CONTINUOUS
10
200.079
20
-85.0448
11
200.087
21
-85.0769
0
LINE
8
BLACK
6
CONTINUOUS
10
200.087
20
-85.0769
11
200.084
21
-85.1099
0
LINE
8
BLACK
6
CONTINUOUS
10
200.084
20
-85.1099
11
200.084
21
-86.4469
0
LINE
8
BLACK
6
CONTINUOUS
10
200.084
20
-86.4469
11
200.138
21
-86.5
0
LINE
8
BLACK
6
CONTINUOUS
10
200.138
20
-86.5
11
200.785
21
-86.5
0
LINE
8
BLACK
6
CONTINUOUS
10
200.785
20
-86.5
11
200.785
21
-86.425
0
LINE
8
BLACK
6
CONTINUOUS
10
200.785
20
-86.425
11
200.801
21
-86.3395
0
LINE
8
BLACK
6
CONTINUOUS
10
200.801
20
-86.3395
11
200.844
21
-86.2643
0
LINE
8
BLACK
6
CONTINUOUS
10
200.844
20
-86.2643
11
200.91
21
-86.2085
0
LINE
8
BLACK
6
CONTINUOUS
10
200.91
20
-86.2085
11
201.035
21
-86.175
0
LINE
8
BLACK
6
CONTINUOUS
10
201.035
20
-86.175
11
201.936
21
-86.175
0
LINE
8
BLACK
6
CONTINUOUS
10
201.936
20
-86.175
11
202.021
21
-86.1901
0
LINE
8
BLACK
6
CONTINUOUS
10
202.021
20
-86.1901
11
202.096
21
-86.2335
0
LINE
8
BLACK
6
CONTINUOUS
10
202.096
20
-86.2335
11
202.152
21
-86.3
0
LINE
8
BLACK
6
CONTINUOUS
10
202.152
20
-86.3
11
202.185
21
-86.425
0
LINE
8
BLACK
6
CONTINUOUS
10
202.185
20
-86.425
11
202.185
21
-86.5
0
LINE
8
BLACK
6
CONTINUOUS
10
202.185
20
-86.5
11
207.089
21
-86.5
0
LINE
8
BLACK
6
CONTINUOUS
10
207.089
20
-86.5
11
207.089
21
-86.2577
0
LINE
8
BLACK
6
CONTINUOUS
10
207.089
20
-86.2577
11
207.21
21
-85.9263
0
LINE
8
BLACK
6
CONTINUOUS
10
207.21
20
-85.9263
11
207.437
21
-85.6561
0
LINE
8
BLACK
6
CONTINUOUS
10
207.437
20
-85.6561
11
207.742
21
-85.4798
0
LINE
8
BLACK
6
CONTINUOUS
10
207.742
20
-85.4798
11
208.089
21
-85.4186
0
LINE
8
BLACK
6
CONTINUOUS
10
208.089
20
-85.4186
11
208.437
21
-85.4798
0
LINE
8
BLACK
6
CONTINUOUS
10
208.437
20
-85.4798
11
208.742
21
-85.6561
0
LINE
8
BLACK
6
CONTINUOUS
10
208.742
20
-85.6561
11
208.969
21
-85.9263
0
LINE
8
BLACK
6
CONTINUOUS
10
208.969
20
-85.9263
11
209.089
21
-86.2577
0
LINE
8
BLACK
6
CONTINUOUS
10
209.089
20
-86.2577
11
209.089
21
-86.6103
0
LINE
8
BLACK
6
CONTINUOUS
10
209.089
20
-86.6103
11
208.969
21
-86.9417
0
LINE
8
BLACK
6
CONTINUOUS
10
208.969
20
-86.9417
11
208.742
21
-87.2119
0
LINE
8
BLACK
6
CONTINUOUS
10
208.742
20
-87.2119
11
208.437
21
-87.3882
0
LINE
8
BLACK
6
CONTINUOUS
10
208.437
20
-87.3882
11
208.089
21
-87.4494
0
LINE
8
BLACK
6
CONTINUOUS
10
208.089
20
-87.4494
11
207.742
21
-87.3882
0
LINE
8
BLACK
6
CONTINUOUS
10
207.742
20
-87.3882
11
207.437
21
-87.2119
0
LINE
8
BLACK
6
CONTINUOUS
10
207.437
20
-87.2119
11
207.259
21
-87
0
LINE
8
BLACK
6
CONTINUOUS
10
207.259
20
-87
11
202.185
21
-87
0
LINE
8
BLACK
6
CONTINUOUS
10
202.185
20
-87
11
202.185
21
-87.075
0
LINE
8
BLACK
6
CONTINUOUS
10
202.185
20
-87.075
11
202.17
21
-87.1605
0
LINE
8
BLACK
6
CONTINUOUS
10
202.17
20
-87.1605
11
202.127
21
-87.2357
0
LINE
8
BLACK
6
CONTINUOUS
10
202.127
20
-87.2357
11
202.061
21
-87.2915
0
LINE
8
BLACK
6
CONTINUOUS
10
202.061
20
-87.2915
11
201.936
21
-87.325
0
LINE
8
BLACK
6
CONTINUOUS
10
201.936
20
-87.325
11
201.035
21
-87.325
0
LINE
8
BLACK
6
CONTINUOUS
10
201.035
20
-87.325
11
200.95
21
-87.3099
0
LINE
8
BLACK
6
CONTINUOUS
10
200.95
20
-87.3099
11
200.875
21
-87.2665
0
LINE
8
BLACK
6
CONTINUOUS
10
200.875
20
-87.2665
11
200.819
21
-87.2
0
LINE
8
BLACK
6
CONTINUOUS
10
200.819
20
-87.2
11
200.785
21
-87.075
0
LINE
8
BLACK
6
CONTINUOUS
10
200.785
20
-87.075
11
200.785
21
-87
0
LINE
8
BLACK
6
CONTINUOUS
10
200.785
20
-87
11
200.045
21
-87
0
LINE
8
BLACK
6
CONTINUOUS
10
200.045
20
-87
11
200.012
21
-87.0029
0
LINE
8
BLACK
6
CONTINUOUS
10
200.012
20
-87.0029
11
199.98
21
-86.9943
0
LINE
8
BLACK
6
CONTINUOUS
10
199.98
20
-86.9943
11
199.947
21
-86.9885
0
LINE
8
BLACK
6
CONTINUOUS
10
199.947
20
-86.9885
11
199.938
21
-86.983
0
LINE
8
BLACK
6
CONTINUOUS
10
199.938
20
-86.983
11
199.927
21
-86.9801
0
LINE
8
BLACK
6
CONTINUOUS
10
199.927
20
-86.9801
11
199.9
21
-86.961
0
LINE
8
BLACK
6
CONTINUOUS
10
199.9
20
-86.961
11
199.871
21
-86.9445
0
LINE
8
BLACK
6
CONTINUOUS
10
199.871
20
-86.9445
11
199.85
21
-86.9191
0
LINE
8
BLACK
6
CONTINUOUS
10
199.85
20
-86.9191
11
199.665
21
-86.735
0
LINE
8
BLACK
6
CONTINUOUS
10
199.665
20
-86.735
11
199.64
21
-86.7137
0
LINE
8
BLACK
6
CONTINUOUS
10
199.64
20
-86.7137
11
199.623
21
-86.685
0
LINE
8
BLACK
6
CONTINUOUS
10
199.623
20
-86.685
11
199.604
21
-86.6578
0
LINE
8
BLACK
6
CONTINUOUS
10
199.604
20
-86.6578
11
199.602
21
-86.647
0
LINE
8
BLACK
6
CONTINUOUS
10
199.602
20
-86.647
11
199.596
21
-86.6373
0
LINE
8
BLACK
6
CONTINUOUS
10
199.596
20
-86.6373
11
199.59
21
-86.6047
0
LINE
8
BLACK
6
CONTINUOUS
10
199.59
20
-86.6047
11
199.582
21
-86.5726
0
LINE
8
BLACK
6
CONTINUOUS
10
199.582
20
-86.5726
11
199.585
21
-86.5396
0
LINE
8
BLACK
6
CONTINUOUS
10
199.585
20
-86.5396
11
199.584
21
-85.2026
0
LINE
8
BLACK
6
CONTINUOUS
10
199.584
20
-85.2026
11
199.538
21
-85.1565
0
LINE
8
BLACK
6
CONTINUOUS
10
199.538
20
-85.1565
11
199.513
21
-85.1352
0
LINE
8
BLACK
6
CONTINUOUS
10
199.513
20
-85.1352
11
199.496
21
-85.1065
0
LINE
8
BLACK
6
CONTINUOUS
10
199.496
20
-85.1065
11
199.477
21
-85.0793
0
LINE
8
BLACK
6
CONTINUOUS
10
199.477
20
-85.0793
11
199.475
21
-85.0685
0
LINE
8
BLACK
6
CONTINUOUS
10
199.475
20
-85.0685
11
199.469
21
-85.0588
0
LINE
8
BLACK
6
CONTINUOUS
10
199.469
20
-85.0588
11
199.463
21
-85.0262
0
LINE
8
BLACK
6
CONTINUOUS
10
199.463
20
-85.0262
11
199.455
21
-84.9941
0
LINE
8
BLACK
6
CONTINUOUS
10
199.455
20
-84.9941
11
199.458
21
-84.9611
0
LINE
8
BLACK
6
CONTINUOUS
10
199.458
20
-84.9611
11
199.457
21
-83.1281
0
LINE
8
BLACK
6
CONTINUOUS
10
199.457
20
-83.1281
11
199.157
21
-82.8281
0
LINE
8
BLACK
6
CONTINUOUS
10
199.157
20
-82.8281
11
199.132
21
-82.8067
0
LINE
8
BLACK
6
CONTINUOUS
10
199.132
20
-82.8067
11
199.115
21
-82.778
0
LINE
8
BLACK
6
CONTINUOUS
10
199.115
20
-82.778
11
199.096
21
-82.7509
0
LINE
8
BLACK
6
CONTINUOUS
10
199.096
20
-82.7509
11
199.094
21
-82.7401
0
LINE
8
BLACK
6
CONTINUOUS
10
199.094
20
-82.7401
11
199.088
21
-82.7304
0
LINE
8
BLACK
6
CONTINUOUS
10
199.088
20
-82.7304
11
199.082
21
-82.6977
0
LINE
8
BLACK
6
CONTINUOUS
10
199.082
20
-82.6977
11
199.074
21
-82.6657
0
LINE
8
BLACK
6
CONTINUOUS
10
199.074
20
-82.6657
11
199.077
21
-82.6327
0
LINE
8
BLACK
6
CONTINUOUS
10
199.077
20
-82.6327
11
199.076
21
-80.0091
0
LINE
8
BLACK
6
CONTINUOUS
10
199.076
20
-80.0091
11
195.948
21
-76.881
0
LINE
8
BLACK
6
CONTINUOUS
10
195.948
20
-76.881
11
194.352
21
-76.881
0
LINE
8
BLACK
6
CONTINUOUS
10
194.352
20
-76.881
11
194.352
21
-76.281
0
LINE
8
BLACK
6
CONTINUOUS
10
194.352
20
-76.281
11
196.302
21
-76.281
0
LINE
8
BLACK
6
CONTINUOUS
10
196.302
20
-76.281
11
196.302
21
-76.5274
0
LINE
8
BLACK
6
CONTINUOUS
10
193.934
20
-74.2433
11
193.926
21
-74.241
0
LINE
8
BLACK
6
CONTINUOUS
10
193.926
20
-74.241
11
193.631
21
-74.241
0
LINE
8
BLACK
6
CONTINUOUS
10
193.631
20
-74.241
11
192.224
21
-75.6478
0
LINE
8
BLACK
6
CONTINUOUS
10
192.224
20
-75.6478
11
192.224
21
-84.8802
0
LINE
8
BLACK
6
CONTINUOUS
10
192.224
20
-84.8802
11
192.596
21
-85.2525
0
LINE
8
BLACK
6
CONTINUOUS
10
192.596
20
-85.2525
11
193.398
21
-85.2525
0
LINE
8
BLACK
6
CONTINUOUS
10
193.398
20
-85.2525
11
193.398
21
-84.8025
0
LINE
8
BLACK
6
CONTINUOUS
10
193.398
20
-84.8025
11
195.398
21
-84.8025
0
LINE
8
BLACK
6
CONTINUOUS
10
195.398
20
-84.8025
11
195.398
21
-85.2025
0
LINE
8
BLACK
6
CONTINUOUS
10
195.398
20
-85.2025
11
196.658
21
-85.2025
0
LINE
8
BLACK
6
CONTINUOUS
10
196.658
20
-85.2025
11
196.658
21
-85.155
0
LINE
8
BLACK
6
CONTINUOUS
10
196.658
20
-85.155
11
196.673
21
-85.0695
0
LINE
8
BLACK
6
CONTINUOUS
10
196.673
20
-85.0695
11
196.716
21
-84.9943
0
LINE
8
BLACK
6
CONTINUOUS
10
196.716
20
-84.9943
11
196.783
21
-84.9385
0
LINE
8
BLACK
6
CONTINUOUS
10
196.783
20
-84.9385
11
196.908
21
-84.905
0
LINE
8
BLACK
6
CONTINUOUS
10
196.908
20
-84.905
11
197.808
21
-84.905
0
LINE
8
BLACK
6
CONTINUOUS
10
197.808
20
-84.905
11
197.894
21
-84.9201
0
LINE
8
BLACK
6
CONTINUOUS
10
197.894
20
-84.9201
11
197.969
21
-84.9635
0
LINE
8
BLACK
6
CONTINUOUS
10
197.969
20
-84.9635
11
198.025
21
-85.03
0
LINE
8
BLACK
6
CONTINUOUS
10
198.025
20
-85.03
11
198.058
21
-85.155
0
LINE
8
BLACK
6
CONTINUOUS
10
198.058
20
-85.155
11
198.058
21
-85.805
0
LINE
8
BLACK
6
CONTINUOUS
10
198.058
20
-85.805
11
198.043
21
-85.8905
0
LINE
8
BLACK
6
CONTINUOUS
10
198.043
20
-85.8905
11
198
21
-85.9657
0
LINE
8
BLACK
6
CONTINUOUS
10
198
20
-85.9657
11
197.933
21
-86.0215
0
LINE
8
BLACK
6
CONTINUOUS
10
197.933
20
-86.0215
11
197.808
21
-86.055
0
LINE
8
BLACK
6
CONTINUOUS
10
197.808
20
-86.055
11
196.908
21
-86.055
0
LINE
8
BLACK
6
CONTINUOUS
10
196.908
20
-86.055
11
196.822
21
-86.0399
0
LINE
8
BLACK
6
CONTINUOUS
10
196.822
20
-86.0399
11
196.747
21
-85.9965
0
LINE
8
BLACK
6
CONTINUOUS
10
196.747
20
-85.9965
11
196.691
21
-85.93
0
LINE
8
BLACK
6
CONTINUOUS
10
196.691
20
-85.93
11
196.658
21
-85.805
0
LINE
8
BLACK
6
CONTINUOUS
10
196.658
20
-85.805
11
196.658
21
-85.7025
0
LINE
8
BLACK
6
CONTINUOUS
10
196.658
20
-85.7025
11
195.398
21
-85.7025
0
LINE
8
BLACK
6
CONTINUOUS
10
195.398
20
-85.7025
11
195.398
21
-86.1025
0
LINE
8
BLACK
6
CONTINUOUS
10
195.398
20
-86.1025
11
193.398
21
-86.1025
0
LINE
8
BLACK
6
CONTINUOUS
10
193.398
20
-86.1025
11
193.398
21
-85.6525
0
LINE
8
BLACK
6
CONTINUOUS
10
193.398
20
-85.6525
11
192.522
21
-85.6525
0
LINE
8
BLACK
6
CONTINUOUS
10
192.522
20
-85.6525
11
192.496
21
-85.6548
0
LINE
8
BLACK
6
CONTINUOUS
10
192.496
20
-85.6548
11
192.47
21
-85.6479
0
LINE
8
BLACK
6
CONTINUOUS
10
192.47
20
-85.6479
11
192.444
21
-85.6433
0
LINE
8
BLACK
6
CONTINUOUS
10
192.444
20
-85.6433
11
192.436
21
-85.6389
0
LINE
8
BLACK
6
CONTINUOUS
10
192.436
20
-85.6389
11
192.428
21
-85.6366
0
LINE
8
BLACK
6
CONTINUOUS
10
192.428
20
-85.6366
11
192.406
21
-85.6213
0
LINE
8
BLACK
6
CONTINUOUS
10
192.406
20
-85.6213
11
192.383
21
-85.6081
0
LINE
8
BLACK
6
CONTINUOUS
10
192.383
20
-85.6081
11
192.366
21
-85.5877
0
LINE
8
BLACK
6
CONTINUOUS
10
192.366
20
-85.5877
11
191.889
21
-85.1106
0
LINE
8
BLACK
6
CONTINUOUS
10
191.889
20
-85.1106
11
191.868
21
-85.0935
0
LINE
8
BLACK
6
CONTINUOUS
10
191.868
20
-85.0935
11
191.855
21
-85.0706
0
LINE
8
BLACK
6
CONTINUOUS
10
191.855
20
-85.0706
11
191.84
21
-85.0488
0
LINE
8
BLACK
6
CONTINUOUS
10
191.84
20
-85.0488
11
191.838
21
-85.0402
0
LINE
8
BLACK
6
CONTINUOUS
10
191.838
20
-85.0402
11
191.833
21
-85.0325
0
LINE
8
BLACK
6
CONTINUOUS
10
191.833
20
-85.0325
11
191.829
21
-85.0063
0
LINE
8
BLACK
6
CONTINUOUS
10
191.829
20
-85.0063
11
191.822
21
-84.9807
0
LINE
8
BLACK
6
CONTINUOUS
10
191.822
20
-84.9807
11
191.824
21
-84.9543
0
LINE
8
BLACK
6
CONTINUOUS
10
191.824
20
-84.9543
11
191.824
21
-75.5737
0
LINE
8
BLACK
6
CONTINUOUS
10
191.824
20
-75.5737
11
191.822
21
-75.5473
0
LINE
8
BLACK
6
CONTINUOUS
10
191.822
20
-75.5473
11
191.829
21
-75.5217
0
LINE
8
BLACK
6
CONTINUOUS
10
191.829
20
-75.5217
11
191.833
21
-75.4955
0
LINE
8
BLACK
6
CONTINUOUS
10
191.833
20
-75.4955
11
191.838
21
-75.4878
0
LINE
8
BLACK
6
CONTINUOUS
10
191.838
20
-75.4878
11
191.84
21
-75.4792
0
LINE
8
BLACK
6
CONTINUOUS
10
191.84
20
-75.4792
11
191.855
21
-75.4574
0
LINE
8
BLACK
6
CONTINUOUS
10
191.855
20
-75.4574
11
191.868
21
-75.4345
0
LINE
8
BLACK
6
CONTINUOUS
10
191.868
20
-75.4345
11
191.889
21
-75.4174
0
LINE
8
BLACK
6
CONTINUOUS
10
191.889
20
-75.4174
11
193.4
21
-73.9058
0
LINE
8
BLACK
6
CONTINUOUS
10
193.4
20
-73.9058
11
193.417
21
-73.8854
0
LINE
8
BLACK
6
CONTINUOUS
10
193.417
20
-73.8854
11
193.44
21
-73.8722
0
LINE
8
BLACK
6
CONTINUOUS
10
193.44
20
-73.8722
11
193.462
21
-73.8569
0
LINE
8
BLACK
6
CONTINUOUS
10
193.462
20
-73.8569
11
193.471
21
-73.8546
0
LINE
8
BLACK
6
CONTINUOUS
10
193.471
20
-73.8546
11
193.478
21
-73.8502
0
LINE
8
BLACK
6
CONTINUOUS
10
193.478
20
-73.8502
11
192.079
21
-72.4511
0
LINE
8
BLACK
6
CONTINUOUS
10
192.079
20
-72.4511
11
192.059
21
-72.434
0
LINE
8
BLACK
6
CONTINUOUS
10
192.059
20
-72.434
11
192.046
21
-72.4111
0
LINE
8
BLACK
6
CONTINUOUS
10
192.046
20
-72.4111
11
192.03
21
-72.3893
0
LINE
8
BLACK
6
CONTINUOUS
10
192.03
20
-72.3893
11
192.028
21
-72.3807
0
LINE
8
BLACK
6
CONTINUOUS
10
192.028
20
-72.3807
11
192.024
21
-72.373
0
LINE
8
BLACK
6
CONTINUOUS
10
192.024
20
-72.373
11
192.019
21
-72.3468
0
LINE
8
BLACK
6
CONTINUOUS
10
192.019
20
-72.3468
11
192.012
21
-72.3212
0
LINE
8
BLACK
6
CONTINUOUS
10
192.012
20
-72.3212
11
192.014
21
-72.2948
0
LINE
8
BLACK
6
CONTINUOUS
10
192.014
20
-72.2948
11
192.015
21
-65.152
0
LINE
8
BLACK
6
CONTINUOUS
10
192.015
20
-65.152
11
191.925
21
-65.1362
0
LINE
8
BLACK
6
CONTINUOUS
10
191.925
20
-65.1362
11
191.727
21
-65.0216
0
LINE
8
BLACK
6
CONTINUOUS
10
191.727
20
-65.0216
11
191.579
21
-64.846
0
LINE
8
BLACK
6
CONTINUOUS
10
191.579
20
-64.846
11
191.501
21
-64.6306
0
LINE
8
BLACK
6
CONTINUOUS
10
191.501
20
-64.6306
11
191.501
21
-64.4014
0
LINE
8
BLACK
6
CONTINUOUS
10
191.501
20
-64.4014
11
191.579
21
-64.186
0
LINE
8
BLACK
6
CONTINUOUS
10
191.579
20
-64.186
11
191.727
21
-64.0104
0
LINE
8
BLACK
6
CONTINUOUS
10
191.727
20
-64.0104
11
191.925
21
-63.8958
0
LINE
8
BLACK
6
CONTINUOUS
10
191.925
20
-63.8958
11
192.151
21
-63.856
0
LINE
8
BLACK
6
CONTINUOUS
10
192.151
20
-63.856
11
192.377
21
-63.8958
0
LINE
8
BLACK
6
CONTINUOUS
10
192.377
20
-63.8958
11
192.575
21
-64.0104
0
LINE
8
BLACK
6
CONTINUOUS
10
192.575
20
-64.0104
11
192.723
21
-64.186
0
LINE
8
BLACK
6
CONTINUOUS
10
192.723
20
-64.186
11
192.801
21
-64.4014
0
LINE
8
BLACK
6
CONTINUOUS
10
192.801
20
-64.4014
11
192.801
21
-64.6306
0
LINE
8
BLACK
6
CONTINUOUS
10
192.801
20
-64.6306
11
192.723
21
-64.846
0
LINE
8
BLACK
6
CONTINUOUS
10
192.723
20
-64.846
11
192.575
21
-65.0216
0
LINE
8
BLACK
6
CONTINUOUS
10
192.575
20
-65.0216
11
192.415
21
-65.1144
0
LINE
8
BLACK
6
CONTINUOUS
10
192.415
20
-65.1144
11
192.415
21
-72.2207
0
LINE
8
BLACK
6
CONTINUOUS
10
192.415
20
-72.2207
11
194.035
21
-73.841
0
LINE
8
BLACK
6
CONTINUOUS
10
194.035
20
-73.841
11
194.352
21
-73.841
0
LINE
8
BLACK
6
CONTINUOUS
10
194.352
20
-73.841
11
194.352
21
-73.741
0
LINE
8
BLACK
6
CONTINUOUS
10
194.352
20
-73.741
11
196.302
21
-73.741
0
LINE
8
BLACK
6
CONTINUOUS
10
196.302
20
-73.741
11
196.302
21
-74.341
0
LINE
8
BLACK
6
CONTINUOUS
10
196.302
20
-74.341
11
194.352
21
-74.341
0
LINE
8
BLACK
6
CONTINUOUS
10
194.352
20
-74.341
11
194.352
21
-74.241
0
LINE
8
BLACK
6
CONTINUOUS
10
194.352
20
-74.241
11
193.961
21
-74.241
0
LINE
8
BLACK
6
CONTINUOUS
10
193.961
20
-74.241
11
193.934
21
-74.2433
0
LINE
8
BLACK
6
CONTINUOUS
10
188.998
20
-86.1025
11
186.998
21
-86.1025
0
LINE
8
BLACK
6
CONTINUOUS
10
186.998
20
-86.1025
11
186.998
21
-84.8025
0
LINE
8
BLACK
6
CONTINUOUS
10
186.998
20
-84.8025
11
188.998
21
-84.8025
0
LINE
8
BLACK
6
CONTINUOUS
10
188.998
20
-84.8025
11
188.998
21
-86.1025
0
LINE
8
BLACK
6
CONTINUOUS
10
196.302
20
-78.151
11
195.577
21
-78.151
0
LINE
8
BLACK
6
CONTINUOUS
10
195.577
20
-78.151
11
195.577
21
-79.0184
0
LINE
8
BLACK
6
CONTINUOUS
10
195.577
20
-79.0184
11
196.281
21
-79.7223
0
LINE
8
BLACK
6
CONTINUOUS
10
196.281
20
-79.7223
11
196.307
21
-79.7073
0
LINE
8
BLACK
6
CONTINUOUS
10
196.307
20
-79.7073
11
196.532
21
-79.6675
0
LINE
8
BLACK
6
CONTINUOUS
10
196.532
20
-79.6675
11
196.758
21
-79.7073
0
LINE
8
BLACK
6
CONTINUOUS
10
196.758
20
-79.7073
11
196.957
21
-79.8219
0
LINE
8
BLACK
6
CONTINUOUS
10
196.957
20
-79.8219
11
197.104
21
-79.9975
0
LINE
8
BLACK
6
CONTINUOUS
10
197.104
20
-79.9975
11
197.183
21
-80.2129
0
LINE
8
BLACK
6
CONTINUOUS
10
197.183
20
-80.2129
11
197.183
21
-80.4421
0
LINE
8
BLACK
6
CONTINUOUS
10
197.183
20
-80.4421
11
197.104
21
-80.6575
0
LINE
8
BLACK
6
CONTINUOUS
10
197.104
20
-80.6575
11
196.957
21
-80.8331
0
LINE
8
BLACK
6
CONTINUOUS
10
196.957
20
-80.8331
11
196.758
21
-80.9477
0
LINE
8
BLACK
6
CONTINUOUS
10
196.758
20
-80.9477
11
196.532
21
-80.9875
0
LINE
8
BLACK
6
CONTINUOUS
10
196.532
20
-80.9875
11
196.307
21
-80.9477
0
LINE
8
BLACK
6
CONTINUOUS
10
196.307
20
-80.9477
11
196.108
21
-80.8331
0
LINE
8
BLACK
6
CONTINUOUS
10
196.108
20
-80.8331
11
195.961
21
-80.6575
0
LINE
8
BLACK
6
CONTINUOUS
10
195.961
20
-80.6575
11
195.882
21
-80.4421
0
LINE
8
BLACK
6
CONTINUOUS
10
195.882
20
-80.4421
11
195.882
21
-80.2129
0
LINE
8
BLACK
6
CONTINUOUS
10
195.882
20
-80.2129
11
195.931
21
-80.0796
0
LINE
8
BLACK
6
CONTINUOUS
10
195.931
20
-80.0796
11
195.158
21
-79.3065
0
LINE
8
BLACK
6
CONTINUOUS
10
195.158
20
-79.3065
11
195.133
21
-79.2852
0
LINE
8
BLACK
6
CONTINUOUS
10
195.133
20
-79.2852
11
195.116
21
-79.2565
0
LINE
8
BLACK
6
CONTINUOUS
10
195.116
20
-79.2565
11
195.097
21
-79.2293
0
LINE
8
BLACK
6
CONTINUOUS
10
195.097
20
-79.2293
11
195.094
21
-79.2185
0
LINE
8
BLACK
6
CONTINUOUS
10
195.094
20
-79.2185
11
195.088
21
-79.2088
0
LINE
8
BLACK
6
CONTINUOUS
10
195.088
20
-79.2088
11
195.083
21
-79.1762
0
LINE
8
BLACK
6
CONTINUOUS
10
195.083
20
-79.1762
11
195.074
21
-79.1441
0
LINE
8
BLACK
6
CONTINUOUS
10
195.074
20
-79.1441
11
195.077
21
-79.1111
0
LINE
8
BLACK
6
CONTINUOUS
10
195.077
20
-79.1111
11
195.077
21
-78.151
0
LINE
8
BLACK
6
CONTINUOUS
10
195.077
20
-78.151
11
194.352
21
-78.151
0
LINE
8
BLACK
6
CONTINUOUS
10
194.352
20
-78.151
11
194.352
21
-78.101
0
LINE
8
BLACK
6
CONTINUOUS
10
194.352
20
-78.101
11
193.956
21
-78.101
0
LINE
8
BLACK
6
CONTINUOUS
10
193.956
20
-78.101
11
193.198
21
-78.8581
0
LINE
8
BLACK
6
CONTINUOUS
10
193.198
20
-78.8581
11
193.198
21
-83.18
0
LINE
8
BLACK
6
CONTINUOUS
10
193.198
20
-83.18
11
196.658
21
-83.18
0
LINE
8
BLACK
6
CONTINUOUS
10
196.658
20
-83.18
11
196.658
21
-83.105
0
LINE
8
BLACK
6
CONTINUOUS
10
196.658
20
-83.105
11
196.673
21
-83.0195
0
LINE
8
BLACK
6
CONTINUOUS
10
196.673
20
-83.0195
11
196.716
21
-82.9443
0
LINE
8
BLACK
6
CONTINUOUS
10
196.716
20
-82.9443
11
196.783
21
-82.8885
0
LINE
8
BLACK
6
CONTINUOUS
10
196.783
20
-82.8885
11
196.908
21
-82.855
0
LINE
8
BLACK
6
CONTINUOUS
10
196.908
20
-82.855
11
197.808
21
-82.855
0
LINE
8
BLACK
6
CONTINUOUS
10
197.808
20
-82.855
11
197.894
21
-82.8701
0
LINE
8
BLACK
6
CONTINUOUS
10
197.894
20
-82.8701
11
197.969
21
-82.9135
0
LINE
8
BLACK
6
CONTINUOUS
10
197.969
20
-82.9135
11
198.025
21
-82.98
0
LINE
8
BLACK
6
CONTINUOUS
10
198.025
20
-82.98
11
198.058
21
-83.105
0
LINE
8
BLACK
6
CONTINUOUS
10
198.058
20
-83.105
11
198.058
21
-83.755
0
LINE
8
BLACK
6
CONTINUOUS
10
198.058
20
-83.755
11
198.043
21
-83.8405
0
LINE
8
BLACK
6
CONTINUOUS
10
198.043
20
-83.8405
11
198
21
-83.9157
0
LINE
8
BLACK
6
CONTINUOUS
10
198
20
-83.9157
11
197.933
21
-83.9715
0
LINE
8
BLACK
6
CONTINUOUS
10
197.933
20
-83.9715
11
197.808
21
-84.005
0
LINE
8
BLACK
6
CONTINUOUS
10
197.808
20
-84.005
11
196.908
21
-84.005
0
LINE
8
BLACK
6
CONTINUOUS
10
196.908
20
-84.005
11
196.822
21
-83.9899
0
LINE
8
BLACK
6
CONTINUOUS
10
196.822
20
-83.9899
11
196.747
21
-83.9465
0
LINE
8
BLACK
6
CONTINUOUS
10
196.747
20
-83.9465
11
196.691
21
-83.88
0
LINE
8
BLACK
6
CONTINUOUS
10
196.691
20
-83.88
11
196.658
21
-83.755
0
LINE
8
BLACK
6
CONTINUOUS
10
196.658
20
-83.755
11
196.658
21
-83.68
0
LINE
8
BLACK
6
CONTINUOUS
10
196.658
20
-83.68
11
192.978
21
-83.68
0
LINE
8
BLACK
6
CONTINUOUS
10
192.978
20
-83.68
11
192.945
21
-83.6829
0
LINE
8
BLACK
6
CONTINUOUS
10
192.945
20
-83.6829
11
192.913
21
-83.6743
0
LINE
8
BLACK
6
CONTINUOUS
10
192.913
20
-83.6743
11
192.881
21
-83.6685
0
LINE
8
BLACK
6
CONTINUOUS
10
192.881
20
-83.6685
11
192.871
21
-83.663
0
LINE
8
BLACK
6
CONTINUOUS
10
192.871
20
-83.663
11
192.86
21
-83.6601
0
LINE
8
BLACK
6
CONTINUOUS
10
192.86
20
-83.6601
11
192.833
21
-83.6411
0
LINE
8
BLACK
6
CONTINUOUS
10
192.833
20
-83.6411
11
192.804
21
-83.6245
0
LINE
8
BLACK
6
CONTINUOUS
10
192.804
20
-83.6245
11
192.783
21
-83.5991
0
LINE
8
BLACK
6
CONTINUOUS
10
192.783
20
-83.5991
11
192.779
21
-83.5955
0
LINE
8
BLACK
6
CONTINUOUS
10
192.779
20
-83.5955
11
192.754
21
-83.5742
0
LINE
8
BLACK
6
CONTINUOUS
10
192.754
20
-83.5742
11
192.737
21
-83.5455
0
LINE
8
BLACK
6
CONTINUOUS
10
192.737
20
-83.5455
11
192.718
21
-83.5183
0
LINE
8
BLACK
6
CONTINUOUS
10
192.718
20
-83.5183
11
192.716
21
-83.5075
0
LINE
8
BLACK
6
CONTINUOUS
10
192.716
20
-83.5075
11
192.71
21
-83.4978
0
LINE
8
BLACK
6
CONTINUOUS
10
192.71
20
-83.4978
11
192.704
21
-83.4652
0
LINE
8
BLACK
6
CONTINUOUS
10
192.704
20
-83.4652
11
192.696
21
-83.4331
0
LINE
8
BLACK
6
CONTINUOUS
10
192.696
20
-83.4331
11
192.698
21
-83.4001
0
LINE
8
BLACK
6
CONTINUOUS
10
192.698
20
-83.4001
11
192.698
21
-78.7654
0
LINE
8
BLACK
6
CONTINUOUS
10
192.698
20
-78.7654
11
192.696
21
-78.7324
0
LINE
8
BLACK
6
CONTINUOUS
10
192.696
20
-78.7324
11
192.704
21
-78.7003
0
LINE
8
BLACK
6
CONTINUOUS
10
192.704
20
-78.7003
11
192.71
21
-78.6677
0
LINE
8
BLACK
6
CONTINUOUS
10
192.71
20
-78.6677
11
192.716
21
-78.658
0
LINE
8
BLACK
6
CONTINUOUS
10
192.716
20
-78.658
11
192.718
21
-78.6472
0
LINE
8
BLACK
6
CONTINUOUS
10
192.718
20
-78.6472
11
192.737
21
-78.62
0
LINE
8
BLACK
6
CONTINUOUS
10
192.737
20
-78.62
11
192.754
21
-78.5913
0
LINE
8
BLACK
6
CONTINUOUS
10
192.754
20
-78.5913
11
192.779
21
-78.57
0
LINE
8
BLACK
6
CONTINUOUS
10
192.779
20
-78.57
11
193.668
21
-77.6819
0
LINE
8
BLACK
6
CONTINUOUS
10
193.668
20
-77.6819
11
193.689
21
-77.6565
0
LINE
8
BLACK
6
CONTINUOUS
10
193.689
20
-77.6565
11
193.718
21
-77.64
0
LINE
8
BLACK
6
CONTINUOUS
10
193.718
20
-77.64
11
193.745
21
-77.6209
0
LINE
8
BLACK
6
CONTINUOUS
10
193.745
20
-77.6209
11
193.756
21
-77.618
0
LINE
8
BLACK
6
CONTINUOUS
10
193.756
20
-77.618
11
193.765
21
-77.6125
0
LINE
8
BLACK
6
CONTINUOUS
10
193.765
20
-77.6125
11
193.798
21
-77.6067
0
LINE
8
BLACK
6
CONTINUOUS
10
193.798
20
-77.6067
11
193.83
21
-77.5981
0
LINE
8
BLACK
6
CONTINUOUS
10
193.83
20
-77.5981
11
193.863
21
-77.601
0
LINE
8
BLACK
6
CONTINUOUS
10
193.863
20
-77.601
11
194.352
21
-77.601
0
LINE
8
BLACK
6
CONTINUOUS
10
194.352
20
-77.601
11
194.352
21
-77.551
0
LINE
8
BLACK
6
CONTINUOUS
10
194.352
20
-77.551
11
196.302
21
-77.551
0
LINE
8
BLACK
6
CONTINUOUS
10
196.302
20
-77.551
11
196.302
21
-78.151
0
LINE
8
BLACK
6
CONTINUOUS
10
202.959
20
-78.2486
11
203.035
21
-78.292
0
LINE
8
BLACK
6
CONTINUOUS
10
203.035
20
-78.292
11
203.09
21
-78.3585
0
LINE
8
BLACK
6
CONTINUOUS
10
203.09
20
-78.3585
11
203.124
21
-78.4835
0
LINE
8
BLACK
6
CONTINUOUS
10
203.124
20
-78.4835
11
203.124
21
-79.3835
0
LINE
8
BLACK
6
CONTINUOUS
10
203.124
20
-79.3835
11
203.109
21
-79.469
0
LINE
8
BLACK
6
CONTINUOUS
10
203.109
20
-79.469
11
203.065
21
-79.5442
0
LINE
8
BLACK
6
CONTINUOUS
10
203.065
20
-79.5442
11
202.999
21
-79.6
0
LINE
8
BLACK
6
CONTINUOUS
10
202.999
20
-79.6
11
202.874
21
-79.6335
0
LINE
8
BLACK
6
CONTINUOUS
10
202.874
20
-79.6335
11
202.224
21
-79.6335
0
LINE
8
BLACK
6
CONTINUOUS
10
202.224
20
-79.6335
11
202.206
21
-79.6303
0
LINE
8
BLACK
6
CONTINUOUS
10
202.206
20
-79.6303
11
200.87
21
-80.966
0
LINE
8
BLACK
6
CONTINUOUS
10
200.87
20
-80.966
11
200.927
21
-80.9761
0
LINE
8
BLACK
6
CONTINUOUS
10
200.927
20
-80.9761
11
201.003
21
-81.0195
0
LINE
8
BLACK
6
CONTINUOUS
10
201.003
20
-81.0195
11
201.058
21
-81.086
0
LINE
8
BLACK
6
CONTINUOUS
10
201.058
20
-81.086
11
201.092
21
-81.211
0
LINE
8
BLACK
6
CONTINUOUS
10
201.092
20
-81.211
11
201.092
21
-82.111
0
LINE
8
BLACK
6
CONTINUOUS
10
201.092
20
-82.111
11
201.077
21
-82.1965
0
LINE
8
BLACK
6
CONTINUOUS
10
201.077
20
-82.1965
11
201.033
21
-82.2717
0
LINE
8
BLACK
6
CONTINUOUS
10
201.033
20
-82.2717
11
200.967
21
-82.3275
0
LINE
8
BLACK
6
CONTINUOUS
10
200.967
20
-82.3275
11
200.842
21
-82.361
0
LINE
8
BLACK
6
CONTINUOUS
10
200.842
20
-82.361
11
200.192
21
-82.361
0
LINE
8
BLACK
6
CONTINUOUS
10
200.192
20
-82.361
11
200.106
21
-82.3459
0
LINE
8
BLACK
6
CONTINUOUS
10
200.106
20
-82.3459
11
200.031
21
-82.3025
0
LINE
8
BLACK
6
CONTINUOUS
10
200.031
20
-82.3025
11
199.975
21
-82.236
0
LINE
8
BLACK
6
CONTINUOUS
10
199.975
20
-82.236
11
199.942
21
-82.111
0
LINE
8
BLACK
6
CONTINUOUS
10
199.942
20
-82.111
11
199.942
21
-81.211
0
LINE
8
BLACK
6
CONTINUOUS
10
199.942
20
-81.211
11
199.957
21
-81.1255
0
LINE
8
BLACK
6
CONTINUOUS
10
199.957
20
-81.1255
11
200
21
-81.0503
0
LINE
8
BLACK
6
CONTINUOUS
10
200
20
-81.0503
11
200.067
21
-80.9945
0
LINE
8
BLACK
6
CONTINUOUS
10
200.067
20
-80.9945
11
200.192
21
-80.961
0
LINE
8
BLACK
6
CONTINUOUS
10
200.192
20
-80.961
11
200.266
21
-80.961
0
LINE
8
BLACK
6
CONTINUOUS
10
200.266
20
-80.961
11
200.264
21
-80.9434
0
LINE
8
BLACK
6
CONTINUOUS
10
200.264
20
-80.9434
11
200.273
21
-80.9113
0
LINE
8
BLACK
6
CONTINUOUS
10
200.273
20
-80.9113
11
200.278
21
-80.8787
0
LINE
8
BLACK
6
CONTINUOUS
10
200.278
20
-80.8787
11
200.284
21
-80.869
0
LINE
8
BLACK
6
CONTINUOUS
10
200.284
20
-80.869
11
200.287
21
-80.8582
0
LINE
8
BLACK
6
CONTINUOUS
10
200.287
20
-80.8582
11
200.306
21
-80.831
0
LINE
8
BLACK
6
CONTINUOUS
10
200.306
20
-80.831
11
200.322
21
-80.8023
0
LINE
8
BLACK
6
CONTINUOUS
10
200.322
20
-80.8023
11
200.348
21
-80.781
0
LINE
8
BLACK
6
CONTINUOUS
10
200.348
20
-80.781
11
201.974
21
-79.1549
0
LINE
8
BLACK
6
CONTINUOUS
10
201.974
20
-79.1549
11
201.974
21
-78.4835
0
LINE
8
BLACK
6
CONTINUOUS
10
201.974
20
-78.4835
11
201.989
21
-78.398
0
LINE
8
BLACK
6
CONTINUOUS
10
201.989
20
-78.398
11
202.032
21
-78.3228
0
LINE
8
BLACK
6
CONTINUOUS
10
202.032
20
-78.3228
11
202.099
21
-78.267
0
LINE
8
BLACK
6
CONTINUOUS
10
202.099
20
-78.267
11
202.224
21
-78.2335
0
LINE
8
BLACK
6
CONTINUOUS
10
202.224
20
-78.2335
11
202.874
21
-78.2335
0
LINE
8
BLACK
6
CONTINUOUS
10
202.874
20
-78.2335
11
202.959
21
-78.2486
0
LINE
8
BLACK
6
CONTINUOUS
10
188.998
20
-82.2025
11
186.998
21
-82.2025
0
LINE
8
BLACK
6
CONTINUOUS
10
186.998
20
-82.2025
11
186.998
21
-80.9025
0
LINE
8
BLACK
6
CONTINUOUS
10
186.998
20
-80.9025
11
188.998
21
-80.9025
0
LINE
8
BLACK
6
CONTINUOUS
10
188.998
20
-80.9025
11
188.998
21
-82.2025
0
LINE
8
BLACK
6
CONTINUOUS
10
200.824
20
-78.2335
11
200.909
21
-78.2486
0
LINE
8
BLACK
6
CONTINUOUS
10
200.909
20
-78.2486
11
200.985
21
-78.292
0
LINE
8
BLACK
6
CONTINUOUS
10
200.985
20
-78.292
11
201.04
21
-78.3585
0
LINE
8
BLACK
6
CONTINUOUS
10
201.04
20
-78.3585
11
201.074
21
-78.4835
0
LINE
8
BLACK
6
CONTINUOUS
10
201.074
20
-78.4835
11
201.074
21
-79.3835
0
LINE
8
BLACK
6
CONTINUOUS
10
201.074
20
-79.3835
11
201.059
21
-79.469
0
LINE
8
BLACK
6
CONTINUOUS
10
201.059
20
-79.469
11
201.015
21
-79.5442
0
LINE
8
BLACK
6
CONTINUOUS
10
201.015
20
-79.5442
11
200.949
21
-79.6
0
LINE
8
BLACK
6
CONTINUOUS
10
200.949
20
-79.6
11
200.824
21
-79.6335
0
LINE
8
BLACK
6
CONTINUOUS
10
200.824
20
-79.6335
11
200.174
21
-79.6335
0
LINE
8
BLACK
6
CONTINUOUS
10
200.174
20
-79.6335
11
200.088
21
-79.6184
0
LINE
8
BLACK
6
CONTINUOUS
10
200.088
20
-79.6184
11
200.013
21
-79.575
0
LINE
8
BLACK
6
CONTINUOUS
10
200.013
20
-79.575
11
199.957
21
-79.5085
0
LINE
8
BLACK
6
CONTINUOUS
10
199.957
20
-79.5085
11
199.924
21
-79.3835
0
LINE
8
BLACK
6
CONTINUOUS
10
199.924
20
-79.3835
11
199.924
21
-78.4835
0
LINE
8
BLACK
6
CONTINUOUS
10
199.924
20
-78.4835
11
199.939
21
-78.398
0
LINE
8
BLACK
6
CONTINUOUS
10
199.939
20
-78.398
11
199.982
21
-78.3228
0
LINE
8
BLACK
6
CONTINUOUS
10
199.982
20
-78.3228
11
200.049
21
-78.267
0
LINE
8
BLACK
6
CONTINUOUS
10
200.049
20
-78.267
11
200.174
21
-78.2335
0
LINE
8
BLACK
6
CONTINUOUS
10
200.174
20
-78.2335
11
200.249
21
-78.2335
0
LINE
8
BLACK
6
CONTINUOUS
10
200.249
20
-78.2335
11
200.249
21
-78.1116
0
LINE
8
BLACK
6
CONTINUOUS
10
200.249
20
-78.1116
11
200.249
21
-78.1116
0
LINE
8
BLACK
6
CONTINUOUS
10
200.249
20
-78.1116
11
200.249
21
-76.1465
0
LINE
8
BLACK
6
CONTINUOUS
10
200.249
20
-76.1465
11
197.123
21
-73.021
0
LINE
8
BLACK
6
CONTINUOUS
10
197.123
20
-73.021
11
196.302
21
-73.021
0
LINE
8
BLACK
6
CONTINUOUS
10
196.302
20
-73.021
11
196.302
21
-73.071
0
LINE
8
BLACK
6
CONTINUOUS
10
196.302
20
-73.071
11
194.352
21
-73.071
0
LINE
8
BLACK
6
CONTINUOUS
10
194.352
20
-73.071
11
194.352
21
-72.471
0
LINE
8
BLACK
6
CONTINUOUS
10
194.352
20
-72.471
11
196.302
21
-72.471
0
LINE
8
BLACK
6
CONTINUOUS
10
196.302
20
-72.471
11
196.302
21
-72.521
0
LINE
8
BLACK
6
CONTINUOUS
10
196.302
20
-72.521
11
197.216
21
-72.521
0
LINE
8
BLACK
6
CONTINUOUS
10
197.216
20
-72.521
11
197.249
21
-72.5181
0
LINE
8
BLACK
6
CONTINUOUS
10
197.249
20
-72.5181
11
197.281
21
-72.5267
0
LINE
8
BLACK
6
CONTINUOUS
10
197.281
20
-72.5267
11
197.314
21
-72.5325
0
LINE
8
BLACK
6
CONTINUOUS
10
197.314
20
-72.5325
11
197.323
21
-72.538
0
LINE
8
BLACK
6
CONTINUOUS
10
197.323
20
-72.538
11
197.334
21
-72.5409
0
LINE
8
BLACK
6
CONTINUOUS
10
197.334
20
-72.5409
11
197.361
21
-72.56
0
LINE
8
BLACK
6
CONTINUOUS
10
197.361
20
-72.56
11
197.39
21
-72.5765
0
LINE
8
BLACK
6
CONTINUOUS
10
197.39
20
-72.5765
11
197.411
21
-72.6019
0
LINE
8
BLACK
6
CONTINUOUS
10
197.411
20
-72.6019
11
200.668
21
-75.8585
0
LINE
8
BLACK
6
CONTINUOUS
10
200.668
20
-75.8585
11
200.693
21
-75.8798
0
LINE
8
BLACK
6
CONTINUOUS
10
200.693
20
-75.8798
11
200.71
21
-75.9085
0
LINE
8
BLACK
6
CONTINUOUS
10
200.71
20
-75.9085
11
200.729
21
-75.9357
0
LINE
8
BLACK
6
CONTINUOUS
10
200.729
20
-75.9357
11
200.732
21
-75.9465
0
LINE
8
BLACK
6
CONTINUOUS
10
200.732
20
-75.9465
11
200.737
21
-75.9561
0
LINE
8
BLACK
6
CONTINUOUS
10
200.737
20
-75.9561
11
200.743
21
-75.9888
0
LINE
8
BLACK
6
CONTINUOUS
10
200.743
20
-75.9888
11
200.752
21
-76.0208
0
LINE
8
BLACK
6
CONTINUOUS
10
200.752
20
-76.0208
11
200.749
21
-76.0539
0
LINE
8
BLACK
6
CONTINUOUS
10
200.749
20
-76.0539
11
200.749
21
-78.2335
0
LINE
8
BLACK
6
CONTINUOUS
10
200.749
20
-78.2335
11
200.824
21
-78.2335
0
LINE
8
BLACK
6
CONTINUOUS
10
209.046
20
-62.5705
11
208.954
21
-62.3164
0
LINE
8
BLACK
6
CONTINUOUS
10
208.954
20
-62.3164
11
208.954
21
-62.0166
0
LINE
8
BLACK
6
CONTINUOUS
10
208.954
20
-62.0166
11
209.057
21
-61.7349
0
LINE
8
BLACK
6
CONTINUOUS
10
209.057
20
-61.7349
11
209.249
21
-61.5053
0
LINE
8
BLACK
6
CONTINUOUS
10
209.249
20
-61.5053
11
209.509
21
-61.3554
0
LINE
8
BLACK
6
CONTINUOUS
10
209.509
20
-61.3554
11
209.73
21
-61.3165
0
LINE
8
BLACK
6
CONTINUOUS
10
209.73
20
-61.3165
11
209.878
21
-61.3165
0
LINE
8
BLACK
6
CONTINUOUS
10
209.878
20
-61.3165
11
210.099
21
-61.3554
0
LINE
8
BLACK
6
CONTINUOUS
10
210.099
20
-61.3554
11
210.359
21
-61.5053
0
LINE
8
BLACK
6
CONTINUOUS
10
210.359
20
-61.5053
11
210.551
21
-61.7349
0
LINE
8
BLACK
6
CONTINUOUS
10
210.551
20
-61.7349
11
210.654
21
-62.0166
0
LINE
8
BLACK
6
CONTINUOUS
10
210.654
20
-62.0166
11
210.654
21
-62.3164
0
LINE
8
BLACK
6
CONTINUOUS
10
210.654
20
-62.3164
11
210.551
21
-62.5981
0
LINE
8
BLACK
6
CONTINUOUS
10
210.551
20
-62.5981
11
210.359
21
-62.8277
0
LINE
8
BLACK
6
CONTINUOUS
10
210.359
20
-62.8277
11
210.099
21
-62.9776
0
LINE
8
BLACK
6
CONTINUOUS
10
210.099
20
-62.9776
11
209.878
21
-63.0165
0
LINE
8
BLACK
6
CONTINUOUS
10
209.878
20
-63.0165
11
209.73
21
-63.0165
0
LINE
8
BLACK
6
CONTINUOUS
10
209.73
20
-63.0165
11
209.509
21
-62.9776
0
LINE
8
BLACK
6
CONTINUOUS
10
209.509
20
-62.9776
11
209.406
21
-62.9182
0
LINE
8
BLACK
6
CONTINUOUS
10
209.406
20
-62.9182
11
208.02
21
-64.3041
0
LINE
8
BLACK
6
CONTINUOUS
10
208.02
20
-64.3041
11
207.999
21
-64.3295
0
LINE
8
BLACK
6
CONTINUOUS
10
207.999
20
-64.3295
11
207.97
21
-64.346
0
LINE
8
BLACK
6
CONTINUOUS
10
207.97
20
-64.346
11
207.943
21
-64.3651
0
LINE
8
BLACK
6
CONTINUOUS
10
207.943
20
-64.3651
11
207.932
21
-64.368
0
LINE
8
BLACK
6
CONTINUOUS
10
207.932
20
-64.368
11
207.922
21
-64.3735
0
LINE
8
BLACK
6
CONTINUOUS
10
207.922
20
-64.3735
11
207.89
21
-64.3793
0
LINE
8
BLACK
6
CONTINUOUS
10
207.89
20
-64.3793
11
207.858
21
-64.3879
0
LINE
8
BLACK
6
CONTINUOUS
10
207.858
20
-64.3879
11
207.825
21
-64.385
0
LINE
8
BLACK
6
CONTINUOUS
10
207.825
20
-64.385
11
202.979
21
-64.385
0
LINE
8
BLACK
6
CONTINUOUS
10
202.979
20
-64.385
11
202.968
21
-64.3879
0
LINE
8
BLACK
6
CONTINUOUS
10
202.968
20
-64.3879
11
202.935
21
-64.385
0
LINE
8
BLACK
6
CONTINUOUS
10
202.935
20
-64.385
11
196.084
21
-64.385
0
LINE
8
BLACK
6
CONTINUOUS
10
196.084
20
-64.385
11
196.051
21
-64.3879
0
LINE
8
BLACK
6
CONTINUOUS
10
196.051
20
-64.3879
11
196.019
21
-64.3793
0
LINE
8
BLACK
6
CONTINUOUS
10
196.019
20
-64.3793
11
195.987
21
-64.3735
0
LINE
8
BLACK
6
CONTINUOUS
10
195.987
20
-64.3735
11
195.977
21
-64.368
0
LINE
8
BLACK
6
CONTINUOUS
10
195.977
20
-64.368
11
195.966
21
-64.3651
0
LINE
8
BLACK
6
CONTINUOUS
10
195.966
20
-64.3651
11
195.939
21
-64.346
0
LINE
8
BLACK
6
CONTINUOUS
10
195.939
20
-64.346
11
195.91
21
-64.3295
0
LINE
8
BLACK
6
CONTINUOUS
10
195.91
20
-64.3295
11
195.889
21
-64.3041
0
LINE
8
BLACK
6
CONTINUOUS
10
195.889
20
-64.3041
11
195.347
21
-63.7625
0
LINE
8
BLACK
6
CONTINUOUS
10
195.347
20
-63.7625
11
195.322
21
-63.7412
0
LINE
8
BLACK
6
CONTINUOUS
10
195.322
20
-63.7412
11
195.305
21
-63.7125
0
LINE
8
BLACK
6
CONTINUOUS
10
195.305
20
-63.7125
11
195.286
21
-63.6853
0
LINE
8
BLACK
6
CONTINUOUS
10
195.286
20
-63.6853
11
195.284
21
-63.6745
0
LINE
8
BLACK
6
CONTINUOUS
10
195.284
20
-63.6745
11
195.278
21
-63.6648
0
LINE
8
BLACK
6
CONTINUOUS
10
195.278
20
-63.6648
11
195.272
21
-63.6322
0
LINE
8
BLACK
6
CONTINUOUS
10
195.272
20
-63.6322
11
195.264
21
-63.6001
0
LINE
8
BLACK
6
CONTINUOUS
10
195.264
20
-63.6001
11
195.267
21
-63.5671
0
LINE
8
BLACK
6
CONTINUOUS
10
195.267
20
-63.5671
11
195.267
21
-63.078
0
LINE
8
BLACK
6
CONTINUOUS
10
195.267
20
-63.078
11
194.766
21
-63.078
0
LINE
8
BLACK
6
CONTINUOUS
10
194.766
20
-63.078
11
194.766
21
-61.4316
0
LINE
8
BLACK
6
CONTINUOUS
10
194.766
20
-61.4316
11
193.525
21
-60.1899
0
LINE
8
BLACK
6
CONTINUOUS
10
193.525
20
-60.1899
11
190.385
21
-60.0643
0
LINE
8
BLACK
6
CONTINUOUS
10
190.385
20
-60.0643
11
190.385
21
-60.0643
0
LINE
8
BLACK
6
CONTINUOUS
10
190.385
20
-60.0643
11
188.903
21
-60.0051
0
LINE
8
BLACK
6
CONTINUOUS
10
188.903
20
-60.0051
11
188.917
21
-60.0447
0
LINE
8
BLACK
6
CONTINUOUS
10
188.917
20
-60.0447
11
188.917
21
-60.7323
0
LINE
8
BLACK
6
CONTINUOUS
10
188.917
20
-60.7323
11
188.682
21
-61.3785
0
LINE
8
BLACK
6
CONTINUOUS
10
188.682
20
-61.3785
11
188.24
21
-61.9053
0
LINE
8
BLACK
6
CONTINUOUS
10
188.24
20
-61.9053
11
187.645
21
-62.2492
0
LINE
8
BLACK
6
CONTINUOUS
10
187.645
20
-62.2492
11
186.968
21
-62.3686
0
LINE
8
BLACK
6
CONTINUOUS
10
186.968
20
-62.3686
11
186.29
21
-62.2492
0
LINE
8
BLACK
6
CONTINUOUS
10
186.29
20
-62.2492
11
185.695
21
-61.9053
0
LINE
8
BLACK
6
CONTINUOUS
10
185.695
20
-61.9053
11
185.253
21
-61.3785
0
LINE
8
BLACK
6
CONTINUOUS
10
185.253
20
-61.3785
11
185.017
21
-60.7323
0
LINE
8
BLACK
6
CONTINUOUS
10
185.017
20
-60.7323
11
185.017
21
-60.0447
0
LINE
8
BLACK
6
CONTINUOUS
10
185.017
20
-60.0447
11
185.253
21
-59.3985
0
LINE
8
BLACK
6
CONTINUOUS
10
185.253
20
-59.3985
11
185.695
21
-58.8717
0
LINE
8
BLACK
6
CONTINUOUS
10
185.695
20
-58.8717
11
186.29
21
-58.5278
0
LINE
8
BLACK
6
CONTINUOUS
10
186.29
20
-58.5278
11
186.968
21
-58.4084
0
LINE
8
BLACK
6
CONTINUOUS
10
186.968
20
-58.4084
11
187.645
21
-58.5278
0
LINE
8
BLACK
6
CONTINUOUS
10
187.645
20
-58.5278
11
188.24
21
-58.8717
0
LINE
8
BLACK
6
CONTINUOUS
10
188.24
20
-58.8717
11
188.682
21
-59.3985
0
LINE
8
BLACK
6
CONTINUOUS
10
188.682
20
-59.3985
11
188.718
21
-59.4973
0
LINE
8
BLACK
6
CONTINUOUS
10
188.718
20
-59.4973
11
189.818
21
-59.5413
0
LINE
8
BLACK
6
CONTINUOUS
10
189.818
20
-59.5413
11
186.928
21
-56.6515
0
LINE
8
BLACK
6
CONTINUOUS
10
186.928
20
-56.6515
11
182.01
21
-56.6515
0
LINE
8
BLACK
6
CONTINUOUS
10
182.01
20
-56.6515
11
178.127
21
-60.5348
0
LINE
8
BLACK
6
CONTINUOUS
10
178.127
20
-60.5348
11
178.127
21
-78.4667
0
LINE
8
BLACK
6
CONTINUOUS
10
178.127
20
-78.4667
11
178.137
21
-78.4765
0
LINE
8
BLACK
6
CONTINUOUS
10
178.137
20
-78.4765
11
179.127
21
-78.4765
0
LINE
8
BLACK
6
CONTINUOUS
10
179.127
20
-78.4765
11
179.212
21
-78.2449
0
LINE
8
BLACK
6
CONTINUOUS
10
179.212
20
-78.2449
11
179.404
21
-78.0153
0
LINE
8
BLACK
6
CONTINUOUS
10
179.404
20
-78.0153
11
179.664
21
-77.8654
0
LINE
8
BLACK
6
CONTINUOUS
10
179.664
20
-77.8654
11
179.885
21
-77.8265
0
LINE
8
BLACK
6
CONTINUOUS
10
179.885
20
-77.8265
11
180.033
21
-77.8265
0
LINE
8
BLACK
6
CONTINUOUS
10
180.033
20
-77.8265
11
180.254
21
-77.8654
0
LINE
8
BLACK
6
CONTINUOUS
10
180.254
20
-77.8654
11
180.514
21
-78.0153
0
LINE
8
BLACK
6
CONTINUOUS
10
180.514
20
-78.0153
11
180.706
21
-78.2449
0
LINE
8
BLACK
6
CONTINUOUS
10
180.706
20
-78.2449
11
180.809
21
-78.5266
0
LINE
8
BLACK
6
CONTINUOUS
10
180.809
20
-78.5266
11
180.809
21
-78.8264
0
LINE
8
BLACK
6
CONTINUOUS
10
180.809
20
-78.8264
11
180.706
21
-79.1081
0
LINE
8
BLACK
6
CONTINUOUS
10
180.706
20
-79.1081
11
180.514
21
-79.3377
0
LINE
8
BLACK
6
CONTINUOUS
10
180.514
20
-79.3377
11
180.254
21
-79.4876
0
LINE
8
BLACK
6
CONTINUOUS
10
180.254
20
-79.4876
11
180.033
21
-79.5265
0
LINE
8
BLACK
6
CONTINUOUS
10
180.033
20
-79.5265
11
179.885
21
-79.5265
0
LINE
8
BLACK
6
CONTINUOUS
10
179.885
20
-79.5265
11
179.664
21
-79.4876
0
LINE
8
BLACK
6
CONTINUOUS
10
179.664
20
-79.4876
11
179.404
21
-79.3377
0
LINE
8
BLACK
6
CONTINUOUS
10
179.404
20
-79.3377
11
179.212
21
-79.1081
0
LINE
8
BLACK
6
CONTINUOUS
10
179.212
20
-79.1081
11
179.127
21
-78.8765
0
LINE
8
BLACK
6
CONTINUOUS
10
179.127
20
-78.8765
11
178.063
21
-78.8765
0
LINE
8
BLACK
6
CONTINUOUS
10
178.063
20
-78.8765
11
178.036
21
-78.8788
0
LINE
8
BLACK
6
CONTINUOUS
10
178.036
20
-78.8788
11
178.011
21
-78.8719
0
LINE
8
BLACK
6
CONTINUOUS
10
178.011
20
-78.8719
11
177.985
21
-78.8673
0
LINE
8
BLACK
6
CONTINUOUS
10
177.985
20
-78.8673
11
177.977
21
-78.8629
0
LINE
8
BLACK
6
CONTINUOUS
10
177.977
20
-78.8629
11
177.968
21
-78.8606
0
LINE
8
BLACK
6
CONTINUOUS
10
177.968
20
-78.8606
11
177.946
21
-78.8453
0
LINE
8
BLACK
6
CONTINUOUS
10
177.946
20
-78.8453
11
177.923
21
-78.8321
0
LINE
8
BLACK
6
CONTINUOUS
10
177.923
20
-78.8321
11
177.906
21
-78.8117
0
LINE
8
BLACK
6
CONTINUOUS
10
177.906
20
-78.8117
11
177.792
21
-78.6971
0
LINE
8
BLACK
6
CONTINUOUS
10
177.792
20
-78.6971
11
177.771
21
-78.68
0
LINE
8
BLACK
6
CONTINUOUS
10
177.771
20
-78.68
11
177.758
21
-78.6571
0
LINE
8
BLACK
6
CONTINUOUS
10
177.758
20
-78.6571
11
177.743
21
-78.6353
0
LINE
8
BLACK
6
CONTINUOUS
10
177.743
20
-78.6353
11
177.741
21
-78.6267
0
LINE
8
BLACK
6
CONTINUOUS
10
177.741
20
-78.6267
11
177.736
21
-78.619
0
LINE
8
BLACK
6
CONTINUOUS
10
177.736
20
-78.619
11
177.732
21
-78.5928
0
LINE
8
BLACK
6
CONTINUOUS
10
177.732
20
-78.5928
11
177.725
21
-78.5672
0
LINE
8
BLACK
6
CONTINUOUS
10
177.725
20
-78.5672
11
177.727
21
-78.5408
0
LINE
8
BLACK
6
CONTINUOUS
10
177.727
20
-78.5408
11
177.727
21
-60.4607
0
LINE
8
BLACK
6
CONTINUOUS
10
177.727
20
-60.4607
11
177.725
21
-60.4343
0
LINE
8
BLACK
6
CONTINUOUS
10
177.725
20
-60.4343
11
177.732
21
-60.4087
0
LINE
8
BLACK
6
CONTINUOUS
10
177.732
20
-60.4087
11
177.736
21
-60.3825
0
LINE
8
BLACK
6
CONTINUOUS
10
177.736
20
-60.3825
11
177.741
21
-60.3748
0
LINE
8
BLACK
6
CONTINUOUS
10
177.741
20
-60.3748
11
177.743
21
-60.3662
0
LINE
8
BLACK
6
CONTINUOUS
10
177.743
20
-60.3662
11
177.758
21
-60.3444
0
LINE
8
BLACK
6
CONTINUOUS
10
177.758
20
-60.3444
11
177.771
21
-60.3215
0
LINE
8
BLACK
6
CONTINUOUS
10
177.771
20
-60.3215
11
177.792
21
-60.3044
0
LINE
8
BLACK
6
CONTINUOUS
10
177.792
20
-60.3044
11
181.78
21
-56.3163
0
LINE
8
BLACK
6
CONTINUOUS
10
181.78
20
-56.3163
11
181.797
21
-56.2959
0
LINE
8
BLACK
6
CONTINUOUS
10
181.797
20
-56.2959
11
181.82
21
-56.2827
0
LINE
8
BLACK
6
CONTINUOUS
10
181.82
20
-56.2827
11
181.842
21
-56.2674
0
LINE
8
BLACK
6
CONTINUOUS
10
181.842
20
-56.2674
11
181.85
21
-56.2651
0
LINE
8
BLACK
6
CONTINUOUS
10
181.85
20
-56.2651
11
181.858
21
-56.2607
0
LINE
8
BLACK
6
CONTINUOUS
10
181.858
20
-56.2607
11
181.884
21
-56.2561
0
LINE
8
BLACK
6
CONTINUOUS
10
181.884
20
-56.2561
11
181.91
21
-56.2492
0
LINE
8
BLACK
6
CONTINUOUS
10
181.91
20
-56.2492
11
181.936
21
-56.2515
0
LINE
8
BLACK
6
CONTINUOUS
10
181.936
20
-56.2515
11
187.002
21
-56.2515
0
LINE
8
BLACK
6
CONTINUOUS
10
187.002
20
-56.2515
11
187.029
21
-56.2492
0
LINE
8
BLACK
6
CONTINUOUS
10
187.029
20
-56.2492
11
187.054
21
-56.2561
0
LINE
8
BLACK
6
CONTINUOUS
10
187.054
20
-56.2561
11
187.08
21
-56.2607
0
LINE
8
BLACK
6
CONTINUOUS
10
187.08
20
-56.2607
11
187.088
21
-56.2651
0
LINE
8
BLACK
6
CONTINUOUS
10
187.088
20
-56.2651
11
187.097
21
-56.2674
0
LINE
8
BLACK
6
CONTINUOUS
10
187.097
20
-56.2674
11
187.118
21
-56.2827
0
LINE
8
BLACK
6
CONTINUOUS
10
187.118
20
-56.2827
11
187.141
21
-56.2959
0
LINE
8
BLACK
6
CONTINUOUS
10
187.141
20
-56.2959
11
187.158
21
-56.3163
0
LINE
8
BLACK
6
CONTINUOUS
10
187.158
20
-56.3163
11
190.407
21
-59.5648
0
LINE
8
BLACK
6
CONTINUOUS
10
190.407
20
-59.5648
11
193.627
21
-59.6936
0
LINE
8
BLACK
6
CONTINUOUS
10
193.627
20
-59.6936
11
193.655
21
-59.6911
0
LINE
8
BLACK
6
CONTINUOUS
10
193.655
20
-59.6911
11
193.691
21
-59.701
0
LINE
8
BLACK
6
CONTINUOUS
10
193.691
20
-59.701
11
193.729
21
-59.7091
0
LINE
8
BLACK
6
CONTINUOUS
10
193.729
20
-59.7091
11
193.734
21
-59.7124
0
LINE
8
BLACK
6
CONTINUOUS
10
193.734
20
-59.7124
11
193.74
21
-59.7139
0
LINE
8
BLACK
6
CONTINUOUS
10
193.74
20
-59.7139
11
193.771
21
-59.7358
0
LINE
8
BLACK
6
CONTINUOUS
10
193.771
20
-59.7358
11
193.803
21
-59.7562
0
LINE
8
BLACK
6
CONTINUOUS
10
193.803
20
-59.7562
11
193.821
21
-59.7785
0
LINE
8
BLACK
6
CONTINUOUS
10
193.821
20
-59.7785
11
195.12
21
-61.078
0
LINE
8
BLACK
6
CONTINUOUS
10
195.12
20
-61.078
11
196.266
21
-61.078
0
LINE
8
BLACK
6
CONTINUOUS
10
196.266
20
-61.078
11
196.266
21
-63.078
0
LINE
8
BLACK
6
CONTINUOUS
10
196.266
20
-63.078
11
195.766
21
-63.078
0
LINE
8
BLACK
6
CONTINUOUS
10
195.766
20
-63.078
11
195.766
21
-63.4744
0
LINE
8
BLACK
6
CONTINUOUS
10
195.766
20
-63.4744
11
196.177
21
-63.885
0
LINE
8
BLACK
6
CONTINUOUS
10
196.177
20
-63.885
11
199.203
21
-63.885
0
LINE
8
BLACK
6
CONTINUOUS
10
199.203
20
-63.885
11
199.204
21
-63.3839
0
LINE
8
BLACK
6
CONTINUOUS
10
199.204
20
-63.3839
11
199.201
21
-63.3509
0
LINE
8
BLACK
6
CONTINUOUS
10
199.201
20
-63.3509
11
199.209
21
-63.3188
0
LINE
8
BLACK
6
CONTINUOUS
10
199.209
20
-63.3188
11
199.215
21
-63.2862
0
LINE
8
BLACK
6
CONTINUOUS
10
199.215
20
-63.2862
11
199.221
21
-63.2765
0
LINE
8
BLACK
6
CONTINUOUS
10
199.221
20
-63.2765
11
199.223
21
-63.2657
0
LINE
8
BLACK
6
CONTINUOUS
10
199.223
20
-63.2657
11
199.242
21
-63.2385
0
LINE
8
BLACK
6
CONTINUOUS
10
199.242
20
-63.2385
11
199.259
21
-63.2098
0
LINE
8
BLACK
6
CONTINUOUS
10
199.259
20
-63.2098
11
199.284
21
-63.1885
0
LINE
8
BLACK
6
CONTINUOUS
10
199.284
20
-63.1885
11
199.831
21
-62.6419
0
LINE
8
BLACK
6
CONTINUOUS
10
199.831
20
-62.6419
11
199.831
21
-61.9705
0
LINE
8
BLACK
6
CONTINUOUS
10
199.831
20
-61.9705
11
199.846
21
-61.885
0
LINE
8
BLACK
6
CONTINUOUS
10
199.846
20
-61.885
11
199.889
21
-61.8098
0
LINE
8
BLACK
6
CONTINUOUS
10
199.889
20
-61.8098
11
199.956
21
-61.754
0
LINE
8
BLACK
6
CONTINUOUS
10
199.956
20
-61.754
11
200.081
21
-61.7205
0
LINE
8
BLACK
6
CONTINUOUS
10
200.081
20
-61.7205
11
200.731
21
-61.7205
0
LINE
8
BLACK
6
CONTINUOUS
10
200.731
20
-61.7205
11
200.817
21
-61.7356
0
LINE
8
BLACK
6
CONTINUOUS
10
200.817
20
-61.7356
11
200.892
21
-61.779
0
LINE
8
BLACK
6
CONTINUOUS
10
200.892
20
-61.779
11
200.948
21
-61.8455
0
LINE
8
BLACK
6
CONTINUOUS
10
200.948
20
-61.8455
11
200.981
21
-61.9705
0
LINE
8
BLACK
6
CONTINUOUS
10
200.981
20
-61.9705
11
200.981
21
-62.8705
0
LINE
8
BLACK
6
CONTINUOUS
10
200.981
20
-62.8705
11
200.966
21
-62.956
0
LINE
8
BLACK
6
CONTINUOUS
10
200.966
20
-62.956
11
200.923
21
-63.0312
0
LINE
8
BLACK
6
CONTINUOUS
10
200.923
20
-63.0312
11
200.856
21
-63.087
0
LINE
8
BLACK
6
CONTINUOUS
10
200.856
20
-63.087
11
200.731
21
-63.1205
0
LINE
8
BLACK
6
CONTINUOUS
10
200.731
20
-63.1205
11
200.081
21
-63.1205
0
LINE
8
BLACK
6
CONTINUOUS
10
200.081
20
-63.1205
11
200.063
21
-63.1173
0
LINE
8
BLACK
6
CONTINUOUS
10
200.063
20
-63.1173
11
199.703
21
-63.4766
0
LINE
8
BLACK
6
CONTINUOUS
10
199.703
20
-63.4766
11
199.703
21
-63.885
0
LINE
8
BLACK
6
CONTINUOUS
10
199.703
20
-63.885
11
202.842
21
-63.885
0
LINE
8
BLACK
6
CONTINUOUS
10
202.842
20
-63.885
11
203.522
21
-63.2059
0
LINE
8
BLACK
6
CONTINUOUS
10
203.522
20
-63.2059
11
203.522
21
-56.9271
0
LINE
8
BLACK
6
CONTINUOUS
10
203.522
20
-56.9271
11
202.782
21
-56.1876
0
LINE
8
BLACK
6
CONTINUOUS
10
202.782
20
-56.1876
11
202.782
21
-56.1876
0
LINE
8
BLACK
6
CONTINUOUS
10
202.782
20
-56.1876
11
202.662
21
-56.0675
0
LINE
8
BLACK
6
CONTINUOUS
10
202.662
20
-56.0675
11
202.645
21
-56.072
0
LINE
8
BLACK
6
CONTINUOUS
10
202.645
20
-56.072
11
201.995
21
-56.072
0
LINE
8
BLACK
6
CONTINUOUS
10
201.995
20
-56.072
11
201.909
21
-56.0569
0
LINE
8
BLACK
6
CONTINUOUS
10
201.909
20
-56.0569
11
201.834
21
-56.0135
0
LINE
8
BLACK
6
CONTINUOUS
10
201.834
20
-56.0135
11
201.778
21
-55.947
0
LINE
8
BLACK
6
CONTINUOUS
10
201.778
20
-55.947
11
201.745
21
-55.822
0
LINE
8
BLACK
6
CONTINUOUS
10
201.745
20
-55.822
11
201.745
21
-55.0798
0
LINE
8
BLACK
6
CONTINUOUS
10
201.745
20
-55.0798
11
201.414
21
-54.7486
0
LINE
8
BLACK
6
CONTINUOUS
10
201.414
20
-54.7486
11
201.393
21
-54.7315
0
LINE
8
BLACK
6
CONTINUOUS
10
201.393
20
-54.7315
11
201.38
21
-54.7086
0
LINE
8
BLACK
6
CONTINUOUS
10
201.38
20
-54.7086
11
201.365
21
-54.6868
0
LINE
8
BLACK
6
CONTINUOUS
10
201.365
20
-54.6868
11
201.363
21
-54.6782
0
LINE
8
BLACK
6
CONTINUOUS
10
201.363
20
-54.6782
11
201.358
21
-54.6705
0
LINE
8
BLACK
6
CONTINUOUS
10
201.358
20
-54.6705
11
201.354
21
-54.6443
0
LINE
8
BLACK
6
CONTINUOUS
10
201.354
20
-54.6443
11
201.347
21
-54.6187
0
LINE
8
BLACK
6
CONTINUOUS
10
201.347
20
-54.6187
11
201.349
21
-54.5923
0
LINE
8
BLACK
6
CONTINUOUS
10
201.349
20
-54.5923
11
201.349
21
-51.3802
0
LINE
8
BLACK
6
CONTINUOUS
10
201.349
20
-51.3802
11
201.347
21
-51.3538
0
LINE
8
BLACK
6
CONTINUOUS
10
201.347
20
-51.3538
11
201.354
21
-51.3282
0
LINE
8
BLACK
6
CONTINUOUS
10
201.354
20
-51.3282
11
201.358
21
-51.302
0
LINE
8
BLACK
6
CONTINUOUS
10
201.358
20
-51.302
11
201.363
21
-51.2943
0
LINE
8
BLACK
6
CONTINUOUS
10
201.363
20
-51.2943
11
201.365
21
-51.2857
0
LINE
8
BLACK
6
CONTINUOUS
10
201.365
20
-51.2857
11
201.38
21
-51.2639
0
LINE
8
BLACK
6
CONTINUOUS
10
201.38
20
-51.2639
11
201.393
21
-51.241
0
LINE
8
BLACK
6
CONTINUOUS
10
201.393
20
-51.241
11
201.414
21
-51.2239
0
LINE
8
BLACK
6
CONTINUOUS
10
201.414
20
-51.2239
11
202.036
21
-50.6013
0
LINE
8
BLACK
6
CONTINUOUS
10
202.036
20
-50.6013
11
202.053
21
-50.5809
0
LINE
8
BLACK
6
CONTINUOUS
10
202.053
20
-50.5809
11
202.076
21
-50.5677
0
LINE
8
BLACK
6
CONTINUOUS
10
202.076
20
-50.5677
11
202.098
21
-50.5524
0
LINE
8
BLACK
6
CONTINUOUS
10
202.098
20
-50.5524
11
202.107
21
-50.5501
0
LINE
8
BLACK
6
CONTINUOUS
10
202.107
20
-50.5501
11
202.115
21
-50.5457
0
LINE
8
BLACK
6
CONTINUOUS
10
202.115
20
-50.5457
11
202.141
21
-50.5411
0
LINE
8
BLACK
6
CONTINUOUS
10
202.141
20
-50.5411
11
202.166
21
-50.5342
0
LINE
8
BLACK
6
CONTINUOUS
10
202.166
20
-50.5342
11
202.193
21
-50.5365
0
LINE
8
BLACK
6
CONTINUOUS
10
202.193
20
-50.5365
11
202.904
21
-50.5365
0
LINE
8
BLACK
6
CONTINUOUS
10
202.904
20
-50.5365
11
202.904
21
-50.1865
0
LINE
8
BLACK
6
CONTINUOUS
10
202.904
20
-50.1865
11
202.92
21
-50.101
0
LINE
8
BLACK
6
CONTINUOUS
10
202.92
20
-50.101
11
202.963
21
-50.0258
0
LINE
8
BLACK
6
CONTINUOUS
10
202.963
20
-50.0258
11
203.029
21
-49.97
0
LINE
8
BLACK
6
CONTINUOUS
10
203.029
20
-49.97
11
203.154
21
-49.9365
0
LINE
8
BLACK
6
CONTINUOUS
10
203.154
20
-49.9365
11
206.154
21
-49.9365
0
LINE
8
BLACK
6
CONTINUOUS
10
206.154
20
-49.9365
11
206.24
21
-49.9516
0
LINE
8
BLACK
6
CONTINUOUS
10
206.24
20
-49.9516
11
206.315
21
-49.995
0
LINE
8
BLACK
6
CONTINUOUS
10
206.315
20
-49.995
11
206.371
21
-50.0615
0
LINE
8
BLACK
6
CONTINUOUS
10
206.371
20
-50.0615
11
206.404
21
-50.1865
0
LINE
8
BLACK
6
CONTINUOUS
10
206.404
20
-50.1865
11
206.404
21
-51.2865
0
LINE
8
BLACK
6
CONTINUOUS
10
206.404
20
-51.2865
11
206.389
21
-51.372
0
LINE
8
BLACK
6
CONTINUOUS
10
206.389
20
-51.372
11
206.346
21
-51.4472
0
LINE
8
BLACK
6
CONTINUOUS
10
206.346
20
-51.4472
11
206.279
21
-51.503
0
LINE
8
BLACK
6
CONTINUOUS
10
206.279
20
-51.503
11
206.154
21
-51.5365
0
LINE
8
BLACK
6
CONTINUOUS
10
206.154
20
-51.5365
11
203.154
21
-51.5365
0
LINE
8
BLACK
6
CONTINUOUS
10
203.154
20
-51.5365
11
203.069
21
-51.5214
0
LINE
8
BLACK
6
CONTINUOUS
10
203.069
20
-51.5214
11
202.994
21
-51.478
0
LINE
8
BLACK
6
CONTINUOUS
10
202.994
20
-51.478
11
202.938
21
-51.4115
0
LINE
8
BLACK
6
CONTINUOUS
10
202.938
20
-51.4115
11
202.904
21
-51.2865
0
LINE
8
BLACK
6
CONTINUOUS
10
202.904
20
-51.2865
11
202.904
21
-50.9365
0
LINE
8
BLACK
6
CONTINUOUS
10
202.904
20
-50.9365
11
202.267
21
-50.9365
0
LINE
8
BLACK
6
CONTINUOUS
10
202.267
20
-50.9365
11
201.749
21
-51.4543
0
LINE
8
BLACK
6
CONTINUOUS
10
201.749
20
-51.4543
11
201.749
21
-54.5182
0
LINE
8
BLACK
6
CONTINUOUS
10
201.749
20
-54.5182
11
201.922
21
-54.6915
0
LINE
8
BLACK
6
CONTINUOUS
10
201.922
20
-54.6915
11
201.995
21
-54.672
0
LINE
8
BLACK
6
CONTINUOUS
10
201.995
20
-54.672
11
202.645
21
-54.672
0
LINE
8
BLACK
6
CONTINUOUS
10
202.645
20
-54.672
11
202.731
21
-54.6871
0
LINE
8
BLACK
6
CONTINUOUS
10
202.731
20
-54.6871
11
202.806
21
-54.7305
0
LINE
8
BLACK
6
CONTINUOUS
10
202.806
20
-54.7305
11
202.862
21
-54.797
0
LINE
8
BLACK
6
CONTINUOUS
10
202.862
20
-54.797
11
202.895
21
-54.922
0
LINE
8
BLACK
6
CONTINUOUS
10
202.895
20
-54.922
11
202.895
21
-55.5934
0
LINE
8
BLACK
6
CONTINUOUS
10
202.895
20
-55.5934
11
203.136
21
-55.8341
0
LINE
8
BLACK
6
CONTINUOUS
10
203.136
20
-55.8341
11
203.136
21
-55.8341
0
LINE
8
BLACK
6
CONTINUOUS
10
203.136
20
-55.8341
11
203.941
21
-56.639
0
LINE
8
BLACK
6
CONTINUOUS
10
203.941
20
-56.639
11
203.966
21
-56.6603
0
LINE
8
BLACK
6
CONTINUOUS
10
203.966
20
-56.6603
11
203.983
21
-56.689
0
LINE
8
BLACK
6
CONTINUOUS
10
203.983
20
-56.689
11
204.002
21
-56.7162
0
LINE
8
BLACK
6
CONTINUOUS
10
204.002
20
-56.7162
11
204.004
21
-56.727
0
LINE
8
BLACK
6
CONTINUOUS
10
204.004
20
-56.727
11
204.01
21
-56.7367
0
LINE
8
BLACK
6
CONTINUOUS
10
204.01
20
-56.7367
11
204.016
21
-56.7693
0
LINE
8
BLACK
6
CONTINUOUS
10
204.016
20
-56.7693
11
204.024
21
-56.8014
0
LINE
8
BLACK
6
CONTINUOUS
10
204.024
20
-56.8014
11
204.022
21
-56.8344
0
LINE
8
BLACK
6
CONTINUOUS
10
204.022
20
-56.8344
11
204.022
21
-63.2986
0
LINE
8
BLACK
6
CONTINUOUS
10
204.022
20
-63.2986
11
204.024
21
-63.3316
0
LINE
8
BLACK
6
CONTINUOUS
10
204.024
20
-63.3316
11
204.016
21
-63.3637
0
LINE
8
BLACK
6
CONTINUOUS
10
204.016
20
-63.3637
11
204.01
21
-63.3963
0
LINE
8
BLACK
6
CONTINUOUS
10
204.01
20
-63.3963
11
204.004
21
-63.406
0
LINE
8
BLACK
6
CONTINUOUS
10
204.004
20
-63.406
11
204.002
21
-63.4168
0
LINE
8
BLACK
6
CONTINUOUS
10
204.002
20
-63.4168
11
203.983
21
-63.444
0
LINE
8
BLACK
6
CONTINUOUS
10
203.983
20
-63.444
11
203.966
21
-63.4727
0
LINE
8
BLACK
6
CONTINUOUS
10
203.966
20
-63.4727
11
203.941
21
-63.494
0
LINE
8
BLACK
6
CONTINUOUS
10
203.941
20
-63.494
11
203.55
21
-63.885
0
LINE
8
BLACK
6
CONTINUOUS
10
203.55
20
-63.885
11
207.732
21
-63.885
0
LINE
8
BLACK
6
CONTINUOUS
10
207.732
20
-63.885
11
209.046
21
-62.5705
0
LINE
8
BLACK
6
CONTINUOUS
10
196.302
20
-75.111
11
196.778
21
-75.111
0
LINE
8
BLACK
6
CONTINUOUS
10
196.778
20
-75.111
11
196.804
21
-75.1087
0
LINE
8
BLACK
6
CONTINUOUS
10
196.804
20
-75.1087
11
196.83
21
-75.1156
0
LINE
8
BLACK
6
CONTINUOUS
10
196.83
20
-75.1156
11
196.856
21
-75.1202
0
LINE
8
BLACK
6
CONTINUOUS
10
196.856
20
-75.1202
11
196.864
21
-75.1246
0
LINE
8
BLACK
6
CONTINUOUS
10
196.864
20
-75.1246
11
196.872
21
-75.1269
0
LINE
8
BLACK
6
CONTINUOUS
10
196.872
20
-75.1269
11
196.894
21
-75.1422
0
LINE
8
BLACK
6
CONTINUOUS
10
196.894
20
-75.1422
11
196.917
21
-75.1554
0
LINE
8
BLACK
6
CONTINUOUS
10
196.917
20
-75.1554
11
196.934
21
-75.1758
0
LINE
8
BLACK
6
CONTINUOUS
10
196.934
20
-75.1758
11
198.268
21
-76.5096
0
LINE
8
BLACK
6
CONTINUOUS
10
198.268
20
-76.5096
11
198.339
21
-76.4688
0
LINE
8
BLACK
6
CONTINUOUS
10
198.339
20
-76.4688
11
198.564
21
-76.429
0
LINE
8
BLACK
6
CONTINUOUS
10
198.564
20
-76.429
11
198.79
21
-76.4688
0
LINE
8
BLACK
6
CONTINUOUS
10
198.79
20
-76.4688
11
198.989
21
-76.5834
0
LINE
8
BLACK
6
CONTINUOUS
10
198.989
20
-76.5834
11
199.136
21
-76.759
0
LINE
8
BLACK
6
CONTINUOUS
10
199.136
20
-76.759
11
199.214
21
-76.9744
0
LINE
8
BLACK
6
CONTINUOUS
10
199.214
20
-76.9744
11
199.214
21
-77.2036
0
LINE
8
BLACK
6
CONTINUOUS
10
199.214
20
-77.2036
11
199.136
21
-77.419
0
LINE
8
BLACK
6
CONTINUOUS
10
199.136
20
-77.419
11
198.989
21
-77.5946
0
LINE
8
BLACK
6
CONTINUOUS
10
198.989
20
-77.5946
11
198.79
21
-77.7092
0
LINE
8
BLACK
6
CONTINUOUS
10
198.79
20
-77.7092
11
198.564
21
-77.749
0
LINE
8
BLACK
6
CONTINUOUS
10
198.564
20
-77.749
11
198.339
21
-77.7092
0
LINE
8
BLACK
6
CONTINUOUS
10
198.339
20
-77.7092
11
198.14
21
-77.5946
0
LINE
8
BLACK
6
CONTINUOUS
10
198.14
20
-77.5946
11
197.993
21
-77.419
0
LINE
8
BLACK
6
CONTINUOUS
10
197.993
20
-77.419
11
197.915
21
-77.2036
0
LINE
8
BLACK
6
CONTINUOUS
10
197.915
20
-77.2036
11
197.915
21
-76.9744
0
LINE
8
BLACK
6
CONTINUOUS
10
197.915
20
-76.9744
11
197.982
21
-76.7892
0
LINE
8
BLACK
6
CONTINUOUS
10
197.982
20
-76.7892
11
196.704
21
-75.511
0
LINE
8
BLACK
6
CONTINUOUS
10
196.704
20
-75.511
11
196.302
21
-75.511
0
LINE
8
BLACK
6
CONTINUOUS
10
196.302
20
-75.511
11
196.302
21
-75.611
0
LINE
8
BLACK
6
CONTINUOUS
10
196.302
20
-75.611
11
194.352
21
-75.611
0
LINE
8
BLACK
6
CONTINUOUS
10
194.352
20
-75.611
11
194.352
21
-75.011
0
LINE
8
BLACK
6
CONTINUOUS
10
194.352
20
-75.011
11
196.302
21
-75.011
0
LINE
8
BLACK
6
CONTINUOUS
10
196.302
20
-75.011
11
196.302
21
-75.111
0
LINE
8
BLACK
6
CONTINUOUS
10
186.902
20
-74.341
11
184.952
21
-74.341
0
LINE
8
BLACK
6
CONTINUOUS
10
184.952
20
-74.341
11
184.952
21
-74.291
0
LINE
8
BLACK
6
CONTINUOUS
10
184.952
20
-74.291
11
182.158
21
-74.291
0
LINE
8
BLACK
6
CONTINUOUS
10
182.158
20
-74.291
11
180.717
21
-75.7325
0
LINE
8
BLACK
6
CONTINUOUS
10
180.717
20
-75.7325
11
180.809
21
-75.9866
0
LINE
8
BLACK
6
CONTINUOUS
10
180.809
20
-75.9866
11
180.809
21
-76.2864
0
LINE
8
BLACK
6
CONTINUOUS
10
180.809
20
-76.2864
11
180.706
21
-76.5681
0
LINE
8
BLACK
6
CONTINUOUS
10
180.706
20
-76.5681
11
180.514
21
-76.7977
0
LINE
8
BLACK
6
CONTINUOUS
10
180.514
20
-76.7977
11
180.254
21
-76.9476
0
LINE
8
BLACK
6
CONTINUOUS
10
180.254
20
-76.9476
11
180.033
21
-76.9865
0
LINE
8
BLACK
6
CONTINUOUS
10
180.033
20
-76.9865
11
179.885
21
-76.9865
0
LINE
8
BLACK
6
CONTINUOUS
10
179.885
20
-76.9865
11
179.664
21
-76.9476
0
LINE
8
BLACK
6
CONTINUOUS
10
179.664
20
-76.9476
11
179.404
21
-76.7977
0
LINE
8
BLACK
6
CONTINUOUS
10
179.404
20
-76.7977
11
179.212
21
-76.5681
0
LINE
8
BLACK
6
CONTINUOUS
10
179.212
20
-76.5681
11
179.109
21
-76.2864
0
LINE
8
BLACK
6
CONTINUOUS
10
179.109
20
-76.2864
11
179.109
21
-75.9866
0
LINE
8
BLACK
6
CONTINUOUS
10
179.109
20
-75.9866
11
179.212
21
-75.7049
0
LINE
8
BLACK
6
CONTINUOUS
10
179.212
20
-75.7049
11
179.404
21
-75.4753
0
LINE
8
BLACK
6
CONTINUOUS
10
179.404
20
-75.4753
11
179.664
21
-75.3254
0
LINE
8
BLACK
6
CONTINUOUS
10
179.664
20
-75.3254
11
179.885
21
-75.2865
0
LINE
8
BLACK
6
CONTINUOUS
10
179.885
20
-75.2865
11
180.033
21
-75.2865
0
LINE
8
BLACK
6
CONTINUOUS
10
180.033
20
-75.2865
11
180.254
21
-75.3254
0
LINE
8
BLACK
6
CONTINUOUS
10
180.254
20
-75.3254
11
180.357
21
-75.3848
0
LINE
8
BLACK
6
CONTINUOUS
10
180.357
20
-75.3848
11
181.87
21
-73.8719
0
LINE
8
BLACK
6
CONTINUOUS
10
181.87
20
-73.8719
11
181.891
21
-73.8465
0
LINE
8
BLACK
6
CONTINUOUS
10
181.891
20
-73.8465
11
181.92
21
-73.83
0
LINE
8
BLACK
6
CONTINUOUS
10
181.92
20
-73.83
11
181.947
21
-73.8109
0
LINE
8
BLACK
6
CONTINUOUS
10
181.947
20
-73.8109
11
181.958
21
-73.808
0
LINE
8
BLACK
6
CONTINUOUS
10
181.958
20
-73.808
11
181.968
21
-73.8025
0
LINE
8
BLACK
6
CONTINUOUS
10
181.968
20
-73.8025
11
182
21
-73.7967
0
LINE
8
BLACK
6
CONTINUOUS
10
182
20
-73.7967
11
182.032
21
-73.7881
0
LINE
8
BLACK
6
CONTINUOUS
10
182.032
20
-73.7881
11
182.065
21
-73.791
0
LINE
8
BLACK
6
CONTINUOUS
10
182.065
20
-73.791
11
184.952
21
-73.791
0
LINE
8
BLACK
6
CONTINUOUS
10
184.952
20
-73.791
11
184.952
21
-73.741
0
LINE
8
BLACK
6
CONTINUOUS
10
184.952
20
-73.741
11
186.902
21
-73.741
0
LINE
8
BLACK
6
CONTINUOUS
10
186.902
20
-73.741
11
186.902
21
-74.341
0
LINE
8
BLACK
6
CONTINUOUS
10
207.617
20
-73.8653
11
207.815
21
-73.9799
0
LINE
8
BLACK
6
CONTINUOUS
10
207.815
20
-73.9799
11
207.963
21
-74.1555
0
LINE
8
BLACK
6
CONTINUOUS
10
207.963
20
-74.1555
11
208.041
21
-74.3709
0
LINE
8
BLACK
6
CONTINUOUS
10
208.041
20
-74.3709
11
208.041
21
-74.6001
0
LINE
8
BLACK
6
CONTINUOUS
10
208.041
20
-74.6001
11
207.963
21
-74.8155
0
LINE
8
BLACK
6
CONTINUOUS
10
207.963
20
-74.8155
11
207.815
21
-74.9911
0
LINE
8
BLACK
6
CONTINUOUS
10
207.815
20
-74.9911
11
207.617
21
-75.1057
0
LINE
8
BLACK
6
CONTINUOUS
10
207.617
20
-75.1057
11
207.391
21
-75.1455
0
LINE
8
BLACK
6
CONTINUOUS
10
207.391
20
-75.1455
11
207.165
21
-75.1057
0
LINE
8
BLACK
6
CONTINUOUS
10
207.165
20
-75.1057
11
206.967
21
-74.9911
0
LINE
8
BLACK
6
CONTINUOUS
10
206.967
20
-74.9911
11
206.819
21
-74.8155
0
LINE
8
BLACK
6
CONTINUOUS
10
206.819
20
-74.8155
11
206.787
21
-74.7265
0
LINE
8
BLACK
6
CONTINUOUS
10
206.787
20
-74.7265
11
206.567
21
-74.7265
0
LINE
8
BLACK
6
CONTINUOUS
10
206.567
20
-74.7265
11
206.567
21
-74.8015
0
LINE
8
BLACK
6
CONTINUOUS
10
206.567
20
-74.8015
11
206.552
21
-74.887
0
LINE
8
BLACK
6
CONTINUOUS
10
206.552
20
-74.887
11
206.509
21
-74.9622
0
LINE
8
BLACK
6
CONTINUOUS
10
206.509
20
-74.9622
11
206.442
21
-75.018
0
LINE
8
BLACK
6
CONTINUOUS
10
206.442
20
-75.018
11
206.317
21
-75.0515
0
LINE
8
BLACK
6
CONTINUOUS
10
206.317
20
-75.0515
11
205.417
21
-75.0515
0
LINE
8
BLACK
6
CONTINUOUS
10
205.417
20
-75.0515
11
205.331
21
-75.0364
0
LINE
8
BLACK
6
CONTINUOUS
10
205.331
20
-75.0364
11
205.256
21
-74.993
0
LINE
8
BLACK
6
CONTINUOUS
10
205.256
20
-74.993
11
205.2
21
-74.9265
0
LINE
8
BLACK
6
CONTINUOUS
10
205.2
20
-74.9265
11
205.167
21
-74.8015
0
LINE
8
BLACK
6
CONTINUOUS
10
205.167
20
-74.8015
11
205.167
21
-74.1515
0
LINE
8
BLACK
6
CONTINUOUS
10
205.167
20
-74.1515
11
205.182
21
-74.066
0
LINE
8
BLACK
6
CONTINUOUS
10
205.182
20
-74.066
11
205.225
21
-73.9908
0
LINE
8
BLACK
6
CONTINUOUS
10
205.225
20
-73.9908
11
205.292
21
-73.935
0
LINE
8
BLACK
6
CONTINUOUS
10
205.292
20
-73.935
11
205.417
21
-73.9015
0
LINE
8
BLACK
6
CONTINUOUS
10
205.417
20
-73.9015
11
206.317
21
-73.9015
0
LINE
8
BLACK
6
CONTINUOUS
10
206.317
20
-73.9015
11
206.403
21
-73.9166
0
LINE
8
BLACK
6
CONTINUOUS
10
206.403
20
-73.9166
11
206.478
21
-73.96
0
LINE
8
BLACK
6
CONTINUOUS
10
206.478
20
-73.96
11
206.534
21
-74.0265
0
LINE
8
BLACK
6
CONTINUOUS
10
206.534
20
-74.0265
11
206.567
21
-74.1515
0
LINE
8
BLACK
6
CONTINUOUS
10
206.567
20
-74.1515
11
206.567
21
-74.2265
0
LINE
8
BLACK
6
CONTINUOUS
10
206.567
20
-74.2265
11
206.794
21
-74.2265
0
LINE
8
BLACK
6
CONTINUOUS
10
206.794
20
-74.2265
11
206.819
21
-74.1555
0
LINE
8
BLACK
6
CONTINUOUS
10
206.819
20
-74.1555
11
206.967
21
-73.9799
0
LINE
8
BLACK
6
CONTINUOUS
10
206.967
20
-73.9799
11
207.165
21
-73.8653
0
LINE
8
BLACK
6
CONTINUOUS
10
207.165
20
-73.8653
11
207.391
21
-73.8255
0
LINE
8
BLACK
6
CONTINUOUS
10
207.391
20
-73.8255
11
207.617
21
-73.8653
0
LINE
8
BLACK
6
CONTINUOUS
10
186.902
20
-73.071
11
184.952
21
-73.071
0
LINE
8
BLACK
6
CONTINUOUS
10
184.952
20
-73.071
11
184.952
21
-73.021
0
LINE
8
BLACK
6
CONTINUOUS
10
184.952
20
-73.021
11
180.888
21
-73.021
0
LINE
8
BLACK
6
CONTINUOUS
10
180.888
20
-73.021
11
180.717
21
-73.1925
0
LINE
8
BLACK
6
CONTINUOUS
10
180.717
20
-73.1925
11
180.809
21
-73.4466
0
LINE
8
BLACK
6
CONTINUOUS
10
180.809
20
-73.4466
11
180.809
21
-73.7464
0
LINE
8
BLACK
6
CONTINUOUS
10
180.809
20
-73.7464
11
180.706
21
-74.0281
0
LINE
8
BLACK
6
CONTINUOUS
10
180.706
20
-74.0281
11
180.514
21
-74.2577
0
LINE
8
BLACK
6
CONTINUOUS
10
180.514
20
-74.2577
11
180.254
21
-74.4076
0
LINE
8
BLACK
6
CONTINUOUS
10
180.254
20
-74.4076
11
180.033
21
-74.4465
0
LINE
8
BLACK
6
CONTINUOUS
10
180.033
20
-74.4465
11
179.885
21
-74.4465
0
LINE
8
BLACK
6
CONTINUOUS
10
179.885
20
-74.4465
11
179.664
21
-74.4076
0
LINE
8
BLACK
6
CONTINUOUS
10
179.664
20
-74.4076
11
179.404
21
-74.2577
0
LINE
8
BLACK
6
CONTINUOUS
10
179.404
20
-74.2577
11
179.212
21
-74.0281
0
LINE
8
BLACK
6
CONTINUOUS
10
179.212
20
-74.0281
11
179.109
21
-73.7464
0
LINE
8
BLACK
6
CONTINUOUS
10
179.109
20
-73.7464
11
179.109
21
-73.4466
0
LINE
8
BLACK
6
CONTINUOUS
10
179.109
20
-73.4466
11
179.212
21
-73.1649
0
LINE
8
BLACK
6
CONTINUOUS
10
179.212
20
-73.1649
11
179.404
21
-72.9353
0
LINE
8
BLACK
6
CONTINUOUS
10
179.404
20
-72.9353
11
179.664
21
-72.7854
0
LINE
8
BLACK
6
CONTINUOUS
10
179.664
20
-72.7854
11
179.885
21
-72.7465
0
LINE
8
BLACK
6
CONTINUOUS
10
179.885
20
-72.7465
11
180.033
21
-72.7465
0
LINE
8
BLACK
6
CONTINUOUS
10
180.033
20
-72.7465
11
180.254
21
-72.7854
0
LINE
8
BLACK
6
CONTINUOUS
10
180.254
20
-72.7854
11
180.357
21
-72.8448
0
LINE
8
BLACK
6
CONTINUOUS
10
180.357
20
-72.8448
11
180.6
21
-72.6019
0
LINE
8
BLACK
6
CONTINUOUS
10
180.6
20
-72.6019
11
180.621
21
-72.5765
0
LINE
8
BLACK
6
CONTINUOUS
10
180.621
20
-72.5765
11
180.65
21
-72.56
0
LINE
8
BLACK
6
CONTINUOUS
10
180.65
20
-72.56
11
180.677
21
-72.5409
0
LINE
8
BLACK
6
CONTINUOUS
10
180.677
20
-72.5409
11
180.688
21
-72.538
0
LINE
8
BLACK
6
CONTINUOUS
10
180.688
20
-72.538
11
180.698
21
-72.5325
0
LINE
8
BLACK
6
CONTINUOUS
10
180.698
20
-72.5325
11
180.73
21
-72.5267
0
LINE
8
BLACK
6
CONTINUOUS
10
180.73
20
-72.5267
11
180.762
21
-72.5181
0
LINE
8
BLACK
6
CONTINUOUS
10
180.762
20
-72.5181
11
180.795
21
-72.521
0
LINE
8
BLACK
6
CONTINUOUS
10
180.795
20
-72.521
11
184.952
21
-72.521
0
LINE
8
BLACK
6
CONTINUOUS
10
184.952
20
-72.521
11
184.952
21
-72.471
0
LINE
8
BLACK
6
CONTINUOUS
10
184.952
20
-72.471
11
186.902
21
-72.471
0
LINE
8
BLACK
6
CONTINUOUS
10
186.902
20
-72.471
11
186.902
21
-73.071
0
LINE
8
BLACK
6
CONTINUOUS
10
204.251
20
-69.7378
11
204.45
21
-69.8524
0
LINE
8
BLACK
6
CONTINUOUS
10
204.45
20
-69.8524
11
204.597
21
-70.028
0
LINE
8
BLACK
6
CONTINUOUS
10
204.597
20
-70.028
11
204.675
21
-70.2434
0
LINE
8
BLACK
6
CONTINUOUS
10
204.675
20
-70.2434
11
204.675
21
-70.4726
0
LINE
8
BLACK
6
CONTINUOUS
10
204.675
20
-70.4726
11
204.627
21
-70.6059
0
LINE
8
BLACK
6
CONTINUOUS
10
204.627
20
-70.6059
11
204.773
21
-70.752
0
LINE
8
BLACK
6
CONTINUOUS
10
204.773
20
-70.752
11
205.04
21
-70.752
0
LINE
8
BLACK
6
CONTINUOUS
10
205.04
20
-70.752
11
205.04
21
-70.677
0
LINE
8
BLACK
6
CONTINUOUS
10
205.04
20
-70.677
11
205.055
21
-70.5915
0
LINE
8
BLACK
6
CONTINUOUS
10
205.055
20
-70.5915
11
205.098
21
-70.5163
0
LINE
8
BLACK
6
CONTINUOUS
10
205.098
20
-70.5163
11
205.165
21
-70.4605
0
LINE
8
BLACK
6
CONTINUOUS
10
205.165
20
-70.4605
11
205.29
21
-70.427
0
LINE
8
BLACK
6
CONTINUOUS
10
205.29
20
-70.427
11
206.19
21
-70.427
0
LINE
8
BLACK
6
CONTINUOUS
10
206.19
20
-70.427
11
206.276
21
-70.4421
0
LINE
8
BLACK
6
CONTINUOUS
10
206.276
20
-70.4421
11
206.351
21
-70.4855
0
LINE
8
BLACK
6
CONTINUOUS
10
206.351
20
-70.4855
11
206.407
21
-70.552
0
LINE
8
BLACK
6
CONTINUOUS
10
206.407
20
-70.552
11
206.44
21
-70.677
0
LINE
8
BLACK
6
CONTINUOUS
10
206.44
20
-70.677
11
206.44
21
-71.327
0
LINE
8
BLACK
6
CONTINUOUS
10
206.44
20
-71.327
11
206.425
21
-71.4125
0
LINE
8
BLACK
6
CONTINUOUS
10
206.425
20
-71.4125
11
206.382
21
-71.4877
0
LINE
8
BLACK
6
CONTINUOUS
10
206.382
20
-71.4877
11
206.315
21
-71.5435
0
LINE
8
BLACK
6
CONTINUOUS
10
206.315
20
-71.5435
11
206.19
21
-71.577
0
LINE
8
BLACK
6
CONTINUOUS
10
206.19
20
-71.577
11
205.519
21
-71.577
0
LINE
8
BLACK
6
CONTINUOUS
10
205.519
20
-71.577
11
204.473
21
-72.6226
0
LINE
8
BLACK
6
CONTINUOUS
10
204.473
20
-72.6226
11
204.452
21
-72.648
0
LINE
8
BLACK
6
CONTINUOUS
10
204.452
20
-72.648
11
204.423
21
-72.6645
0
LINE
8
BLACK
6
CONTINUOUS
10
204.423
20
-72.6645
11
204.396
21
-72.6836
0
LINE
8
BLACK
6
CONTINUOUS
10
204.396
20
-72.6836
11
204.385
21
-72.6865
0
LINE
8
BLACK
6
CONTINUOUS
10
204.385
20
-72.6865
11
204.375
21
-72.692
0
LINE
8
BLACK
6
CONTINUOUS
10
204.375
20
-72.692
11
204.343
21
-72.6978
0
LINE
8
BLACK
6
CONTINUOUS
10
204.343
20
-72.6978
11
204.311
21
-72.7064
0
LINE
8
BLACK
6
CONTINUOUS
10
204.311
20
-72.7064
11
204.278
21
-72.7035
0
LINE
8
BLACK
6
CONTINUOUS
10
204.278
20
-72.7035
11
202.553
21
-72.7035
0
LINE
8
BLACK
6
CONTINUOUS
10
202.553
20
-72.7035
11
202.487
21
-72.8851
0
LINE
8
BLACK
6
CONTINUOUS
10
202.487
20
-72.8851
11
202.294
21
-73.1147
0
LINE
8
BLACK
6
CONTINUOUS
10
202.294
20
-73.1147
11
202.035
21
-73.2646
0
LINE
8
BLACK
6
CONTINUOUS
10
202.035
20
-73.2646
11
201.814
21
-73.3035
0
LINE
8
BLACK
6
CONTINUOUS
10
201.814
20
-73.3035
11
201.665
21
-73.3035
0
LINE
8
BLACK
6
CONTINUOUS
10
201.665
20
-73.3035
11
201.444
21
-73.2646
0
LINE
8
BLACK
6
CONTINUOUS
10
201.444
20
-73.2646
11
201.185
21
-73.1147
0
LINE
8
BLACK
6
CONTINUOUS
10
201.185
20
-73.1147
11
200.992
21
-72.8851
0
LINE
8
BLACK
6
CONTINUOUS
10
200.992
20
-72.8851
11
200.89
21
-72.6034
0
LINE
8
BLACK
6
CONTINUOUS
10
200.89
20
-72.6034
11
200.89
21
-72.3036
0
LINE
8
BLACK
6
CONTINUOUS
10
200.89
20
-72.3036
11
200.982
21
-72.0495
0
LINE
8
BLACK
6
CONTINUOUS
10
200.982
20
-72.0495
11
200.683
21
-71.751
0
LINE
8
BLACK
6
CONTINUOUS
10
200.683
20
-71.751
11
196.302
21
-71.751
0
LINE
8
BLACK
6
CONTINUOUS
10
196.302
20
-71.751
11
196.302
21
-71.801
0
LINE
8
BLACK
6
CONTINUOUS
10
196.302
20
-71.801
11
194.352
21
-71.801
0
LINE
8
BLACK
6
CONTINUOUS
10
194.352
20
-71.801
11
194.352
21
-71.201
0
LINE
8
BLACK
6
CONTINUOUS
10
194.352
20
-71.201
11
196.302
21
-71.201
0
LINE
8
BLACK
6
CONTINUOUS
10
196.302
20
-71.201
11
196.302
21
-71.251
0
LINE
8
BLACK
6
CONTINUOUS
10
196.302
20
-71.251
11
200.776
21
-71.251
0
LINE
8
BLACK
6
CONTINUOUS
10
200.776
20
-71.251
11
200.809
21
-71.2481
0
LINE
8
BLACK
6
CONTINUOUS
10
200.809
20
-71.2481
11
200.841
21
-71.2567
0
LINE
8
BLACK
6
CONTINUOUS
10
200.841
20
-71.2567
11
200.874
21
-71.2625
0
LINE
8
BLACK
6
CONTINUOUS
10
200.874
20
-71.2625
11
200.883
21
-71.268
0
LINE
8
BLACK
6
CONTINUOUS
10
200.883
20
-71.268
11
200.894
21
-71.2709
0
LINE
8
BLACK
6
CONTINUOUS
10
200.894
20
-71.2709
11
200.921
21
-71.2899
0
LINE
8
BLACK
6
CONTINUOUS
10
200.921
20
-71.2899
11
200.95
21
-71.3065
0
LINE
8
BLACK
6
CONTINUOUS
10
200.95
20
-71.3065
11
200.971
21
-71.3319
0
LINE
8
BLACK
6
CONTINUOUS
10
200.971
20
-71.3319
11
201.341
21
-71.7018
0
LINE
8
BLACK
6
CONTINUOUS
10
201.341
20
-71.7018
11
201.444
21
-71.6424
0
LINE
8
BLACK
6
CONTINUOUS
10
201.444
20
-71.6424
11
201.665
21
-71.6035
0
LINE
8
BLACK
6
CONTINUOUS
10
201.665
20
-71.6035
11
201.814
21
-71.6035
0
LINE
8
BLACK
6
CONTINUOUS
10
201.814
20
-71.6035
11
202.035
21
-71.6424
0
LINE
8
BLACK
6
CONTINUOUS
10
202.035
20
-71.6424
11
202.294
21
-71.7923
0
LINE
8
BLACK
6
CONTINUOUS
10
202.294
20
-71.7923
11
202.487
21
-72.0219
0
LINE
8
BLACK
6
CONTINUOUS
10
202.487
20
-72.0219
11
202.553
21
-72.2035
0
LINE
8
BLACK
6
CONTINUOUS
10
202.553
20
-72.2035
11
204.185
21
-72.2035
0
LINE
8
BLACK
6
CONTINUOUS
10
204.185
20
-72.2035
11
205.045
21
-71.3439
0
LINE
8
BLACK
6
CONTINUOUS
10
205.045
20
-71.3439
11
205.04
21
-71.327
0
LINE
8
BLACK
6
CONTINUOUS
10
205.04
20
-71.327
11
205.04
21
-71.252
0
LINE
8
BLACK
6
CONTINUOUS
10
205.04
20
-71.252
11
204.68
21
-71.252
0
LINE
8
BLACK
6
CONTINUOUS
10
204.68
20
-71.252
11
204.647
21
-71.2549
0
LINE
8
BLACK
6
CONTINUOUS
10
204.647
20
-71.2549
11
204.615
21
-71.2463
0
LINE
8
BLACK
6
CONTINUOUS
10
204.615
20
-71.2463
11
204.583
21
-71.2405
0
LINE
8
BLACK
6
CONTINUOUS
10
204.583
20
-71.2405
11
204.573
21
-71.235
0
LINE
8
BLACK
6
CONTINUOUS
10
204.573
20
-71.235
11
204.562
21
-71.2321
0
LINE
8
BLACK
6
CONTINUOUS
10
204.562
20
-71.2321
11
204.535
21
-71.213
0
LINE
8
BLACK
6
CONTINUOUS
10
204.535
20
-71.213
11
204.506
21
-71.1965
0
LINE
8
BLACK
6
CONTINUOUS
10
204.506
20
-71.1965
11
204.485
21
-71.1711
0
LINE
8
BLACK
6
CONTINUOUS
10
204.485
20
-71.1711
11
204.277
21
-70.9632
0
LINE
8
BLACK
6
CONTINUOUS
10
204.277
20
-70.9632
11
204.251
21
-70.9782
0
LINE
8
BLACK
6
CONTINUOUS
10
204.251
20
-70.9782
11
204.025
21
-71.018
0
LINE
8
BLACK
6
CONTINUOUS
10
204.025
20
-71.018
11
203.8
21
-70.9782
0
LINE
8
BLACK
6
CONTINUOUS
10
203.8
20
-70.9782
11
203.601
21
-70.8636
0
LINE
8
BLACK
6
CONTINUOUS
10
203.601
20
-70.8636
11
203.454
21
-70.688
0
LINE
8
BLACK
6
CONTINUOUS
10
203.454
20
-70.688
11
203.375
21
-70.4726
0
LINE
8
BLACK
6
CONTINUOUS
10
203.375
20
-70.4726
11
203.375
21
-70.2434
0
LINE
8
BLACK
6
CONTINUOUS
10
203.375
20
-70.2434
11
203.454
21
-70.028
0
LINE
8
BLACK
6
CONTINUOUS
10
203.454
20
-70.028
11
203.601
21
-69.8524
0
LINE
8
BLACK
6
CONTINUOUS
10
203.601
20
-69.8524
11
203.8
21
-69.7378
0
LINE
8
BLACK
6
CONTINUOUS
10
203.8
20
-69.7378
11
204.025
21
-69.698
0
LINE
8
BLACK
6
CONTINUOUS
10
204.025
20
-69.698
11
204.251
21
-69.7378
0
LINE
8
BLACK
6
CONTINUOUS
10
210.226
20
-71.5154
11
210.486
21
-71.6653
0
LINE
8
BLACK
6
CONTINUOUS
10
210.486
20
-71.6653
11
210.678
21
-71.8949
0
LINE
8
BLACK
6
CONTINUOUS
10
210.678
20
-71.8949
11
210.781
21
-72.1766
0
LINE
8
BLACK
6
CONTINUOUS
10
210.781
20
-72.1766
11
210.781
21
-72.4764
0
LINE
8
BLACK
6
CONTINUOUS
10
210.781
20
-72.4764
11
210.678
21
-72.7581
0
LINE
8
BLACK
6
CONTINUOUS
10
210.678
20
-72.7581
11
210.486
21
-72.9877
0
LINE
8
BLACK
6
CONTINUOUS
10
210.486
20
-72.9877
11
210.226
21
-73.1376
0
LINE
8
BLACK
6
CONTINUOUS
10
210.226
20
-73.1376
11
210.005
21
-73.1765
0
LINE
8
BLACK
6
CONTINUOUS
10
210.005
20
-73.1765
11
209.857
21
-73.1765
0
LINE
8
BLACK
6
CONTINUOUS
10
209.857
20
-73.1765
11
209.636
21
-73.1376
0
LINE
8
BLACK
6
CONTINUOUS
10
209.636
20
-73.1376
11
209.376
21
-72.9877
0
LINE
8
BLACK
6
CONTINUOUS
10
209.376
20
-72.9877
11
209.184
21
-72.7581
0
LINE
8
BLACK
6
CONTINUOUS
10
209.184
20
-72.7581
11
209.081
21
-72.4764
0
LINE
8
BLACK
6
CONTINUOUS
10
209.081
20
-72.4764
11
209.081
21
-72.1766
0
LINE
8
BLACK
6
CONTINUOUS
10
209.081
20
-72.1766
11
209.184
21
-71.8949
0
LINE
8
BLACK
6
CONTINUOUS
10
209.184
20
-71.8949
11
209.376
21
-71.6653
0
LINE
8
BLACK
6
CONTINUOUS
10
209.376
20
-71.6653
11
209.636
21
-71.5154
0
LINE
8
BLACK
6
CONTINUOUS
10
209.636
20
-71.5154
11
209.857
21
-71.4765
0
LINE
8
BLACK
6
CONTINUOUS
10
209.857
20
-71.4765
11
210.005
21
-71.4765
0
LINE
8
BLACK
6
CONTINUOUS
10
210.005
20
-71.4765
11
210.226
21
-71.5154
0
LINE
8
BLACK
6
CONTINUOUS
10
180.254
20
-70.2454
11
180.514
21
-70.3953
0
LINE
8
BLACK
6
CONTINUOUS
10
180.514
20
-70.3953
11
180.706
21
-70.6249
0
LINE
8
BLACK
6
CONTINUOUS
10
180.706
20
-70.6249
11
180.809
21
-70.9066
0
LINE
8
BLACK
6
CONTINUOUS
10
180.809
20
-70.9066
11
180.809
21
-71.2064
0
LINE
8
BLACK
6
CONTINUOUS
10
180.809
20
-71.2064
11
180.793
21
-71.251
0
LINE
8
BLACK
6
CONTINUOUS
10
180.793
20
-71.251
11
184.952
21
-71.251
0
LINE
8
BLACK
6
CONTINUOUS
10
184.952
20
-71.251
11
184.952
21
-71.201
0
LINE
8
BLACK
6
CONTINUOUS
10
184.952
20
-71.201
11
186.902
21
-71.201
0
LINE
8
BLACK
6
CONTINUOUS
10
186.902
20
-71.201
11
186.902
21
-71.801
0
LINE
8
BLACK
6
CONTINUOUS
10
186.902
20
-71.801
11
184.952
21
-71.801
0
LINE
8
BLACK
6
CONTINUOUS
10
184.952
20
-71.801
11
184.952
21
-71.751
0
LINE
8
BLACK
6
CONTINUOUS
10
184.952
20
-71.751
11
180.456
21
-71.751
0
LINE
8
BLACK
6
CONTINUOUS
10
180.456
20
-71.751
11
180.254
21
-71.8676
0
LINE
8
BLACK
6
CONTINUOUS
10
180.254
20
-71.8676
11
180.033
21
-71.9065
0
LINE
8
BLACK
6
CONTINUOUS
10
180.033
20
-71.9065
11
179.885
21
-71.9065
0
LINE
8
BLACK
6
CONTINUOUS
10
179.885
20
-71.9065
11
179.664
21
-71.8676
0
LINE
8
BLACK
6
CONTINUOUS
10
179.664
20
-71.8676
11
179.404
21
-71.7177
0
LINE
8
BLACK
6
CONTINUOUS
10
179.404
20
-71.7177
11
179.212
21
-71.4881
0
LINE
8
BLACK
6
CONTINUOUS
10
179.212
20
-71.4881
11
179.109
21
-71.2064
0
LINE
8
BLACK
6
CONTINUOUS
10
179.109
20
-71.2064
11
179.109
21
-70.9066
0
LINE
8
BLACK
6
CONTINUOUS
10
179.109
20
-70.9066
11
179.212
21
-70.6249
0
LINE
8
BLACK
6
CONTINUOUS
10
179.212
20
-70.6249
11
179.404
21
-70.3953
0
LINE
8
BLACK
6
CONTINUOUS
10
179.404
20
-70.3953
11
179.664
21
-70.2454
0
LINE
8
BLACK
6
CONTINUOUS
10
179.664
20
-70.2454
11
179.885
21
-70.2065
0
LINE
8
BLACK
6
CONTINUOUS
10
179.885
20
-70.2065
11
180.033
21
-70.2065
0
LINE
8
BLACK
6
CONTINUOUS
10
180.033
20
-70.2065
11
180.254
21
-70.2454
0
LINE
8
BLACK
6
CONTINUOUS
10
183.36
20
-69.6108
11
183.558
21
-69.7254
0
LINE
8
BLACK
6
CONTINUOUS
10
183.558
20
-69.7254
11
183.706
21
-69.901
0
LINE
8
BLACK
6
CONTINUOUS
10
183.706
20
-69.901
11
183.735
21
-69.981
0
LINE
8
BLACK
6
CONTINUOUS
10
183.735
20
-69.981
11
184.952
21
-69.981
0
LINE
8
BLACK
6
CONTINUOUS
10
184.952
20
-69.981
11
184.952
21
-69.931
0
LINE
8
BLACK
6
CONTINUOUS
10
184.952
20
-69.931
11
186.902
21
-69.931
0
LINE
8
BLACK
6
CONTINUOUS
10
186.902
20
-69.931
11
186.902
21
-70.531
0
LINE
8
BLACK
6
CONTINUOUS
10
186.902
20
-70.531
11
184.952
21
-70.531
0
LINE
8
BLACK
6
CONTINUOUS
10
184.952
20
-70.531
11
184.952
21
-70.481
0
LINE
8
BLACK
6
CONTINUOUS
10
184.952
20
-70.481
11
183.735
21
-70.481
0
LINE
8
BLACK
6
CONTINUOUS
10
183.735
20
-70.481
11
183.706
21
-70.561
0
LINE
8
BLACK
6
CONTINUOUS
10
183.706
20
-70.561
11
183.558
21
-70.7366
0
LINE
8
BLACK
6
CONTINUOUS
10
183.558
20
-70.7366
11
183.36
21
-70.8512
0
LINE
8
BLACK
6
CONTINUOUS
10
183.36
20
-70.8512
11
183.134
21
-70.891
0
LINE
8
BLACK
6
CONTINUOUS
10
183.134
20
-70.891
11
182.908
21
-70.8512
0
LINE
8
BLACK
6
CONTINUOUS
10
182.908
20
-70.8512
11
182.71
21
-70.7366
0
LINE
8
BLACK
6
CONTINUOUS
10
182.71
20
-70.7366
11
182.562
21
-70.561
0
LINE
8
BLACK
6
CONTINUOUS
10
182.562
20
-70.561
11
182.484
21
-70.3456
0
LINE
8
BLACK
6
CONTINUOUS
10
182.484
20
-70.3456
11
182.484
21
-70.1164
0
LINE
8
BLACK
6
CONTINUOUS
10
182.484
20
-70.1164
11
182.562
21
-69.901
0
LINE
8
BLACK
6
CONTINUOUS
10
182.562
20
-69.901
11
182.71
21
-69.7254
0
LINE
8
BLACK
6
CONTINUOUS
10
182.71
20
-69.7254
11
182.908
21
-69.6108
0
LINE
8
BLACK
6
CONTINUOUS
10
182.908
20
-69.6108
11
183.134
21
-69.571
0
LINE
8
BLACK
6
CONTINUOUS
10
183.134
20
-69.571
11
183.36
21
-69.6108
0
LINE
8
BLACK
6
CONTINUOUS
10
196.302
20
-66.721
11
194.352
21
-66.721
0
LINE
8
BLACK
6
CONTINUOUS
10
194.352
20
-66.721
11
194.352
21
-66.121
0
LINE
8
BLACK
6
CONTINUOUS
10
194.352
20
-66.121
11
196.302
21
-66.121
0
LINE
8
BLACK
6
CONTINUOUS
10
196.302
20
-66.121
11
196.302
21
-66.171
0
LINE
8
BLACK
6
CONTINUOUS
10
196.302
20
-66.171
11
196.698
21
-66.171
0
LINE
8
BLACK
6
CONTINUOUS
10
196.698
20
-66.171
11
198.203
21
-64.6659
0
LINE
8
BLACK
6
CONTINUOUS
10
198.203
20
-64.6659
11
198.225
21
-64.6405
0
LINE
8
BLACK
6
CONTINUOUS
10
198.225
20
-64.6405
11
198.254
21
-64.624
0
LINE
8
BLACK
6
CONTINUOUS
10
198.254
20
-64.624
11
198.281
21
-64.6049
0
LINE
8
BLACK
6
CONTINUOUS
10
198.281
20
-64.6049
11
198.291
21
-64.602
0
LINE
8
BLACK
6
CONTINUOUS
10
198.291
20
-64.602
11
198.301
21
-64.5965
0
LINE
8
BLACK
6
CONTINUOUS
10
198.301
20
-64.5965
11
198.334
21
-64.5907
0
LINE
8
BLACK
6
CONTINUOUS
10
198.334
20
-64.5907
11
198.366
21
-64.5821
0
LINE
8
BLACK
6
CONTINUOUS
10
198.366
20
-64.5821
11
198.399
21
-64.585
0
LINE
8
BLACK
6
CONTINUOUS
10
198.399
20
-64.585
11
208.956
21
-64.585
0
LINE
8
BLACK
6
CONTINUOUS
10
208.956
20
-64.585
11
210.854
21
-62.6869
0
LINE
8
BLACK
6
CONTINUOUS
10
210.854
20
-62.6869
11
210.854
21
-61.0301
0
LINE
8
BLACK
6
CONTINUOUS
10
210.854
20
-61.0301
11
210.493
21
-60.6687
0
LINE
8
BLACK
6
CONTINUOUS
10
210.493
20
-60.6687
11
210.493
21
-60.6687
0
LINE
8
BLACK
6
CONTINUOUS
10
210.493
20
-60.6687
11
210.202
21
-60.3782
0
LINE
8
BLACK
6
CONTINUOUS
10
210.202
20
-60.3782
11
210.099
21
-60.4376
0
LINE
8
BLACK
6
CONTINUOUS
10
210.099
20
-60.4376
11
209.878
21
-60.4765
0
LINE
8
BLACK
6
CONTINUOUS
10
209.878
20
-60.4765
11
209.73
21
-60.4765
0
LINE
8
BLACK
6
CONTINUOUS
10
209.73
20
-60.4765
11
209.509
21
-60.4376
0
LINE
8
BLACK
6
CONTINUOUS
10
209.509
20
-60.4376
11
209.249
21
-60.2877
0
LINE
8
BLACK
6
CONTINUOUS
10
209.249
20
-60.2877
11
209.057
21
-60.0581
0
LINE
8
BLACK
6
CONTINUOUS
10
209.057
20
-60.0581
11
208.954
21
-59.7764
0
LINE
8
BLACK
6
CONTINUOUS
10
208.954
20
-59.7764
11
208.954
21
-59.4766
0
LINE
8
BLACK
6
CONTINUOUS
10
208.954
20
-59.4766
11
209.057
21
-59.1949
0
LINE
8
BLACK
6
CONTINUOUS
10
209.057
20
-59.1949
11
209.249
21
-58.9653
0
LINE
8
BLACK
6
CONTINUOUS
10
209.249
20
-58.9653
11
209.509
21
-58.8154
0
LINE
8
BLACK
6
CONTINUOUS
10
209.509
20
-58.8154
11
209.73
21
-58.7765
0
LINE
8
BLACK
6
CONTINUOUS
10
209.73
20
-58.7765
11
209.878
21
-58.7765
0
LINE
8
BLACK
6
CONTINUOUS
10
209.878
20
-58.7765
11
210.099
21
-58.8154
0
LINE
8
BLACK
6
CONTINUOUS
10
210.099
20
-58.8154
11
210.359
21
-58.9653
0
LINE
8
BLACK
6
CONTINUOUS
10
210.359
20
-58.9653
11
210.551
21
-59.1949
0
LINE
8
BLACK
6
CONTINUOUS
10
210.551
20
-59.1949
11
210.654
21
-59.4766
0
LINE
8
BLACK
6
CONTINUOUS
10
210.654
20
-59.4766
11
210.654
21
-59.7764
0
LINE
8
BLACK
6
CONTINUOUS
10
210.654
20
-59.7764
11
210.562
21
-60.0305
0
LINE
8
BLACK
6
CONTINUOUS
10
210.562
20
-60.0305
11
210.846
21
-60.3152
0
LINE
8
BLACK
6
CONTINUOUS
10
210.846
20
-60.3152
11
210.846
21
-60.3152
0
LINE
8
BLACK
6
CONTINUOUS
10
210.846
20
-60.3152
11
211.273
21
-60.742
0
LINE
8
BLACK
6
CONTINUOUS
10
211.273
20
-60.742
11
211.298
21
-60.7633
0
LINE
8
BLACK
6
CONTINUOUS
10
211.298
20
-60.7633
11
211.315
21
-60.792
0
LINE
8
BLACK
6
CONTINUOUS
10
211.315
20
-60.792
11
211.334
21
-60.8192
0
LINE
8
BLACK
6
CONTINUOUS
10
211.334
20
-60.8192
11
211.337
21
-60.83
0
LINE
8
BLACK
6
CONTINUOUS
10
211.337
20
-60.83
11
211.343
21
-60.8397
0
LINE
8
BLACK
6
CONTINUOUS
10
211.343
20
-60.8397
11
211.348
21
-60.8723
0
LINE
8
BLACK
6
CONTINUOUS
10
211.348
20
-60.8723
11
211.357
21
-60.9044
0
LINE
8
BLACK
6
CONTINUOUS
10
211.357
20
-60.9044
11
211.354
21
-60.9374
0
LINE
8
BLACK
6
CONTINUOUS
10
211.354
20
-60.9374
11
211.354
21
-62.7796
0
LINE
8
BLACK
6
CONTINUOUS
10
211.354
20
-62.7796
11
211.357
21
-62.8126
0
LINE
8
BLACK
6
CONTINUOUS
10
211.357
20
-62.8126
11
211.348
21
-62.8447
0
LINE
8
BLACK
6
CONTINUOUS
10
211.348
20
-62.8447
11
211.343
21
-62.8773
0
LINE
8
BLACK
6
CONTINUOUS
10
211.343
20
-62.8773
11
211.337
21
-62.887
0
LINE
8
BLACK
6
CONTINUOUS
10
211.337
20
-62.887
11
211.334
21
-62.8978
0
LINE
8
BLACK
6
CONTINUOUS
10
211.334
20
-62.8978
11
211.315
21
-62.925
0
LINE
8
BLACK
6
CONTINUOUS
10
211.315
20
-62.925
11
211.298
21
-62.9537
0
LINE
8
BLACK
6
CONTINUOUS
10
211.298
20
-62.9537
11
211.273
21
-62.975
0
LINE
8
BLACK
6
CONTINUOUS
10
211.273
20
-62.975
11
209.244
21
-65.0041
0
LINE
8
BLACK
6
CONTINUOUS
10
209.244
20
-65.0041
11
209.223
21
-65.0295
0
LINE
8
BLACK
6
CONTINUOUS
10
209.223
20
-65.0295
11
209.194
21
-65.0461
0
LINE
8
BLACK
6
CONTINUOUS
10
209.194
20
-65.0461
11
209.167
21
-65.0651
0
LINE
8
BLACK
6
CONTINUOUS
10
209.167
20
-65.0651
11
209.156
21
-65.068
0
LINE
8
BLACK
6
CONTINUOUS
10
209.156
20
-65.068
11
209.146
21
-65.0736
0
LINE
8
BLACK
6
CONTINUOUS
10
209.146
20
-65.0736
11
209.114
21
-65.0793
0
LINE
8
BLACK
6
CONTINUOUS
10
209.114
20
-65.0793
11
209.082
21
-65.0879
0
LINE
8
BLACK
6
CONTINUOUS
10
209.082
20
-65.0879
11
209.049
21
-65.085
0
LINE
8
BLACK
6
CONTINUOUS
10
209.049
20
-65.085
11
207.704
21
-65.085
0
LINE
8
BLACK
6
CONTINUOUS
10
207.704
20
-65.085
11
207.704
21
-65.6673
0
LINE
8
BLACK
6
CONTINUOUS
10
207.704
20
-65.6673
11
207.879
21
-65.7679
0
LINE
8
BLACK
6
CONTINUOUS
10
207.879
20
-65.7679
11
208.026
21
-65.9435
0
LINE
8
BLACK
6
CONTINUOUS
10
208.026
20
-65.9435
11
208.105
21
-66.1589
0
LINE
8
BLACK
6
CONTINUOUS
10
208.105
20
-66.1589
11
208.105
21
-66.3881
0
LINE
8
BLACK
6
CONTINUOUS
10
208.105
20
-66.3881
11
208.026
21
-66.6035
0
LINE
8
BLACK
6
CONTINUOUS
10
208.026
20
-66.6035
11
207.879
21
-66.7791
0
LINE
8
BLACK
6
CONTINUOUS
10
207.879
20
-66.7791
11
207.68
21
-66.8937
0
LINE
8
BLACK
6
CONTINUOUS
10
207.68
20
-66.8937
11
207.454
21
-66.9335
0
LINE
8
BLACK
6
CONTINUOUS
10
207.454
20
-66.9335
11
207.229
21
-66.8937
0
LINE
8
BLACK
6
CONTINUOUS
10
207.229
20
-66.8937
11
207.03
21
-66.7791
0
LINE
8
BLACK
6
CONTINUOUS
10
207.03
20
-66.7791
11
206.883
21
-66.6035
0
LINE
8
BLACK
6
CONTINUOUS
10
206.883
20
-66.6035
11
206.804
21
-66.3881
0
LINE
8
BLACK
6
CONTINUOUS
10
206.804
20
-66.3881
11
206.804
21
-66.1589
0
LINE
8
BLACK
6
CONTINUOUS
10
206.804
20
-66.1589
11
206.883
21
-65.9435
0
LINE
8
BLACK
6
CONTINUOUS
10
206.883
20
-65.9435
11
207.03
21
-65.7679
0
LINE
8
BLACK
6
CONTINUOUS
10
207.03
20
-65.7679
11
207.204
21
-65.6673
0
LINE
8
BLACK
6
CONTINUOUS
10
207.204
20
-65.6673
11
207.205
21
-65.085
0
LINE
8
BLACK
6
CONTINUOUS
10
207.205
20
-65.085
11
198.492
21
-65.085
0
LINE
8
BLACK
6
CONTINUOUS
10
198.492
20
-65.085
11
197.406
21
-66.171
0
LINE
8
BLACK
6
CONTINUOUS
10
197.406
20
-66.171
11
198.236
21
-66.171
0
LINE
8
BLACK
6
CONTINUOUS
10
198.236
20
-66.171
11
198.269
21
-66.1681
0
LINE
8
BLACK
6
CONTINUOUS
10
198.269
20
-66.1681
11
198.301
21
-66.1767
0
LINE
8
BLACK
6
CONTINUOUS
10
198.301
20
-66.1767
11
198.334
21
-66.1825
0
LINE
8
BLACK
6
CONTINUOUS
10
198.334
20
-66.1825
11
198.343
21
-66.188
0
LINE
8
BLACK
6
CONTINUOUS
10
198.343
20
-66.188
11
198.354
21
-66.1909
0
LINE
8
BLACK
6
CONTINUOUS
10
198.354
20
-66.1909
11
198.381
21
-66.2099
0
LINE
8
BLACK
6
CONTINUOUS
10
198.381
20
-66.2099
11
198.41
21
-66.2265
0
LINE
8
BLACK
6
CONTINUOUS
10
198.41
20
-66.2265
11
198.431
21
-66.2519
0
LINE
8
BLACK
6
CONTINUOUS
10
198.431
20
-66.2519
11
201.341
21
-69.1618
0
LINE
8
BLACK
6
CONTINUOUS
10
201.341
20
-69.1618
11
201.444
21
-69.1024
0
LINE
8
BLACK
6
CONTINUOUS
10
201.444
20
-69.1024
11
201.665
21
-69.0635
0
LINE
8
BLACK
6
CONTINUOUS
10
201.665
20
-69.0635
11
201.814
21
-69.0635
0
LINE
8
BLACK
6
CONTINUOUS
10
201.814
20
-69.0635
11
202.035
21
-69.1024
0
LINE
8
BLACK
6
CONTINUOUS
10
202.035
20
-69.1024
11
202.294
21
-69.2523
0
LINE
8
BLACK
6
CONTINUOUS
10
202.294
20
-69.2523
11
202.487
21
-69.4819
0
LINE
8
BLACK
6
CONTINUOUS
10
202.487
20
-69.4819
11
202.589
21
-69.7636
0
LINE
8
BLACK
6
CONTINUOUS
10
202.589
20
-69.7636
11
202.589
21
-70.0634
0
LINE
8
BLACK
6
CONTINUOUS
10
202.589
20
-70.0634
11
202.487
21
-70.3451
0
LINE
8
BLACK
6
CONTINUOUS
10
202.487
20
-70.3451
11
202.294
21
-70.5747
0
LINE
8
BLACK
6
CONTINUOUS
10
202.294
20
-70.5747
11
202.035
21
-70.7246
0
LINE
8
BLACK
6
CONTINUOUS
10
202.035
20
-70.7246
11
201.814
21
-70.7635
0
LINE
8
BLACK
6
CONTINUOUS
10
201.814
20
-70.7635
11
201.665
21
-70.7635
0
LINE
8
BLACK
6
CONTINUOUS
10
201.665
20
-70.7635
11
201.444
21
-70.7246
0
LINE
8
BLACK
6
CONTINUOUS
10
201.444
20
-70.7246
11
201.185
21
-70.5747
0
LINE
8
BLACK
6
CONTINUOUS
10
201.185
20
-70.5747
11
200.992
21
-70.3451
0
LINE
8
BLACK
6
CONTINUOUS
10
200.992
20
-70.3451
11
200.89
21
-70.0634
0
LINE
8
BLACK
6
CONTINUOUS
10
200.89
20
-70.0634
11
200.89
21
-69.7636
0
LINE
8
BLACK
6
CONTINUOUS
10
200.89
20
-69.7636
11
200.982
21
-69.5095
0
LINE
8
BLACK
6
CONTINUOUS
10
200.982
20
-69.5095
11
198.143
21
-66.671
0
LINE
8
BLACK
6
CONTINUOUS
10
198.143
20
-66.671
11
196.835
21
-66.671
0
LINE
8
BLACK
6
CONTINUOUS
10
196.835
20
-66.671
11
196.824
21
-66.6739
0
LINE
8
BLACK
6
CONTINUOUS
10
196.824
20
-66.6739
11
196.791
21
-66.671
0
LINE
8
BLACK
6
CONTINUOUS
10
196.791
20
-66.671
11
196.302
21
-66.671
0
LINE
8
BLACK
6
CONTINUOUS
10
196.302
20
-66.671
11
196.302
21
-66.721
0
LINE
8
BLACK
6
CONTINUOUS
10
210.226
20
-68.9754
11
210.486
21
-69.1253
0
LINE
8
BLACK
6
CONTINUOUS
10
210.486
20
-69.1253
11
210.678
21
-69.3549
0
LINE
8
BLACK
6
CONTINUOUS
10
210.678
20
-69.3549
11
210.781
21
-69.6366
0
LINE
8
BLACK
6
CONTINUOUS
10
210.781
20
-69.6366
11
210.781
21
-69.9364
0
LINE
8
BLACK
6
CONTINUOUS
10
210.781
20
-69.9364
11
210.678
21
-70.2181
0
LINE
8
BLACK
6
CONTINUOUS
10
210.678
20
-70.2181
11
210.486
21
-70.4477
0
LINE
8
BLACK
6
CONTINUOUS
10
210.486
20
-70.4477
11
210.226
21
-70.5976
0
LINE
8
BLACK
6
CONTINUOUS
10
210.226
20
-70.5976
11
210.005
21
-70.6365
0
LINE
8
BLACK
6
CONTINUOUS
10
210.005
20
-70.6365
11
209.857
21
-70.6365
0
LINE
8
BLACK
6
CONTINUOUS
10
209.857
20
-70.6365
11
209.636
21
-70.5976
0
LINE
8
BLACK
6
CONTINUOUS
10
209.636
20
-70.5976
11
209.376
21
-70.4477
0
LINE
8
BLACK
6
CONTINUOUS
10
209.376
20
-70.4477
11
209.184
21
-70.2181
0
LINE
8
BLACK
6
CONTINUOUS
10
209.184
20
-70.2181
11
209.081
21
-69.9364
0
LINE
8
BLACK
6
CONTINUOUS
10
209.081
20
-69.9364
11
209.081
21
-69.6366
0
LINE
8
BLACK
6
CONTINUOUS
10
209.081
20
-69.6366
11
209.184
21
-69.3549
0
LINE
8
BLACK
6
CONTINUOUS
10
209.184
20
-69.3549
11
209.376
21
-69.1253
0
LINE
8
BLACK
6
CONTINUOUS
10
209.376
20
-69.1253
11
209.636
21
-68.9754
0
LINE
8
BLACK
6
CONTINUOUS
10
209.636
20
-68.9754
11
209.857
21
-68.9365
0
LINE
8
BLACK
6
CONTINUOUS
10
209.857
20
-68.9365
11
210.005
21
-68.9365
0
LINE
8
BLACK
6
CONTINUOUS
10
210.005
20
-68.9365
11
210.226
21
-68.9754
0
LINE
8
BLACK
6
CONTINUOUS
10
196.302
20
-70.531
11
194.352
21
-70.531
0
LINE
8
BLACK
6
CONTINUOUS
10
194.352
20
-70.531
11
194.352
21
-69.931
0
LINE
8
BLACK
6
CONTINUOUS
10
194.352
20
-69.931
11
196.302
21
-69.931
0
LINE
8
BLACK
6
CONTINUOUS
10
196.302
20
-69.931
11
196.302
21
-70.531
0
LINE
8
BLACK
6
CONTINUOUS
10
196.302
20
-67.441
11
196.839
21
-67.441
0
LINE
8
BLACK
6
CONTINUOUS
10
196.839
20
-67.441
11
196.872
21
-67.4381
0
LINE
8
BLACK
6
CONTINUOUS
10
196.872
20
-67.4381
11
196.904
21
-67.4467
0
LINE
8
BLACK
6
CONTINUOUS
10
196.904
20
-67.4467
11
196.937
21
-67.4525
0
LINE
8
BLACK
6
CONTINUOUS
10
196.937
20
-67.4525
11
196.946
21
-67.458
0
LINE
8
BLACK
6
CONTINUOUS
10
196.946
20
-67.458
11
196.957
21
-67.4609
0
LINE
8
BLACK
6
CONTINUOUS
10
196.957
20
-67.4609
11
196.984
21
-67.48
0
LINE
8
BLACK
6
CONTINUOUS
10
196.984
20
-67.48
11
197.013
21
-67.4965
0
LINE
8
BLACK
6
CONTINUOUS
10
197.013
20
-67.4965
11
197.034
21
-67.5219
0
LINE
8
BLACK
6
CONTINUOUS
10
197.034
20
-67.5219
11
197.741
21
-68.2288
0
LINE
8
BLACK
6
CONTINUOUS
10
197.741
20
-68.2288
11
197.767
21
-68.2138
0
LINE
8
BLACK
6
CONTINUOUS
10
197.767
20
-68.2138
11
197.993
21
-68.174
0
LINE
8
BLACK
6
CONTINUOUS
10
197.993
20
-68.174
11
198.219
21
-68.2138
0
LINE
8
BLACK
6
CONTINUOUS
10
198.219
20
-68.2138
11
198.417
21
-68.3284
0
LINE
8
BLACK
6
CONTINUOUS
10
198.417
20
-68.3284
11
198.565
21
-68.504
0
LINE
8
BLACK
6
CONTINUOUS
10
198.565
20
-68.504
11
198.643
21
-68.7194
0
LINE
8
BLACK
6
CONTINUOUS
10
198.643
20
-68.7194
11
198.643
21
-68.9486
0
LINE
8
BLACK
6
CONTINUOUS
10
198.643
20
-68.9486
11
198.565
21
-69.164
0
LINE
8
BLACK
6
CONTINUOUS
10
198.565
20
-69.164
11
198.417
21
-69.3396
0
LINE
8
BLACK
6
CONTINUOUS
10
198.417
20
-69.3396
11
198.219
21
-69.4542
0
LINE
8
BLACK
6
CONTINUOUS
10
198.219
20
-69.4542
11
197.993
21
-69.494
0
LINE
8
BLACK
6
CONTINUOUS
10
197.993
20
-69.494
11
197.767
21
-69.4542
0
LINE
8
BLACK
6
CONTINUOUS
10
197.767
20
-69.4542
11
197.569
21
-69.3396
0
LINE
8
BLACK
6
CONTINUOUS
10
197.569
20
-69.3396
11
197.421
21
-69.164
0
LINE
8
BLACK
6
CONTINUOUS
10
197.421
20
-69.164
11
197.343
21
-68.9486
0
LINE
8
BLACK
6
CONTINUOUS
10
197.343
20
-68.9486
11
197.343
21
-68.7194
0
LINE
8
BLACK
6
CONTINUOUS
10
197.343
20
-68.7194
11
197.392
21
-68.5861
0
LINE
8
BLACK
6
CONTINUOUS
10
197.392
20
-68.5861
11
196.746
21
-67.941
0
LINE
8
BLACK
6
CONTINUOUS
10
196.746
20
-67.941
11
196.302
21
-67.941
0
LINE
8
BLACK
6
CONTINUOUS
10
196.302
20
-67.941
11
196.302
21
-67.991
0
LINE
8
BLACK
6
CONTINUOUS
10
196.302
20
-67.991
11
194.352
21
-67.991
0
LINE
8
BLACK
6
CONTINUOUS
10
194.352
20
-67.991
11
194.352
21
-67.391
0
LINE
8
BLACK
6
CONTINUOUS
10
194.352
20
-67.391
11
196.302
21
-67.391
0
LINE
8
BLACK
6
CONTINUOUS
10
196.302
20
-67.391
11
196.302
21
-67.441
0
LINE
8
BLACK
6
CONTINUOUS
10
180.254
20
-67.7054
11
180.514
21
-67.8553
0
LINE
8
BLACK
6
CONTINUOUS
10
180.514
20
-67.8553
11
180.706
21
-68.0849
0
LINE
8
BLACK
6
CONTINUOUS
10
180.706
20
-68.0849
11
180.809
21
-68.3666
0
LINE
8
BLACK
6
CONTINUOUS
10
180.809
20
-68.3666
11
180.809
21
-68.6664
0
LINE
8
BLACK
6
CONTINUOUS
10
180.809
20
-68.6664
11
180.793
21
-68.711
0
LINE
8
BLACK
6
CONTINUOUS
10
180.793
20
-68.711
11
184.952
21
-68.711
0
LINE
8
BLACK
6
CONTINUOUS
10
184.952
20
-68.711
11
184.952
21
-68.661
0
LINE
8
BLACK
6
CONTINUOUS
10
184.952
20
-68.661
11
186.902
21
-68.661
0
LINE
8
BLACK
6
CONTINUOUS
10
186.902
20
-68.661
11
186.902
21
-69.261
0
LINE
8
BLACK
6
CONTINUOUS
10
186.902
20
-69.261
11
184.952
21
-69.261
0
LINE
8
BLACK
6
CONTINUOUS
10
184.952
20
-69.261
11
184.952
21
-69.211
0
LINE
8
BLACK
6
CONTINUOUS
10
184.952
20
-69.211
11
180.456
21
-69.211
0
LINE
8
BLACK
6
CONTINUOUS
10
180.456
20
-69.211
11
180.254
21
-69.3276
0
LINE
8
BLACK
6
CONTINUOUS
10
180.254
20
-69.3276
11
180.033
21
-69.3665
0
LINE
8
BLACK
6
CONTINUOUS
10
180.033
20
-69.3665
11
179.885
21
-69.3665
0
LINE
8
BLACK
6
CONTINUOUS
10
179.885
20
-69.3665
11
179.664
21
-69.3276
0
LINE
8
BLACK
6
CONTINUOUS
10
179.664
20
-69.3276
11
179.404
21
-69.1777
0
LINE
8
BLACK
6
CONTINUOUS
10
179.404
20
-69.1777
11
179.212
21
-68.9481
0
LINE
8
BLACK
6
CONTINUOUS
10
179.212
20
-68.9481
11
179.109
21
-68.6664
0
LINE
8
BLACK
6
CONTINUOUS
10
179.109
20
-68.6664
11
179.109
21
-68.3666
0
LINE
8
BLACK
6
CONTINUOUS
10
179.109
20
-68.3666
11
179.212
21
-68.0849
0
LINE
8
BLACK
6
CONTINUOUS
10
179.212
20
-68.0849
11
179.404
21
-67.8553
0
LINE
8
BLACK
6
CONTINUOUS
10
179.404
20
-67.8553
11
179.664
21
-67.7054
0
LINE
8
BLACK
6
CONTINUOUS
10
179.664
20
-67.7054
11
179.885
21
-67.6665
0
LINE
8
BLACK
6
CONTINUOUS
10
179.885
20
-67.6665
11
180.033
21
-67.6665
0
LINE
8
BLACK
6
CONTINUOUS
10
180.033
20
-67.6665
11
180.254
21
-67.7054
0
LINE
8
BLACK
6
CONTINUOUS
10
196.302
20
-69.261
11
194.352
21
-69.261
0
LINE
8
BLACK
6
CONTINUOUS
10
194.352
20
-69.261
11
194.352
21
-68.661
0
LINE
8
BLACK
6
CONTINUOUS
10
194.352
20
-68.661
11
196.302
21
-68.661
0
LINE
8
BLACK
6
CONTINUOUS
10
196.302
20
-68.661
11
196.302
21
-69.261
0
LINE
8
BLACK
6
CONTINUOUS
10
183.979
20
-67.0232
11
184.177
21
-67.1378
0
LINE
8
BLACK
6
CONTINUOUS
10
184.177
20
-67.1378
11
184.325
21
-67.3134
0
LINE
8
BLACK
6
CONTINUOUS
10
184.325
20
-67.3134
11
184.371
21
-67.441
0
LINE
8
BLACK
6
CONTINUOUS
10
184.371
20
-67.441
11
184.952
21
-67.441
0
LINE
8
BLACK
6
CONTINUOUS
10
184.952
20
-67.441
11
184.952
21
-67.391
0
LINE
8
BLACK
6
CONTINUOUS
10
184.952
20
-67.391
11
186.902
21
-67.391
0
LINE
8
BLACK
6
CONTINUOUS
10
186.902
20
-67.391
11
186.902
21
-67.991
0
LINE
8
BLACK
6
CONTINUOUS
10
186.902
20
-67.991
11
184.952
21
-67.991
0
LINE
8
BLACK
6
CONTINUOUS
10
184.952
20
-67.991
11
184.952
21
-67.941
0
LINE
8
BLACK
6
CONTINUOUS
10
184.952
20
-67.941
11
184.336
21
-67.941
0
LINE
8
BLACK
6
CONTINUOUS
10
184.336
20
-67.941
11
184.325
21
-67.9734
0
LINE
8
BLACK
6
CONTINUOUS
10
184.325
20
-67.9734
11
184.177
21
-68.149
0
LINE
8
BLACK
6
CONTINUOUS
10
184.177
20
-68.149
11
183.979
21
-68.2637
0
LINE
8
BLACK
6
CONTINUOUS
10
183.979
20
-68.2637
11
183.753
21
-68.3035
0
LINE
8
BLACK
6
CONTINUOUS
10
183.753
20
-68.3035
11
183.527
21
-68.2637
0
LINE
8
BLACK
6
CONTINUOUS
10
183.527
20
-68.2637
11
183.329
21
-68.149
0
LINE
8
BLACK
6
CONTINUOUS
10
183.329
20
-68.149
11
183.181
21
-67.9734
0
LINE
8
BLACK
6
CONTINUOUS
10
183.181
20
-67.9734
11
183.103
21
-67.758
0
LINE
8
BLACK
6
CONTINUOUS
10
183.103
20
-67.758
11
183.103
21
-67.5288
0
LINE
8
BLACK
6
CONTINUOUS
10
183.103
20
-67.5288
11
183.181
21
-67.3134
0
LINE
8
BLACK
6
CONTINUOUS
10
183.181
20
-67.3134
11
183.329
21
-67.1378
0
LINE
8
BLACK
6
CONTINUOUS
10
183.329
20
-67.1378
11
183.527
21
-67.0232
0
LINE
8
BLACK
6
CONTINUOUS
10
183.527
20
-67.0232
11
183.753
21
-66.9834
0
LINE
8
BLACK
6
CONTINUOUS
10
183.753
20
-66.9834
11
183.979
21
-67.0232
0
LINE
8
BLACK
6
CONTINUOUS
10
180.254
20
-65.1654
11
180.514
21
-65.3153
0
LINE
8
BLACK
6
CONTINUOUS
10
180.514
20
-65.3153
11
180.706
21
-65.5449
0
LINE
8
BLACK
6
CONTINUOUS
10
180.706
20
-65.5449
11
180.809
21
-65.8266
0
LINE
8
BLACK
6
CONTINUOUS
10
180.809
20
-65.8266
11
180.809
21
-66.1264
0
LINE
8
BLACK
6
CONTINUOUS
10
180.809
20
-66.1264
11
180.706
21
-66.4081
0
LINE
8
BLACK
6
CONTINUOUS
10
180.706
20
-66.4081
11
180.514
21
-66.6377
0
LINE
8
BLACK
6
CONTINUOUS
10
180.514
20
-66.6377
11
180.254
21
-66.7876
0
LINE
8
BLACK
6
CONTINUOUS
10
180.254
20
-66.7876
11
180.033
21
-66.8265
0
LINE
8
BLACK
6
CONTINUOUS
10
180.033
20
-66.8265
11
179.885
21
-66.8265
0
LINE
8
BLACK
6
CONTINUOUS
10
179.885
20
-66.8265
11
179.664
21
-66.7876
0
LINE
8
BLACK
6
CONTINUOUS
10
179.664
20
-66.7876
11
179.404
21
-66.6377
0
LINE
8
BLACK
6
CONTINUOUS
10
179.404
20
-66.6377
11
179.212
21
-66.4081
0
LINE
8
BLACK
6
CONTINUOUS
10
179.212
20
-66.4081
11
179.109
21
-66.1264
0
LINE
8
BLACK
6
CONTINUOUS
10
179.109
20
-66.1264
11
179.109
21
-65.8266
0
LINE
8
BLACK
6
CONTINUOUS
10
179.109
20
-65.8266
11
179.212
21
-65.5449
0
LINE
8
BLACK
6
CONTINUOUS
10
179.212
20
-65.5449
11
179.404
21
-65.3153
0
LINE
8
BLACK
6
CONTINUOUS
10
179.404
20
-65.3153
11
179.664
21
-65.1654
0
LINE
8
BLACK
6
CONTINUOUS
10
179.664
20
-65.1654
11
179.885
21
-65.1265
0
LINE
8
BLACK
6
CONTINUOUS
10
179.885
20
-65.1265
11
180.033
21
-65.1265
0
LINE
8
BLACK
6
CONTINUOUS
10
180.033
20
-65.1265
11
180.254
21
-65.1654
0
LINE
8
BLACK
6
CONTINUOUS
10
183.843
20
-65.5294
11
184.042
21
-65.644
0
LINE
8
BLACK
6
CONTINUOUS
10
184.042
20
-65.644
11
184.189
21
-65.8196
0
LINE
8
BLACK
6
CONTINUOUS
10
184.189
20
-65.8196
11
184.267
21
-66.035
0
LINE
8
BLACK
6
CONTINUOUS
10
184.267
20
-66.035
11
184.267
21
-66.171
0
LINE
8
BLACK
6
CONTINUOUS
10
184.267
20
-66.171
11
184.952
21
-66.171
0
LINE
8
BLACK
6
CONTINUOUS
10
184.952
20
-66.171
11
184.952
21
-66.121
0
LINE
8
BLACK
6
CONTINUOUS
10
184.952
20
-66.121
11
186.902
21
-66.121
0
LINE
8
BLACK
6
CONTINUOUS
10
186.902
20
-66.121
11
186.902
21
-66.721
0
LINE
8
BLACK
6
CONTINUOUS
10
186.902
20
-66.721
11
184.952
21
-66.721
0
LINE
8
BLACK
6
CONTINUOUS
10
184.952
20
-66.721
11
184.952
21
-66.671
0
LINE
8
BLACK
6
CONTINUOUS
10
184.952
20
-66.671
11
184.014
21
-66.671
0
LINE
8
BLACK
6
CONTINUOUS
10
184.014
20
-66.671
11
183.843
21
-66.7698
0
LINE
8
BLACK
6
CONTINUOUS
10
183.843
20
-66.7698
11
183.617
21
-66.8096
0
LINE
8
BLACK
6
CONTINUOUS
10
183.617
20
-66.8096
11
183.392
21
-66.7698
0
LINE
8
BLACK
6
CONTINUOUS
10
183.392
20
-66.7698
11
183.193
21
-66.6552
0
LINE
8
BLACK
6
CONTINUOUS
10
183.193
20
-66.6552
11
183.046
21
-66.4796
0
LINE
8
BLACK
6
CONTINUOUS
10
183.046
20
-66.4796
11
182.967
21
-66.2642
0
LINE
8
BLACK
6
CONTINUOUS
10
182.967
20
-66.2642
11
182.967
21
-66.035
0
LINE
8
BLACK
6
CONTINUOUS
10
182.967
20
-66.035
11
183.046
21
-65.8196
0
LINE
8
BLACK
6
CONTINUOUS
10
183.046
20
-65.8196
11
183.193
21
-65.644
0
LINE
8
BLACK
6
CONTINUOUS
10
183.193
20
-65.644
11
183.392
21
-65.5294
0
LINE
8
BLACK
6
CONTINUOUS
10
183.392
20
-65.5294
11
183.617
21
-65.4896
0
LINE
8
BLACK
6
CONTINUOUS
10
183.617
20
-65.4896
11
183.843
21
-65.5294
0
LINE
8
BLACK
6
CONTINUOUS
10
183.407
20
-58.3692
11
183.439
21
-58.375
0
LINE
8
BLACK
6
CONTINUOUS
10
183.439
20
-58.375
11
183.449
21
-58.3805
0
LINE
8
BLACK
6
CONTINUOUS
10
183.449
20
-58.3805
11
183.46
21
-58.3834
0
LINE
8
BLACK
6
CONTINUOUS
10
183.46
20
-58.3834
11
183.487
21
-58.4024
0
LINE
8
BLACK
6
CONTINUOUS
10
183.487
20
-58.4024
11
183.516
21
-58.419
0
LINE
8
BLACK
6
CONTINUOUS
10
183.516
20
-58.419
11
183.537
21
-58.4444
0
LINE
8
BLACK
6
CONTINUOUS
10
183.537
20
-58.4444
11
184.337
21
-59.244
0
LINE
8
BLACK
6
CONTINUOUS
10
184.337
20
-59.244
11
184.362
21
-59.2653
0
LINE
8
BLACK
6
CONTINUOUS
10
184.362
20
-59.2653
11
184.379
21
-59.294
0
LINE
8
BLACK
6
CONTINUOUS
10
184.379
20
-59.294
11
184.398
21
-59.3212
0
LINE
8
BLACK
6
CONTINUOUS
10
184.398
20
-59.3212
11
184.4
21
-59.332
0
LINE
8
BLACK
6
CONTINUOUS
10
184.4
20
-59.332
11
184.406
21
-59.3417
0
LINE
8
BLACK
6
CONTINUOUS
10
184.406
20
-59.3417
11
184.412
21
-59.3743
0
LINE
8
BLACK
6
CONTINUOUS
10
184.412
20
-59.3743
11
184.42
21
-59.4064
0
LINE
8
BLACK
6
CONTINUOUS
10
184.42
20
-59.4064
11
184.418
21
-59.4394
0
LINE
8
BLACK
6
CONTINUOUS
10
184.418
20
-59.4394
11
184.418
21
-61.3819
0
LINE
8
BLACK
6
CONTINUOUS
10
184.418
20
-61.3819
11
185.778
21
-62.742
0
LINE
8
BLACK
6
CONTINUOUS
10
185.778
20
-62.742
11
190.949
21
-62.742
0
LINE
8
BLACK
6
CONTINUOUS
10
190.949
20
-62.742
11
191.782
21
-61.9089
0
LINE
8
BLACK
6
CONTINUOUS
10
191.782
20
-61.9089
11
191.803
21
-61.8835
0
LINE
8
BLACK
6
CONTINUOUS
10
191.803
20
-61.8835
11
191.832
21
-61.867
0
LINE
8
BLACK
6
CONTINUOUS
10
191.832
20
-61.867
11
191.859
21
-61.8479
0
LINE
8
BLACK
6
CONTINUOUS
10
191.859
20
-61.8479
11
191.87
21
-61.845
0
LINE
8
BLACK
6
CONTINUOUS
10
191.87
20
-61.845
11
191.88
21
-61.8395
0
LINE
8
BLACK
6
CONTINUOUS
10
191.88
20
-61.8395
11
191.912
21
-61.8337
0
LINE
8
BLACK
6
CONTINUOUS
10
191.912
20
-61.8337
11
191.944
21
-61.8251
0
LINE
8
BLACK
6
CONTINUOUS
10
191.944
20
-61.8251
11
191.977
21
-61.828
0
LINE
8
BLACK
6
CONTINUOUS
10
191.977
20
-61.828
11
192.466
21
-61.828
0
LINE
8
BLACK
6
CONTINUOUS
10
192.466
20
-61.828
11
192.466
21
-61.078
0
LINE
8
BLACK
6
CONTINUOUS
10
192.466
20
-61.078
11
193.966
21
-61.078
0
LINE
8
BLACK
6
CONTINUOUS
10
193.966
20
-61.078
11
193.966
21
-63.078
0
LINE
8
BLACK
6
CONTINUOUS
10
193.966
20
-63.078
11
192.466
21
-63.078
0
LINE
8
BLACK
6
CONTINUOUS
10
192.466
20
-63.078
11
192.466
21
-62.328
0
LINE
8
BLACK
6
CONTINUOUS
10
192.466
20
-62.328
11
192.07
21
-62.328
0
LINE
8
BLACK
6
CONTINUOUS
10
192.07
20
-62.328
11
191.237
21
-63.1611
0
LINE
8
BLACK
6
CONTINUOUS
10
191.237
20
-63.1611
11
191.216
21
-63.1865
0
LINE
8
BLACK
6
CONTINUOUS
10
191.216
20
-63.1865
11
191.187
21
-63.203
0
LINE
8
BLACK
6
CONTINUOUS
10
191.187
20
-63.203
11
191.16
21
-63.2221
0
LINE
8
BLACK
6
CONTINUOUS
10
191.16
20
-63.2221
11
191.149
21
-63.225
0
LINE
8
BLACK
6
CONTINUOUS
10
191.149
20
-63.225
11
191.139
21
-63.2305
0
LINE
8
BLACK
6
CONTINUOUS
10
191.139
20
-63.2305
11
191.107
21
-63.2363
0
LINE
8
BLACK
6
CONTINUOUS
10
191.107
20
-63.2363
11
191.075
21
-63.2449
0
LINE
8
BLACK
6
CONTINUOUS
10
191.075
20
-63.2449
11
191.042
21
-63.242
0
LINE
8
BLACK
6
CONTINUOUS
10
191.042
20
-63.242
11
185.685
21
-63.242
0
LINE
8
BLACK
6
CONTINUOUS
10
185.685
20
-63.242
11
185.652
21
-63.2449
0
LINE
8
BLACK
6
CONTINUOUS
10
185.652
20
-63.2449
11
185.62
21
-63.2363
0
LINE
8
BLACK
6
CONTINUOUS
10
185.62
20
-63.2363
11
185.587
21
-63.2305
0
LINE
8
BLACK
6
CONTINUOUS
10
185.587
20
-63.2305
11
185.578
21
-63.225
0
LINE
8
BLACK
6
CONTINUOUS
10
185.578
20
-63.225
11
185.567
21
-63.2221
0
LINE
8
BLACK
6
CONTINUOUS
10
185.567
20
-63.2221
11
185.54
21
-63.203
0
LINE
8
BLACK
6
CONTINUOUS
10
185.54
20
-63.203
11
185.511
21
-63.1865
0
LINE
8
BLACK
6
CONTINUOUS
10
185.511
20
-63.1865
11
185.49
21
-63.1611
0
LINE
8
BLACK
6
CONTINUOUS
10
185.49
20
-63.1611
11
183.998
21
-61.67
0
LINE
8
BLACK
6
CONTINUOUS
10
183.998
20
-61.67
11
183.973
21
-61.6487
0
LINE
8
BLACK
6
CONTINUOUS
10
183.973
20
-61.6487
11
183.956
21
-61.62
0
LINE
8
BLACK
6
CONTINUOUS
10
183.956
20
-61.62
11
183.937
21
-61.5928
0
LINE
8
BLACK
6
CONTINUOUS
10
183.937
20
-61.5928
11
183.935
21
-61.582
0
LINE
8
BLACK
6
CONTINUOUS
10
183.935
20
-61.582
11
183.929
21
-61.5723
0
LINE
8
BLACK
6
CONTINUOUS
10
183.929
20
-61.5723
11
183.923
21
-61.5397
0
LINE
8
BLACK
6
CONTINUOUS
10
183.923
20
-61.5397
11
183.915
21
-61.5076
0
LINE
8
BLACK
6
CONTINUOUS
10
183.915
20
-61.5076
11
183.918
21
-61.4746
0
LINE
8
BLACK
6
CONTINUOUS
10
183.918
20
-61.4746
11
183.918
21
-59.5321
0
LINE
8
BLACK
6
CONTINUOUS
10
183.918
20
-59.5321
11
183.249
21
-58.8635
0
LINE
8
BLACK
6
CONTINUOUS
10
183.249
20
-58.8635
11
183.226
21
-58.8635
0
LINE
8
BLACK
6
CONTINUOUS
10
183.226
20
-58.8635
11
183.24
21
-58.8717
0
LINE
8
BLACK
6
CONTINUOUS
10
183.24
20
-58.8717
11
183.682
21
-59.3985
0
LINE
8
BLACK
6
CONTINUOUS
10
183.682
20
-59.3985
11
183.917
21
-60.0447
0
LINE
8
BLACK
6
CONTINUOUS
10
183.917
20
-60.0447
11
183.917
21
-60.7323
0
LINE
8
BLACK
6
CONTINUOUS
10
183.917
20
-60.7323
11
183.682
21
-61.3785
0
LINE
8
BLACK
6
CONTINUOUS
10
183.682
20
-61.3785
11
183.24
21
-61.9053
0
LINE
8
BLACK
6
CONTINUOUS
10
183.24
20
-61.9053
11
182.645
21
-62.2492
0
LINE
8
BLACK
6
CONTINUOUS
10
182.645
20
-62.2492
11
181.968
21
-62.3686
0
LINE
8
BLACK
6
CONTINUOUS
10
181.968
20
-62.3686
11
181.29
21
-62.2492
0
LINE
8
BLACK
6
CONTINUOUS
10
181.29
20
-62.2492
11
180.695
21
-61.9053
0
LINE
8
BLACK
6
CONTINUOUS
10
180.695
20
-61.9053
11
180.253
21
-61.3785
0
LINE
8
BLACK
6
CONTINUOUS
10
180.253
20
-61.3785
11
180.017
21
-60.7323
0
LINE
8
BLACK
6
CONTINUOUS
10
180.017
20
-60.7323
11
180.017
21
-60.0447
0
LINE
8
BLACK
6
CONTINUOUS
10
180.017
20
-60.0447
11
180.253
21
-59.3985
0
LINE
8
BLACK
6
CONTINUOUS
10
180.253
20
-59.3985
11
180.695
21
-58.8717
0
LINE
8
BLACK
6
CONTINUOUS
10
180.695
20
-58.8717
11
181.29
21
-58.5278
0
LINE
8
BLACK
6
CONTINUOUS
10
181.29
20
-58.5278
11
181.968
21
-58.4084
0
LINE
8
BLACK
6
CONTINUOUS
10
181.968
20
-58.4084
11
182.492
21
-58.501
0
LINE
8
BLACK
6
CONTINUOUS
10
182.492
20
-58.501
11
182.498
21
-58.4866
0
LINE
8
BLACK
6
CONTINUOUS
10
182.498
20
-58.4866
11
182.554
21
-58.419
0
LINE
8
BLACK
6
CONTINUOUS
10
182.554
20
-58.419
11
182.631
21
-58.375
0
LINE
8
BLACK
6
CONTINUOUS
10
182.631
20
-58.375
11
182.696
21
-58.3635
0
LINE
8
BLACK
6
CONTINUOUS
10
182.696
20
-58.3635
11
183.342
21
-58.3635
0
LINE
8
BLACK
6
CONTINUOUS
10
183.342
20
-58.3635
11
183.375
21
-58.3606
0
LINE
8
BLACK
6
CONTINUOUS
10
183.375
20
-58.3606
11
183.407
21
-58.3692
0
LINE
8
BLACK
6
CONTINUOUS
10
202.858
20
-58.3066
11
202.933
21
-58.35
0
LINE
8
BLACK
6
CONTINUOUS
10
202.933
20
-58.35
11
202.989
21
-58.4165
0
LINE
8
BLACK
6
CONTINUOUS
10
202.989
20
-58.4165
11
203.022
21
-58.5415
0
LINE
8
BLACK
6
CONTINUOUS
10
203.022
20
-58.5415
11
203.022
21
-59.4415
0
LINE
8
BLACK
6
CONTINUOUS
10
203.022
20
-59.4415
11
203.007
21
-59.527
0
LINE
8
BLACK
6
CONTINUOUS
10
203.007
20
-59.527
11
202.964
21
-59.6022
0
LINE
8
BLACK
6
CONTINUOUS
10
202.964
20
-59.6022
11
202.897
21
-59.658
0
LINE
8
BLACK
6
CONTINUOUS
10
202.897
20
-59.658
11
202.772
21
-59.6915
0
LINE
8
BLACK
6
CONTINUOUS
10
202.772
20
-59.6915
11
202.706
21
-59.6915
0
LINE
8
BLACK
6
CONTINUOUS
10
202.706
20
-59.6915
11
202.706
21
-61.7205
0
LINE
8
BLACK
6
CONTINUOUS
10
202.706
20
-61.7205
11
202.781
21
-61.7205
0
LINE
8
BLACK
6
CONTINUOUS
10
202.781
20
-61.7205
11
202.867
21
-61.7356
0
LINE
8
BLACK
6
CONTINUOUS
10
202.867
20
-61.7356
11
202.942
21
-61.779
0
LINE
8
BLACK
6
CONTINUOUS
10
202.942
20
-61.779
11
202.998
21
-61.8455
0
LINE
8
BLACK
6
CONTINUOUS
10
202.998
20
-61.8455
11
203.031
21
-61.9705
0
LINE
8
BLACK
6
CONTINUOUS
10
203.031
20
-61.9705
11
203.031
21
-62.8705
0
LINE
8
BLACK
6
CONTINUOUS
10
203.031
20
-62.8705
11
203.016
21
-62.956
0
LINE
8
BLACK
6
CONTINUOUS
10
203.016
20
-62.956
11
202.973
21
-63.0312
0
LINE
8
BLACK
6
CONTINUOUS
10
202.973
20
-63.0312
11
202.906
21
-63.087
0
LINE
8
BLACK
6
CONTINUOUS
10
202.906
20
-63.087
11
202.781
21
-63.1205
0
LINE
8
BLACK
6
CONTINUOUS
10
202.781
20
-63.1205
11
202.131
21
-63.1205
0
LINE
8
BLACK
6
CONTINUOUS
10
202.131
20
-63.1205
11
202.045
21
-63.1054
0
LINE
8
BLACK
6
CONTINUOUS
10
202.045
20
-63.1054
11
201.97
21
-63.062
0
LINE
8
BLACK
6
CONTINUOUS
10
201.97
20
-63.062
11
201.914
21
-62.9955
0
LINE
8
BLACK
6
CONTINUOUS
10
201.914
20
-62.9955
11
201.881
21
-62.8705
0
LINE
8
BLACK
6
CONTINUOUS
10
201.881
20
-62.8705
11
201.881
21
-61.9705
0
LINE
8
BLACK
6
CONTINUOUS
10
201.881
20
-61.9705
11
201.896
21
-61.885
0
LINE
8
BLACK
6
CONTINUOUS
10
201.896
20
-61.885
11
201.939
21
-61.8098
0
LINE
8
BLACK
6
CONTINUOUS
10
201.939
20
-61.8098
11
202.006
21
-61.754
0
LINE
8
BLACK
6
CONTINUOUS
10
202.006
20
-61.754
11
202.131
21
-61.7205
0
LINE
8
BLACK
6
CONTINUOUS
10
202.131
20
-61.7205
11
202.206
21
-61.7205
0
LINE
8
BLACK
6
CONTINUOUS
10
202.206
20
-61.7205
11
202.206
21
-59.6915
0
LINE
8
BLACK
6
CONTINUOUS
10
202.206
20
-59.6915
11
202.122
21
-59.6915
0
LINE
8
BLACK
6
CONTINUOUS
10
202.122
20
-59.6915
11
202.036
21
-59.6764
0
LINE
8
BLACK
6
CONTINUOUS
10
202.036
20
-59.6764
11
201.961
21
-59.633
0
LINE
8
BLACK
6
CONTINUOUS
10
201.961
20
-59.633
11
201.905
21
-59.5665
0
LINE
8
BLACK
6
CONTINUOUS
10
201.905
20
-59.5665
11
201.872
21
-59.4415
0
LINE
8
BLACK
6
CONTINUOUS
10
201.872
20
-59.4415
11
201.872
21
-58.5415
0
LINE
8
BLACK
6
CONTINUOUS
10
201.872
20
-58.5415
11
201.887
21
-58.456
0
LINE
8
BLACK
6
CONTINUOUS
10
201.887
20
-58.456
11
201.93
21
-58.3808
0
LINE
8
BLACK
6
CONTINUOUS
10
201.93
20
-58.3808
11
201.997
21
-58.325
0
LINE
8
BLACK
6
CONTINUOUS
10
201.997
20
-58.325
11
202.122
21
-58.2915
0
LINE
8
BLACK
6
CONTINUOUS
10
202.122
20
-58.2915
11
202.772
21
-58.2915
0
LINE
8
BLACK
6
CONTINUOUS
10
202.772
20
-58.2915
11
202.858
21
-58.3066
0
LINE
8
BLACK
6
CONTINUOUS
10
195.392
20
-51.2515
11
193.892
21
-51.2515
0
LINE
8
BLACK
6
CONTINUOUS
10
193.892
20
-51.2515
11
193.892
21
-51.7406
0
LINE
8
BLACK
6
CONTINUOUS
10
193.892
20
-51.7406
11
193.895
21
-51.7736
0
LINE
8
BLACK
6
CONTINUOUS
10
193.895
20
-51.7736
11
193.886
21
-51.8057
0
LINE
8
BLACK
6
CONTINUOUS
10
193.886
20
-51.8057
11
193.881
21
-51.8383
0
LINE
8
BLACK
6
CONTINUOUS
10
193.881
20
-51.8383
11
193.875
21
-51.848
0
LINE
8
BLACK
6
CONTINUOUS
10
193.875
20
-51.848
11
193.872
21
-51.8588
0
LINE
8
BLACK
6
CONTINUOUS
10
193.872
20
-51.8588
11
193.853
21
-51.886
0
LINE
8
BLACK
6
CONTINUOUS
10
193.853
20
-51.886
11
193.836
21
-51.9147
0
LINE
8
BLACK
6
CONTINUOUS
10
193.836
20
-51.9147
11
193.811
21
-51.936
0
LINE
8
BLACK
6
CONTINUOUS
10
193.811
20
-51.936
11
192.02
21
-53.7271
0
LINE
8
BLACK
6
CONTINUOUS
10
192.02
20
-53.7271
11
192.02
21
-58.3164
0
LINE
8
BLACK
6
CONTINUOUS
10
192.02
20
-58.3164
11
192.191
21
-58.4875
0
LINE
8
BLACK
6
CONTINUOUS
10
192.191
20
-58.4875
11
194.49
21
-58.4875
0
LINE
8
BLACK
6
CONTINUOUS
10
194.49
20
-58.4875
11
194.523
21
-58.4846
0
LINE
8
BLACK
6
CONTINUOUS
10
194.523
20
-58.4846
11
194.555
21
-58.4932
0
LINE
8
BLACK
6
CONTINUOUS
10
194.555
20
-58.4932
11
194.587
21
-58.499
0
LINE
8
BLACK
6
CONTINUOUS
10
194.587
20
-58.499
11
194.597
21
-58.5045
0
LINE
8
BLACK
6
CONTINUOUS
10
194.597
20
-58.5045
11
194.608
21
-58.5074
0
LINE
8
BLACK
6
CONTINUOUS
10
194.608
20
-58.5074
11
194.635
21
-58.5264
0
LINE
8
BLACK
6
CONTINUOUS
10
194.635
20
-58.5264
11
194.664
21
-58.543
0
LINE
8
BLACK
6
CONTINUOUS
10
194.664
20
-58.543
11
194.685
21
-58.5684
0
LINE
8
BLACK
6
CONTINUOUS
10
194.685
20
-58.5684
11
195.811
21
-59.694
0
LINE
8
BLACK
6
CONTINUOUS
10
195.811
20
-59.694
11
195.922
21
-59.694
0
LINE
8
BLACK
6
CONTINUOUS
10
195.922
20
-59.694
11
195.955
21
-59.6911
0
LINE
8
BLACK
6
CONTINUOUS
10
195.955
20
-59.6911
11
195.987
21
-59.6997
0
LINE
8
BLACK
6
CONTINUOUS
10
195.987
20
-59.6997
11
196.019
21
-59.7055
0
LINE
8
BLACK
6
CONTINUOUS
10
196.019
20
-59.7055
11
196.029
21
-59.711
0
LINE
8
BLACK
6
CONTINUOUS
10
196.029
20
-59.711
11
196.04
21
-59.7139
0
LINE
8
BLACK
6
CONTINUOUS
10
196.04
20
-59.7139
11
196.067
21
-59.7329
0
LINE
8
BLACK
6
CONTINUOUS
10
196.067
20
-59.7329
11
196.096
21
-59.7495
0
LINE
8
BLACK
6
CONTINUOUS
10
196.096
20
-59.7495
11
196.117
21
-59.7749
0
LINE
8
BLACK
6
CONTINUOUS
10
196.117
20
-59.7749
11
197.42
21
-61.078
0
LINE
8
BLACK
6
CONTINUOUS
10
197.42
20
-61.078
11
198.566
21
-61.078
0
LINE
8
BLACK
6
CONTINUOUS
10
198.566
20
-61.078
11
198.566
21
-63.078
0
LINE
8
BLACK
6
CONTINUOUS
10
198.566
20
-63.078
11
197.066
21
-63.078
0
LINE
8
BLACK
6
CONTINUOUS
10
197.066
20
-63.078
11
197.066
21
-61.4316
0
LINE
8
BLACK
6
CONTINUOUS
10
197.066
20
-61.4316
11
195.829
21
-60.194
0
LINE
8
BLACK
6
CONTINUOUS
10
195.829
20
-60.194
11
195.718
21
-60.194
0
LINE
8
BLACK
6
CONTINUOUS
10
195.718
20
-60.194
11
195.685
21
-60.1969
0
LINE
8
BLACK
6
CONTINUOUS
10
195.685
20
-60.1969
11
195.653
21
-60.1883
0
LINE
8
BLACK
6
CONTINUOUS
10
195.653
20
-60.1883
11
195.62
21
-60.1825
0
LINE
8
BLACK
6
CONTINUOUS
10
195.62
20
-60.1825
11
195.611
21
-60.177
0
LINE
8
BLACK
6
CONTINUOUS
10
195.611
20
-60.177
11
195.6
21
-60.1741
0
LINE
8
BLACK
6
CONTINUOUS
10
195.6
20
-60.1741
11
195.573
21
-60.155
0
LINE
8
BLACK
6
CONTINUOUS
10
195.573
20
-60.155
11
195.544
21
-60.1385
0
LINE
8
BLACK
6
CONTINUOUS
10
195.544
20
-60.1385
11
195.523
21
-60.1131
0
LINE
8
BLACK
6
CONTINUOUS
10
195.523
20
-60.1131
11
194.397
21
-58.9875
0
LINE
8
BLACK
6
CONTINUOUS
10
194.397
20
-58.9875
11
192.098
21
-58.9875
0
LINE
8
BLACK
6
CONTINUOUS
10
192.098
20
-58.9875
11
192.065
21
-58.9904
0
LINE
8
BLACK
6
CONTINUOUS
10
192.065
20
-58.9904
11
192.033
21
-58.9818
0
LINE
8
BLACK
6
CONTINUOUS
10
192.033
20
-58.9818
11
192.001
21
-58.976
0
LINE
8
BLACK
6
CONTINUOUS
10
192.001
20
-58.976
11
191.991
21
-58.9705
0
LINE
8
BLACK
6
CONTINUOUS
10
191.991
20
-58.9705
11
191.98
21
-58.9676
0
LINE
8
BLACK
6
CONTINUOUS
10
191.98
20
-58.9676
11
191.953
21
-58.9485
0
LINE
8
BLACK
6
CONTINUOUS
10
191.953
20
-58.9485
11
191.924
21
-58.932
0
LINE
8
BLACK
6
CONTINUOUS
10
191.924
20
-58.932
11
191.903
21
-58.9066
0
LINE
8
BLACK
6
CONTINUOUS
10
191.903
20
-58.9066
11
191.601
21
-58.6045
0
LINE
8
BLACK
6
CONTINUOUS
10
191.601
20
-58.6045
11
191.576
21
-58.5832
0
LINE
8
BLACK
6
CONTINUOUS
10
191.576
20
-58.5832
11
191.559
21
-58.5545
0
LINE
8
BLACK
6
CONTINUOUS
10
191.559
20
-58.5545
11
191.54
21
-58.5273
0
LINE
8
BLACK
6
CONTINUOUS
10
191.54
20
-58.5273
11
191.537
21
-58.5165
0
LINE
8
BLACK
6
CONTINUOUS
10
191.537
20
-58.5165
11
191.531
21
-58.5068
0
LINE
8
BLACK
6
CONTINUOUS
10
191.531
20
-58.5068
11
191.526
21
-58.4742
0
LINE
8
BLACK
6
CONTINUOUS
10
191.526
20
-58.4742
11
191.517
21
-58.4421
0
LINE
8
BLACK
6
CONTINUOUS
10
191.517
20
-58.4421
11
191.52
21
-58.4091
0
LINE
8
BLACK
6
CONTINUOUS
10
191.52
20
-58.4091
11
191.52
21
-53.6344
0
LINE
8
BLACK
6
CONTINUOUS
10
191.52
20
-53.6344
11
191.517
21
-53.6014
0
LINE
8
BLACK
6
CONTINUOUS
10
191.517
20
-53.6014
11
191.526
21
-53.5693
0
LINE
8
BLACK
6
CONTINUOUS
10
191.526
20
-53.5693
11
191.531
21
-53.5367
0
LINE
8
BLACK
6
CONTINUOUS
10
191.531
20
-53.5367
11
191.537
21
-53.527
0
LINE
8
BLACK
6
CONTINUOUS
10
191.537
20
-53.527
11
191.54
21
-53.5162
0
LINE
8
BLACK
6
CONTINUOUS
10
191.54
20
-53.5162
11
191.559
21
-53.489
0
LINE
8
BLACK
6
CONTINUOUS
10
191.559
20
-53.489
11
191.576
21
-53.4603
0
LINE
8
BLACK
6
CONTINUOUS
10
191.576
20
-53.4603
11
191.601
21
-53.439
0
LINE
8
BLACK
6
CONTINUOUS
10
191.601
20
-53.439
11
193.392
21
-51.6479
0
LINE
8
BLACK
6
CONTINUOUS
10
193.392
20
-51.6479
11
193.392
21
-51.2515
0
LINE
8
BLACK
6
CONTINUOUS
10
193.392
20
-51.2515
11
191.892
21
-51.2515
0
LINE
8
BLACK
6
CONTINUOUS
10
191.892
20
-51.2515
11
191.892
21
-48.9515
0
LINE
8
BLACK
6
CONTINUOUS
10
191.892
20
-48.9515
11
195.392
21
-48.9515
0
LINE
8
BLACK
6
CONTINUOUS
10
195.392
20
-48.9515
11
195.392
21
-51.2515
0
LINE
8
BLACK
6
CONTINUOUS
10
203.108
20
-52.4023
11
203.307
21
-52.5169
0
LINE
8
BLACK
6
CONTINUOUS
10
203.307
20
-52.5169
11
203.454
21
-52.6925
0
LINE
8
BLACK
6
CONTINUOUS
10
203.454
20
-52.6925
11
203.532
21
-52.9079
0
LINE
8
BLACK
6
CONTINUOUS
10
203.532
20
-52.9079
11
203.532
21
-53.1371
0
LINE
8
BLACK
6
CONTINUOUS
10
203.532
20
-53.1371
11
203.465
21
-53.3223
0
LINE
8
BLACK
6
CONTINUOUS
10
203.465
20
-53.3223
11
205.24
21
-55.0974
0
LINE
8
BLACK
6
CONTINUOUS
10
205.24
20
-55.0974
11
205.261
21
-55.1145
0
LINE
8
BLACK
6
CONTINUOUS
10
205.261
20
-55.1145
11
205.274
21
-55.1374
0
LINE
8
BLACK
6
CONTINUOUS
10
205.274
20
-55.1374
11
205.289
21
-55.1592
0
LINE
8
BLACK
6
CONTINUOUS
10
205.289
20
-55.1592
11
205.291
21
-55.1678
0
LINE
8
BLACK
6
CONTINUOUS
10
205.291
20
-55.1678
11
205.296
21
-55.1755
0
LINE
8
BLACK
6
CONTINUOUS
10
205.296
20
-55.1755
11
205.3
21
-55.2017
0
LINE
8
BLACK
6
CONTINUOUS
10
205.3
20
-55.2017
11
205.307
21
-55.2273
0
LINE
8
BLACK
6
CONTINUOUS
10
205.307
20
-55.2273
11
205.305
21
-55.2537
0
LINE
8
BLACK
6
CONTINUOUS
10
205.305
20
-55.2537
11
205.305
21
-59.9247
0
LINE
8
BLACK
6
CONTINUOUS
10
205.305
20
-59.9247
11
206.821
21
-61.4407
0
LINE
8
BLACK
6
CONTINUOUS
10
206.821
20
-61.4407
11
206.969
21
-61.3554
0
LINE
8
BLACK
6
CONTINUOUS
10
206.969
20
-61.3554
11
207.19
21
-61.3165
0
LINE
8
BLACK
6
CONTINUOUS
10
207.19
20
-61.3165
11
207.338
21
-61.3165
0
LINE
8
BLACK
6
CONTINUOUS
10
207.338
20
-61.3165
11
207.559
21
-61.3554
0
LINE
8
BLACK
6
CONTINUOUS
10
207.559
20
-61.3554
11
207.819
21
-61.5053
0
LINE
8
BLACK
6
CONTINUOUS
10
207.819
20
-61.5053
11
208.011
21
-61.7349
0
LINE
8
BLACK
6
CONTINUOUS
10
208.011
20
-61.7349
11
208.114
21
-62.0166
0
LINE
8
BLACK
6
CONTINUOUS
10
208.114
20
-62.0166
11
208.114
21
-62.3164
0
LINE
8
BLACK
6
CONTINUOUS
10
208.114
20
-62.3164
11
208.011
21
-62.5981
0
LINE
8
BLACK
6
CONTINUOUS
10
208.011
20
-62.5981
11
207.819
21
-62.8277
0
LINE
8
BLACK
6
CONTINUOUS
10
207.819
20
-62.8277
11
207.559
21
-62.9776
0
LINE
8
BLACK
6
CONTINUOUS
10
207.559
20
-62.9776
11
207.338
21
-63.0165
0
LINE
8
BLACK
6
CONTINUOUS
10
207.338
20
-63.0165
11
207.19
21
-63.0165
0
LINE
8
BLACK
6
CONTINUOUS
10
207.19
20
-63.0165
11
206.969
21
-62.9776
0
LINE
8
BLACK
6
CONTINUOUS
10
206.969
20
-62.9776
11
206.709
21
-62.8277
0
LINE
8
BLACK
6
CONTINUOUS
10
206.709
20
-62.8277
11
206.517
21
-62.5981
0
LINE
8
BLACK
6
CONTINUOUS
10
206.517
20
-62.5981
11
206.414
21
-62.3164
0
LINE
8
BLACK
6
CONTINUOUS
10
206.414
20
-62.3164
11
206.414
21
-62.0166
0
LINE
8
BLACK
6
CONTINUOUS
10
206.414
20
-62.0166
11
206.517
21
-61.7349
0
LINE
8
BLACK
6
CONTINUOUS
10
206.517
20
-61.7349
11
206.532
21
-61.717
0
LINE
8
BLACK
6
CONTINUOUS
10
206.532
20
-61.717
11
204.97
21
-60.1551
0
LINE
8
BLACK
6
CONTINUOUS
10
204.97
20
-60.1551
11
204.949
21
-60.138
0
LINE
8
BLACK
6
CONTINUOUS
10
204.949
20
-60.138
11
204.936
21
-60.1151
0
LINE
8
BLACK
6
CONTINUOUS
10
204.936
20
-60.1151
11
204.921
21
-60.0933
0
LINE
8
BLACK
6
CONTINUOUS
10
204.921
20
-60.0933
11
204.919
21
-60.0847
0
LINE
8
BLACK
6
CONTINUOUS
10
204.919
20
-60.0847
11
204.914
21
-60.077
0
LINE
8
BLACK
6
CONTINUOUS
10
204.914
20
-60.077
11
204.91
21
-60.0508
0
LINE
8
BLACK
6
CONTINUOUS
10
204.91
20
-60.0508
11
204.903
21
-60.0252
0
LINE
8
BLACK
6
CONTINUOUS
10
204.903
20
-60.0252
11
204.905
21
-59.9988
0
LINE
8
BLACK
6
CONTINUOUS
10
204.905
20
-59.9988
11
204.905
21
-55.3278
0
LINE
8
BLACK
6
CONTINUOUS
10
204.905
20
-55.3278
11
203.179
21
-53.6019
0
LINE
8
BLACK
6
CONTINUOUS
10
203.179
20
-53.6019
11
203.108
21
-53.6427
0
LINE
8
BLACK
6
CONTINUOUS
10
203.108
20
-53.6427
11
202.882
21
-53.6825
0
LINE
8
BLACK
6
CONTINUOUS
10
202.882
20
-53.6825
11
202.657
21
-53.6427
0
LINE
8
BLACK
6
CONTINUOUS
10
202.657
20
-53.6427
11
202.458
21
-53.5281
0
LINE
8
BLACK
6
CONTINUOUS
10
202.458
20
-53.5281
11
202.311
21
-53.3525
0
LINE
8
BLACK
6
CONTINUOUS
10
202.311
20
-53.3525
11
202.232
21
-53.1371
0
LINE
8
BLACK
6
CONTINUOUS
10
202.232
20
-53.1371
11
202.232
21
-52.9079
0
LINE
8
BLACK
6
CONTINUOUS
10
202.232
20
-52.9079
11
202.311
21
-52.6925
0
LINE
8
BLACK
6
CONTINUOUS
10
202.311
20
-52.6925
11
202.458
21
-52.5169
0
LINE
8
BLACK
6
CONTINUOUS
10
202.458
20
-52.5169
11
202.657
21
-52.4023
0
LINE
8
BLACK
6
CONTINUOUS
10
202.657
20
-52.4023
11
202.882
21
-52.3625
0
LINE
8
BLACK
6
CONTINUOUS
10
202.882
20
-52.3625
11
203.108
21
-52.4023
0
LINE
8
BLACK
6
CONTINUOUS
10
207.559
20
-58.8154
11
207.819
21
-58.9653
0
LINE
8
BLACK
6
CONTINUOUS
10
207.819
20
-58.9653
11
208.011
21
-59.1949
0
LINE
8
BLACK
6
CONTINUOUS
10
208.011
20
-59.1949
11
208.114
21
-59.4766
0
LINE
8
BLACK
6
CONTINUOUS
10
208.114
20
-59.4766
11
208.114
21
-59.7764
0
LINE
8
BLACK
6
CONTINUOUS
10
208.114
20
-59.7764
11
208.011
21
-60.0581
0
LINE
8
BLACK
6
CONTINUOUS
10
208.011
20
-60.0581
11
207.819
21
-60.2877
0
LINE
8
BLACK
6
CONTINUOUS
10
207.819
20
-60.2877
11
207.559
21
-60.4376
0
LINE
8
BLACK
6
CONTINUOUS
10
207.559
20
-60.4376
11
207.338
21
-60.4765
0
LINE
8
BLACK
6
CONTINUOUS
10
207.338
20
-60.4765
11
207.19
21
-60.4765
0
LINE
8
BLACK
6
CONTINUOUS
10
207.19
20
-60.4765
11
206.969
21
-60.4376
0
LINE
8
BLACK
6
CONTINUOUS
10
206.969
20
-60.4376
11
206.709
21
-60.2877
0
LINE
8
BLACK
6
CONTINUOUS
10
206.709
20
-60.2877
11
206.517
21
-60.0581
0
LINE
8
BLACK
6
CONTINUOUS
10
206.517
20
-60.0581
11
206.414
21
-59.7764
0
LINE
8
BLACK
6
CONTINUOUS
10
206.414
20
-59.7764
11
206.414
21
-59.4766
0
LINE
8
BLACK
6
CONTINUOUS
10
206.414
20
-59.4766
11
206.517
21
-59.1949
0
LINE
8
BLACK
6
CONTINUOUS
10
206.517
20
-59.1949
11
206.709
21
-58.9653
0
LINE
8
BLACK
6
CONTINUOUS
10
206.709
20
-58.9653
11
206.969
21
-58.8154
0
LINE
8
BLACK
6
CONTINUOUS
10
206.969
20
-58.8154
11
207.19
21
-58.7765
0
LINE
8
BLACK
6
CONTINUOUS
10
207.19
20
-58.7765
11
207.338
21
-58.7765
0
LINE
8
BLACK
6
CONTINUOUS
10
207.338
20
-58.7765
11
207.559
21
-58.8154
0
LINE
8
BLACK
6
CONTINUOUS
10
208.114
20
-57.9365
11
206.414
21
-57.9365
0
LINE
8
BLACK
6
CONTINUOUS
10
206.414
20
-57.9365
11
206.414
21
-56.2365
0
LINE
8
BLACK
6
CONTINUOUS
10
206.414
20
-56.2365
11
208.114
21
-56.2365
0
LINE
8
BLACK
6
CONTINUOUS
10
208.114
20
-56.2365
11
208.114
21
-57.9365
0
LINE
8
BLACK
6
CONTINUOUS
10
197.416
20
-56.778
11
193.617
21
-56.778
0
LINE
8
BLACK
6
CONTINUOUS
10
193.617
20
-56.778
11
193.617
21
-54.778
0
LINE
8
BLACK
6
CONTINUOUS
10
193.617
20
-54.778
11
197.416
21
-54.778
0
LINE
8
BLACK
6
CONTINUOUS
10
197.416
20
-54.778
11
197.416
21
-56.778
0
LINE
8
BLACK
6
CONTINUOUS
10
179.35
20
-49.3389
11
179.685
21
-49.5329
0
LINE
8
BLACK
6
CONTINUOUS
10
179.685
20
-49.5329
11
179.935
21
-49.83
0
LINE
8
BLACK
6
CONTINUOUS
10
179.935
20
-49.83
11
180.067
21
-50.1945
0
LINE
8
BLACK
6
CONTINUOUS
10
180.067
20
-50.1945
11
180.067
21
-50.5825
0
LINE
8
BLACK
6
CONTINUOUS
10
180.067
20
-50.5825
11
179.935
21
-50.947
0
LINE
8
BLACK
6
CONTINUOUS
10
179.935
20
-50.947
11
179.685
21
-51.2441
0
LINE
8
BLACK
6
CONTINUOUS
10
179.685
20
-51.2441
11
179.35
21
-51.4381
0
LINE
8
BLACK
6
CONTINUOUS
10
179.35
20
-51.4381
11
178.968
21
-51.5055
0
LINE
8
BLACK
6
CONTINUOUS
10
178.968
20
-51.5055
11
178.585
21
-51.4381
0
LINE
8
BLACK
6
CONTINUOUS
10
178.585
20
-51.4381
11
178.25
21
-51.2441
0
LINE
8
BLACK
6
CONTINUOUS
10
178.25
20
-51.2441
11
178
21
-50.947
0
LINE
8
BLACK
6
CONTINUOUS
10
178
20
-50.947
11
177.867
21
-50.5825
0
LINE
8
BLACK
6
CONTINUOUS
10
177.867
20
-50.5825
11
177.867
21
-50.1945
0
LINE
8
BLACK
6
CONTINUOUS
10
177.867
20
-50.1945
11
178
21
-49.83
0
LINE
8
BLACK
6
CONTINUOUS
10
178
20
-49.83
11
178.25
21
-49.5329
0
LINE
8
BLACK
6
CONTINUOUS
10
178.25
20
-49.5329
11
178.585
21
-49.3389
0
LINE
8
BLACK
6
CONTINUOUS
10
178.585
20
-49.3389
11
178.968
21
-49.2715
0
LINE
8
BLACK
6
CONTINUOUS
10
178.968
20
-49.2715
11
179.35
21
-49.3389
0
LINE
8
BLACK
6
CONTINUOUS
10
190.35
20
-49.3389
11
190.685
21
-49.5329
0
LINE
8
BLACK
6
CONTINUOUS
10
190.685
20
-49.5329
11
190.935
21
-49.83
0
LINE
8
BLACK
6
CONTINUOUS
10
190.935
20
-49.83
11
191.067
21
-50.1945
0
LINE
8
BLACK
6
CONTINUOUS
10
191.067
20
-50.1945
11
191.067
21
-50.5825
0
LINE
8
BLACK
6
CONTINUOUS
10
191.067
20
-50.5825
11
190.935
21
-50.947
0
LINE
8
BLACK
6
CONTINUOUS
10
190.935
20
-50.947
11
190.685
21
-51.2441
0
LINE
8
BLACK
6
CONTINUOUS
10
190.685
20
-51.2441
11
190.35
21
-51.4381
0
LINE
8
BLACK
6
CONTINUOUS
10
190.35
20
-51.4381
11
189.968
21
-51.5055
0
LINE
8
BLACK
6
CONTINUOUS
10
189.968
20
-51.5055
11
189.585
21
-51.4381
0
LINE
8
BLACK
6
CONTINUOUS
10
189.585
20
-51.4381
11
189.25
21
-51.2441
0
LINE
8
BLACK
6
CONTINUOUS
10
189.25
20
-51.2441
11
189
21
-50.947
0
LINE
8
BLACK
6
CONTINUOUS
10
189
20
-50.947
11
188.867
21
-50.5825
0
LINE
8
BLACK
6
CONTINUOUS
10
188.867
20
-50.5825
11
188.867
21
-50.1945
0
LINE
8
BLACK
6
CONTINUOUS
10
188.867
20
-50.1945
11
189
21
-49.83
0
LINE
8
BLACK
6
CONTINUOUS
10
189
20
-49.83
11
189.25
21
-49.5329
0
LINE
8
BLACK
6
CONTINUOUS
10
189.25
20
-49.5329
11
189.585
21
-49.3389
0
LINE
8
BLACK
6
CONTINUOUS
10
189.585
20
-49.3389
11
189.968
21
-49.2715
0
LINE
8
BLACK
6
CONTINUOUS
10
189.968
20
-49.2715
11
190.35
21
-49.3389
0
CIRCLE
8
BLACK
10
181.968
20
-60.3885
40
0.95
0
CIRCLE
8
BLACK
10
186.968
20
-60.3885
40
0.95
0
CIRCLE
8
BLACK
10
189.968
20
-50.3885
40
0.6
0
CIRCLE
8
BLACK
10
178.968
20
-50.3885
40
0.6
0
CIRCLE
8
BLACK
10
180.517
20
-60.3885
40
0.2
0
CIRCLE
8
BLACK
10
180.942
20
-61.4135
40
0.2
0
CIRCLE
8
BLACK
10
181.968
20
-61.8385
40
0.2
0
CIRCLE
8
BLACK
10
183.417
20
-60.3885
40
0.2
0
CIRCLE
8
BLACK
10
182.992
20
-61.4135
40
0.2
0
CIRCLE
8
BLACK
10
182.992
20
-59.3635
40
0.2
0
CIRCLE
8
BLACK
10
181.968
20
-58.9385
40
0.2
0
CIRCLE
8
BLACK
10
180.942
20
-59.3635
40
0.2
0
CIRCLE
8
BLACK
10
188.417
20
-60.3885
40
0.2
0
CIRCLE
8
BLACK
10
187.992
20
-61.4135
40
0.2
0
CIRCLE
8
BLACK
10
186.968
20
-61.8385
40
0.2
0
CIRCLE
8
BLACK
10
185.942
20
-61.4135
40
0.2
0
CIRCLE
8
BLACK
10
185.517
20
-60.3885
40
0.2
0
CIRCLE
8
BLACK
10
185.942
20
-59.3635
40
0.2
0
CIRCLE
8
BLACK
10
186.968
20
-58.9385
40
0.2
0
CIRCLE
8
BLACK
10
187.992
20
-59.3635
40
0.2
0
CIRCLE
8
BLACK
10
208.089
20
-81.534
40
0.3
0
CIRCLE
8
BLACK
10
208.089
20
-86.434
40
0.3
0
CIRCLE
8
BLACK
10
179.959
20
-81.2165
40
0.5
0
CIRCLE
8
BLACK
10
179.959
20
-78.6765
40
0.5
0
CIRCLE
8
BLACK
10
179.959
20
-76.1365
40
0.5
0
CIRCLE
8
BLACK
10
179.959
20
-73.5965
40
0.5
0
CIRCLE
8
BLACK
10
179.959
20
-71.0565
40
0.5
0
CIRCLE
8
BLACK
10
179.959
20
-68.5165
40
0.5
0
CIRCLE
8
BLACK
10
179.959
20
-65.9765
40
0.5
0
CIRCLE
8
BLACK
10
207.264
20
-57.0865
40
0.5
0
CIRCLE
8
BLACK
10
209.804
20
-57.0865
40
0.5
0
CIRCLE
8
BLACK
10
207.264
20
-59.6265
40
0.5
0
CIRCLE
8
BLACK
10
209.804
20
-59.6265
40
0.5
0
CIRCLE
8
BLACK
10
207.264
20
-62.1665
40
0.5
0
CIRCLE
8
BLACK
10
209.804
20
-62.1665
40
0.5
0
CIRCLE
8
BLACK
10
201.739
20
-74.9935
40
0.5
0
CIRCLE
8
BLACK
10
201.739
20
-72.4535
40
0.5
0
CIRCLE
8
BLACK
10
201.739
20
-69.9135
40
0.5
0
CIRCLE
8
BLACK
10
201.739
20
-67.3735
40
0.5
0
CIRCLE
8
BLACK
10
209.931
20
-67.2465
40
0.5
0
CIRCLE
8
BLACK
10
209.931
20
-69.7865
40
0.5
0
CIRCLE
8
BLACK
10
209.931
20
-72.3265
40
0.5
0
CIRCLE
8
BLACK
10
209.931
20
-74.8665
40
0.5
0
CIRCLE
8
BLACK
10
185.039
20
-90.424
40
0.5
0
CIRCLE
8
BLACK
10
182.499
20
-90.424
40
0.5
0
CIRCLE
8
BLACK
10
179.959
20
-90.424
40
0.5
0
CIRCLE
8
BLACK
10
190.436
20
-90.424
40
0.5
0
CIRCLE
8
BLACK
10
192.976
20
-90.424
40
0.5
0
CIRCLE
8
BLACK
10
195.516
20
-90.424
40
0.5
0
CIRCLE
8
BLACK
10
196.532
20
-80.3275
40
0.45
0
CIRCLE
8
BLACK
10
183.832
20
-79.5655
40
0.45
0
CIRCLE
8
BLACK
10
194.31
20
-79.8195
40
0.45
0
CIRCLE
8
BLACK
10
198.564
20
-77.089
40
0.45
0
CIRCLE
8
BLACK
10
183.617
20
-66.1496
40
0.45
0
CIRCLE
8
BLACK
10
183.753
20
-67.6434
40
0.45
0
CIRCLE
8
BLACK
10
192.151
20
-64.516
40
0.45
0
CIRCLE
8
BLACK
10
202.882
20
-53.0225
40
0.45
0
CIRCLE
8
BLACK
10
197.993
20
-68.834
40
0.45
0
CIRCLE
8
BLACK
10
204.025
20
-70.358
40
0.45
0
CIRCLE
8
BLACK
10
207.391
20
-74.4855
40
0.45
0
CIRCLE
8
BLACK
10
207.454
20
-66.2735
40
0.45
0
CIRCLE
8
BLACK
10
183.134
20
-70.231
40
0.45
  0
ENDSEC
  0
EOF
