G04 #@! TF.GenerationSoftware,KiCad,Pcbnew,5.0.2-bee76a0~70~ubuntu16.04.1*
G04 #@! TF.CreationDate,2019-07-23T17:30:48+02:00*
G04 #@! TF.ProjectId,ATtiny_3.0,41547469-6e79-45f3-932e-302e6b696361,rev?*
G04 #@! TF.SameCoordinates,Original*
G04 #@! TF.FileFunction,Copper,L2,Bot*
G04 #@! TF.FilePolarity,Positive*
%FSLAX46Y46*%
G04 Gerber Fmt 4.6, Leading zero omitted, Abs format (unit mm)*
G04 Created by KiCad (PCBNEW 5.0.2-bee76a0~70~ubuntu16.04.1) date mar 23 jul 2019 17:30:48 CEST*
%MOMM*%
%LPD*%
G01*
G04 APERTURE LIST*
G04 #@! TA.AperFunction,ComponentPad*
%ADD10R,1.700000X1.700000*%
G04 #@! TD*
G04 #@! TA.AperFunction,ComponentPad*
%ADD11O,1.700000X1.700000*%
G04 #@! TD*
G04 #@! TA.AperFunction,ComponentPad*
%ADD12C,3.900000*%
G04 #@! TD*
G04 #@! TA.AperFunction,ComponentPad*
%ADD13C,2.200000*%
G04 #@! TD*
G04 #@! TA.AperFunction,ComponentPad*
%ADD14C,0.600000*%
G04 #@! TD*
G04 #@! TA.AperFunction,ComponentPad*
%ADD15C,2.000000*%
G04 #@! TD*
G04 #@! TA.AperFunction,ComponentPad*
%ADD16O,1.740000X2.200000*%
G04 #@! TD*
G04 #@! TA.AperFunction,Conductor*
%ADD17C,0.100000*%
G04 #@! TD*
G04 #@! TA.AperFunction,ComponentPad*
%ADD18C,1.740000*%
G04 #@! TD*
G04 #@! TA.AperFunction,ComponentPad*
%ADD19O,2.200000X1.740000*%
G04 #@! TD*
G04 #@! TA.AperFunction,ViaPad*
%ADD20C,0.800000*%
G04 #@! TD*
G04 #@! TA.AperFunction,Conductor*
%ADD21C,0.700000*%
G04 #@! TD*
G04 #@! TA.AperFunction,Conductor*
%ADD22C,0.500000*%
G04 #@! TD*
G04 APERTURE END LIST*
D10*
G04 #@! TO.P,ICSP,1*
G04 #@! TO.N,MISO*
X130810000Y-49530000D03*
D11*
G04 #@! TO.P,ICSP,2*
G04 #@! TO.N,+5V*
X133350000Y-49530000D03*
G04 #@! TO.P,ICSP,3*
G04 #@! TO.N,SCK-SCL*
X130810000Y-52070000D03*
G04 #@! TO.P,ICSP,4*
G04 #@! TO.N,MOSI-SDA*
X133350000Y-52070000D03*
G04 #@! TO.P,ICSP,5*
G04 #@! TO.N,RESET*
X130810000Y-54610000D03*
G04 #@! TO.P,ICSP,6*
G04 #@! TO.N,Earth*
X133350000Y-54610000D03*
G04 #@! TD*
D12*
G04 #@! TO.P, ,2*
G04 #@! TO.N,VPP*
X103608000Y-44894500D03*
G04 #@! TO.P, ,1*
G04 #@! TO.N,Earth*
X108608000Y-44894500D03*
D13*
G04 #@! TO.P, ,*
G04 #@! TO.N,*
X111608000Y-34894500D03*
X100608000Y-34894500D03*
D14*
X102158000Y-44894500D03*
X102583000Y-45919500D03*
X103608000Y-46344500D03*
X105058000Y-44894500D03*
X104633000Y-45919500D03*
X104633000Y-43869500D03*
X103608000Y-43444500D03*
X102583000Y-43869500D03*
X110058000Y-44894500D03*
X109633000Y-45919500D03*
X108608000Y-46344500D03*
X107583000Y-45919500D03*
X107158000Y-44894500D03*
X107583000Y-43869500D03*
X108608000Y-43444500D03*
X109633000Y-43869500D03*
G04 #@! TD*
D11*
G04 #@! TO.P, ,2*
G04 #@! TO.N,DIRECTION2*
X130620000Y-76073000D03*
D10*
G04 #@! TO.P, ,1*
G04 #@! TO.N,DIRECTION1*
X130620000Y-73533000D03*
G04 #@! TD*
G04 #@! TO.P, ,1*
G04 #@! TO.N,+5V*
X133223000Y-73533000D03*
D11*
G04 #@! TO.P, ,2*
X133223000Y-76073000D03*
G04 #@! TD*
D10*
G04 #@! TO.P, ,1*
G04 #@! TO.N,+5V*
X99000000Y-89500000D03*
D11*
G04 #@! TO.P, ,2*
G04 #@! TO.N,Earth*
X99000000Y-86960000D03*
G04 #@! TO.P, ,3*
G04 #@! TO.N,ENABLE*
X99000000Y-84420000D03*
G04 #@! TO.P, ,4*
G04 #@! TO.N,CS*
X99000000Y-81880000D03*
G04 #@! TO.P, ,5*
G04 #@! TO.N,INA*
X99000000Y-79340000D03*
G04 #@! TO.P, ,6*
G04 #@! TO.N,INB*
X99000000Y-76800000D03*
G04 #@! TO.P, ,7*
G04 #@! TO.N,PWM*
X99000000Y-74260000D03*
G04 #@! TD*
D15*
G04 #@! TO.P,CLK,1*
G04 #@! TO.N,Net-(C3-Pad2)*
X114681000Y-60000000D03*
G04 #@! TO.P,CLK,2*
G04 #@! TO.N,Net-(C4-Pad2)*
X114681000Y-64900000D03*
G04 #@! TD*
D16*
G04 #@! TO.P, ,4*
G04 #@! TO.N,Earth*
X136290000Y-60247109D03*
G04 #@! TO.P, ,3*
G04 #@! TO.N,SCK-SCL*
X133750000Y-60247109D03*
G04 #@! TO.P, ,2*
G04 #@! TO.N,MOSI-SDA*
X131210000Y-60247109D03*
D17*
G04 #@! TD*
G04 #@! TO.N,HANDSHAKE*
G04 #@! TO.C, *
G36*
X129314505Y-59148313D02*
X129338773Y-59151913D01*
X129362572Y-59157874D01*
X129385671Y-59166139D01*
X129407850Y-59176629D01*
X129428893Y-59189241D01*
X129448599Y-59203856D01*
X129466777Y-59220332D01*
X129483253Y-59238510D01*
X129497868Y-59258216D01*
X129510480Y-59279259D01*
X129520970Y-59301438D01*
X129529235Y-59324537D01*
X129535196Y-59348336D01*
X129538796Y-59372604D01*
X129540000Y-59397108D01*
X129540000Y-61097110D01*
X129538796Y-61121614D01*
X129535196Y-61145882D01*
X129529235Y-61169681D01*
X129520970Y-61192780D01*
X129510480Y-61214959D01*
X129497868Y-61236002D01*
X129483253Y-61255708D01*
X129466777Y-61273886D01*
X129448599Y-61290362D01*
X129428893Y-61304977D01*
X129407850Y-61317589D01*
X129385671Y-61328079D01*
X129362572Y-61336344D01*
X129338773Y-61342305D01*
X129314505Y-61345905D01*
X129290001Y-61347109D01*
X128049999Y-61347109D01*
X128025495Y-61345905D01*
X128001227Y-61342305D01*
X127977428Y-61336344D01*
X127954329Y-61328079D01*
X127932150Y-61317589D01*
X127911107Y-61304977D01*
X127891401Y-61290362D01*
X127873223Y-61273886D01*
X127856747Y-61255708D01*
X127842132Y-61236002D01*
X127829520Y-61214959D01*
X127819030Y-61192780D01*
X127810765Y-61169681D01*
X127804804Y-61145882D01*
X127801204Y-61121614D01*
X127800000Y-61097110D01*
X127800000Y-59397108D01*
X127801204Y-59372604D01*
X127804804Y-59348336D01*
X127810765Y-59324537D01*
X127819030Y-59301438D01*
X127829520Y-59279259D01*
X127842132Y-59258216D01*
X127856747Y-59238510D01*
X127873223Y-59220332D01*
X127891401Y-59203856D01*
X127911107Y-59189241D01*
X127932150Y-59176629D01*
X127954329Y-59166139D01*
X127977428Y-59157874D01*
X128001227Y-59151913D01*
X128025495Y-59148313D01*
X128049999Y-59147109D01*
X129290001Y-59147109D01*
X129314505Y-59148313D01*
X129314505Y-59148313D01*
G37*
D18*
G04 #@! TO.P, ,1*
G04 #@! TO.N,HANDSHAKE*
X128670000Y-60247109D03*
G04 #@! TD*
D17*
G04 #@! TO.N,HANDSHAKE*
G04 #@! TO.C, *
G36*
X129314505Y-66133313D02*
X129338773Y-66136913D01*
X129362572Y-66142874D01*
X129385671Y-66151139D01*
X129407850Y-66161629D01*
X129428893Y-66174241D01*
X129448599Y-66188856D01*
X129466777Y-66205332D01*
X129483253Y-66223510D01*
X129497868Y-66243216D01*
X129510480Y-66264259D01*
X129520970Y-66286438D01*
X129529235Y-66309537D01*
X129535196Y-66333336D01*
X129538796Y-66357604D01*
X129540000Y-66382108D01*
X129540000Y-68082110D01*
X129538796Y-68106614D01*
X129535196Y-68130882D01*
X129529235Y-68154681D01*
X129520970Y-68177780D01*
X129510480Y-68199959D01*
X129497868Y-68221002D01*
X129483253Y-68240708D01*
X129466777Y-68258886D01*
X129448599Y-68275362D01*
X129428893Y-68289977D01*
X129407850Y-68302589D01*
X129385671Y-68313079D01*
X129362572Y-68321344D01*
X129338773Y-68327305D01*
X129314505Y-68330905D01*
X129290001Y-68332109D01*
X128049999Y-68332109D01*
X128025495Y-68330905D01*
X128001227Y-68327305D01*
X127977428Y-68321344D01*
X127954329Y-68313079D01*
X127932150Y-68302589D01*
X127911107Y-68289977D01*
X127891401Y-68275362D01*
X127873223Y-68258886D01*
X127856747Y-68240708D01*
X127842132Y-68221002D01*
X127829520Y-68199959D01*
X127819030Y-68177780D01*
X127810765Y-68154681D01*
X127804804Y-68130882D01*
X127801204Y-68106614D01*
X127800000Y-68082110D01*
X127800000Y-66382108D01*
X127801204Y-66357604D01*
X127804804Y-66333336D01*
X127810765Y-66309537D01*
X127819030Y-66286438D01*
X127829520Y-66264259D01*
X127842132Y-66243216D01*
X127856747Y-66223510D01*
X127873223Y-66205332D01*
X127891401Y-66188856D01*
X127911107Y-66174241D01*
X127932150Y-66161629D01*
X127954329Y-66151139D01*
X127977428Y-66142874D01*
X128001227Y-66136913D01*
X128025495Y-66133313D01*
X128049999Y-66132109D01*
X129290001Y-66132109D01*
X129314505Y-66133313D01*
X129314505Y-66133313D01*
G37*
D18*
G04 #@! TD*
G04 #@! TO.P, ,1*
G04 #@! TO.N,HANDSHAKE*
X128670000Y-67232109D03*
D16*
G04 #@! TO.P, ,2*
G04 #@! TO.N,MOSI-SDA*
X131210000Y-67232109D03*
G04 #@! TO.P, ,3*
G04 #@! TO.N,SCK-SCL*
X133750000Y-67232109D03*
G04 #@! TO.P, ,4*
G04 #@! TO.N,Earth*
X136290000Y-67232109D03*
G04 #@! TD*
D17*
G04 #@! TO.N,+5V*
G04 #@! TO.C, *
G36*
X132002005Y-80728704D02*
X132026273Y-80732304D01*
X132050072Y-80738265D01*
X132073171Y-80746530D01*
X132095350Y-80757020D01*
X132116393Y-80769632D01*
X132136099Y-80784247D01*
X132154277Y-80800723D01*
X132170753Y-80818901D01*
X132185368Y-80838607D01*
X132197980Y-80859650D01*
X132208470Y-80881829D01*
X132216735Y-80904928D01*
X132222696Y-80928727D01*
X132226296Y-80952995D01*
X132227500Y-80977499D01*
X132227500Y-82217501D01*
X132226296Y-82242005D01*
X132222696Y-82266273D01*
X132216735Y-82290072D01*
X132208470Y-82313171D01*
X132197980Y-82335350D01*
X132185368Y-82356393D01*
X132170753Y-82376099D01*
X132154277Y-82394277D01*
X132136099Y-82410753D01*
X132116393Y-82425368D01*
X132095350Y-82437980D01*
X132073171Y-82448470D01*
X132050072Y-82456735D01*
X132026273Y-82462696D01*
X132002005Y-82466296D01*
X131977501Y-82467500D01*
X130277499Y-82467500D01*
X130252995Y-82466296D01*
X130228727Y-82462696D01*
X130204928Y-82456735D01*
X130181829Y-82448470D01*
X130159650Y-82437980D01*
X130138607Y-82425368D01*
X130118901Y-82410753D01*
X130100723Y-82394277D01*
X130084247Y-82376099D01*
X130069632Y-82356393D01*
X130057020Y-82335350D01*
X130046530Y-82313171D01*
X130038265Y-82290072D01*
X130032304Y-82266273D01*
X130028704Y-82242005D01*
X130027500Y-82217501D01*
X130027500Y-80977499D01*
X130028704Y-80952995D01*
X130032304Y-80928727D01*
X130038265Y-80904928D01*
X130046530Y-80881829D01*
X130057020Y-80859650D01*
X130069632Y-80838607D01*
X130084247Y-80818901D01*
X130100723Y-80800723D01*
X130118901Y-80784247D01*
X130138607Y-80769632D01*
X130159650Y-80757020D01*
X130181829Y-80746530D01*
X130204928Y-80738265D01*
X130228727Y-80732304D01*
X130252995Y-80728704D01*
X130277499Y-80727500D01*
X131977501Y-80727500D01*
X132002005Y-80728704D01*
X132002005Y-80728704D01*
G37*
D18*
G04 #@! TD*
G04 #@! TO.P, ,1*
G04 #@! TO.N,+5V*
X131127500Y-81597500D03*
D19*
G04 #@! TO.P, ,2*
G04 #@! TO.N,Earth*
X131127500Y-84137500D03*
G04 #@! TO.P, ,3*
G04 #@! TO.N,INT1*
X131127500Y-86677500D03*
G04 #@! TO.P, ,4*
G04 #@! TO.N,INT2*
X131127500Y-89217500D03*
G04 #@! TD*
D20*
G04 #@! TO.N,+5V*
X124460000Y-80010000D03*
X117456644Y-89070000D03*
X123126500Y-69088000D03*
G04 #@! TO.N,Earth*
X135890000Y-71120000D03*
G04 #@! TO.N,RESET*
X118341500Y-84391500D03*
X120586500Y-74739500D03*
X120586500Y-71501000D03*
G04 #@! TO.N,SCK-SCL*
X127000000Y-54610000D03*
X125476000Y-68008500D03*
G04 #@! TO.N,INT1*
X104140000Y-73660000D03*
X128242750Y-85117250D03*
G04 #@! TO.N,MOSI-SDA*
X123702500Y-60447500D03*
G04 #@! TO.N,DIRECTION2*
X107505500Y-73490000D03*
G04 #@! TO.N,DIRECTION1*
X104140000Y-85090000D03*
G04 #@! TO.N,INA*
X102870000Y-77470000D03*
G04 #@! TO.N,Net-(R3-Pad1)*
X102870000Y-71120000D03*
X115570000Y-71120000D03*
G04 #@! TO.N,HANDSHAKE*
X121920000Y-62230000D03*
G04 #@! TD*
D21*
G04 #@! TO.N,+5V*
X120650000Y-85876644D02*
X117456644Y-89070000D01*
X120650000Y-83820000D02*
X120650000Y-85876644D01*
X124460000Y-80010000D02*
X120650000Y-83820000D01*
X125730000Y-78740000D02*
X124460000Y-80010000D01*
X130556000Y-78740000D02*
X125730000Y-78740000D01*
X133223000Y-76073000D02*
X130556000Y-78740000D01*
X138112500Y-54292500D02*
X133350000Y-49530000D01*
X138112500Y-68770500D02*
X138112500Y-54292500D01*
X133223000Y-73533000D02*
X133223000Y-71983000D01*
X135546500Y-69659500D02*
X137223500Y-69659500D01*
X133223000Y-71983000D02*
X135546500Y-69659500D01*
X137223500Y-69659500D02*
X138112500Y-68770500D01*
X133223000Y-73445998D02*
X133223000Y-73533000D01*
X125120814Y-71076499D02*
X130853501Y-71076499D01*
X130853501Y-71076499D02*
X133223000Y-73445998D01*
X125114999Y-71076499D02*
X123126500Y-69088000D01*
X125120814Y-71076499D02*
X125114999Y-71076499D01*
X130556000Y-80056000D02*
X130556000Y-78740000D01*
X131127500Y-80627500D02*
X130556000Y-80056000D01*
X131127500Y-81597500D02*
X131127500Y-80627500D01*
G04 #@! TO.N,Earth*
X136290000Y-57550000D02*
X136290000Y-60247109D01*
X133350000Y-54610000D02*
X136290000Y-57550000D01*
X135890000Y-82169000D02*
X133921500Y-84137500D01*
X133921500Y-84137500D02*
X131127500Y-84137500D01*
X135890000Y-71120000D02*
X135890000Y-82169000D01*
D22*
G04 #@! TO.N,RESET*
X118341500Y-76984500D02*
X120586500Y-74739500D01*
X118341500Y-84391500D02*
X118341500Y-76984500D01*
X129349500Y-53149500D02*
X130810000Y-54610000D01*
X125730000Y-53149500D02*
X129349500Y-53149500D01*
X120586500Y-71501000D02*
X120586500Y-70358000D01*
X119062500Y-59817000D02*
X125730000Y-53149500D01*
X120586500Y-70358000D02*
X119062500Y-68834000D01*
X119062500Y-68834000D02*
X119062500Y-59817000D01*
G04 #@! TO.N,SCK-SCL*
X120650000Y-60960000D02*
X127000000Y-54610000D01*
X133750000Y-67232109D02*
X133750000Y-67462109D01*
X120650000Y-63182500D02*
X120650000Y-60960000D01*
X133750000Y-67462109D02*
X131743109Y-69469000D01*
X131743109Y-69469000D02*
X126936500Y-69469000D01*
X126936500Y-69469000D02*
X125476000Y-68008500D01*
X125476000Y-68008500D02*
X120650000Y-63182500D01*
G04 #@! TO.N,INT1*
X123190000Y-90170000D02*
X128242750Y-85117250D01*
X104140000Y-80010000D02*
X102870000Y-81280000D01*
X104140000Y-73660000D02*
X104140000Y-80010000D01*
X102870000Y-81280000D02*
X102870000Y-87630000D01*
X102870000Y-87630000D02*
X106680000Y-91440000D01*
X106680000Y-91440000D02*
X121920000Y-91440000D01*
X121920000Y-91440000D02*
X123190000Y-90170000D01*
X128242750Y-85117250D02*
X129803000Y-86677500D01*
X129803000Y-86677500D02*
X131127500Y-86677500D01*
G04 #@! TO.N,MOSI-SDA*
X131210000Y-60247109D02*
X131210000Y-60017109D01*
X131210000Y-60017109D02*
X129840000Y-58647109D01*
X129840000Y-58647109D02*
X125502891Y-58647109D01*
X125502891Y-58647109D02*
X123702500Y-60447500D01*
G04 #@! TO.N,DIRECTION2*
X107548500Y-73533000D02*
X107505500Y-73490000D01*
X127371500Y-74961500D02*
X125900000Y-73490000D01*
X129508500Y-74961500D02*
X127371500Y-74961500D01*
X107505500Y-73490000D02*
X125900000Y-73490000D01*
X129508500Y-74961500D02*
X130620000Y-76073000D01*
G04 #@! TO.N,DIRECTION1*
X128143000Y-73533000D02*
X130620000Y-73533000D01*
X106743500Y-72390000D02*
X127000000Y-72390000D01*
X104140000Y-85090000D02*
X104140000Y-82550000D01*
X127000000Y-72390000D02*
X128143000Y-73533000D01*
X104140000Y-82550000D02*
X105473500Y-81216500D01*
X105473500Y-81216500D02*
X105473500Y-73596500D01*
X105473500Y-73596500D02*
X106648250Y-72421750D01*
X106648250Y-72421750D02*
X106711750Y-72421750D01*
X106711750Y-72421750D02*
X106743500Y-72390000D01*
G04 #@! TO.N,INA*
X102870000Y-78740000D02*
X102270000Y-79340000D01*
X102870000Y-77470000D02*
X102870000Y-78740000D01*
X99000000Y-79340000D02*
X102270000Y-79340000D01*
G04 #@! TO.N,Net-(R3-Pad1)*
X115570000Y-71120000D02*
X102870000Y-71120000D01*
G04 #@! TO.N,HANDSHAKE*
X121920000Y-62230000D02*
X122872500Y-63182500D01*
X126682500Y-62234609D02*
X128670000Y-60247109D01*
X126677891Y-62234609D02*
X125730000Y-63182500D01*
X126682500Y-62234609D02*
X126677891Y-62234609D01*
X122872500Y-63182500D02*
X125730000Y-63182500D01*
G04 #@! TD*
M02*
