M48
;DRILL file {KiCad 5.0.2-bee76a0~70~ubuntu16.04.1} date mar 23 jul 2019 17:31:11 CEST
;FORMAT={-:-/ absolute / metric / decimal}
FMAT,2
METRIC,TZ
T1C0.400
T2C0.600
T3C1.000
T4C1.200
T5C1.900
%
G90
G05
T1
X102.87Y-71.12
X102.87Y-77.47
X104.14Y-73.66
X104.14Y-85.09
X107.505Y-73.49
X115.57Y-71.12
X117.457Y-89.07
X118.341Y-84.391
X120.587Y-71.501
X120.587Y-74.739
X121.92Y-62.23
X123.126Y-69.088
X123.703Y-60.447
X124.46Y-80.01
X125.476Y-68.008
X127.Y-54.61
X128.243Y-85.117
X135.89Y-71.12
X102.158Y-44.895
X102.583Y-43.869
X102.583Y-45.919
X103.608Y-43.444
X103.608Y-46.344
X104.633Y-43.869
X104.633Y-45.919
X105.058Y-44.895
X107.158Y-44.895
X107.583Y-43.869
X107.583Y-45.919
X108.608Y-43.444
X108.608Y-46.344
X109.633Y-43.869
X109.633Y-45.919
X110.058Y-44.895
T2
X114.681Y-60.
X114.681Y-64.9
T3
X133.223Y-73.533
X133.223Y-76.073
X130.62Y-73.533
X130.62Y-76.073
X130.81Y-49.53
X130.81Y-52.07
X130.81Y-54.61
X133.35Y-49.53
X133.35Y-52.07
X133.35Y-54.61
X99.Y-74.26
X99.Y-76.8
X99.Y-79.34
X99.Y-81.88
X99.Y-84.42
X99.Y-86.96
X99.Y-89.5
T4
X128.67Y-67.232
X131.21Y-67.232
X133.75Y-67.232
X136.29Y-67.232
X131.127Y-81.597
X131.127Y-84.138
X131.127Y-86.677
X131.127Y-89.218
X100.608Y-34.895
X111.608Y-34.895
X128.67Y-60.247
X131.21Y-60.247
X133.75Y-60.247
X136.29Y-60.247
T5
X103.608Y-44.895
X108.608Y-44.895
T0
M30
