G04 #@! TF.GenerationSoftware,KiCad,Pcbnew,5.0.2-bee76a0~70~ubuntu16.04.1*
G04 #@! TF.CreationDate,2019-07-23T17:30:48+02:00*
G04 #@! TF.ProjectId,ATtiny_3.0,41547469-6e79-45f3-932e-302e6b696361,rev?*
G04 #@! TF.SameCoordinates,Original*
G04 #@! TF.FileFunction,Soldermask,Bot*
G04 #@! TF.FilePolarity,Negative*
%FSLAX46Y46*%
G04 Gerber Fmt 4.6, Leading zero omitted, Abs format (unit mm)*
G04 Created by KiCad (PCBNEW 5.0.2-bee76a0~70~ubuntu16.04.1) date mar 23 jul 2019 17:30:48 CEST*
%MOMM*%
%LPD*%
G01*
G04 APERTURE LIST*
%ADD10C,0.100000*%
G04 APERTURE END LIST*
D10*
G36*
X136375256Y-102191298D02*
X136481579Y-102212447D01*
X136782042Y-102336903D01*
X137048852Y-102515180D01*
X137052454Y-102517587D01*
X137282413Y-102747546D01*
X137463098Y-103017960D01*
X137587553Y-103318422D01*
X137651000Y-103637389D01*
X137651000Y-103962611D01*
X137587553Y-104281578D01*
X137463098Y-104582040D01*
X137282413Y-104852454D01*
X137052454Y-105082413D01*
X137052451Y-105082415D01*
X136782042Y-105263097D01*
X136481579Y-105387553D01*
X136375256Y-105408702D01*
X136162611Y-105451000D01*
X135837389Y-105451000D01*
X135624744Y-105408702D01*
X135518421Y-105387553D01*
X135217958Y-105263097D01*
X134947549Y-105082415D01*
X134947546Y-105082413D01*
X134717587Y-104852454D01*
X134536902Y-104582040D01*
X134412447Y-104281578D01*
X134349000Y-103962611D01*
X134349000Y-103637389D01*
X134412447Y-103318422D01*
X134536902Y-103017960D01*
X134717587Y-102747546D01*
X134947546Y-102517587D01*
X134951148Y-102515180D01*
X135217958Y-102336903D01*
X135518421Y-102212447D01*
X135624744Y-102191298D01*
X135837389Y-102149000D01*
X136162611Y-102149000D01*
X136375256Y-102191298D01*
X136375256Y-102191298D01*
G37*
G36*
X95875256Y-102191298D02*
X95981579Y-102212447D01*
X96282042Y-102336903D01*
X96548852Y-102515180D01*
X96552454Y-102517587D01*
X96782413Y-102747546D01*
X96963098Y-103017960D01*
X97087553Y-103318422D01*
X97151000Y-103637389D01*
X97151000Y-103962611D01*
X97087553Y-104281578D01*
X96963098Y-104582040D01*
X96782413Y-104852454D01*
X96552454Y-105082413D01*
X96552451Y-105082415D01*
X96282042Y-105263097D01*
X95981579Y-105387553D01*
X95875256Y-105408702D01*
X95662611Y-105451000D01*
X95337389Y-105451000D01*
X95124744Y-105408702D01*
X95018421Y-105387553D01*
X94717958Y-105263097D01*
X94447549Y-105082415D01*
X94447546Y-105082413D01*
X94217587Y-104852454D01*
X94036902Y-104582040D01*
X93912447Y-104281578D01*
X93849000Y-103962611D01*
X93849000Y-103637389D01*
X93912447Y-103318422D01*
X94036902Y-103017960D01*
X94217587Y-102747546D01*
X94447546Y-102517587D01*
X94451148Y-102515180D01*
X94717958Y-102336903D01*
X95018421Y-102212447D01*
X95124744Y-102191298D01*
X95337389Y-102149000D01*
X95662611Y-102149000D01*
X95875256Y-102191298D01*
X95875256Y-102191298D01*
G37*
G36*
X100375256Y-97891298D02*
X100481579Y-97912447D01*
X100782042Y-98036903D01*
X101048852Y-98215180D01*
X101052454Y-98217587D01*
X101282413Y-98447546D01*
X101463098Y-98717960D01*
X101587553Y-99018422D01*
X101651000Y-99337389D01*
X101651000Y-99662611D01*
X101587553Y-99981578D01*
X101463098Y-100282040D01*
X101282413Y-100552454D01*
X101052454Y-100782413D01*
X101052451Y-100782415D01*
X100782042Y-100963097D01*
X100481579Y-101087553D01*
X100375256Y-101108702D01*
X100162611Y-101151000D01*
X99837389Y-101151000D01*
X99624744Y-101108702D01*
X99518421Y-101087553D01*
X99217958Y-100963097D01*
X98947549Y-100782415D01*
X98947546Y-100782413D01*
X98717587Y-100552454D01*
X98536902Y-100282040D01*
X98412447Y-99981578D01*
X98349000Y-99662611D01*
X98349000Y-99337389D01*
X98412447Y-99018422D01*
X98536902Y-98717960D01*
X98717587Y-98447546D01*
X98947546Y-98217587D01*
X98951148Y-98215180D01*
X99217958Y-98036903D01*
X99518421Y-97912447D01*
X99624744Y-97891298D01*
X99837389Y-97849000D01*
X100162611Y-97849000D01*
X100375256Y-97891298D01*
X100375256Y-97891298D01*
G37*
G36*
X123875256Y-97891298D02*
X123981579Y-97912447D01*
X124282042Y-98036903D01*
X124548852Y-98215180D01*
X124552454Y-98217587D01*
X124782413Y-98447546D01*
X124963098Y-98717960D01*
X125087553Y-99018422D01*
X125151000Y-99337389D01*
X125151000Y-99662611D01*
X125087553Y-99981578D01*
X124963098Y-100282040D01*
X124782413Y-100552454D01*
X124552454Y-100782413D01*
X124552451Y-100782415D01*
X124282042Y-100963097D01*
X123981579Y-101087553D01*
X123875256Y-101108702D01*
X123662611Y-101151000D01*
X123337389Y-101151000D01*
X123124744Y-101108702D01*
X123018421Y-101087553D01*
X122717958Y-100963097D01*
X122447549Y-100782415D01*
X122447546Y-100782413D01*
X122217587Y-100552454D01*
X122036902Y-100282040D01*
X121912447Y-99981578D01*
X121849000Y-99662611D01*
X121849000Y-99337389D01*
X121912447Y-99018422D01*
X122036902Y-98717960D01*
X122217587Y-98447546D01*
X122447546Y-98217587D01*
X122451148Y-98215180D01*
X122717958Y-98036903D01*
X123018421Y-97912447D01*
X123124744Y-97891298D01*
X123337389Y-97849000D01*
X123662611Y-97849000D01*
X123875256Y-97891298D01*
X123875256Y-97891298D01*
G37*
G36*
X99901000Y-90401000D02*
X98099000Y-90401000D01*
X98099000Y-88599000D01*
X99901000Y-88599000D01*
X99901000Y-90401000D01*
X99901000Y-90401000D01*
G37*
G36*
X131447845Y-88300942D02*
X131538048Y-88309826D01*
X131653787Y-88344935D01*
X131711658Y-88362490D01*
X131797179Y-88408202D01*
X131871656Y-88448011D01*
X131871658Y-88448012D01*
X131871657Y-88448012D01*
X132011896Y-88563104D01*
X132126988Y-88703343D01*
X132212510Y-88863342D01*
X132212510Y-88863343D01*
X132265174Y-89036952D01*
X132282956Y-89217500D01*
X132265174Y-89398048D01*
X132230065Y-89513787D01*
X132212510Y-89571658D01*
X132166798Y-89657179D01*
X132126989Y-89731656D01*
X132011896Y-89871896D01*
X131871656Y-89986989D01*
X131797179Y-90026798D01*
X131711658Y-90072510D01*
X131653787Y-90090065D01*
X131538048Y-90125174D01*
X131447845Y-90134058D01*
X131402745Y-90138500D01*
X130852255Y-90138500D01*
X130807155Y-90134058D01*
X130716952Y-90125174D01*
X130601213Y-90090065D01*
X130543342Y-90072510D01*
X130457821Y-90026798D01*
X130383344Y-89986989D01*
X130243104Y-89871896D01*
X130128011Y-89731656D01*
X130088202Y-89657179D01*
X130042490Y-89571658D01*
X130024935Y-89513787D01*
X129989826Y-89398048D01*
X129972044Y-89217500D01*
X129989826Y-89036952D01*
X130042490Y-88863343D01*
X130042490Y-88863342D01*
X130128012Y-88703343D01*
X130243104Y-88563104D01*
X130383343Y-88448012D01*
X130383342Y-88448012D01*
X130383344Y-88448011D01*
X130457821Y-88408202D01*
X130543342Y-88362490D01*
X130601213Y-88344935D01*
X130716952Y-88309826D01*
X130807155Y-88300942D01*
X130852255Y-88296500D01*
X131402745Y-88296500D01*
X131447845Y-88300942D01*
X131447845Y-88300942D01*
G37*
G36*
X99110442Y-86065518D02*
X99176627Y-86072037D01*
X99289853Y-86106384D01*
X99346467Y-86123557D01*
X99420900Y-86163343D01*
X99502991Y-86207222D01*
X99538729Y-86236552D01*
X99640186Y-86319814D01*
X99723448Y-86421271D01*
X99752778Y-86457009D01*
X99752779Y-86457011D01*
X99836443Y-86613533D01*
X99836443Y-86613534D01*
X99887963Y-86783373D01*
X99905359Y-86960000D01*
X99887963Y-87136627D01*
X99871270Y-87191656D01*
X99836443Y-87306467D01*
X99762348Y-87445087D01*
X99752778Y-87462991D01*
X99723448Y-87498729D01*
X99640186Y-87600186D01*
X99538729Y-87683448D01*
X99502991Y-87712778D01*
X99502989Y-87712779D01*
X99346467Y-87796443D01*
X99289853Y-87813616D01*
X99176627Y-87847963D01*
X99110443Y-87854481D01*
X99044260Y-87861000D01*
X98955740Y-87861000D01*
X98889557Y-87854481D01*
X98823373Y-87847963D01*
X98710147Y-87813616D01*
X98653533Y-87796443D01*
X98497011Y-87712779D01*
X98497009Y-87712778D01*
X98461271Y-87683448D01*
X98359814Y-87600186D01*
X98276552Y-87498729D01*
X98247222Y-87462991D01*
X98237652Y-87445087D01*
X98163557Y-87306467D01*
X98128730Y-87191656D01*
X98112037Y-87136627D01*
X98094641Y-86960000D01*
X98112037Y-86783373D01*
X98163557Y-86613534D01*
X98163557Y-86613533D01*
X98247221Y-86457011D01*
X98247222Y-86457009D01*
X98276552Y-86421271D01*
X98359814Y-86319814D01*
X98461271Y-86236552D01*
X98497009Y-86207222D01*
X98579100Y-86163343D01*
X98653533Y-86123557D01*
X98710147Y-86106384D01*
X98823373Y-86072037D01*
X98889558Y-86065518D01*
X98955740Y-86059000D01*
X99044260Y-86059000D01*
X99110442Y-86065518D01*
X99110442Y-86065518D01*
G37*
G36*
X131447845Y-85760942D02*
X131538048Y-85769826D01*
X131653787Y-85804935D01*
X131711658Y-85822490D01*
X131797179Y-85868202D01*
X131871656Y-85908011D01*
X132011896Y-86023104D01*
X132126989Y-86163344D01*
X132150442Y-86207222D01*
X132212510Y-86323342D01*
X132212510Y-86323343D01*
X132265174Y-86496952D01*
X132282956Y-86677500D01*
X132265174Y-86858048D01*
X132234247Y-86960000D01*
X132212510Y-87031658D01*
X132166798Y-87117179D01*
X132126989Y-87191656D01*
X132011896Y-87331896D01*
X131871656Y-87446989D01*
X131841718Y-87462991D01*
X131711658Y-87532510D01*
X131653787Y-87550065D01*
X131538048Y-87585174D01*
X131447845Y-87594058D01*
X131402745Y-87598500D01*
X130852255Y-87598500D01*
X130807155Y-87594058D01*
X130716952Y-87585174D01*
X130601213Y-87550065D01*
X130543342Y-87532510D01*
X130413282Y-87462991D01*
X130383344Y-87446989D01*
X130243104Y-87331896D01*
X130128011Y-87191656D01*
X130088202Y-87117179D01*
X130042490Y-87031658D01*
X130020753Y-86960000D01*
X129989826Y-86858048D01*
X129972044Y-86677500D01*
X129989826Y-86496952D01*
X130042490Y-86323343D01*
X130042490Y-86323342D01*
X130104558Y-86207222D01*
X130128011Y-86163344D01*
X130243104Y-86023104D01*
X130383344Y-85908011D01*
X130457821Y-85868202D01*
X130543342Y-85822490D01*
X130601213Y-85804935D01*
X130716952Y-85769826D01*
X130807155Y-85760942D01*
X130852255Y-85756500D01*
X131402745Y-85756500D01*
X131447845Y-85760942D01*
X131447845Y-85760942D01*
G37*
G36*
X99110443Y-83525519D02*
X99176627Y-83532037D01*
X99289853Y-83566384D01*
X99346467Y-83583557D01*
X99420900Y-83623343D01*
X99502991Y-83667222D01*
X99538729Y-83696552D01*
X99640186Y-83779814D01*
X99723448Y-83881271D01*
X99752778Y-83917009D01*
X99752779Y-83917011D01*
X99836443Y-84073533D01*
X99836443Y-84073534D01*
X99887963Y-84243373D01*
X99905359Y-84420000D01*
X99887963Y-84596627D01*
X99871270Y-84651656D01*
X99836443Y-84766467D01*
X99762348Y-84905087D01*
X99752778Y-84922991D01*
X99723448Y-84958729D01*
X99640186Y-85060186D01*
X99538729Y-85143448D01*
X99502991Y-85172778D01*
X99502989Y-85172779D01*
X99346467Y-85256443D01*
X99289853Y-85273616D01*
X99176627Y-85307963D01*
X99110442Y-85314482D01*
X99044260Y-85321000D01*
X98955740Y-85321000D01*
X98889558Y-85314482D01*
X98823373Y-85307963D01*
X98710147Y-85273616D01*
X98653533Y-85256443D01*
X98497011Y-85172779D01*
X98497009Y-85172778D01*
X98461271Y-85143448D01*
X98359814Y-85060186D01*
X98276552Y-84958729D01*
X98247222Y-84922991D01*
X98237652Y-84905087D01*
X98163557Y-84766467D01*
X98128730Y-84651656D01*
X98112037Y-84596627D01*
X98094641Y-84420000D01*
X98112037Y-84243373D01*
X98163557Y-84073534D01*
X98163557Y-84073533D01*
X98247221Y-83917011D01*
X98247222Y-83917009D01*
X98276552Y-83881271D01*
X98359814Y-83779814D01*
X98461271Y-83696552D01*
X98497009Y-83667222D01*
X98579100Y-83623343D01*
X98653533Y-83583557D01*
X98710147Y-83566384D01*
X98823373Y-83532037D01*
X98889557Y-83525519D01*
X98955740Y-83519000D01*
X99044260Y-83519000D01*
X99110443Y-83525519D01*
X99110443Y-83525519D01*
G37*
G36*
X131447845Y-83220942D02*
X131538048Y-83229826D01*
X131653787Y-83264935D01*
X131711658Y-83282490D01*
X131797179Y-83328202D01*
X131871656Y-83368011D01*
X132011896Y-83483104D01*
X132126989Y-83623344D01*
X132150442Y-83667222D01*
X132212510Y-83783342D01*
X132212510Y-83783343D01*
X132265174Y-83956952D01*
X132282956Y-84137500D01*
X132265174Y-84318048D01*
X132234247Y-84420000D01*
X132212510Y-84491658D01*
X132166798Y-84577179D01*
X132126989Y-84651656D01*
X132011896Y-84791896D01*
X131871656Y-84906989D01*
X131841718Y-84922991D01*
X131711658Y-84992510D01*
X131653787Y-85010065D01*
X131538048Y-85045174D01*
X131447845Y-85054058D01*
X131402745Y-85058500D01*
X130852255Y-85058500D01*
X130807155Y-85054058D01*
X130716952Y-85045174D01*
X130601213Y-85010065D01*
X130543342Y-84992510D01*
X130413282Y-84922991D01*
X130383344Y-84906989D01*
X130243104Y-84791896D01*
X130128011Y-84651656D01*
X130088202Y-84577179D01*
X130042490Y-84491658D01*
X130020753Y-84420000D01*
X129989826Y-84318048D01*
X129972044Y-84137500D01*
X129989826Y-83956952D01*
X130042490Y-83783343D01*
X130042490Y-83783342D01*
X130104558Y-83667222D01*
X130128011Y-83623344D01*
X130243104Y-83483104D01*
X130383344Y-83368011D01*
X130457821Y-83328202D01*
X130543342Y-83282490D01*
X130601213Y-83264935D01*
X130716952Y-83229826D01*
X130807155Y-83220942D01*
X130852255Y-83216500D01*
X131402745Y-83216500D01*
X131447845Y-83220942D01*
X131447845Y-83220942D01*
G37*
G36*
X99110442Y-80985518D02*
X99176627Y-80992037D01*
X99289853Y-81026384D01*
X99346467Y-81043557D01*
X99485087Y-81117652D01*
X99502991Y-81127222D01*
X99538729Y-81156552D01*
X99640186Y-81239814D01*
X99723448Y-81341271D01*
X99752778Y-81377009D01*
X99752779Y-81377011D01*
X99836443Y-81533533D01*
X99836443Y-81533534D01*
X99887963Y-81703373D01*
X99905359Y-81880000D01*
X99887963Y-82056627D01*
X99853616Y-82169853D01*
X99836443Y-82226467D01*
X99777474Y-82336788D01*
X99752778Y-82382991D01*
X99730708Y-82409883D01*
X99640186Y-82520186D01*
X99538729Y-82603448D01*
X99502991Y-82632778D01*
X99502989Y-82632779D01*
X99346467Y-82716443D01*
X99289853Y-82733616D01*
X99176627Y-82767963D01*
X99110443Y-82774481D01*
X99044260Y-82781000D01*
X98955740Y-82781000D01*
X98889557Y-82774481D01*
X98823373Y-82767963D01*
X98710147Y-82733616D01*
X98653533Y-82716443D01*
X98497011Y-82632779D01*
X98497009Y-82632778D01*
X98461271Y-82603448D01*
X98359814Y-82520186D01*
X98269292Y-82409883D01*
X98247222Y-82382991D01*
X98222526Y-82336788D01*
X98163557Y-82226467D01*
X98146384Y-82169853D01*
X98112037Y-82056627D01*
X98094641Y-81880000D01*
X98112037Y-81703373D01*
X98163557Y-81533534D01*
X98163557Y-81533533D01*
X98247221Y-81377011D01*
X98247222Y-81377009D01*
X98276552Y-81341271D01*
X98359814Y-81239814D01*
X98461271Y-81156552D01*
X98497009Y-81127222D01*
X98514913Y-81117652D01*
X98653533Y-81043557D01*
X98710147Y-81026384D01*
X98823373Y-80992037D01*
X98889558Y-80985518D01*
X98955740Y-80979000D01*
X99044260Y-80979000D01*
X99110442Y-80985518D01*
X99110442Y-80985518D01*
G37*
G36*
X132137060Y-80680466D02*
X132169883Y-80690423D01*
X132200132Y-80706592D01*
X132226648Y-80728352D01*
X132248408Y-80754868D01*
X132264577Y-80785117D01*
X132274534Y-80817940D01*
X132278500Y-80858212D01*
X132278500Y-82336788D01*
X132274534Y-82377060D01*
X132264577Y-82409883D01*
X132248408Y-82440132D01*
X132226648Y-82466648D01*
X132200132Y-82488408D01*
X132169883Y-82504577D01*
X132137060Y-82514534D01*
X132096788Y-82518500D01*
X130158212Y-82518500D01*
X130117940Y-82514534D01*
X130085117Y-82504577D01*
X130054868Y-82488408D01*
X130028352Y-82466648D01*
X130006592Y-82440132D01*
X129990423Y-82409883D01*
X129980466Y-82377060D01*
X129976500Y-82336788D01*
X129976500Y-80858212D01*
X129980466Y-80817940D01*
X129990423Y-80785117D01*
X130006592Y-80754868D01*
X130028352Y-80728352D01*
X130054868Y-80706592D01*
X130085117Y-80690423D01*
X130117940Y-80680466D01*
X130158212Y-80676500D01*
X132096788Y-80676500D01*
X132137060Y-80680466D01*
X132137060Y-80680466D01*
G37*
G36*
X99110442Y-78445518D02*
X99176627Y-78452037D01*
X99289853Y-78486384D01*
X99346467Y-78503557D01*
X99485087Y-78577652D01*
X99502991Y-78587222D01*
X99538729Y-78616552D01*
X99640186Y-78699814D01*
X99723448Y-78801271D01*
X99752778Y-78837009D01*
X99752779Y-78837011D01*
X99836443Y-78993533D01*
X99836443Y-78993534D01*
X99887963Y-79163373D01*
X99905359Y-79340000D01*
X99887963Y-79516627D01*
X99853616Y-79629853D01*
X99836443Y-79686467D01*
X99762348Y-79825087D01*
X99752778Y-79842991D01*
X99723448Y-79878729D01*
X99640186Y-79980186D01*
X99538729Y-80063448D01*
X99502991Y-80092778D01*
X99502989Y-80092779D01*
X99346467Y-80176443D01*
X99289853Y-80193616D01*
X99176627Y-80227963D01*
X99110442Y-80234482D01*
X99044260Y-80241000D01*
X98955740Y-80241000D01*
X98889558Y-80234482D01*
X98823373Y-80227963D01*
X98710147Y-80193616D01*
X98653533Y-80176443D01*
X98497011Y-80092779D01*
X98497009Y-80092778D01*
X98461271Y-80063448D01*
X98359814Y-79980186D01*
X98276552Y-79878729D01*
X98247222Y-79842991D01*
X98237652Y-79825087D01*
X98163557Y-79686467D01*
X98146384Y-79629853D01*
X98112037Y-79516627D01*
X98094641Y-79340000D01*
X98112037Y-79163373D01*
X98163557Y-78993534D01*
X98163557Y-78993533D01*
X98247221Y-78837011D01*
X98247222Y-78837009D01*
X98276552Y-78801271D01*
X98359814Y-78699814D01*
X98461271Y-78616552D01*
X98497009Y-78587222D01*
X98514913Y-78577652D01*
X98653533Y-78503557D01*
X98710147Y-78486384D01*
X98823373Y-78452037D01*
X98889558Y-78445518D01*
X98955740Y-78439000D01*
X99044260Y-78439000D01*
X99110442Y-78445518D01*
X99110442Y-78445518D01*
G37*
G36*
X99110443Y-75905519D02*
X99176627Y-75912037D01*
X99289853Y-75946384D01*
X99346467Y-75963557D01*
X99485087Y-76037652D01*
X99502991Y-76047222D01*
X99534401Y-76073000D01*
X99640186Y-76159814D01*
X99723448Y-76261271D01*
X99752778Y-76297009D01*
X99752779Y-76297011D01*
X99836443Y-76453533D01*
X99836443Y-76453534D01*
X99887963Y-76623373D01*
X99905359Y-76800000D01*
X99887963Y-76976627D01*
X99853616Y-77089853D01*
X99836443Y-77146467D01*
X99762348Y-77285087D01*
X99752778Y-77302991D01*
X99723448Y-77338729D01*
X99640186Y-77440186D01*
X99538729Y-77523448D01*
X99502991Y-77552778D01*
X99502989Y-77552779D01*
X99346467Y-77636443D01*
X99289853Y-77653616D01*
X99176627Y-77687963D01*
X99110443Y-77694481D01*
X99044260Y-77701000D01*
X98955740Y-77701000D01*
X98889557Y-77694481D01*
X98823373Y-77687963D01*
X98710147Y-77653616D01*
X98653533Y-77636443D01*
X98497011Y-77552779D01*
X98497009Y-77552778D01*
X98461271Y-77523448D01*
X98359814Y-77440186D01*
X98276552Y-77338729D01*
X98247222Y-77302991D01*
X98237652Y-77285087D01*
X98163557Y-77146467D01*
X98146384Y-77089853D01*
X98112037Y-76976627D01*
X98094641Y-76800000D01*
X98112037Y-76623373D01*
X98163557Y-76453534D01*
X98163557Y-76453533D01*
X98247221Y-76297011D01*
X98247222Y-76297009D01*
X98276552Y-76261271D01*
X98359814Y-76159814D01*
X98465599Y-76073000D01*
X98497009Y-76047222D01*
X98514913Y-76037652D01*
X98653533Y-75963557D01*
X98710147Y-75946384D01*
X98823373Y-75912037D01*
X98889557Y-75905519D01*
X98955740Y-75899000D01*
X99044260Y-75899000D01*
X99110443Y-75905519D01*
X99110443Y-75905519D01*
G37*
G36*
X133333442Y-75178518D02*
X133399627Y-75185037D01*
X133512853Y-75219384D01*
X133569467Y-75236557D01*
X133708087Y-75310652D01*
X133725991Y-75320222D01*
X133761729Y-75349552D01*
X133863186Y-75432814D01*
X133946448Y-75534271D01*
X133975778Y-75570009D01*
X133975779Y-75570011D01*
X134059443Y-75726533D01*
X134059443Y-75726534D01*
X134110963Y-75896373D01*
X134128359Y-76073000D01*
X134110963Y-76249627D01*
X134096590Y-76297009D01*
X134059443Y-76419467D01*
X133985348Y-76558087D01*
X133975778Y-76575991D01*
X133946448Y-76611729D01*
X133863186Y-76713186D01*
X133761729Y-76796448D01*
X133725991Y-76825778D01*
X133725989Y-76825779D01*
X133569467Y-76909443D01*
X133512853Y-76926616D01*
X133399627Y-76960963D01*
X133333442Y-76967482D01*
X133267260Y-76974000D01*
X133178740Y-76974000D01*
X133112558Y-76967482D01*
X133046373Y-76960963D01*
X132933147Y-76926616D01*
X132876533Y-76909443D01*
X132720011Y-76825779D01*
X132720009Y-76825778D01*
X132684271Y-76796448D01*
X132582814Y-76713186D01*
X132499552Y-76611729D01*
X132470222Y-76575991D01*
X132460652Y-76558087D01*
X132386557Y-76419467D01*
X132349410Y-76297009D01*
X132335037Y-76249627D01*
X132317641Y-76073000D01*
X132335037Y-75896373D01*
X132386557Y-75726534D01*
X132386557Y-75726533D01*
X132470221Y-75570011D01*
X132470222Y-75570009D01*
X132499552Y-75534271D01*
X132582814Y-75432814D01*
X132684271Y-75349552D01*
X132720009Y-75320222D01*
X132737913Y-75310652D01*
X132876533Y-75236557D01*
X132933147Y-75219384D01*
X133046373Y-75185037D01*
X133112558Y-75178518D01*
X133178740Y-75172000D01*
X133267260Y-75172000D01*
X133333442Y-75178518D01*
X133333442Y-75178518D01*
G37*
G36*
X130730442Y-75178518D02*
X130796627Y-75185037D01*
X130909853Y-75219384D01*
X130966467Y-75236557D01*
X131105087Y-75310652D01*
X131122991Y-75320222D01*
X131158729Y-75349552D01*
X131260186Y-75432814D01*
X131343448Y-75534271D01*
X131372778Y-75570009D01*
X131372779Y-75570011D01*
X131456443Y-75726533D01*
X131456443Y-75726534D01*
X131507963Y-75896373D01*
X131525359Y-76073000D01*
X131507963Y-76249627D01*
X131493590Y-76297009D01*
X131456443Y-76419467D01*
X131382348Y-76558087D01*
X131372778Y-76575991D01*
X131343448Y-76611729D01*
X131260186Y-76713186D01*
X131158729Y-76796448D01*
X131122991Y-76825778D01*
X131122989Y-76825779D01*
X130966467Y-76909443D01*
X130909853Y-76926616D01*
X130796627Y-76960963D01*
X130730442Y-76967482D01*
X130664260Y-76974000D01*
X130575740Y-76974000D01*
X130509558Y-76967482D01*
X130443373Y-76960963D01*
X130330147Y-76926616D01*
X130273533Y-76909443D01*
X130117011Y-76825779D01*
X130117009Y-76825778D01*
X130081271Y-76796448D01*
X129979814Y-76713186D01*
X129896552Y-76611729D01*
X129867222Y-76575991D01*
X129857652Y-76558087D01*
X129783557Y-76419467D01*
X129746410Y-76297009D01*
X129732037Y-76249627D01*
X129714641Y-76073000D01*
X129732037Y-75896373D01*
X129783557Y-75726534D01*
X129783557Y-75726533D01*
X129867221Y-75570011D01*
X129867222Y-75570009D01*
X129896552Y-75534271D01*
X129979814Y-75432814D01*
X130081271Y-75349552D01*
X130117009Y-75320222D01*
X130134913Y-75310652D01*
X130273533Y-75236557D01*
X130330147Y-75219384D01*
X130443373Y-75185037D01*
X130509558Y-75178518D01*
X130575740Y-75172000D01*
X130664260Y-75172000D01*
X130730442Y-75178518D01*
X130730442Y-75178518D01*
G37*
G36*
X99110443Y-73365519D02*
X99176627Y-73372037D01*
X99289853Y-73406384D01*
X99346467Y-73423557D01*
X99485087Y-73497652D01*
X99502991Y-73507222D01*
X99538729Y-73536552D01*
X99640186Y-73619814D01*
X99723448Y-73721271D01*
X99752778Y-73757009D01*
X99752779Y-73757011D01*
X99836443Y-73913533D01*
X99836443Y-73913534D01*
X99887963Y-74083373D01*
X99905359Y-74260000D01*
X99887963Y-74436627D01*
X99853616Y-74549853D01*
X99836443Y-74606467D01*
X99762348Y-74745087D01*
X99752778Y-74762991D01*
X99723448Y-74798729D01*
X99640186Y-74900186D01*
X99538729Y-74983448D01*
X99502991Y-75012778D01*
X99502989Y-75012779D01*
X99346467Y-75096443D01*
X99289853Y-75113616D01*
X99176627Y-75147963D01*
X99110442Y-75154482D01*
X99044260Y-75161000D01*
X98955740Y-75161000D01*
X98889558Y-75154482D01*
X98823373Y-75147963D01*
X98710147Y-75113616D01*
X98653533Y-75096443D01*
X98497011Y-75012779D01*
X98497009Y-75012778D01*
X98461271Y-74983448D01*
X98359814Y-74900186D01*
X98276552Y-74798729D01*
X98247222Y-74762991D01*
X98237652Y-74745087D01*
X98163557Y-74606467D01*
X98146384Y-74549853D01*
X98112037Y-74436627D01*
X98094641Y-74260000D01*
X98112037Y-74083373D01*
X98163557Y-73913534D01*
X98163557Y-73913533D01*
X98247221Y-73757011D01*
X98247222Y-73757009D01*
X98276552Y-73721271D01*
X98359814Y-73619814D01*
X98461271Y-73536552D01*
X98497009Y-73507222D01*
X98514913Y-73497652D01*
X98653533Y-73423557D01*
X98710147Y-73406384D01*
X98823373Y-73372037D01*
X98889557Y-73365519D01*
X98955740Y-73359000D01*
X99044260Y-73359000D01*
X99110443Y-73365519D01*
X99110443Y-73365519D01*
G37*
G36*
X134124000Y-74434000D02*
X132322000Y-74434000D01*
X132322000Y-72632000D01*
X134124000Y-72632000D01*
X134124000Y-74434000D01*
X134124000Y-74434000D01*
G37*
G36*
X131521000Y-74434000D02*
X129719000Y-74434000D01*
X129719000Y-72632000D01*
X131521000Y-72632000D01*
X131521000Y-74434000D01*
X131521000Y-74434000D01*
G37*
G36*
X136470547Y-66094435D02*
X136586286Y-66129544D01*
X136644157Y-66147099D01*
X136665718Y-66158624D01*
X136804155Y-66232620D01*
X136944396Y-66347713D01*
X137059489Y-66487953D01*
X137099298Y-66562430D01*
X137145010Y-66647951D01*
X137162565Y-66705822D01*
X137197674Y-66821561D01*
X137211000Y-66956865D01*
X137211000Y-67507352D01*
X137197674Y-67642657D01*
X137145010Y-67816266D01*
X137059489Y-67976265D01*
X136944396Y-68116505D01*
X136804156Y-68231598D01*
X136785314Y-68241669D01*
X136644158Y-68317119D01*
X136597551Y-68331257D01*
X136470548Y-68369783D01*
X136290000Y-68387565D01*
X136109453Y-68369783D01*
X135982450Y-68331257D01*
X135935843Y-68317119D01*
X135794687Y-68241669D01*
X135775845Y-68231598D01*
X135635605Y-68116505D01*
X135520512Y-67976265D01*
X135480703Y-67901789D01*
X135434990Y-67816267D01*
X135417435Y-67758396D01*
X135382326Y-67642657D01*
X135369000Y-67507353D01*
X135369000Y-66956866D01*
X135382326Y-66821562D01*
X135434990Y-66647953D01*
X135434990Y-66647952D01*
X135466183Y-66589595D01*
X135520511Y-66487954D01*
X135635604Y-66347713D01*
X135775844Y-66232620D01*
X135912685Y-66159477D01*
X135935842Y-66147099D01*
X135993713Y-66129544D01*
X136109452Y-66094435D01*
X136290000Y-66076653D01*
X136470547Y-66094435D01*
X136470547Y-66094435D01*
G37*
G36*
X131390547Y-66094435D02*
X131506286Y-66129544D01*
X131564157Y-66147099D01*
X131585718Y-66158624D01*
X131724155Y-66232620D01*
X131864396Y-66347713D01*
X131979489Y-66487953D01*
X132019298Y-66562430D01*
X132065010Y-66647951D01*
X132082565Y-66705822D01*
X132117674Y-66821561D01*
X132131000Y-66956865D01*
X132131000Y-67507352D01*
X132117674Y-67642657D01*
X132065010Y-67816266D01*
X131979489Y-67976265D01*
X131864396Y-68116505D01*
X131724156Y-68231598D01*
X131705314Y-68241669D01*
X131564158Y-68317119D01*
X131517551Y-68331257D01*
X131390548Y-68369783D01*
X131210000Y-68387565D01*
X131029453Y-68369783D01*
X130902450Y-68331257D01*
X130855843Y-68317119D01*
X130714687Y-68241669D01*
X130695845Y-68231598D01*
X130555605Y-68116505D01*
X130440512Y-67976265D01*
X130400703Y-67901789D01*
X130354990Y-67816267D01*
X130337435Y-67758396D01*
X130302326Y-67642657D01*
X130289000Y-67507353D01*
X130289000Y-66956866D01*
X130302326Y-66821562D01*
X130354990Y-66647953D01*
X130354990Y-66647952D01*
X130386183Y-66589595D01*
X130440511Y-66487954D01*
X130555604Y-66347713D01*
X130695844Y-66232620D01*
X130832685Y-66159477D01*
X130855842Y-66147099D01*
X130913713Y-66129544D01*
X131029452Y-66094435D01*
X131210000Y-66076653D01*
X131390547Y-66094435D01*
X131390547Y-66094435D01*
G37*
G36*
X133930547Y-66094435D02*
X134046286Y-66129544D01*
X134104157Y-66147099D01*
X134125718Y-66158624D01*
X134264155Y-66232620D01*
X134404396Y-66347713D01*
X134519489Y-66487953D01*
X134559298Y-66562430D01*
X134605010Y-66647951D01*
X134622565Y-66705822D01*
X134657674Y-66821561D01*
X134671000Y-66956865D01*
X134671000Y-67507352D01*
X134657674Y-67642657D01*
X134605010Y-67816266D01*
X134519489Y-67976265D01*
X134404396Y-68116505D01*
X134264156Y-68231598D01*
X134245314Y-68241669D01*
X134104158Y-68317119D01*
X134057551Y-68331257D01*
X133930548Y-68369783D01*
X133750000Y-68387565D01*
X133569453Y-68369783D01*
X133442450Y-68331257D01*
X133395843Y-68317119D01*
X133254687Y-68241669D01*
X133235845Y-68231598D01*
X133095605Y-68116505D01*
X132980512Y-67976265D01*
X132940703Y-67901789D01*
X132894990Y-67816267D01*
X132877435Y-67758396D01*
X132842326Y-67642657D01*
X132829000Y-67507353D01*
X132829000Y-66956866D01*
X132842326Y-66821562D01*
X132894990Y-66647953D01*
X132894990Y-66647952D01*
X132926183Y-66589595D01*
X132980511Y-66487954D01*
X133095604Y-66347713D01*
X133235844Y-66232620D01*
X133372685Y-66159477D01*
X133395842Y-66147099D01*
X133453713Y-66129544D01*
X133569452Y-66094435D01*
X133750000Y-66076653D01*
X133930547Y-66094435D01*
X133930547Y-66094435D01*
G37*
G36*
X129449560Y-66085075D02*
X129482383Y-66095032D01*
X129512632Y-66111201D01*
X129539148Y-66132961D01*
X129560908Y-66159477D01*
X129577077Y-66189726D01*
X129587034Y-66222549D01*
X129591000Y-66262821D01*
X129591000Y-68201397D01*
X129587034Y-68241669D01*
X129577077Y-68274492D01*
X129560908Y-68304741D01*
X129539148Y-68331257D01*
X129512632Y-68353017D01*
X129482383Y-68369186D01*
X129449560Y-68379143D01*
X129409288Y-68383109D01*
X127930712Y-68383109D01*
X127890440Y-68379143D01*
X127857617Y-68369186D01*
X127827368Y-68353017D01*
X127800852Y-68331257D01*
X127779092Y-68304741D01*
X127762923Y-68274492D01*
X127752966Y-68241669D01*
X127749000Y-68201397D01*
X127749000Y-66262821D01*
X127752966Y-66222549D01*
X127762923Y-66189726D01*
X127779092Y-66159477D01*
X127800852Y-66132961D01*
X127827368Y-66111201D01*
X127857617Y-66095032D01*
X127890440Y-66085075D01*
X127930712Y-66081109D01*
X129409288Y-66081109D01*
X129449560Y-66085075D01*
X129449560Y-66085075D01*
G37*
G36*
X114987565Y-63889389D02*
X115178834Y-63968615D01*
X115350976Y-64083637D01*
X115497363Y-64230024D01*
X115612385Y-64402166D01*
X115691611Y-64593435D01*
X115732000Y-64796484D01*
X115732000Y-65003516D01*
X115691611Y-65206565D01*
X115612385Y-65397834D01*
X115497363Y-65569976D01*
X115350976Y-65716363D01*
X115178834Y-65831385D01*
X114987565Y-65910611D01*
X114784516Y-65951000D01*
X114577484Y-65951000D01*
X114374435Y-65910611D01*
X114183166Y-65831385D01*
X114011024Y-65716363D01*
X113864637Y-65569976D01*
X113749615Y-65397834D01*
X113670389Y-65206565D01*
X113630000Y-65003516D01*
X113630000Y-64796484D01*
X113670389Y-64593435D01*
X113749615Y-64402166D01*
X113864637Y-64230024D01*
X114011024Y-64083637D01*
X114183166Y-63968615D01*
X114374435Y-63889389D01*
X114577484Y-63849000D01*
X114784516Y-63849000D01*
X114987565Y-63889389D01*
X114987565Y-63889389D01*
G37*
G36*
X131390547Y-59109435D02*
X131506286Y-59144544D01*
X131564157Y-59162099D01*
X131585718Y-59173624D01*
X131724155Y-59247620D01*
X131864396Y-59362713D01*
X131979489Y-59502953D01*
X132019298Y-59577430D01*
X132065010Y-59662951D01*
X132074257Y-59693435D01*
X132117674Y-59836561D01*
X132131000Y-59971865D01*
X132131000Y-60522352D01*
X132117674Y-60657657D01*
X132065010Y-60831266D01*
X131979489Y-60991265D01*
X131864396Y-61131505D01*
X131724156Y-61246598D01*
X131705314Y-61256669D01*
X131564158Y-61332119D01*
X131517551Y-61346257D01*
X131390548Y-61384783D01*
X131210000Y-61402565D01*
X131029453Y-61384783D01*
X130902450Y-61346257D01*
X130855843Y-61332119D01*
X130714687Y-61256669D01*
X130695845Y-61246598D01*
X130555605Y-61131505D01*
X130440512Y-60991265D01*
X130400703Y-60916789D01*
X130354990Y-60831267D01*
X130306063Y-60669976D01*
X130302326Y-60657657D01*
X130289000Y-60522353D01*
X130289000Y-59971866D01*
X130302326Y-59836562D01*
X130354990Y-59662953D01*
X130354990Y-59662952D01*
X130386183Y-59604595D01*
X130440511Y-59502954D01*
X130555604Y-59362713D01*
X130695844Y-59247620D01*
X130815548Y-59183637D01*
X130855842Y-59162099D01*
X130913713Y-59144544D01*
X131029452Y-59109435D01*
X131210000Y-59091653D01*
X131390547Y-59109435D01*
X131390547Y-59109435D01*
G37*
G36*
X133930547Y-59109435D02*
X134046286Y-59144544D01*
X134104157Y-59162099D01*
X134125718Y-59173624D01*
X134264155Y-59247620D01*
X134404396Y-59362713D01*
X134519489Y-59502953D01*
X134559298Y-59577430D01*
X134605010Y-59662951D01*
X134614257Y-59693435D01*
X134657674Y-59836561D01*
X134671000Y-59971865D01*
X134671000Y-60522352D01*
X134657674Y-60657657D01*
X134605010Y-60831266D01*
X134519489Y-60991265D01*
X134404396Y-61131505D01*
X134264156Y-61246598D01*
X134245314Y-61256669D01*
X134104158Y-61332119D01*
X134057551Y-61346257D01*
X133930548Y-61384783D01*
X133750000Y-61402565D01*
X133569453Y-61384783D01*
X133442450Y-61346257D01*
X133395843Y-61332119D01*
X133254687Y-61256669D01*
X133235845Y-61246598D01*
X133095605Y-61131505D01*
X132980512Y-60991265D01*
X132940703Y-60916789D01*
X132894990Y-60831267D01*
X132846063Y-60669976D01*
X132842326Y-60657657D01*
X132829000Y-60522353D01*
X132829000Y-59971866D01*
X132842326Y-59836562D01*
X132894990Y-59662953D01*
X132894990Y-59662952D01*
X132926183Y-59604595D01*
X132980511Y-59502954D01*
X133095604Y-59362713D01*
X133235844Y-59247620D01*
X133355548Y-59183637D01*
X133395842Y-59162099D01*
X133453713Y-59144544D01*
X133569452Y-59109435D01*
X133750000Y-59091653D01*
X133930547Y-59109435D01*
X133930547Y-59109435D01*
G37*
G36*
X136470547Y-59109435D02*
X136586286Y-59144544D01*
X136644157Y-59162099D01*
X136665718Y-59173624D01*
X136804155Y-59247620D01*
X136944396Y-59362713D01*
X137059489Y-59502953D01*
X137099298Y-59577430D01*
X137145010Y-59662951D01*
X137154257Y-59693435D01*
X137197674Y-59836561D01*
X137211000Y-59971865D01*
X137211000Y-60522352D01*
X137197674Y-60657657D01*
X137145010Y-60831266D01*
X137059489Y-60991265D01*
X136944396Y-61131505D01*
X136804156Y-61246598D01*
X136785314Y-61256669D01*
X136644158Y-61332119D01*
X136597551Y-61346257D01*
X136470548Y-61384783D01*
X136290000Y-61402565D01*
X136109453Y-61384783D01*
X135982450Y-61346257D01*
X135935843Y-61332119D01*
X135794687Y-61256669D01*
X135775845Y-61246598D01*
X135635605Y-61131505D01*
X135520512Y-60991265D01*
X135480703Y-60916789D01*
X135434990Y-60831267D01*
X135386063Y-60669976D01*
X135382326Y-60657657D01*
X135369000Y-60522353D01*
X135369000Y-59971866D01*
X135382326Y-59836562D01*
X135434990Y-59662953D01*
X135434990Y-59662952D01*
X135466183Y-59604595D01*
X135520511Y-59502954D01*
X135635604Y-59362713D01*
X135775844Y-59247620D01*
X135895548Y-59183637D01*
X135935842Y-59162099D01*
X135993713Y-59144544D01*
X136109452Y-59109435D01*
X136290000Y-59091653D01*
X136470547Y-59109435D01*
X136470547Y-59109435D01*
G37*
G36*
X129449560Y-59100075D02*
X129482383Y-59110032D01*
X129512632Y-59126201D01*
X129539148Y-59147961D01*
X129560908Y-59174477D01*
X129577077Y-59204726D01*
X129587034Y-59237549D01*
X129591000Y-59277821D01*
X129591000Y-61216397D01*
X129587034Y-61256669D01*
X129577077Y-61289492D01*
X129560908Y-61319741D01*
X129539148Y-61346257D01*
X129512632Y-61368017D01*
X129482383Y-61384186D01*
X129449560Y-61394143D01*
X129409288Y-61398109D01*
X127930712Y-61398109D01*
X127890440Y-61394143D01*
X127857617Y-61384186D01*
X127827368Y-61368017D01*
X127800852Y-61346257D01*
X127779092Y-61319741D01*
X127762923Y-61289492D01*
X127752966Y-61256669D01*
X127749000Y-61216397D01*
X127749000Y-59277821D01*
X127752966Y-59237549D01*
X127762923Y-59204726D01*
X127779092Y-59174477D01*
X127800852Y-59147961D01*
X127827368Y-59126201D01*
X127857617Y-59110032D01*
X127890440Y-59100075D01*
X127930712Y-59096109D01*
X129409288Y-59096109D01*
X129449560Y-59100075D01*
X129449560Y-59100075D01*
G37*
G36*
X114987565Y-58989389D02*
X115178834Y-59068615D01*
X115350976Y-59183637D01*
X115497363Y-59330024D01*
X115612385Y-59502166D01*
X115691611Y-59693435D01*
X115732000Y-59896484D01*
X115732000Y-60103516D01*
X115691611Y-60306565D01*
X115612385Y-60497834D01*
X115497363Y-60669976D01*
X115350976Y-60816363D01*
X115178834Y-60931385D01*
X114987565Y-61010611D01*
X114784516Y-61051000D01*
X114577484Y-61051000D01*
X114374435Y-61010611D01*
X114183166Y-60931385D01*
X114011024Y-60816363D01*
X113864637Y-60669976D01*
X113749615Y-60497834D01*
X113670389Y-60306565D01*
X113630000Y-60103516D01*
X113630000Y-59896484D01*
X113670389Y-59693435D01*
X113749615Y-59502166D01*
X113864637Y-59330024D01*
X114011024Y-59183637D01*
X114183166Y-59068615D01*
X114374435Y-58989389D01*
X114577484Y-58949000D01*
X114784516Y-58949000D01*
X114987565Y-58989389D01*
X114987565Y-58989389D01*
G37*
G36*
X133460442Y-53715518D02*
X133526627Y-53722037D01*
X133639853Y-53756384D01*
X133696467Y-53773557D01*
X133835087Y-53847652D01*
X133852991Y-53857222D01*
X133888729Y-53886552D01*
X133990186Y-53969814D01*
X134073448Y-54071271D01*
X134102778Y-54107009D01*
X134102779Y-54107011D01*
X134186443Y-54263533D01*
X134186443Y-54263534D01*
X134237963Y-54433373D01*
X134255359Y-54610000D01*
X134237963Y-54786627D01*
X134203616Y-54899853D01*
X134186443Y-54956467D01*
X134112348Y-55095087D01*
X134102778Y-55112991D01*
X134073448Y-55148729D01*
X133990186Y-55250186D01*
X133888729Y-55333448D01*
X133852991Y-55362778D01*
X133852989Y-55362779D01*
X133696467Y-55446443D01*
X133639853Y-55463616D01*
X133526627Y-55497963D01*
X133460442Y-55504482D01*
X133394260Y-55511000D01*
X133305740Y-55511000D01*
X133239558Y-55504482D01*
X133173373Y-55497963D01*
X133060147Y-55463616D01*
X133003533Y-55446443D01*
X132847011Y-55362779D01*
X132847009Y-55362778D01*
X132811271Y-55333448D01*
X132709814Y-55250186D01*
X132626552Y-55148729D01*
X132597222Y-55112991D01*
X132587652Y-55095087D01*
X132513557Y-54956467D01*
X132496384Y-54899853D01*
X132462037Y-54786627D01*
X132444641Y-54610000D01*
X132462037Y-54433373D01*
X132513557Y-54263534D01*
X132513557Y-54263533D01*
X132597221Y-54107011D01*
X132597222Y-54107009D01*
X132626552Y-54071271D01*
X132709814Y-53969814D01*
X132811271Y-53886552D01*
X132847009Y-53857222D01*
X132864913Y-53847652D01*
X133003533Y-53773557D01*
X133060147Y-53756384D01*
X133173373Y-53722037D01*
X133239558Y-53715518D01*
X133305740Y-53709000D01*
X133394260Y-53709000D01*
X133460442Y-53715518D01*
X133460442Y-53715518D01*
G37*
G36*
X130920442Y-53715518D02*
X130986627Y-53722037D01*
X131099853Y-53756384D01*
X131156467Y-53773557D01*
X131295087Y-53847652D01*
X131312991Y-53857222D01*
X131348729Y-53886552D01*
X131450186Y-53969814D01*
X131533448Y-54071271D01*
X131562778Y-54107009D01*
X131562779Y-54107011D01*
X131646443Y-54263533D01*
X131646443Y-54263534D01*
X131697963Y-54433373D01*
X131715359Y-54610000D01*
X131697963Y-54786627D01*
X131663616Y-54899853D01*
X131646443Y-54956467D01*
X131572348Y-55095087D01*
X131562778Y-55112991D01*
X131533448Y-55148729D01*
X131450186Y-55250186D01*
X131348729Y-55333448D01*
X131312991Y-55362778D01*
X131312989Y-55362779D01*
X131156467Y-55446443D01*
X131099853Y-55463616D01*
X130986627Y-55497963D01*
X130920442Y-55504482D01*
X130854260Y-55511000D01*
X130765740Y-55511000D01*
X130699558Y-55504482D01*
X130633373Y-55497963D01*
X130520147Y-55463616D01*
X130463533Y-55446443D01*
X130307011Y-55362779D01*
X130307009Y-55362778D01*
X130271271Y-55333448D01*
X130169814Y-55250186D01*
X130086552Y-55148729D01*
X130057222Y-55112991D01*
X130047652Y-55095087D01*
X129973557Y-54956467D01*
X129956384Y-54899853D01*
X129922037Y-54786627D01*
X129904641Y-54610000D01*
X129922037Y-54433373D01*
X129973557Y-54263534D01*
X129973557Y-54263533D01*
X130057221Y-54107011D01*
X130057222Y-54107009D01*
X130086552Y-54071271D01*
X130169814Y-53969814D01*
X130271271Y-53886552D01*
X130307009Y-53857222D01*
X130324913Y-53847652D01*
X130463533Y-53773557D01*
X130520147Y-53756384D01*
X130633373Y-53722037D01*
X130699558Y-53715518D01*
X130765740Y-53709000D01*
X130854260Y-53709000D01*
X130920442Y-53715518D01*
X130920442Y-53715518D01*
G37*
G36*
X133460443Y-51175519D02*
X133526627Y-51182037D01*
X133639853Y-51216384D01*
X133696467Y-51233557D01*
X133835087Y-51307652D01*
X133852991Y-51317222D01*
X133888729Y-51346552D01*
X133990186Y-51429814D01*
X134073448Y-51531271D01*
X134102778Y-51567009D01*
X134102779Y-51567011D01*
X134186443Y-51723533D01*
X134186443Y-51723534D01*
X134237963Y-51893373D01*
X134255359Y-52070000D01*
X134237963Y-52246627D01*
X134203616Y-52359853D01*
X134186443Y-52416467D01*
X134112348Y-52555087D01*
X134102778Y-52572991D01*
X134073448Y-52608729D01*
X133990186Y-52710186D01*
X133888729Y-52793448D01*
X133852991Y-52822778D01*
X133852989Y-52822779D01*
X133696467Y-52906443D01*
X133639853Y-52923616D01*
X133526627Y-52957963D01*
X133460442Y-52964482D01*
X133394260Y-52971000D01*
X133305740Y-52971000D01*
X133239558Y-52964482D01*
X133173373Y-52957963D01*
X133060147Y-52923616D01*
X133003533Y-52906443D01*
X132847011Y-52822779D01*
X132847009Y-52822778D01*
X132811271Y-52793448D01*
X132709814Y-52710186D01*
X132626552Y-52608729D01*
X132597222Y-52572991D01*
X132587652Y-52555087D01*
X132513557Y-52416467D01*
X132496384Y-52359853D01*
X132462037Y-52246627D01*
X132444641Y-52070000D01*
X132462037Y-51893373D01*
X132513557Y-51723534D01*
X132513557Y-51723533D01*
X132597221Y-51567011D01*
X132597222Y-51567009D01*
X132626552Y-51531271D01*
X132709814Y-51429814D01*
X132811271Y-51346552D01*
X132847009Y-51317222D01*
X132864913Y-51307652D01*
X133003533Y-51233557D01*
X133060147Y-51216384D01*
X133173373Y-51182037D01*
X133239557Y-51175519D01*
X133305740Y-51169000D01*
X133394260Y-51169000D01*
X133460443Y-51175519D01*
X133460443Y-51175519D01*
G37*
G36*
X130920443Y-51175519D02*
X130986627Y-51182037D01*
X131099853Y-51216384D01*
X131156467Y-51233557D01*
X131295087Y-51307652D01*
X131312991Y-51317222D01*
X131348729Y-51346552D01*
X131450186Y-51429814D01*
X131533448Y-51531271D01*
X131562778Y-51567009D01*
X131562779Y-51567011D01*
X131646443Y-51723533D01*
X131646443Y-51723534D01*
X131697963Y-51893373D01*
X131715359Y-52070000D01*
X131697963Y-52246627D01*
X131663616Y-52359853D01*
X131646443Y-52416467D01*
X131572348Y-52555087D01*
X131562778Y-52572991D01*
X131533448Y-52608729D01*
X131450186Y-52710186D01*
X131348729Y-52793448D01*
X131312991Y-52822778D01*
X131312989Y-52822779D01*
X131156467Y-52906443D01*
X131099853Y-52923616D01*
X130986627Y-52957963D01*
X130920442Y-52964482D01*
X130854260Y-52971000D01*
X130765740Y-52971000D01*
X130699558Y-52964482D01*
X130633373Y-52957963D01*
X130520147Y-52923616D01*
X130463533Y-52906443D01*
X130307011Y-52822779D01*
X130307009Y-52822778D01*
X130271271Y-52793448D01*
X130169814Y-52710186D01*
X130086552Y-52608729D01*
X130057222Y-52572991D01*
X130047652Y-52555087D01*
X129973557Y-52416467D01*
X129956384Y-52359853D01*
X129922037Y-52246627D01*
X129904641Y-52070000D01*
X129922037Y-51893373D01*
X129973557Y-51723534D01*
X129973557Y-51723533D01*
X130057221Y-51567011D01*
X130057222Y-51567009D01*
X130086552Y-51531271D01*
X130169814Y-51429814D01*
X130271271Y-51346552D01*
X130307009Y-51317222D01*
X130324913Y-51307652D01*
X130463533Y-51233557D01*
X130520147Y-51216384D01*
X130633373Y-51182037D01*
X130699557Y-51175519D01*
X130765740Y-51169000D01*
X130854260Y-51169000D01*
X130920443Y-51175519D01*
X130920443Y-51175519D01*
G37*
G36*
X100375256Y-48391298D02*
X100481579Y-48412447D01*
X100782042Y-48536903D01*
X100939386Y-48642037D01*
X101052454Y-48717587D01*
X101282413Y-48947546D01*
X101282415Y-48947549D01*
X101440096Y-49183534D01*
X101463098Y-49217960D01*
X101587553Y-49518422D01*
X101651000Y-49837389D01*
X101651000Y-50162611D01*
X101587553Y-50481578D01*
X101463098Y-50782040D01*
X101282413Y-51052454D01*
X101052454Y-51282413D01*
X101052451Y-51282415D01*
X100782042Y-51463097D01*
X100481579Y-51587553D01*
X100375256Y-51608702D01*
X100162611Y-51651000D01*
X99837389Y-51651000D01*
X99624744Y-51608702D01*
X99518421Y-51587553D01*
X99217958Y-51463097D01*
X98947549Y-51282415D01*
X98947546Y-51282413D01*
X98717587Y-51052454D01*
X98536902Y-50782040D01*
X98412447Y-50481578D01*
X98349000Y-50162611D01*
X98349000Y-49837389D01*
X98412447Y-49518422D01*
X98536902Y-49217960D01*
X98559905Y-49183534D01*
X98717585Y-48947549D01*
X98717587Y-48947546D01*
X98947546Y-48717587D01*
X99060614Y-48642037D01*
X99217958Y-48536903D01*
X99518421Y-48412447D01*
X99624744Y-48391298D01*
X99837389Y-48349000D01*
X100162611Y-48349000D01*
X100375256Y-48391298D01*
X100375256Y-48391298D01*
G37*
G36*
X123875256Y-48391298D02*
X123981579Y-48412447D01*
X124282042Y-48536903D01*
X124439386Y-48642037D01*
X124552454Y-48717587D01*
X124782413Y-48947546D01*
X124782415Y-48947549D01*
X124940096Y-49183534D01*
X124963098Y-49217960D01*
X125087553Y-49518422D01*
X125151000Y-49837389D01*
X125151000Y-50162611D01*
X125087553Y-50481578D01*
X124963098Y-50782040D01*
X124782413Y-51052454D01*
X124552454Y-51282413D01*
X124552451Y-51282415D01*
X124282042Y-51463097D01*
X123981579Y-51587553D01*
X123875256Y-51608702D01*
X123662611Y-51651000D01*
X123337389Y-51651000D01*
X123124744Y-51608702D01*
X123018421Y-51587553D01*
X122717958Y-51463097D01*
X122447549Y-51282415D01*
X122447546Y-51282413D01*
X122217587Y-51052454D01*
X122036902Y-50782040D01*
X121912447Y-50481578D01*
X121849000Y-50162611D01*
X121849000Y-49837389D01*
X121912447Y-49518422D01*
X122036902Y-49217960D01*
X122059905Y-49183534D01*
X122217585Y-48947549D01*
X122217587Y-48947546D01*
X122447546Y-48717587D01*
X122560614Y-48642037D01*
X122717958Y-48536903D01*
X123018421Y-48412447D01*
X123124744Y-48391298D01*
X123337389Y-48349000D01*
X123662611Y-48349000D01*
X123875256Y-48391298D01*
X123875256Y-48391298D01*
G37*
G36*
X131711000Y-50431000D02*
X129909000Y-50431000D01*
X129909000Y-48629000D01*
X131711000Y-48629000D01*
X131711000Y-50431000D01*
X131711000Y-50431000D01*
G37*
G36*
X133460443Y-48635519D02*
X133526627Y-48642037D01*
X133639853Y-48676384D01*
X133696467Y-48693557D01*
X133741423Y-48717587D01*
X133852991Y-48777222D01*
X133888729Y-48806552D01*
X133990186Y-48889814D01*
X134073448Y-48991271D01*
X134102778Y-49027009D01*
X134102779Y-49027011D01*
X134186443Y-49183533D01*
X134196886Y-49217960D01*
X134237963Y-49353373D01*
X134255359Y-49530000D01*
X134237963Y-49706627D01*
X134203616Y-49819853D01*
X134186443Y-49876467D01*
X134112348Y-50015087D01*
X134102778Y-50032991D01*
X134073448Y-50068729D01*
X133990186Y-50170186D01*
X133888729Y-50253448D01*
X133852991Y-50282778D01*
X133852989Y-50282779D01*
X133696467Y-50366443D01*
X133639853Y-50383616D01*
X133526627Y-50417963D01*
X133460443Y-50424481D01*
X133394260Y-50431000D01*
X133305740Y-50431000D01*
X133239558Y-50424482D01*
X133173373Y-50417963D01*
X133060147Y-50383616D01*
X133003533Y-50366443D01*
X132847011Y-50282779D01*
X132847009Y-50282778D01*
X132811271Y-50253448D01*
X132709814Y-50170186D01*
X132626552Y-50068729D01*
X132597222Y-50032991D01*
X132587652Y-50015087D01*
X132513557Y-49876467D01*
X132496384Y-49819853D01*
X132462037Y-49706627D01*
X132444641Y-49530000D01*
X132462037Y-49353373D01*
X132503114Y-49217960D01*
X132513557Y-49183533D01*
X132597221Y-49027011D01*
X132597222Y-49027009D01*
X132626552Y-48991271D01*
X132709814Y-48889814D01*
X132811271Y-48806552D01*
X132847009Y-48777222D01*
X132958577Y-48717587D01*
X133003533Y-48693557D01*
X133060147Y-48676384D01*
X133173373Y-48642037D01*
X133239557Y-48635519D01*
X133305740Y-48629000D01*
X133394260Y-48629000D01*
X133460443Y-48635519D01*
X133460443Y-48635519D01*
G37*
G36*
X104062807Y-42944765D02*
X104191670Y-42970397D01*
X104342509Y-43032877D01*
X104555828Y-43121236D01*
X104883566Y-43340224D01*
X105162276Y-43618934D01*
X105381264Y-43946672D01*
X105532103Y-44310831D01*
X105609000Y-44697417D01*
X105609000Y-45091583D01*
X105532103Y-45478169D01*
X105381264Y-45842328D01*
X105162276Y-46170066D01*
X104883566Y-46448776D01*
X104555828Y-46667764D01*
X104342509Y-46756123D01*
X104191670Y-46818603D01*
X104062807Y-46844235D01*
X103805083Y-46895500D01*
X103410917Y-46895500D01*
X103153193Y-46844235D01*
X103024330Y-46818603D01*
X102873491Y-46756123D01*
X102660172Y-46667764D01*
X102332434Y-46448776D01*
X102053724Y-46170066D01*
X101834736Y-45842328D01*
X101683897Y-45478169D01*
X101607000Y-45091583D01*
X101607000Y-44697417D01*
X101683897Y-44310831D01*
X101834736Y-43946672D01*
X102053724Y-43618934D01*
X102332434Y-43340224D01*
X102660172Y-43121236D01*
X102873491Y-43032877D01*
X103024330Y-42970397D01*
X103153193Y-42944765D01*
X103410917Y-42893500D01*
X103805083Y-42893500D01*
X104062807Y-42944765D01*
X104062807Y-42944765D01*
G37*
G36*
X109062807Y-42944765D02*
X109191670Y-42970397D01*
X109342509Y-43032877D01*
X109555828Y-43121236D01*
X109883566Y-43340224D01*
X110162276Y-43618934D01*
X110381264Y-43946672D01*
X110532103Y-44310831D01*
X110609000Y-44697417D01*
X110609000Y-45091583D01*
X110532103Y-45478169D01*
X110381264Y-45842328D01*
X110162276Y-46170066D01*
X109883566Y-46448776D01*
X109555828Y-46667764D01*
X109342509Y-46756123D01*
X109191670Y-46818603D01*
X109062807Y-46844235D01*
X108805083Y-46895500D01*
X108410917Y-46895500D01*
X108153193Y-46844235D01*
X108024330Y-46818603D01*
X107873491Y-46756123D01*
X107660172Y-46667764D01*
X107332434Y-46448776D01*
X107053724Y-46170066D01*
X106834736Y-45842328D01*
X106683897Y-45478169D01*
X106607000Y-45091583D01*
X106607000Y-44697417D01*
X106683897Y-44310831D01*
X106834736Y-43946672D01*
X107053724Y-43618934D01*
X107332434Y-43340224D01*
X107660172Y-43121236D01*
X107873491Y-43032877D01*
X108024330Y-42970397D01*
X108153193Y-42944765D01*
X108410917Y-42893500D01*
X108805083Y-42893500D01*
X109062807Y-42944765D01*
X109062807Y-42944765D01*
G37*
G36*
X95875256Y-33141298D02*
X95981579Y-33162447D01*
X96282042Y-33286903D01*
X96548852Y-33465180D01*
X96552454Y-33467587D01*
X96782413Y-33697546D01*
X96782415Y-33697549D01*
X96963097Y-33967958D01*
X97042967Y-34160780D01*
X97087553Y-34268422D01*
X97151000Y-34587389D01*
X97151000Y-34912611D01*
X97108702Y-35125256D01*
X97087821Y-35230234D01*
X97087553Y-35231578D01*
X96963098Y-35532040D01*
X96782413Y-35802454D01*
X96552454Y-36032413D01*
X96552451Y-36032415D01*
X96282042Y-36213097D01*
X95981579Y-36337553D01*
X95875256Y-36358702D01*
X95662611Y-36401000D01*
X95337389Y-36401000D01*
X95124744Y-36358702D01*
X95018421Y-36337553D01*
X94717958Y-36213097D01*
X94447549Y-36032415D01*
X94447546Y-36032413D01*
X94217587Y-35802454D01*
X94036902Y-35532040D01*
X93912447Y-35231578D01*
X93912180Y-35230234D01*
X93891298Y-35125256D01*
X93849000Y-34912611D01*
X93849000Y-34587389D01*
X93912447Y-34268422D01*
X93957034Y-34160780D01*
X94036903Y-33967958D01*
X94217585Y-33697549D01*
X94217587Y-33697546D01*
X94447546Y-33467587D01*
X94451148Y-33465180D01*
X94717958Y-33286903D01*
X95018421Y-33162447D01*
X95124744Y-33141298D01*
X95337389Y-33099000D01*
X95662611Y-33099000D01*
X95875256Y-33141298D01*
X95875256Y-33141298D01*
G37*
G36*
X136375256Y-33141298D02*
X136481579Y-33162447D01*
X136782042Y-33286903D01*
X137048852Y-33465180D01*
X137052454Y-33467587D01*
X137282413Y-33697546D01*
X137282415Y-33697549D01*
X137463097Y-33967958D01*
X137542967Y-34160780D01*
X137587553Y-34268422D01*
X137651000Y-34587389D01*
X137651000Y-34912611D01*
X137608702Y-35125256D01*
X137587821Y-35230234D01*
X137587553Y-35231578D01*
X137463098Y-35532040D01*
X137282413Y-35802454D01*
X137052454Y-36032413D01*
X137052451Y-36032415D01*
X136782042Y-36213097D01*
X136481579Y-36337553D01*
X136375256Y-36358702D01*
X136162611Y-36401000D01*
X135837389Y-36401000D01*
X135624744Y-36358702D01*
X135518421Y-36337553D01*
X135217958Y-36213097D01*
X134947549Y-36032415D01*
X134947546Y-36032413D01*
X134717587Y-35802454D01*
X134536902Y-35532040D01*
X134412447Y-35231578D01*
X134412180Y-35230234D01*
X134391298Y-35125256D01*
X134349000Y-34912611D01*
X134349000Y-34587389D01*
X134412447Y-34268422D01*
X134457034Y-34160780D01*
X134536903Y-33967958D01*
X134717585Y-33697549D01*
X134717587Y-33697546D01*
X134947546Y-33467587D01*
X134951148Y-33465180D01*
X135217958Y-33286903D01*
X135518421Y-33162447D01*
X135624744Y-33141298D01*
X135837389Y-33099000D01*
X136162611Y-33099000D01*
X136375256Y-33141298D01*
X136375256Y-33141298D01*
G37*
G36*
X111943734Y-33787732D02*
X112153202Y-33874496D01*
X112341723Y-34000462D01*
X112502038Y-34160777D01*
X112628004Y-34349298D01*
X112714768Y-34558766D01*
X112759000Y-34781135D01*
X112759000Y-35007865D01*
X112714768Y-35230234D01*
X112628004Y-35439702D01*
X112502038Y-35628223D01*
X112341723Y-35788538D01*
X112153202Y-35914504D01*
X111943734Y-36001268D01*
X111721365Y-36045500D01*
X111494635Y-36045500D01*
X111272266Y-36001268D01*
X111062798Y-35914504D01*
X110874277Y-35788538D01*
X110713962Y-35628223D01*
X110587996Y-35439702D01*
X110501232Y-35230234D01*
X110457000Y-35007865D01*
X110457000Y-34781135D01*
X110501232Y-34558766D01*
X110587996Y-34349298D01*
X110713962Y-34160777D01*
X110874277Y-34000462D01*
X111062798Y-33874496D01*
X111272266Y-33787732D01*
X111494635Y-33743500D01*
X111721365Y-33743500D01*
X111943734Y-33787732D01*
X111943734Y-33787732D01*
G37*
G36*
X100943734Y-33787732D02*
X101153202Y-33874496D01*
X101341723Y-34000462D01*
X101502038Y-34160777D01*
X101628004Y-34349298D01*
X101714768Y-34558766D01*
X101759000Y-34781135D01*
X101759000Y-35007865D01*
X101714768Y-35230234D01*
X101628004Y-35439702D01*
X101502038Y-35628223D01*
X101341723Y-35788538D01*
X101153202Y-35914504D01*
X100943734Y-36001268D01*
X100721365Y-36045500D01*
X100494635Y-36045500D01*
X100272266Y-36001268D01*
X100062798Y-35914504D01*
X99874277Y-35788538D01*
X99713962Y-35628223D01*
X99587996Y-35439702D01*
X99501232Y-35230234D01*
X99457000Y-35007865D01*
X99457000Y-34781135D01*
X99501232Y-34558766D01*
X99587996Y-34349298D01*
X99713962Y-34160777D01*
X99874277Y-34000462D01*
X100062798Y-33874496D01*
X100272266Y-33787732D01*
X100494635Y-33743500D01*
X100721365Y-33743500D01*
X100943734Y-33787732D01*
X100943734Y-33787732D01*
G37*
M02*
