G04 #@! TF.GenerationSoftware,KiCad,Pcbnew,5.0.2-bee76a0~70~ubuntu16.04.1*
G04 #@! TF.CreationDate,2019-07-23T17:30:48+02:00*
G04 #@! TF.ProjectId,ATtiny_3.0,41547469-6e79-45f3-932e-302e6b696361,rev?*
G04 #@! TF.SameCoordinates,Original*
G04 #@! TF.FileFunction,Copper,L1,Top*
G04 #@! TF.FilePolarity,Positive*
%FSLAX46Y46*%
G04 Gerber Fmt 4.6, Leading zero omitted, Abs format (unit mm)*
G04 Created by KiCad (PCBNEW 5.0.2-bee76a0~70~ubuntu16.04.1) date mar 23 jul 2019 17:30:48 CEST*
%MOMM*%
%LPD*%
G01*
G04 APERTURE LIST*
G04 #@! TA.AperFunction,ComponentPad*
%ADD10R,1.700000X1.700000*%
G04 #@! TD*
G04 #@! TA.AperFunction,ComponentPad*
%ADD11O,1.700000X1.700000*%
G04 #@! TD*
G04 #@! TA.AperFunction,ComponentPad*
%ADD12C,3.900000*%
G04 #@! TD*
G04 #@! TA.AperFunction,ComponentPad*
%ADD13C,2.200000*%
G04 #@! TD*
G04 #@! TA.AperFunction,ComponentPad*
%ADD14C,0.600000*%
G04 #@! TD*
G04 #@! TA.AperFunction,Conductor*
%ADD15C,0.100000*%
G04 #@! TD*
G04 #@! TA.AperFunction,SMDPad,CuDef*
%ADD16C,1.150000*%
G04 #@! TD*
G04 #@! TA.AperFunction,SMDPad,CuDef*
%ADD17C,1.600000*%
G04 #@! TD*
G04 #@! TA.AperFunction,SMDPad,CuDef*
%ADD18R,3.500000X2.300000*%
G04 #@! TD*
G04 #@! TA.AperFunction,SMDPad,CuDef*
%ADD19R,2.000000X1.300000*%
G04 #@! TD*
G04 #@! TA.AperFunction,SMDPad,CuDef*
%ADD20R,1.950000X0.600000*%
G04 #@! TD*
G04 #@! TA.AperFunction,SMDPad,CuDef*
%ADD21R,3.800000X2.000000*%
G04 #@! TD*
G04 #@! TA.AperFunction,SMDPad,CuDef*
%ADD22R,1.500000X2.000000*%
G04 #@! TD*
G04 #@! TA.AperFunction,ComponentPad*
%ADD23C,2.000000*%
G04 #@! TD*
G04 #@! TA.AperFunction,ComponentPad*
%ADD24O,1.740000X2.200000*%
G04 #@! TD*
G04 #@! TA.AperFunction,ComponentPad*
%ADD25C,1.740000*%
G04 #@! TD*
G04 #@! TA.AperFunction,ComponentPad*
%ADD26O,2.200000X1.740000*%
G04 #@! TD*
G04 #@! TA.AperFunction,ViaPad*
%ADD27C,0.800000*%
G04 #@! TD*
G04 #@! TA.AperFunction,Conductor*
%ADD28C,0.700000*%
G04 #@! TD*
G04 #@! TA.AperFunction,Conductor*
%ADD29C,0.500000*%
G04 #@! TD*
G04 APERTURE END LIST*
D10*
G04 #@! TO.P,ICSP,1*
G04 #@! TO.N,MISO*
X130810000Y-49530000D03*
D11*
G04 #@! TO.P,ICSP,2*
G04 #@! TO.N,+5V*
X133350000Y-49530000D03*
G04 #@! TO.P,ICSP,3*
G04 #@! TO.N,SCK-SCL*
X130810000Y-52070000D03*
G04 #@! TO.P,ICSP,4*
G04 #@! TO.N,MOSI-SDA*
X133350000Y-52070000D03*
G04 #@! TO.P,ICSP,5*
G04 #@! TO.N,RESET*
X130810000Y-54610000D03*
G04 #@! TO.P,ICSP,6*
G04 #@! TO.N,Earth*
X133350000Y-54610000D03*
G04 #@! TD*
D12*
G04 #@! TO.P, ,2*
G04 #@! TO.N,VPP*
X103608000Y-44894500D03*
G04 #@! TO.P, ,1*
G04 #@! TO.N,Earth*
X108608000Y-44894500D03*
D13*
G04 #@! TO.P, ,*
G04 #@! TO.N,*
X111608000Y-34894500D03*
X100608000Y-34894500D03*
D14*
X102158000Y-44894500D03*
X102583000Y-45919500D03*
X103608000Y-46344500D03*
X105058000Y-44894500D03*
X104633000Y-45919500D03*
X104633000Y-43869500D03*
X103608000Y-43444500D03*
X102583000Y-43869500D03*
X110058000Y-44894500D03*
X109633000Y-45919500D03*
X108608000Y-46344500D03*
X107583000Y-45919500D03*
X107158000Y-44894500D03*
X107583000Y-43869500D03*
X108608000Y-43444500D03*
X109633000Y-43869500D03*
G04 #@! TD*
D15*
G04 #@! TO.N,INT1*
G04 #@! TO.C,R10*
G36*
X125834505Y-81660704D02*
X125858773Y-81664304D01*
X125882572Y-81670265D01*
X125905671Y-81678530D01*
X125927850Y-81689020D01*
X125948893Y-81701632D01*
X125968599Y-81716247D01*
X125986777Y-81732723D01*
X126003253Y-81750901D01*
X126017868Y-81770607D01*
X126030480Y-81791650D01*
X126040970Y-81813829D01*
X126049235Y-81836928D01*
X126055196Y-81860727D01*
X126058796Y-81884995D01*
X126060000Y-81909499D01*
X126060000Y-82809501D01*
X126058796Y-82834005D01*
X126055196Y-82858273D01*
X126049235Y-82882072D01*
X126040970Y-82905171D01*
X126030480Y-82927350D01*
X126017868Y-82948393D01*
X126003253Y-82968099D01*
X125986777Y-82986277D01*
X125968599Y-83002753D01*
X125948893Y-83017368D01*
X125927850Y-83029980D01*
X125905671Y-83040470D01*
X125882572Y-83048735D01*
X125858773Y-83054696D01*
X125834505Y-83058296D01*
X125810001Y-83059500D01*
X125159999Y-83059500D01*
X125135495Y-83058296D01*
X125111227Y-83054696D01*
X125087428Y-83048735D01*
X125064329Y-83040470D01*
X125042150Y-83029980D01*
X125021107Y-83017368D01*
X125001401Y-83002753D01*
X124983223Y-82986277D01*
X124966747Y-82968099D01*
X124952132Y-82948393D01*
X124939520Y-82927350D01*
X124929030Y-82905171D01*
X124920765Y-82882072D01*
X124914804Y-82858273D01*
X124911204Y-82834005D01*
X124910000Y-82809501D01*
X124910000Y-81909499D01*
X124911204Y-81884995D01*
X124914804Y-81860727D01*
X124920765Y-81836928D01*
X124929030Y-81813829D01*
X124939520Y-81791650D01*
X124952132Y-81770607D01*
X124966747Y-81750901D01*
X124983223Y-81732723D01*
X125001401Y-81716247D01*
X125021107Y-81701632D01*
X125042150Y-81689020D01*
X125064329Y-81678530D01*
X125087428Y-81670265D01*
X125111227Y-81664304D01*
X125135495Y-81660704D01*
X125159999Y-81659500D01*
X125810001Y-81659500D01*
X125834505Y-81660704D01*
X125834505Y-81660704D01*
G37*
D16*
G04 #@! TD*
G04 #@! TO.P,R10,2*
G04 #@! TO.N,INT1*
X125485000Y-82359500D03*
D15*
G04 #@! TO.N,+5V*
G04 #@! TO.C,R10*
G36*
X123784505Y-81660704D02*
X123808773Y-81664304D01*
X123832572Y-81670265D01*
X123855671Y-81678530D01*
X123877850Y-81689020D01*
X123898893Y-81701632D01*
X123918599Y-81716247D01*
X123936777Y-81732723D01*
X123953253Y-81750901D01*
X123967868Y-81770607D01*
X123980480Y-81791650D01*
X123990970Y-81813829D01*
X123999235Y-81836928D01*
X124005196Y-81860727D01*
X124008796Y-81884995D01*
X124010000Y-81909499D01*
X124010000Y-82809501D01*
X124008796Y-82834005D01*
X124005196Y-82858273D01*
X123999235Y-82882072D01*
X123990970Y-82905171D01*
X123980480Y-82927350D01*
X123967868Y-82948393D01*
X123953253Y-82968099D01*
X123936777Y-82986277D01*
X123918599Y-83002753D01*
X123898893Y-83017368D01*
X123877850Y-83029980D01*
X123855671Y-83040470D01*
X123832572Y-83048735D01*
X123808773Y-83054696D01*
X123784505Y-83058296D01*
X123760001Y-83059500D01*
X123109999Y-83059500D01*
X123085495Y-83058296D01*
X123061227Y-83054696D01*
X123037428Y-83048735D01*
X123014329Y-83040470D01*
X122992150Y-83029980D01*
X122971107Y-83017368D01*
X122951401Y-83002753D01*
X122933223Y-82986277D01*
X122916747Y-82968099D01*
X122902132Y-82948393D01*
X122889520Y-82927350D01*
X122879030Y-82905171D01*
X122870765Y-82882072D01*
X122864804Y-82858273D01*
X122861204Y-82834005D01*
X122860000Y-82809501D01*
X122860000Y-81909499D01*
X122861204Y-81884995D01*
X122864804Y-81860727D01*
X122870765Y-81836928D01*
X122879030Y-81813829D01*
X122889520Y-81791650D01*
X122902132Y-81770607D01*
X122916747Y-81750901D01*
X122933223Y-81732723D01*
X122951401Y-81716247D01*
X122971107Y-81701632D01*
X122992150Y-81689020D01*
X123014329Y-81678530D01*
X123037428Y-81670265D01*
X123061227Y-81664304D01*
X123085495Y-81660704D01*
X123109999Y-81659500D01*
X123760001Y-81659500D01*
X123784505Y-81660704D01*
X123784505Y-81660704D01*
G37*
D16*
G04 #@! TD*
G04 #@! TO.P,R10,1*
G04 #@! TO.N,+5V*
X123435000Y-82359500D03*
D15*
G04 #@! TO.N,+5V*
G04 #@! TO.C,C1*
G36*
X126324505Y-34861204D02*
X126348773Y-34864804D01*
X126372572Y-34870765D01*
X126395671Y-34879030D01*
X126417850Y-34889520D01*
X126438893Y-34902132D01*
X126458599Y-34916747D01*
X126476777Y-34933223D01*
X126493253Y-34951401D01*
X126507868Y-34971107D01*
X126520480Y-34992150D01*
X126530970Y-35014329D01*
X126539235Y-35037428D01*
X126545196Y-35061227D01*
X126548796Y-35085495D01*
X126550000Y-35109999D01*
X126550000Y-36010001D01*
X126548796Y-36034505D01*
X126545196Y-36058773D01*
X126539235Y-36082572D01*
X126530970Y-36105671D01*
X126520480Y-36127850D01*
X126507868Y-36148893D01*
X126493253Y-36168599D01*
X126476777Y-36186777D01*
X126458599Y-36203253D01*
X126438893Y-36217868D01*
X126417850Y-36230480D01*
X126395671Y-36240970D01*
X126372572Y-36249235D01*
X126348773Y-36255196D01*
X126324505Y-36258796D01*
X126300001Y-36260000D01*
X125649999Y-36260000D01*
X125625495Y-36258796D01*
X125601227Y-36255196D01*
X125577428Y-36249235D01*
X125554329Y-36240970D01*
X125532150Y-36230480D01*
X125511107Y-36217868D01*
X125491401Y-36203253D01*
X125473223Y-36186777D01*
X125456747Y-36168599D01*
X125442132Y-36148893D01*
X125429520Y-36127850D01*
X125419030Y-36105671D01*
X125410765Y-36082572D01*
X125404804Y-36058773D01*
X125401204Y-36034505D01*
X125400000Y-36010001D01*
X125400000Y-35109999D01*
X125401204Y-35085495D01*
X125404804Y-35061227D01*
X125410765Y-35037428D01*
X125419030Y-35014329D01*
X125429520Y-34992150D01*
X125442132Y-34971107D01*
X125456747Y-34951401D01*
X125473223Y-34933223D01*
X125491401Y-34916747D01*
X125511107Y-34902132D01*
X125532150Y-34889520D01*
X125554329Y-34879030D01*
X125577428Y-34870765D01*
X125601227Y-34864804D01*
X125625495Y-34861204D01*
X125649999Y-34860000D01*
X126300001Y-34860000D01*
X126324505Y-34861204D01*
X126324505Y-34861204D01*
G37*
D16*
G04 #@! TD*
G04 #@! TO.P,C1,1*
G04 #@! TO.N,+5V*
X125975000Y-35560000D03*
D15*
G04 #@! TO.N,Earth*
G04 #@! TO.C,C1*
G36*
X128374505Y-34861204D02*
X128398773Y-34864804D01*
X128422572Y-34870765D01*
X128445671Y-34879030D01*
X128467850Y-34889520D01*
X128488893Y-34902132D01*
X128508599Y-34916747D01*
X128526777Y-34933223D01*
X128543253Y-34951401D01*
X128557868Y-34971107D01*
X128570480Y-34992150D01*
X128580970Y-35014329D01*
X128589235Y-35037428D01*
X128595196Y-35061227D01*
X128598796Y-35085495D01*
X128600000Y-35109999D01*
X128600000Y-36010001D01*
X128598796Y-36034505D01*
X128595196Y-36058773D01*
X128589235Y-36082572D01*
X128580970Y-36105671D01*
X128570480Y-36127850D01*
X128557868Y-36148893D01*
X128543253Y-36168599D01*
X128526777Y-36186777D01*
X128508599Y-36203253D01*
X128488893Y-36217868D01*
X128467850Y-36230480D01*
X128445671Y-36240970D01*
X128422572Y-36249235D01*
X128398773Y-36255196D01*
X128374505Y-36258796D01*
X128350001Y-36260000D01*
X127699999Y-36260000D01*
X127675495Y-36258796D01*
X127651227Y-36255196D01*
X127627428Y-36249235D01*
X127604329Y-36240970D01*
X127582150Y-36230480D01*
X127561107Y-36217868D01*
X127541401Y-36203253D01*
X127523223Y-36186777D01*
X127506747Y-36168599D01*
X127492132Y-36148893D01*
X127479520Y-36127850D01*
X127469030Y-36105671D01*
X127460765Y-36082572D01*
X127454804Y-36058773D01*
X127451204Y-36034505D01*
X127450000Y-36010001D01*
X127450000Y-35109999D01*
X127451204Y-35085495D01*
X127454804Y-35061227D01*
X127460765Y-35037428D01*
X127469030Y-35014329D01*
X127479520Y-34992150D01*
X127492132Y-34971107D01*
X127506747Y-34951401D01*
X127523223Y-34933223D01*
X127541401Y-34916747D01*
X127561107Y-34902132D01*
X127582150Y-34889520D01*
X127604329Y-34879030D01*
X127627428Y-34870765D01*
X127651227Y-34864804D01*
X127675495Y-34861204D01*
X127699999Y-34860000D01*
X128350001Y-34860000D01*
X128374505Y-34861204D01*
X128374505Y-34861204D01*
G37*
D16*
G04 #@! TD*
G04 #@! TO.P,C1,2*
G04 #@! TO.N,Earth*
X128025000Y-35560000D03*
D15*
G04 #@! TO.N,+5V*
G04 #@! TO.C,C2*
G36*
X125724504Y-41111204D02*
X125748773Y-41114804D01*
X125772571Y-41120765D01*
X125795671Y-41129030D01*
X125817849Y-41139520D01*
X125838893Y-41152133D01*
X125858598Y-41166747D01*
X125876777Y-41183223D01*
X125893253Y-41201402D01*
X125907867Y-41221107D01*
X125920480Y-41242151D01*
X125930970Y-41264329D01*
X125939235Y-41287429D01*
X125945196Y-41311227D01*
X125948796Y-41335496D01*
X125950000Y-41360000D01*
X125950000Y-42460000D01*
X125948796Y-42484504D01*
X125945196Y-42508773D01*
X125939235Y-42532571D01*
X125930970Y-42555671D01*
X125920480Y-42577849D01*
X125907867Y-42598893D01*
X125893253Y-42618598D01*
X125876777Y-42636777D01*
X125858598Y-42653253D01*
X125838893Y-42667867D01*
X125817849Y-42680480D01*
X125795671Y-42690970D01*
X125772571Y-42699235D01*
X125748773Y-42705196D01*
X125724504Y-42708796D01*
X125700000Y-42710000D01*
X122700000Y-42710000D01*
X122675496Y-42708796D01*
X122651227Y-42705196D01*
X122627429Y-42699235D01*
X122604329Y-42690970D01*
X122582151Y-42680480D01*
X122561107Y-42667867D01*
X122541402Y-42653253D01*
X122523223Y-42636777D01*
X122506747Y-42618598D01*
X122492133Y-42598893D01*
X122479520Y-42577849D01*
X122469030Y-42555671D01*
X122460765Y-42532571D01*
X122454804Y-42508773D01*
X122451204Y-42484504D01*
X122450000Y-42460000D01*
X122450000Y-41360000D01*
X122451204Y-41335496D01*
X122454804Y-41311227D01*
X122460765Y-41287429D01*
X122469030Y-41264329D01*
X122479520Y-41242151D01*
X122492133Y-41221107D01*
X122506747Y-41201402D01*
X122523223Y-41183223D01*
X122541402Y-41166747D01*
X122561107Y-41152133D01*
X122582151Y-41139520D01*
X122604329Y-41129030D01*
X122627429Y-41120765D01*
X122651227Y-41114804D01*
X122675496Y-41111204D01*
X122700000Y-41110000D01*
X125700000Y-41110000D01*
X125724504Y-41111204D01*
X125724504Y-41111204D01*
G37*
D17*
G04 #@! TD*
G04 #@! TO.P,C2,1*
G04 #@! TO.N,+5V*
X124200000Y-41910000D03*
D15*
G04 #@! TO.N,Earth*
G04 #@! TO.C,C2*
G36*
X131324504Y-41111204D02*
X131348773Y-41114804D01*
X131372571Y-41120765D01*
X131395671Y-41129030D01*
X131417849Y-41139520D01*
X131438893Y-41152133D01*
X131458598Y-41166747D01*
X131476777Y-41183223D01*
X131493253Y-41201402D01*
X131507867Y-41221107D01*
X131520480Y-41242151D01*
X131530970Y-41264329D01*
X131539235Y-41287429D01*
X131545196Y-41311227D01*
X131548796Y-41335496D01*
X131550000Y-41360000D01*
X131550000Y-42460000D01*
X131548796Y-42484504D01*
X131545196Y-42508773D01*
X131539235Y-42532571D01*
X131530970Y-42555671D01*
X131520480Y-42577849D01*
X131507867Y-42598893D01*
X131493253Y-42618598D01*
X131476777Y-42636777D01*
X131458598Y-42653253D01*
X131438893Y-42667867D01*
X131417849Y-42680480D01*
X131395671Y-42690970D01*
X131372571Y-42699235D01*
X131348773Y-42705196D01*
X131324504Y-42708796D01*
X131300000Y-42710000D01*
X128300000Y-42710000D01*
X128275496Y-42708796D01*
X128251227Y-42705196D01*
X128227429Y-42699235D01*
X128204329Y-42690970D01*
X128182151Y-42680480D01*
X128161107Y-42667867D01*
X128141402Y-42653253D01*
X128123223Y-42636777D01*
X128106747Y-42618598D01*
X128092133Y-42598893D01*
X128079520Y-42577849D01*
X128069030Y-42555671D01*
X128060765Y-42532571D01*
X128054804Y-42508773D01*
X128051204Y-42484504D01*
X128050000Y-42460000D01*
X128050000Y-41360000D01*
X128051204Y-41335496D01*
X128054804Y-41311227D01*
X128060765Y-41287429D01*
X128069030Y-41264329D01*
X128079520Y-41242151D01*
X128092133Y-41221107D01*
X128106747Y-41201402D01*
X128123223Y-41183223D01*
X128141402Y-41166747D01*
X128161107Y-41152133D01*
X128182151Y-41139520D01*
X128204329Y-41129030D01*
X128227429Y-41120765D01*
X128251227Y-41114804D01*
X128275496Y-41111204D01*
X128300000Y-41110000D01*
X131300000Y-41110000D01*
X131324504Y-41111204D01*
X131324504Y-41111204D01*
G37*
D17*
G04 #@! TD*
G04 #@! TO.P,C2,2*
G04 #@! TO.N,Earth*
X129800000Y-41910000D03*
D15*
G04 #@! TO.N,Earth*
G04 #@! TO.C,C3*
G36*
X108544505Y-59308704D02*
X108568773Y-59312304D01*
X108592572Y-59318265D01*
X108615671Y-59326530D01*
X108637850Y-59337020D01*
X108658893Y-59349632D01*
X108678599Y-59364247D01*
X108696777Y-59380723D01*
X108713253Y-59398901D01*
X108727868Y-59418607D01*
X108740480Y-59439650D01*
X108750970Y-59461829D01*
X108759235Y-59484928D01*
X108765196Y-59508727D01*
X108768796Y-59532995D01*
X108770000Y-59557499D01*
X108770000Y-60457501D01*
X108768796Y-60482005D01*
X108765196Y-60506273D01*
X108759235Y-60530072D01*
X108750970Y-60553171D01*
X108740480Y-60575350D01*
X108727868Y-60596393D01*
X108713253Y-60616099D01*
X108696777Y-60634277D01*
X108678599Y-60650753D01*
X108658893Y-60665368D01*
X108637850Y-60677980D01*
X108615671Y-60688470D01*
X108592572Y-60696735D01*
X108568773Y-60702696D01*
X108544505Y-60706296D01*
X108520001Y-60707500D01*
X107869999Y-60707500D01*
X107845495Y-60706296D01*
X107821227Y-60702696D01*
X107797428Y-60696735D01*
X107774329Y-60688470D01*
X107752150Y-60677980D01*
X107731107Y-60665368D01*
X107711401Y-60650753D01*
X107693223Y-60634277D01*
X107676747Y-60616099D01*
X107662132Y-60596393D01*
X107649520Y-60575350D01*
X107639030Y-60553171D01*
X107630765Y-60530072D01*
X107624804Y-60506273D01*
X107621204Y-60482005D01*
X107620000Y-60457501D01*
X107620000Y-59557499D01*
X107621204Y-59532995D01*
X107624804Y-59508727D01*
X107630765Y-59484928D01*
X107639030Y-59461829D01*
X107649520Y-59439650D01*
X107662132Y-59418607D01*
X107676747Y-59398901D01*
X107693223Y-59380723D01*
X107711401Y-59364247D01*
X107731107Y-59349632D01*
X107752150Y-59337020D01*
X107774329Y-59326530D01*
X107797428Y-59318265D01*
X107821227Y-59312304D01*
X107845495Y-59308704D01*
X107869999Y-59307500D01*
X108520001Y-59307500D01*
X108544505Y-59308704D01*
X108544505Y-59308704D01*
G37*
D16*
G04 #@! TD*
G04 #@! TO.P,C3,1*
G04 #@! TO.N,Earth*
X108195000Y-60007500D03*
D15*
G04 #@! TO.N,Net-(C3-Pad2)*
G04 #@! TO.C,C3*
G36*
X110594505Y-59308704D02*
X110618773Y-59312304D01*
X110642572Y-59318265D01*
X110665671Y-59326530D01*
X110687850Y-59337020D01*
X110708893Y-59349632D01*
X110728599Y-59364247D01*
X110746777Y-59380723D01*
X110763253Y-59398901D01*
X110777868Y-59418607D01*
X110790480Y-59439650D01*
X110800970Y-59461829D01*
X110809235Y-59484928D01*
X110815196Y-59508727D01*
X110818796Y-59532995D01*
X110820000Y-59557499D01*
X110820000Y-60457501D01*
X110818796Y-60482005D01*
X110815196Y-60506273D01*
X110809235Y-60530072D01*
X110800970Y-60553171D01*
X110790480Y-60575350D01*
X110777868Y-60596393D01*
X110763253Y-60616099D01*
X110746777Y-60634277D01*
X110728599Y-60650753D01*
X110708893Y-60665368D01*
X110687850Y-60677980D01*
X110665671Y-60688470D01*
X110642572Y-60696735D01*
X110618773Y-60702696D01*
X110594505Y-60706296D01*
X110570001Y-60707500D01*
X109919999Y-60707500D01*
X109895495Y-60706296D01*
X109871227Y-60702696D01*
X109847428Y-60696735D01*
X109824329Y-60688470D01*
X109802150Y-60677980D01*
X109781107Y-60665368D01*
X109761401Y-60650753D01*
X109743223Y-60634277D01*
X109726747Y-60616099D01*
X109712132Y-60596393D01*
X109699520Y-60575350D01*
X109689030Y-60553171D01*
X109680765Y-60530072D01*
X109674804Y-60506273D01*
X109671204Y-60482005D01*
X109670000Y-60457501D01*
X109670000Y-59557499D01*
X109671204Y-59532995D01*
X109674804Y-59508727D01*
X109680765Y-59484928D01*
X109689030Y-59461829D01*
X109699520Y-59439650D01*
X109712132Y-59418607D01*
X109726747Y-59398901D01*
X109743223Y-59380723D01*
X109761401Y-59364247D01*
X109781107Y-59349632D01*
X109802150Y-59337020D01*
X109824329Y-59326530D01*
X109847428Y-59318265D01*
X109871227Y-59312304D01*
X109895495Y-59308704D01*
X109919999Y-59307500D01*
X110570001Y-59307500D01*
X110594505Y-59308704D01*
X110594505Y-59308704D01*
G37*
D16*
G04 #@! TD*
G04 #@! TO.P,C3,2*
G04 #@! TO.N,Net-(C3-Pad2)*
X110245000Y-60007500D03*
D15*
G04 #@! TO.N,Net-(C4-Pad2)*
G04 #@! TO.C,C4*
G36*
X110594505Y-61841204D02*
X110618773Y-61844804D01*
X110642572Y-61850765D01*
X110665671Y-61859030D01*
X110687850Y-61869520D01*
X110708893Y-61882132D01*
X110728599Y-61896747D01*
X110746777Y-61913223D01*
X110763253Y-61931401D01*
X110777868Y-61951107D01*
X110790480Y-61972150D01*
X110800970Y-61994329D01*
X110809235Y-62017428D01*
X110815196Y-62041227D01*
X110818796Y-62065495D01*
X110820000Y-62089999D01*
X110820000Y-62990001D01*
X110818796Y-63014505D01*
X110815196Y-63038773D01*
X110809235Y-63062572D01*
X110800970Y-63085671D01*
X110790480Y-63107850D01*
X110777868Y-63128893D01*
X110763253Y-63148599D01*
X110746777Y-63166777D01*
X110728599Y-63183253D01*
X110708893Y-63197868D01*
X110687850Y-63210480D01*
X110665671Y-63220970D01*
X110642572Y-63229235D01*
X110618773Y-63235196D01*
X110594505Y-63238796D01*
X110570001Y-63240000D01*
X109919999Y-63240000D01*
X109895495Y-63238796D01*
X109871227Y-63235196D01*
X109847428Y-63229235D01*
X109824329Y-63220970D01*
X109802150Y-63210480D01*
X109781107Y-63197868D01*
X109761401Y-63183253D01*
X109743223Y-63166777D01*
X109726747Y-63148599D01*
X109712132Y-63128893D01*
X109699520Y-63107850D01*
X109689030Y-63085671D01*
X109680765Y-63062572D01*
X109674804Y-63038773D01*
X109671204Y-63014505D01*
X109670000Y-62990001D01*
X109670000Y-62089999D01*
X109671204Y-62065495D01*
X109674804Y-62041227D01*
X109680765Y-62017428D01*
X109689030Y-61994329D01*
X109699520Y-61972150D01*
X109712132Y-61951107D01*
X109726747Y-61931401D01*
X109743223Y-61913223D01*
X109761401Y-61896747D01*
X109781107Y-61882132D01*
X109802150Y-61869520D01*
X109824329Y-61859030D01*
X109847428Y-61850765D01*
X109871227Y-61844804D01*
X109895495Y-61841204D01*
X109919999Y-61840000D01*
X110570001Y-61840000D01*
X110594505Y-61841204D01*
X110594505Y-61841204D01*
G37*
D16*
G04 #@! TD*
G04 #@! TO.P,C4,2*
G04 #@! TO.N,Net-(C4-Pad2)*
X110245000Y-62540000D03*
D15*
G04 #@! TO.N,Earth*
G04 #@! TO.C,C4*
G36*
X108544505Y-61841204D02*
X108568773Y-61844804D01*
X108592572Y-61850765D01*
X108615671Y-61859030D01*
X108637850Y-61869520D01*
X108658893Y-61882132D01*
X108678599Y-61896747D01*
X108696777Y-61913223D01*
X108713253Y-61931401D01*
X108727868Y-61951107D01*
X108740480Y-61972150D01*
X108750970Y-61994329D01*
X108759235Y-62017428D01*
X108765196Y-62041227D01*
X108768796Y-62065495D01*
X108770000Y-62089999D01*
X108770000Y-62990001D01*
X108768796Y-63014505D01*
X108765196Y-63038773D01*
X108759235Y-63062572D01*
X108750970Y-63085671D01*
X108740480Y-63107850D01*
X108727868Y-63128893D01*
X108713253Y-63148599D01*
X108696777Y-63166777D01*
X108678599Y-63183253D01*
X108658893Y-63197868D01*
X108637850Y-63210480D01*
X108615671Y-63220970D01*
X108592572Y-63229235D01*
X108568773Y-63235196D01*
X108544505Y-63238796D01*
X108520001Y-63240000D01*
X107869999Y-63240000D01*
X107845495Y-63238796D01*
X107821227Y-63235196D01*
X107797428Y-63229235D01*
X107774329Y-63220970D01*
X107752150Y-63210480D01*
X107731107Y-63197868D01*
X107711401Y-63183253D01*
X107693223Y-63166777D01*
X107676747Y-63148599D01*
X107662132Y-63128893D01*
X107649520Y-63107850D01*
X107639030Y-63085671D01*
X107630765Y-63062572D01*
X107624804Y-63038773D01*
X107621204Y-63014505D01*
X107620000Y-62990001D01*
X107620000Y-62089999D01*
X107621204Y-62065495D01*
X107624804Y-62041227D01*
X107630765Y-62017428D01*
X107639030Y-61994329D01*
X107649520Y-61972150D01*
X107662132Y-61951107D01*
X107676747Y-61931401D01*
X107693223Y-61913223D01*
X107711401Y-61896747D01*
X107731107Y-61882132D01*
X107752150Y-61869520D01*
X107774329Y-61859030D01*
X107797428Y-61850765D01*
X107821227Y-61844804D01*
X107845495Y-61841204D01*
X107869999Y-61840000D01*
X108520001Y-61840000D01*
X108544505Y-61841204D01*
X108544505Y-61841204D01*
G37*
D16*
G04 #@! TD*
G04 #@! TO.P,C4,1*
G04 #@! TO.N,Earth*
X108195000Y-62540000D03*
D15*
G04 #@! TO.N,Earth*
G04 #@! TO.C,POWER*
G36*
X133944505Y-41211204D02*
X133968773Y-41214804D01*
X133992572Y-41220765D01*
X134015671Y-41229030D01*
X134037850Y-41239520D01*
X134058893Y-41252132D01*
X134078599Y-41266747D01*
X134096777Y-41283223D01*
X134113253Y-41301401D01*
X134127868Y-41321107D01*
X134140480Y-41342150D01*
X134150970Y-41364329D01*
X134159235Y-41387428D01*
X134165196Y-41411227D01*
X134168796Y-41435495D01*
X134170000Y-41459999D01*
X134170000Y-42360001D01*
X134168796Y-42384505D01*
X134165196Y-42408773D01*
X134159235Y-42432572D01*
X134150970Y-42455671D01*
X134140480Y-42477850D01*
X134127868Y-42498893D01*
X134113253Y-42518599D01*
X134096777Y-42536777D01*
X134078599Y-42553253D01*
X134058893Y-42567868D01*
X134037850Y-42580480D01*
X134015671Y-42590970D01*
X133992572Y-42599235D01*
X133968773Y-42605196D01*
X133944505Y-42608796D01*
X133920001Y-42610000D01*
X133269999Y-42610000D01*
X133245495Y-42608796D01*
X133221227Y-42605196D01*
X133197428Y-42599235D01*
X133174329Y-42590970D01*
X133152150Y-42580480D01*
X133131107Y-42567868D01*
X133111401Y-42553253D01*
X133093223Y-42536777D01*
X133076747Y-42518599D01*
X133062132Y-42498893D01*
X133049520Y-42477850D01*
X133039030Y-42455671D01*
X133030765Y-42432572D01*
X133024804Y-42408773D01*
X133021204Y-42384505D01*
X133020000Y-42360001D01*
X133020000Y-41459999D01*
X133021204Y-41435495D01*
X133024804Y-41411227D01*
X133030765Y-41387428D01*
X133039030Y-41364329D01*
X133049520Y-41342150D01*
X133062132Y-41321107D01*
X133076747Y-41301401D01*
X133093223Y-41283223D01*
X133111401Y-41266747D01*
X133131107Y-41252132D01*
X133152150Y-41239520D01*
X133174329Y-41229030D01*
X133197428Y-41220765D01*
X133221227Y-41214804D01*
X133245495Y-41211204D01*
X133269999Y-41210000D01*
X133920001Y-41210000D01*
X133944505Y-41211204D01*
X133944505Y-41211204D01*
G37*
D16*
G04 #@! TD*
G04 #@! TO.P,POWER,1*
G04 #@! TO.N,Earth*
X133595000Y-41910000D03*
D15*
G04 #@! TO.N,Net-(D0-Pad2)*
G04 #@! TO.C,POWER*
G36*
X135994505Y-41211204D02*
X136018773Y-41214804D01*
X136042572Y-41220765D01*
X136065671Y-41229030D01*
X136087850Y-41239520D01*
X136108893Y-41252132D01*
X136128599Y-41266747D01*
X136146777Y-41283223D01*
X136163253Y-41301401D01*
X136177868Y-41321107D01*
X136190480Y-41342150D01*
X136200970Y-41364329D01*
X136209235Y-41387428D01*
X136215196Y-41411227D01*
X136218796Y-41435495D01*
X136220000Y-41459999D01*
X136220000Y-42360001D01*
X136218796Y-42384505D01*
X136215196Y-42408773D01*
X136209235Y-42432572D01*
X136200970Y-42455671D01*
X136190480Y-42477850D01*
X136177868Y-42498893D01*
X136163253Y-42518599D01*
X136146777Y-42536777D01*
X136128599Y-42553253D01*
X136108893Y-42567868D01*
X136087850Y-42580480D01*
X136065671Y-42590970D01*
X136042572Y-42599235D01*
X136018773Y-42605196D01*
X135994505Y-42608796D01*
X135970001Y-42610000D01*
X135319999Y-42610000D01*
X135295495Y-42608796D01*
X135271227Y-42605196D01*
X135247428Y-42599235D01*
X135224329Y-42590970D01*
X135202150Y-42580480D01*
X135181107Y-42567868D01*
X135161401Y-42553253D01*
X135143223Y-42536777D01*
X135126747Y-42518599D01*
X135112132Y-42498893D01*
X135099520Y-42477850D01*
X135089030Y-42455671D01*
X135080765Y-42432572D01*
X135074804Y-42408773D01*
X135071204Y-42384505D01*
X135070000Y-42360001D01*
X135070000Y-41459999D01*
X135071204Y-41435495D01*
X135074804Y-41411227D01*
X135080765Y-41387428D01*
X135089030Y-41364329D01*
X135099520Y-41342150D01*
X135112132Y-41321107D01*
X135126747Y-41301401D01*
X135143223Y-41283223D01*
X135161401Y-41266747D01*
X135181107Y-41252132D01*
X135202150Y-41239520D01*
X135224329Y-41229030D01*
X135247428Y-41220765D01*
X135271227Y-41214804D01*
X135295495Y-41211204D01*
X135319999Y-41210000D01*
X135970001Y-41210000D01*
X135994505Y-41211204D01*
X135994505Y-41211204D01*
G37*
D16*
G04 #@! TD*
G04 #@! TO.P,POWER,2*
G04 #@! TO.N,Net-(D0-Pad2)*
X135645000Y-41910000D03*
D15*
G04 #@! TO.N,Earth*
G04 #@! TO.C,LED1*
G36*
X98674505Y-40066204D02*
X98698773Y-40069804D01*
X98722572Y-40075765D01*
X98745671Y-40084030D01*
X98767850Y-40094520D01*
X98788893Y-40107132D01*
X98808599Y-40121747D01*
X98826777Y-40138223D01*
X98843253Y-40156401D01*
X98857868Y-40176107D01*
X98870480Y-40197150D01*
X98880970Y-40219329D01*
X98889235Y-40242428D01*
X98895196Y-40266227D01*
X98898796Y-40290495D01*
X98900000Y-40314999D01*
X98900000Y-40965001D01*
X98898796Y-40989505D01*
X98895196Y-41013773D01*
X98889235Y-41037572D01*
X98880970Y-41060671D01*
X98870480Y-41082850D01*
X98857868Y-41103893D01*
X98843253Y-41123599D01*
X98826777Y-41141777D01*
X98808599Y-41158253D01*
X98788893Y-41172868D01*
X98767850Y-41185480D01*
X98745671Y-41195970D01*
X98722572Y-41204235D01*
X98698773Y-41210196D01*
X98674505Y-41213796D01*
X98650001Y-41215000D01*
X97749999Y-41215000D01*
X97725495Y-41213796D01*
X97701227Y-41210196D01*
X97677428Y-41204235D01*
X97654329Y-41195970D01*
X97632150Y-41185480D01*
X97611107Y-41172868D01*
X97591401Y-41158253D01*
X97573223Y-41141777D01*
X97556747Y-41123599D01*
X97542132Y-41103893D01*
X97529520Y-41082850D01*
X97519030Y-41060671D01*
X97510765Y-41037572D01*
X97504804Y-41013773D01*
X97501204Y-40989505D01*
X97500000Y-40965001D01*
X97500000Y-40314999D01*
X97501204Y-40290495D01*
X97504804Y-40266227D01*
X97510765Y-40242428D01*
X97519030Y-40219329D01*
X97529520Y-40197150D01*
X97542132Y-40176107D01*
X97556747Y-40156401D01*
X97573223Y-40138223D01*
X97591401Y-40121747D01*
X97611107Y-40107132D01*
X97632150Y-40094520D01*
X97654329Y-40084030D01*
X97677428Y-40075765D01*
X97701227Y-40069804D01*
X97725495Y-40066204D01*
X97749999Y-40065000D01*
X98650001Y-40065000D01*
X98674505Y-40066204D01*
X98674505Y-40066204D01*
G37*
D16*
G04 #@! TD*
G04 #@! TO.P,LED1,1*
G04 #@! TO.N,Earth*
X98200000Y-40640000D03*
D15*
G04 #@! TO.N,Net-(D1-Pad2)*
G04 #@! TO.C,LED1*
G36*
X98674505Y-42116204D02*
X98698773Y-42119804D01*
X98722572Y-42125765D01*
X98745671Y-42134030D01*
X98767850Y-42144520D01*
X98788893Y-42157132D01*
X98808599Y-42171747D01*
X98826777Y-42188223D01*
X98843253Y-42206401D01*
X98857868Y-42226107D01*
X98870480Y-42247150D01*
X98880970Y-42269329D01*
X98889235Y-42292428D01*
X98895196Y-42316227D01*
X98898796Y-42340495D01*
X98900000Y-42364999D01*
X98900000Y-43015001D01*
X98898796Y-43039505D01*
X98895196Y-43063773D01*
X98889235Y-43087572D01*
X98880970Y-43110671D01*
X98870480Y-43132850D01*
X98857868Y-43153893D01*
X98843253Y-43173599D01*
X98826777Y-43191777D01*
X98808599Y-43208253D01*
X98788893Y-43222868D01*
X98767850Y-43235480D01*
X98745671Y-43245970D01*
X98722572Y-43254235D01*
X98698773Y-43260196D01*
X98674505Y-43263796D01*
X98650001Y-43265000D01*
X97749999Y-43265000D01*
X97725495Y-43263796D01*
X97701227Y-43260196D01*
X97677428Y-43254235D01*
X97654329Y-43245970D01*
X97632150Y-43235480D01*
X97611107Y-43222868D01*
X97591401Y-43208253D01*
X97573223Y-43191777D01*
X97556747Y-43173599D01*
X97542132Y-43153893D01*
X97529520Y-43132850D01*
X97519030Y-43110671D01*
X97510765Y-43087572D01*
X97504804Y-43063773D01*
X97501204Y-43039505D01*
X97500000Y-43015001D01*
X97500000Y-42364999D01*
X97501204Y-42340495D01*
X97504804Y-42316227D01*
X97510765Y-42292428D01*
X97519030Y-42269329D01*
X97529520Y-42247150D01*
X97542132Y-42226107D01*
X97556747Y-42206401D01*
X97573223Y-42188223D01*
X97591401Y-42171747D01*
X97611107Y-42157132D01*
X97632150Y-42144520D01*
X97654329Y-42134030D01*
X97677428Y-42125765D01*
X97701227Y-42119804D01*
X97725495Y-42116204D01*
X97749999Y-42115000D01*
X98650001Y-42115000D01*
X98674505Y-42116204D01*
X98674505Y-42116204D01*
G37*
D16*
G04 #@! TD*
G04 #@! TO.P,LED1,2*
G04 #@! TO.N,Net-(D1-Pad2)*
X98200000Y-42690000D03*
D15*
G04 #@! TO.N,Net-(D2-Pad2)*
G04 #@! TO.C,LED2*
G36*
X95474505Y-42116204D02*
X95498773Y-42119804D01*
X95522572Y-42125765D01*
X95545671Y-42134030D01*
X95567850Y-42144520D01*
X95588893Y-42157132D01*
X95608599Y-42171747D01*
X95626777Y-42188223D01*
X95643253Y-42206401D01*
X95657868Y-42226107D01*
X95670480Y-42247150D01*
X95680970Y-42269329D01*
X95689235Y-42292428D01*
X95695196Y-42316227D01*
X95698796Y-42340495D01*
X95700000Y-42364999D01*
X95700000Y-43015001D01*
X95698796Y-43039505D01*
X95695196Y-43063773D01*
X95689235Y-43087572D01*
X95680970Y-43110671D01*
X95670480Y-43132850D01*
X95657868Y-43153893D01*
X95643253Y-43173599D01*
X95626777Y-43191777D01*
X95608599Y-43208253D01*
X95588893Y-43222868D01*
X95567850Y-43235480D01*
X95545671Y-43245970D01*
X95522572Y-43254235D01*
X95498773Y-43260196D01*
X95474505Y-43263796D01*
X95450001Y-43265000D01*
X94549999Y-43265000D01*
X94525495Y-43263796D01*
X94501227Y-43260196D01*
X94477428Y-43254235D01*
X94454329Y-43245970D01*
X94432150Y-43235480D01*
X94411107Y-43222868D01*
X94391401Y-43208253D01*
X94373223Y-43191777D01*
X94356747Y-43173599D01*
X94342132Y-43153893D01*
X94329520Y-43132850D01*
X94319030Y-43110671D01*
X94310765Y-43087572D01*
X94304804Y-43063773D01*
X94301204Y-43039505D01*
X94300000Y-43015001D01*
X94300000Y-42364999D01*
X94301204Y-42340495D01*
X94304804Y-42316227D01*
X94310765Y-42292428D01*
X94319030Y-42269329D01*
X94329520Y-42247150D01*
X94342132Y-42226107D01*
X94356747Y-42206401D01*
X94373223Y-42188223D01*
X94391401Y-42171747D01*
X94411107Y-42157132D01*
X94432150Y-42144520D01*
X94454329Y-42134030D01*
X94477428Y-42125765D01*
X94501227Y-42119804D01*
X94525495Y-42116204D01*
X94549999Y-42115000D01*
X95450001Y-42115000D01*
X95474505Y-42116204D01*
X95474505Y-42116204D01*
G37*
D16*
G04 #@! TD*
G04 #@! TO.P,LED2,2*
G04 #@! TO.N,Net-(D2-Pad2)*
X95000000Y-42690000D03*
D15*
G04 #@! TO.N,Earth*
G04 #@! TO.C,LED2*
G36*
X95474505Y-40066204D02*
X95498773Y-40069804D01*
X95522572Y-40075765D01*
X95545671Y-40084030D01*
X95567850Y-40094520D01*
X95588893Y-40107132D01*
X95608599Y-40121747D01*
X95626777Y-40138223D01*
X95643253Y-40156401D01*
X95657868Y-40176107D01*
X95670480Y-40197150D01*
X95680970Y-40219329D01*
X95689235Y-40242428D01*
X95695196Y-40266227D01*
X95698796Y-40290495D01*
X95700000Y-40314999D01*
X95700000Y-40965001D01*
X95698796Y-40989505D01*
X95695196Y-41013773D01*
X95689235Y-41037572D01*
X95680970Y-41060671D01*
X95670480Y-41082850D01*
X95657868Y-41103893D01*
X95643253Y-41123599D01*
X95626777Y-41141777D01*
X95608599Y-41158253D01*
X95588893Y-41172868D01*
X95567850Y-41185480D01*
X95545671Y-41195970D01*
X95522572Y-41204235D01*
X95498773Y-41210196D01*
X95474505Y-41213796D01*
X95450001Y-41215000D01*
X94549999Y-41215000D01*
X94525495Y-41213796D01*
X94501227Y-41210196D01*
X94477428Y-41204235D01*
X94454329Y-41195970D01*
X94432150Y-41185480D01*
X94411107Y-41172868D01*
X94391401Y-41158253D01*
X94373223Y-41141777D01*
X94356747Y-41123599D01*
X94342132Y-41103893D01*
X94329520Y-41082850D01*
X94319030Y-41060671D01*
X94310765Y-41037572D01*
X94304804Y-41013773D01*
X94301204Y-40989505D01*
X94300000Y-40965001D01*
X94300000Y-40314999D01*
X94301204Y-40290495D01*
X94304804Y-40266227D01*
X94310765Y-40242428D01*
X94319030Y-40219329D01*
X94329520Y-40197150D01*
X94342132Y-40176107D01*
X94356747Y-40156401D01*
X94373223Y-40138223D01*
X94391401Y-40121747D01*
X94411107Y-40107132D01*
X94432150Y-40094520D01*
X94454329Y-40084030D01*
X94477428Y-40075765D01*
X94501227Y-40069804D01*
X94525495Y-40066204D01*
X94549999Y-40065000D01*
X95450001Y-40065000D01*
X95474505Y-40066204D01*
X95474505Y-40066204D01*
G37*
D16*
G04 #@! TD*
G04 #@! TO.P,LED2,1*
G04 #@! TO.N,Earth*
X95000000Y-40640000D03*
D18*
G04 #@! TO.P,D5,1*
G04 #@! TO.N,Net-(D5-Pad1)*
X121064000Y-35560000D03*
G04 #@! TO.P,D5,2*
G04 #@! TO.N,VPP*
X115664000Y-35560000D03*
G04 #@! TD*
D11*
G04 #@! TO.P, ,2*
G04 #@! TO.N,DIRECTION2*
X130620000Y-76073000D03*
D10*
G04 #@! TO.P, ,1*
G04 #@! TO.N,DIRECTION1*
X130620000Y-73533000D03*
G04 #@! TD*
G04 #@! TO.P, ,1*
G04 #@! TO.N,+5V*
X133223000Y-73533000D03*
D11*
G04 #@! TO.P, ,2*
X133223000Y-76073000D03*
G04 #@! TD*
D10*
G04 #@! TO.P, ,1*
G04 #@! TO.N,+5V*
X99000000Y-89500000D03*
D11*
G04 #@! TO.P, ,2*
G04 #@! TO.N,Earth*
X99000000Y-86960000D03*
G04 #@! TO.P, ,3*
G04 #@! TO.N,ENABLE*
X99000000Y-84420000D03*
G04 #@! TO.P, ,4*
G04 #@! TO.N,CS*
X99000000Y-81880000D03*
G04 #@! TO.P, ,5*
G04 #@! TO.N,INA*
X99000000Y-79340000D03*
G04 #@! TO.P, ,6*
G04 #@! TO.N,INB*
X99000000Y-76800000D03*
G04 #@! TO.P, ,7*
G04 #@! TO.N,PWM*
X99000000Y-74260000D03*
G04 #@! TD*
D15*
G04 #@! TO.N,Net-(D0-Pad2)*
G04 #@! TO.C,R1*
G36*
X133944505Y-43751204D02*
X133968773Y-43754804D01*
X133992572Y-43760765D01*
X134015671Y-43769030D01*
X134037850Y-43779520D01*
X134058893Y-43792132D01*
X134078599Y-43806747D01*
X134096777Y-43823223D01*
X134113253Y-43841401D01*
X134127868Y-43861107D01*
X134140480Y-43882150D01*
X134150970Y-43904329D01*
X134159235Y-43927428D01*
X134165196Y-43951227D01*
X134168796Y-43975495D01*
X134170000Y-43999999D01*
X134170000Y-44900001D01*
X134168796Y-44924505D01*
X134165196Y-44948773D01*
X134159235Y-44972572D01*
X134150970Y-44995671D01*
X134140480Y-45017850D01*
X134127868Y-45038893D01*
X134113253Y-45058599D01*
X134096777Y-45076777D01*
X134078599Y-45093253D01*
X134058893Y-45107868D01*
X134037850Y-45120480D01*
X134015671Y-45130970D01*
X133992572Y-45139235D01*
X133968773Y-45145196D01*
X133944505Y-45148796D01*
X133920001Y-45150000D01*
X133269999Y-45150000D01*
X133245495Y-45148796D01*
X133221227Y-45145196D01*
X133197428Y-45139235D01*
X133174329Y-45130970D01*
X133152150Y-45120480D01*
X133131107Y-45107868D01*
X133111401Y-45093253D01*
X133093223Y-45076777D01*
X133076747Y-45058599D01*
X133062132Y-45038893D01*
X133049520Y-45017850D01*
X133039030Y-44995671D01*
X133030765Y-44972572D01*
X133024804Y-44948773D01*
X133021204Y-44924505D01*
X133020000Y-44900001D01*
X133020000Y-43999999D01*
X133021204Y-43975495D01*
X133024804Y-43951227D01*
X133030765Y-43927428D01*
X133039030Y-43904329D01*
X133049520Y-43882150D01*
X133062132Y-43861107D01*
X133076747Y-43841401D01*
X133093223Y-43823223D01*
X133111401Y-43806747D01*
X133131107Y-43792132D01*
X133152150Y-43779520D01*
X133174329Y-43769030D01*
X133197428Y-43760765D01*
X133221227Y-43754804D01*
X133245495Y-43751204D01*
X133269999Y-43750000D01*
X133920001Y-43750000D01*
X133944505Y-43751204D01*
X133944505Y-43751204D01*
G37*
D16*
G04 #@! TD*
G04 #@! TO.P,R1,1*
G04 #@! TO.N,Net-(D0-Pad2)*
X133595000Y-44450000D03*
D15*
G04 #@! TO.N,+5V*
G04 #@! TO.C,R1*
G36*
X135994505Y-43751204D02*
X136018773Y-43754804D01*
X136042572Y-43760765D01*
X136065671Y-43769030D01*
X136087850Y-43779520D01*
X136108893Y-43792132D01*
X136128599Y-43806747D01*
X136146777Y-43823223D01*
X136163253Y-43841401D01*
X136177868Y-43861107D01*
X136190480Y-43882150D01*
X136200970Y-43904329D01*
X136209235Y-43927428D01*
X136215196Y-43951227D01*
X136218796Y-43975495D01*
X136220000Y-43999999D01*
X136220000Y-44900001D01*
X136218796Y-44924505D01*
X136215196Y-44948773D01*
X136209235Y-44972572D01*
X136200970Y-44995671D01*
X136190480Y-45017850D01*
X136177868Y-45038893D01*
X136163253Y-45058599D01*
X136146777Y-45076777D01*
X136128599Y-45093253D01*
X136108893Y-45107868D01*
X136087850Y-45120480D01*
X136065671Y-45130970D01*
X136042572Y-45139235D01*
X136018773Y-45145196D01*
X135994505Y-45148796D01*
X135970001Y-45150000D01*
X135319999Y-45150000D01*
X135295495Y-45148796D01*
X135271227Y-45145196D01*
X135247428Y-45139235D01*
X135224329Y-45130970D01*
X135202150Y-45120480D01*
X135181107Y-45107868D01*
X135161401Y-45093253D01*
X135143223Y-45076777D01*
X135126747Y-45058599D01*
X135112132Y-45038893D01*
X135099520Y-45017850D01*
X135089030Y-44995671D01*
X135080765Y-44972572D01*
X135074804Y-44948773D01*
X135071204Y-44924505D01*
X135070000Y-44900001D01*
X135070000Y-43999999D01*
X135071204Y-43975495D01*
X135074804Y-43951227D01*
X135080765Y-43927428D01*
X135089030Y-43904329D01*
X135099520Y-43882150D01*
X135112132Y-43861107D01*
X135126747Y-43841401D01*
X135143223Y-43823223D01*
X135161401Y-43806747D01*
X135181107Y-43792132D01*
X135202150Y-43779520D01*
X135224329Y-43769030D01*
X135247428Y-43760765D01*
X135271227Y-43754804D01*
X135295495Y-43751204D01*
X135319999Y-43750000D01*
X135970001Y-43750000D01*
X135994505Y-43751204D01*
X135994505Y-43751204D01*
G37*
D16*
G04 #@! TD*
G04 #@! TO.P,R1,2*
G04 #@! TO.N,+5V*
X135645000Y-44450000D03*
D15*
G04 #@! TO.N,Net-(R2-Pad1)*
G04 #@! TO.C,R2*
G36*
X101704505Y-64071204D02*
X101728773Y-64074804D01*
X101752572Y-64080765D01*
X101775671Y-64089030D01*
X101797850Y-64099520D01*
X101818893Y-64112132D01*
X101838599Y-64126747D01*
X101856777Y-64143223D01*
X101873253Y-64161401D01*
X101887868Y-64181107D01*
X101900480Y-64202150D01*
X101910970Y-64224329D01*
X101919235Y-64247428D01*
X101925196Y-64271227D01*
X101928796Y-64295495D01*
X101930000Y-64319999D01*
X101930000Y-65220001D01*
X101928796Y-65244505D01*
X101925196Y-65268773D01*
X101919235Y-65292572D01*
X101910970Y-65315671D01*
X101900480Y-65337850D01*
X101887868Y-65358893D01*
X101873253Y-65378599D01*
X101856777Y-65396777D01*
X101838599Y-65413253D01*
X101818893Y-65427868D01*
X101797850Y-65440480D01*
X101775671Y-65450970D01*
X101752572Y-65459235D01*
X101728773Y-65465196D01*
X101704505Y-65468796D01*
X101680001Y-65470000D01*
X101029999Y-65470000D01*
X101005495Y-65468796D01*
X100981227Y-65465196D01*
X100957428Y-65459235D01*
X100934329Y-65450970D01*
X100912150Y-65440480D01*
X100891107Y-65427868D01*
X100871401Y-65413253D01*
X100853223Y-65396777D01*
X100836747Y-65378599D01*
X100822132Y-65358893D01*
X100809520Y-65337850D01*
X100799030Y-65315671D01*
X100790765Y-65292572D01*
X100784804Y-65268773D01*
X100781204Y-65244505D01*
X100780000Y-65220001D01*
X100780000Y-64319999D01*
X100781204Y-64295495D01*
X100784804Y-64271227D01*
X100790765Y-64247428D01*
X100799030Y-64224329D01*
X100809520Y-64202150D01*
X100822132Y-64181107D01*
X100836747Y-64161401D01*
X100853223Y-64143223D01*
X100871401Y-64126747D01*
X100891107Y-64112132D01*
X100912150Y-64099520D01*
X100934329Y-64089030D01*
X100957428Y-64080765D01*
X100981227Y-64074804D01*
X101005495Y-64071204D01*
X101029999Y-64070000D01*
X101680001Y-64070000D01*
X101704505Y-64071204D01*
X101704505Y-64071204D01*
G37*
D16*
G04 #@! TD*
G04 #@! TO.P,R2,1*
G04 #@! TO.N,Net-(R2-Pad1)*
X101355000Y-64770000D03*
D15*
G04 #@! TO.N,Net-(D1-Pad2)*
G04 #@! TO.C,R2*
G36*
X99654505Y-64071204D02*
X99678773Y-64074804D01*
X99702572Y-64080765D01*
X99725671Y-64089030D01*
X99747850Y-64099520D01*
X99768893Y-64112132D01*
X99788599Y-64126747D01*
X99806777Y-64143223D01*
X99823253Y-64161401D01*
X99837868Y-64181107D01*
X99850480Y-64202150D01*
X99860970Y-64224329D01*
X99869235Y-64247428D01*
X99875196Y-64271227D01*
X99878796Y-64295495D01*
X99880000Y-64319999D01*
X99880000Y-65220001D01*
X99878796Y-65244505D01*
X99875196Y-65268773D01*
X99869235Y-65292572D01*
X99860970Y-65315671D01*
X99850480Y-65337850D01*
X99837868Y-65358893D01*
X99823253Y-65378599D01*
X99806777Y-65396777D01*
X99788599Y-65413253D01*
X99768893Y-65427868D01*
X99747850Y-65440480D01*
X99725671Y-65450970D01*
X99702572Y-65459235D01*
X99678773Y-65465196D01*
X99654505Y-65468796D01*
X99630001Y-65470000D01*
X98979999Y-65470000D01*
X98955495Y-65468796D01*
X98931227Y-65465196D01*
X98907428Y-65459235D01*
X98884329Y-65450970D01*
X98862150Y-65440480D01*
X98841107Y-65427868D01*
X98821401Y-65413253D01*
X98803223Y-65396777D01*
X98786747Y-65378599D01*
X98772132Y-65358893D01*
X98759520Y-65337850D01*
X98749030Y-65315671D01*
X98740765Y-65292572D01*
X98734804Y-65268773D01*
X98731204Y-65244505D01*
X98730000Y-65220001D01*
X98730000Y-64319999D01*
X98731204Y-64295495D01*
X98734804Y-64271227D01*
X98740765Y-64247428D01*
X98749030Y-64224329D01*
X98759520Y-64202150D01*
X98772132Y-64181107D01*
X98786747Y-64161401D01*
X98803223Y-64143223D01*
X98821401Y-64126747D01*
X98841107Y-64112132D01*
X98862150Y-64099520D01*
X98884329Y-64089030D01*
X98907428Y-64080765D01*
X98931227Y-64074804D01*
X98955495Y-64071204D01*
X98979999Y-64070000D01*
X99630001Y-64070000D01*
X99654505Y-64071204D01*
X99654505Y-64071204D01*
G37*
D16*
G04 #@! TD*
G04 #@! TO.P,R2,2*
G04 #@! TO.N,Net-(D1-Pad2)*
X99305000Y-64770000D03*
D15*
G04 #@! TO.N,Net-(D2-Pad2)*
G04 #@! TO.C,R3*
G36*
X99654505Y-66611204D02*
X99678773Y-66614804D01*
X99702572Y-66620765D01*
X99725671Y-66629030D01*
X99747850Y-66639520D01*
X99768893Y-66652132D01*
X99788599Y-66666747D01*
X99806777Y-66683223D01*
X99823253Y-66701401D01*
X99837868Y-66721107D01*
X99850480Y-66742150D01*
X99860970Y-66764329D01*
X99869235Y-66787428D01*
X99875196Y-66811227D01*
X99878796Y-66835495D01*
X99880000Y-66859999D01*
X99880000Y-67760001D01*
X99878796Y-67784505D01*
X99875196Y-67808773D01*
X99869235Y-67832572D01*
X99860970Y-67855671D01*
X99850480Y-67877850D01*
X99837868Y-67898893D01*
X99823253Y-67918599D01*
X99806777Y-67936777D01*
X99788599Y-67953253D01*
X99768893Y-67967868D01*
X99747850Y-67980480D01*
X99725671Y-67990970D01*
X99702572Y-67999235D01*
X99678773Y-68005196D01*
X99654505Y-68008796D01*
X99630001Y-68010000D01*
X98979999Y-68010000D01*
X98955495Y-68008796D01*
X98931227Y-68005196D01*
X98907428Y-67999235D01*
X98884329Y-67990970D01*
X98862150Y-67980480D01*
X98841107Y-67967868D01*
X98821401Y-67953253D01*
X98803223Y-67936777D01*
X98786747Y-67918599D01*
X98772132Y-67898893D01*
X98759520Y-67877850D01*
X98749030Y-67855671D01*
X98740765Y-67832572D01*
X98734804Y-67808773D01*
X98731204Y-67784505D01*
X98730000Y-67760001D01*
X98730000Y-66859999D01*
X98731204Y-66835495D01*
X98734804Y-66811227D01*
X98740765Y-66787428D01*
X98749030Y-66764329D01*
X98759520Y-66742150D01*
X98772132Y-66721107D01*
X98786747Y-66701401D01*
X98803223Y-66683223D01*
X98821401Y-66666747D01*
X98841107Y-66652132D01*
X98862150Y-66639520D01*
X98884329Y-66629030D01*
X98907428Y-66620765D01*
X98931227Y-66614804D01*
X98955495Y-66611204D01*
X98979999Y-66610000D01*
X99630001Y-66610000D01*
X99654505Y-66611204D01*
X99654505Y-66611204D01*
G37*
D16*
G04 #@! TD*
G04 #@! TO.P,R3,2*
G04 #@! TO.N,Net-(D2-Pad2)*
X99305000Y-67310000D03*
D15*
G04 #@! TO.N,Net-(R3-Pad1)*
G04 #@! TO.C,R3*
G36*
X101704505Y-66611204D02*
X101728773Y-66614804D01*
X101752572Y-66620765D01*
X101775671Y-66629030D01*
X101797850Y-66639520D01*
X101818893Y-66652132D01*
X101838599Y-66666747D01*
X101856777Y-66683223D01*
X101873253Y-66701401D01*
X101887868Y-66721107D01*
X101900480Y-66742150D01*
X101910970Y-66764329D01*
X101919235Y-66787428D01*
X101925196Y-66811227D01*
X101928796Y-66835495D01*
X101930000Y-66859999D01*
X101930000Y-67760001D01*
X101928796Y-67784505D01*
X101925196Y-67808773D01*
X101919235Y-67832572D01*
X101910970Y-67855671D01*
X101900480Y-67877850D01*
X101887868Y-67898893D01*
X101873253Y-67918599D01*
X101856777Y-67936777D01*
X101838599Y-67953253D01*
X101818893Y-67967868D01*
X101797850Y-67980480D01*
X101775671Y-67990970D01*
X101752572Y-67999235D01*
X101728773Y-68005196D01*
X101704505Y-68008796D01*
X101680001Y-68010000D01*
X101029999Y-68010000D01*
X101005495Y-68008796D01*
X100981227Y-68005196D01*
X100957428Y-67999235D01*
X100934329Y-67990970D01*
X100912150Y-67980480D01*
X100891107Y-67967868D01*
X100871401Y-67953253D01*
X100853223Y-67936777D01*
X100836747Y-67918599D01*
X100822132Y-67898893D01*
X100809520Y-67877850D01*
X100799030Y-67855671D01*
X100790765Y-67832572D01*
X100784804Y-67808773D01*
X100781204Y-67784505D01*
X100780000Y-67760001D01*
X100780000Y-66859999D01*
X100781204Y-66835495D01*
X100784804Y-66811227D01*
X100790765Y-66787428D01*
X100799030Y-66764329D01*
X100809520Y-66742150D01*
X100822132Y-66721107D01*
X100836747Y-66701401D01*
X100853223Y-66683223D01*
X100871401Y-66666747D01*
X100891107Y-66652132D01*
X100912150Y-66639520D01*
X100934329Y-66629030D01*
X100957428Y-66620765D01*
X100981227Y-66614804D01*
X101005495Y-66611204D01*
X101029999Y-66610000D01*
X101680001Y-66610000D01*
X101704505Y-66611204D01*
X101704505Y-66611204D01*
G37*
D16*
G04 #@! TD*
G04 #@! TO.P,R3,1*
G04 #@! TO.N,Net-(R3-Pad1)*
X101355000Y-67310000D03*
D15*
G04 #@! TO.N,+5V*
G04 #@! TO.C,R4*
G36*
X123784505Y-88901204D02*
X123808773Y-88904804D01*
X123832572Y-88910765D01*
X123855671Y-88919030D01*
X123877850Y-88929520D01*
X123898893Y-88942132D01*
X123918599Y-88956747D01*
X123936777Y-88973223D01*
X123953253Y-88991401D01*
X123967868Y-89011107D01*
X123980480Y-89032150D01*
X123990970Y-89054329D01*
X123999235Y-89077428D01*
X124005196Y-89101227D01*
X124008796Y-89125495D01*
X124010000Y-89149999D01*
X124010000Y-90050001D01*
X124008796Y-90074505D01*
X124005196Y-90098773D01*
X123999235Y-90122572D01*
X123990970Y-90145671D01*
X123980480Y-90167850D01*
X123967868Y-90188893D01*
X123953253Y-90208599D01*
X123936777Y-90226777D01*
X123918599Y-90243253D01*
X123898893Y-90257868D01*
X123877850Y-90270480D01*
X123855671Y-90280970D01*
X123832572Y-90289235D01*
X123808773Y-90295196D01*
X123784505Y-90298796D01*
X123760001Y-90300000D01*
X123109999Y-90300000D01*
X123085495Y-90298796D01*
X123061227Y-90295196D01*
X123037428Y-90289235D01*
X123014329Y-90280970D01*
X122992150Y-90270480D01*
X122971107Y-90257868D01*
X122951401Y-90243253D01*
X122933223Y-90226777D01*
X122916747Y-90208599D01*
X122902132Y-90188893D01*
X122889520Y-90167850D01*
X122879030Y-90145671D01*
X122870765Y-90122572D01*
X122864804Y-90098773D01*
X122861204Y-90074505D01*
X122860000Y-90050001D01*
X122860000Y-89149999D01*
X122861204Y-89125495D01*
X122864804Y-89101227D01*
X122870765Y-89077428D01*
X122879030Y-89054329D01*
X122889520Y-89032150D01*
X122902132Y-89011107D01*
X122916747Y-88991401D01*
X122933223Y-88973223D01*
X122951401Y-88956747D01*
X122971107Y-88942132D01*
X122992150Y-88929520D01*
X123014329Y-88919030D01*
X123037428Y-88910765D01*
X123061227Y-88904804D01*
X123085495Y-88901204D01*
X123109999Y-88900000D01*
X123760001Y-88900000D01*
X123784505Y-88901204D01*
X123784505Y-88901204D01*
G37*
D16*
G04 #@! TD*
G04 #@! TO.P,R4,1*
G04 #@! TO.N,+5V*
X123435000Y-89600000D03*
D15*
G04 #@! TO.N,RESET*
G04 #@! TO.C,R4*
G36*
X125834505Y-88901204D02*
X125858773Y-88904804D01*
X125882572Y-88910765D01*
X125905671Y-88919030D01*
X125927850Y-88929520D01*
X125948893Y-88942132D01*
X125968599Y-88956747D01*
X125986777Y-88973223D01*
X126003253Y-88991401D01*
X126017868Y-89011107D01*
X126030480Y-89032150D01*
X126040970Y-89054329D01*
X126049235Y-89077428D01*
X126055196Y-89101227D01*
X126058796Y-89125495D01*
X126060000Y-89149999D01*
X126060000Y-90050001D01*
X126058796Y-90074505D01*
X126055196Y-90098773D01*
X126049235Y-90122572D01*
X126040970Y-90145671D01*
X126030480Y-90167850D01*
X126017868Y-90188893D01*
X126003253Y-90208599D01*
X125986777Y-90226777D01*
X125968599Y-90243253D01*
X125948893Y-90257868D01*
X125927850Y-90270480D01*
X125905671Y-90280970D01*
X125882572Y-90289235D01*
X125858773Y-90295196D01*
X125834505Y-90298796D01*
X125810001Y-90300000D01*
X125159999Y-90300000D01*
X125135495Y-90298796D01*
X125111227Y-90295196D01*
X125087428Y-90289235D01*
X125064329Y-90280970D01*
X125042150Y-90270480D01*
X125021107Y-90257868D01*
X125001401Y-90243253D01*
X124983223Y-90226777D01*
X124966747Y-90208599D01*
X124952132Y-90188893D01*
X124939520Y-90167850D01*
X124929030Y-90145671D01*
X124920765Y-90122572D01*
X124914804Y-90098773D01*
X124911204Y-90074505D01*
X124910000Y-90050001D01*
X124910000Y-89149999D01*
X124911204Y-89125495D01*
X124914804Y-89101227D01*
X124920765Y-89077428D01*
X124929030Y-89054329D01*
X124939520Y-89032150D01*
X124952132Y-89011107D01*
X124966747Y-88991401D01*
X124983223Y-88973223D01*
X125001401Y-88956747D01*
X125021107Y-88942132D01*
X125042150Y-88929520D01*
X125064329Y-88919030D01*
X125087428Y-88910765D01*
X125111227Y-88904804D01*
X125135495Y-88901204D01*
X125159999Y-88900000D01*
X125810001Y-88900000D01*
X125834505Y-88901204D01*
X125834505Y-88901204D01*
G37*
D16*
G04 #@! TD*
G04 #@! TO.P,R4,2*
G04 #@! TO.N,RESET*
X125485000Y-89600000D03*
D15*
G04 #@! TO.N,+5V*
G04 #@! TO.C,R5*
G36*
X123784505Y-72961204D02*
X123808773Y-72964804D01*
X123832572Y-72970765D01*
X123855671Y-72979030D01*
X123877850Y-72989520D01*
X123898893Y-73002132D01*
X123918599Y-73016747D01*
X123936777Y-73033223D01*
X123953253Y-73051401D01*
X123967868Y-73071107D01*
X123980480Y-73092150D01*
X123990970Y-73114329D01*
X123999235Y-73137428D01*
X124005196Y-73161227D01*
X124008796Y-73185495D01*
X124010000Y-73209999D01*
X124010000Y-74110001D01*
X124008796Y-74134505D01*
X124005196Y-74158773D01*
X123999235Y-74182572D01*
X123990970Y-74205671D01*
X123980480Y-74227850D01*
X123967868Y-74248893D01*
X123953253Y-74268599D01*
X123936777Y-74286777D01*
X123918599Y-74303253D01*
X123898893Y-74317868D01*
X123877850Y-74330480D01*
X123855671Y-74340970D01*
X123832572Y-74349235D01*
X123808773Y-74355196D01*
X123784505Y-74358796D01*
X123760001Y-74360000D01*
X123109999Y-74360000D01*
X123085495Y-74358796D01*
X123061227Y-74355196D01*
X123037428Y-74349235D01*
X123014329Y-74340970D01*
X122992150Y-74330480D01*
X122971107Y-74317868D01*
X122951401Y-74303253D01*
X122933223Y-74286777D01*
X122916747Y-74268599D01*
X122902132Y-74248893D01*
X122889520Y-74227850D01*
X122879030Y-74205671D01*
X122870765Y-74182572D01*
X122864804Y-74158773D01*
X122861204Y-74134505D01*
X122860000Y-74110001D01*
X122860000Y-73209999D01*
X122861204Y-73185495D01*
X122864804Y-73161227D01*
X122870765Y-73137428D01*
X122879030Y-73114329D01*
X122889520Y-73092150D01*
X122902132Y-73071107D01*
X122916747Y-73051401D01*
X122933223Y-73033223D01*
X122951401Y-73016747D01*
X122971107Y-73002132D01*
X122992150Y-72989520D01*
X123014329Y-72979030D01*
X123037428Y-72970765D01*
X123061227Y-72964804D01*
X123085495Y-72961204D01*
X123109999Y-72960000D01*
X123760001Y-72960000D01*
X123784505Y-72961204D01*
X123784505Y-72961204D01*
G37*
D16*
G04 #@! TD*
G04 #@! TO.P,R5,1*
G04 #@! TO.N,+5V*
X123435000Y-73660000D03*
D15*
G04 #@! TO.N,DIRECTION1*
G04 #@! TO.C,R5*
G36*
X125834505Y-72961204D02*
X125858773Y-72964804D01*
X125882572Y-72970765D01*
X125905671Y-72979030D01*
X125927850Y-72989520D01*
X125948893Y-73002132D01*
X125968599Y-73016747D01*
X125986777Y-73033223D01*
X126003253Y-73051401D01*
X126017868Y-73071107D01*
X126030480Y-73092150D01*
X126040970Y-73114329D01*
X126049235Y-73137428D01*
X126055196Y-73161227D01*
X126058796Y-73185495D01*
X126060000Y-73209999D01*
X126060000Y-74110001D01*
X126058796Y-74134505D01*
X126055196Y-74158773D01*
X126049235Y-74182572D01*
X126040970Y-74205671D01*
X126030480Y-74227850D01*
X126017868Y-74248893D01*
X126003253Y-74268599D01*
X125986777Y-74286777D01*
X125968599Y-74303253D01*
X125948893Y-74317868D01*
X125927850Y-74330480D01*
X125905671Y-74340970D01*
X125882572Y-74349235D01*
X125858773Y-74355196D01*
X125834505Y-74358796D01*
X125810001Y-74360000D01*
X125159999Y-74360000D01*
X125135495Y-74358796D01*
X125111227Y-74355196D01*
X125087428Y-74349235D01*
X125064329Y-74340970D01*
X125042150Y-74330480D01*
X125021107Y-74317868D01*
X125001401Y-74303253D01*
X124983223Y-74286777D01*
X124966747Y-74268599D01*
X124952132Y-74248893D01*
X124939520Y-74227850D01*
X124929030Y-74205671D01*
X124920765Y-74182572D01*
X124914804Y-74158773D01*
X124911204Y-74134505D01*
X124910000Y-74110001D01*
X124910000Y-73209999D01*
X124911204Y-73185495D01*
X124914804Y-73161227D01*
X124920765Y-73137428D01*
X124929030Y-73114329D01*
X124939520Y-73092150D01*
X124952132Y-73071107D01*
X124966747Y-73051401D01*
X124983223Y-73033223D01*
X125001401Y-73016747D01*
X125021107Y-73002132D01*
X125042150Y-72989520D01*
X125064329Y-72979030D01*
X125087428Y-72970765D01*
X125111227Y-72964804D01*
X125135495Y-72961204D01*
X125159999Y-72960000D01*
X125810001Y-72960000D01*
X125834505Y-72961204D01*
X125834505Y-72961204D01*
G37*
D16*
G04 #@! TD*
G04 #@! TO.P,R5,2*
G04 #@! TO.N,DIRECTION1*
X125485000Y-73660000D03*
D15*
G04 #@! TO.N,DIRECTION2*
G04 #@! TO.C,R6*
G36*
X125834505Y-75501204D02*
X125858773Y-75504804D01*
X125882572Y-75510765D01*
X125905671Y-75519030D01*
X125927850Y-75529520D01*
X125948893Y-75542132D01*
X125968599Y-75556747D01*
X125986777Y-75573223D01*
X126003253Y-75591401D01*
X126017868Y-75611107D01*
X126030480Y-75632150D01*
X126040970Y-75654329D01*
X126049235Y-75677428D01*
X126055196Y-75701227D01*
X126058796Y-75725495D01*
X126060000Y-75749999D01*
X126060000Y-76650001D01*
X126058796Y-76674505D01*
X126055196Y-76698773D01*
X126049235Y-76722572D01*
X126040970Y-76745671D01*
X126030480Y-76767850D01*
X126017868Y-76788893D01*
X126003253Y-76808599D01*
X125986777Y-76826777D01*
X125968599Y-76843253D01*
X125948893Y-76857868D01*
X125927850Y-76870480D01*
X125905671Y-76880970D01*
X125882572Y-76889235D01*
X125858773Y-76895196D01*
X125834505Y-76898796D01*
X125810001Y-76900000D01*
X125159999Y-76900000D01*
X125135495Y-76898796D01*
X125111227Y-76895196D01*
X125087428Y-76889235D01*
X125064329Y-76880970D01*
X125042150Y-76870480D01*
X125021107Y-76857868D01*
X125001401Y-76843253D01*
X124983223Y-76826777D01*
X124966747Y-76808599D01*
X124952132Y-76788893D01*
X124939520Y-76767850D01*
X124929030Y-76745671D01*
X124920765Y-76722572D01*
X124914804Y-76698773D01*
X124911204Y-76674505D01*
X124910000Y-76650001D01*
X124910000Y-75749999D01*
X124911204Y-75725495D01*
X124914804Y-75701227D01*
X124920765Y-75677428D01*
X124929030Y-75654329D01*
X124939520Y-75632150D01*
X124952132Y-75611107D01*
X124966747Y-75591401D01*
X124983223Y-75573223D01*
X125001401Y-75556747D01*
X125021107Y-75542132D01*
X125042150Y-75529520D01*
X125064329Y-75519030D01*
X125087428Y-75510765D01*
X125111227Y-75504804D01*
X125135495Y-75501204D01*
X125159999Y-75500000D01*
X125810001Y-75500000D01*
X125834505Y-75501204D01*
X125834505Y-75501204D01*
G37*
D16*
G04 #@! TD*
G04 #@! TO.P,R6,2*
G04 #@! TO.N,DIRECTION2*
X125485000Y-76200000D03*
D15*
G04 #@! TO.N,+5V*
G04 #@! TO.C,R6*
G36*
X123784505Y-75501204D02*
X123808773Y-75504804D01*
X123832572Y-75510765D01*
X123855671Y-75519030D01*
X123877850Y-75529520D01*
X123898893Y-75542132D01*
X123918599Y-75556747D01*
X123936777Y-75573223D01*
X123953253Y-75591401D01*
X123967868Y-75611107D01*
X123980480Y-75632150D01*
X123990970Y-75654329D01*
X123999235Y-75677428D01*
X124005196Y-75701227D01*
X124008796Y-75725495D01*
X124010000Y-75749999D01*
X124010000Y-76650001D01*
X124008796Y-76674505D01*
X124005196Y-76698773D01*
X123999235Y-76722572D01*
X123990970Y-76745671D01*
X123980480Y-76767850D01*
X123967868Y-76788893D01*
X123953253Y-76808599D01*
X123936777Y-76826777D01*
X123918599Y-76843253D01*
X123898893Y-76857868D01*
X123877850Y-76870480D01*
X123855671Y-76880970D01*
X123832572Y-76889235D01*
X123808773Y-76895196D01*
X123784505Y-76898796D01*
X123760001Y-76900000D01*
X123109999Y-76900000D01*
X123085495Y-76898796D01*
X123061227Y-76895196D01*
X123037428Y-76889235D01*
X123014329Y-76880970D01*
X122992150Y-76870480D01*
X122971107Y-76857868D01*
X122951401Y-76843253D01*
X122933223Y-76826777D01*
X122916747Y-76808599D01*
X122902132Y-76788893D01*
X122889520Y-76767850D01*
X122879030Y-76745671D01*
X122870765Y-76722572D01*
X122864804Y-76698773D01*
X122861204Y-76674505D01*
X122860000Y-76650001D01*
X122860000Y-75749999D01*
X122861204Y-75725495D01*
X122864804Y-75701227D01*
X122870765Y-75677428D01*
X122879030Y-75654329D01*
X122889520Y-75632150D01*
X122902132Y-75611107D01*
X122916747Y-75591401D01*
X122933223Y-75573223D01*
X122951401Y-75556747D01*
X122971107Y-75542132D01*
X122992150Y-75529520D01*
X123014329Y-75519030D01*
X123037428Y-75510765D01*
X123061227Y-75504804D01*
X123085495Y-75501204D01*
X123109999Y-75500000D01*
X123760001Y-75500000D01*
X123784505Y-75501204D01*
X123784505Y-75501204D01*
G37*
D16*
G04 #@! TD*
G04 #@! TO.P,R6,1*
G04 #@! TO.N,+5V*
X123435000Y-76200000D03*
D15*
G04 #@! TO.N,+5V*
G04 #@! TO.C,R7*
G36*
X123784505Y-64071204D02*
X123808773Y-64074804D01*
X123832572Y-64080765D01*
X123855671Y-64089030D01*
X123877850Y-64099520D01*
X123898893Y-64112132D01*
X123918599Y-64126747D01*
X123936777Y-64143223D01*
X123953253Y-64161401D01*
X123967868Y-64181107D01*
X123980480Y-64202150D01*
X123990970Y-64224329D01*
X123999235Y-64247428D01*
X124005196Y-64271227D01*
X124008796Y-64295495D01*
X124010000Y-64319999D01*
X124010000Y-65220001D01*
X124008796Y-65244505D01*
X124005196Y-65268773D01*
X123999235Y-65292572D01*
X123990970Y-65315671D01*
X123980480Y-65337850D01*
X123967868Y-65358893D01*
X123953253Y-65378599D01*
X123936777Y-65396777D01*
X123918599Y-65413253D01*
X123898893Y-65427868D01*
X123877850Y-65440480D01*
X123855671Y-65450970D01*
X123832572Y-65459235D01*
X123808773Y-65465196D01*
X123784505Y-65468796D01*
X123760001Y-65470000D01*
X123109999Y-65470000D01*
X123085495Y-65468796D01*
X123061227Y-65465196D01*
X123037428Y-65459235D01*
X123014329Y-65450970D01*
X122992150Y-65440480D01*
X122971107Y-65427868D01*
X122951401Y-65413253D01*
X122933223Y-65396777D01*
X122916747Y-65378599D01*
X122902132Y-65358893D01*
X122889520Y-65337850D01*
X122879030Y-65315671D01*
X122870765Y-65292572D01*
X122864804Y-65268773D01*
X122861204Y-65244505D01*
X122860000Y-65220001D01*
X122860000Y-64319999D01*
X122861204Y-64295495D01*
X122864804Y-64271227D01*
X122870765Y-64247428D01*
X122879030Y-64224329D01*
X122889520Y-64202150D01*
X122902132Y-64181107D01*
X122916747Y-64161401D01*
X122933223Y-64143223D01*
X122951401Y-64126747D01*
X122971107Y-64112132D01*
X122992150Y-64099520D01*
X123014329Y-64089030D01*
X123037428Y-64080765D01*
X123061227Y-64074804D01*
X123085495Y-64071204D01*
X123109999Y-64070000D01*
X123760001Y-64070000D01*
X123784505Y-64071204D01*
X123784505Y-64071204D01*
G37*
D16*
G04 #@! TD*
G04 #@! TO.P,R7,2*
G04 #@! TO.N,+5V*
X123435000Y-64770000D03*
D15*
G04 #@! TO.N,SCK-SCL*
G04 #@! TO.C,R7*
G36*
X125834505Y-64071204D02*
X125858773Y-64074804D01*
X125882572Y-64080765D01*
X125905671Y-64089030D01*
X125927850Y-64099520D01*
X125948893Y-64112132D01*
X125968599Y-64126747D01*
X125986777Y-64143223D01*
X126003253Y-64161401D01*
X126017868Y-64181107D01*
X126030480Y-64202150D01*
X126040970Y-64224329D01*
X126049235Y-64247428D01*
X126055196Y-64271227D01*
X126058796Y-64295495D01*
X126060000Y-64319999D01*
X126060000Y-65220001D01*
X126058796Y-65244505D01*
X126055196Y-65268773D01*
X126049235Y-65292572D01*
X126040970Y-65315671D01*
X126030480Y-65337850D01*
X126017868Y-65358893D01*
X126003253Y-65378599D01*
X125986777Y-65396777D01*
X125968599Y-65413253D01*
X125948893Y-65427868D01*
X125927850Y-65440480D01*
X125905671Y-65450970D01*
X125882572Y-65459235D01*
X125858773Y-65465196D01*
X125834505Y-65468796D01*
X125810001Y-65470000D01*
X125159999Y-65470000D01*
X125135495Y-65468796D01*
X125111227Y-65465196D01*
X125087428Y-65459235D01*
X125064329Y-65450970D01*
X125042150Y-65440480D01*
X125021107Y-65427868D01*
X125001401Y-65413253D01*
X124983223Y-65396777D01*
X124966747Y-65378599D01*
X124952132Y-65358893D01*
X124939520Y-65337850D01*
X124929030Y-65315671D01*
X124920765Y-65292572D01*
X124914804Y-65268773D01*
X124911204Y-65244505D01*
X124910000Y-65220001D01*
X124910000Y-64319999D01*
X124911204Y-64295495D01*
X124914804Y-64271227D01*
X124920765Y-64247428D01*
X124929030Y-64224329D01*
X124939520Y-64202150D01*
X124952132Y-64181107D01*
X124966747Y-64161401D01*
X124983223Y-64143223D01*
X125001401Y-64126747D01*
X125021107Y-64112132D01*
X125042150Y-64099520D01*
X125064329Y-64089030D01*
X125087428Y-64080765D01*
X125111227Y-64074804D01*
X125135495Y-64071204D01*
X125159999Y-64070000D01*
X125810001Y-64070000D01*
X125834505Y-64071204D01*
X125834505Y-64071204D01*
G37*
D16*
G04 #@! TD*
G04 #@! TO.P,R7,1*
G04 #@! TO.N,SCK-SCL*
X125485000Y-64770000D03*
D15*
G04 #@! TO.N,MOSI-SDA*
G04 #@! TO.C,R8*
G36*
X125834505Y-61531204D02*
X125858773Y-61534804D01*
X125882572Y-61540765D01*
X125905671Y-61549030D01*
X125927850Y-61559520D01*
X125948893Y-61572132D01*
X125968599Y-61586747D01*
X125986777Y-61603223D01*
X126003253Y-61621401D01*
X126017868Y-61641107D01*
X126030480Y-61662150D01*
X126040970Y-61684329D01*
X126049235Y-61707428D01*
X126055196Y-61731227D01*
X126058796Y-61755495D01*
X126060000Y-61779999D01*
X126060000Y-62680001D01*
X126058796Y-62704505D01*
X126055196Y-62728773D01*
X126049235Y-62752572D01*
X126040970Y-62775671D01*
X126030480Y-62797850D01*
X126017868Y-62818893D01*
X126003253Y-62838599D01*
X125986777Y-62856777D01*
X125968599Y-62873253D01*
X125948893Y-62887868D01*
X125927850Y-62900480D01*
X125905671Y-62910970D01*
X125882572Y-62919235D01*
X125858773Y-62925196D01*
X125834505Y-62928796D01*
X125810001Y-62930000D01*
X125159999Y-62930000D01*
X125135495Y-62928796D01*
X125111227Y-62925196D01*
X125087428Y-62919235D01*
X125064329Y-62910970D01*
X125042150Y-62900480D01*
X125021107Y-62887868D01*
X125001401Y-62873253D01*
X124983223Y-62856777D01*
X124966747Y-62838599D01*
X124952132Y-62818893D01*
X124939520Y-62797850D01*
X124929030Y-62775671D01*
X124920765Y-62752572D01*
X124914804Y-62728773D01*
X124911204Y-62704505D01*
X124910000Y-62680001D01*
X124910000Y-61779999D01*
X124911204Y-61755495D01*
X124914804Y-61731227D01*
X124920765Y-61707428D01*
X124929030Y-61684329D01*
X124939520Y-61662150D01*
X124952132Y-61641107D01*
X124966747Y-61621401D01*
X124983223Y-61603223D01*
X125001401Y-61586747D01*
X125021107Y-61572132D01*
X125042150Y-61559520D01*
X125064329Y-61549030D01*
X125087428Y-61540765D01*
X125111227Y-61534804D01*
X125135495Y-61531204D01*
X125159999Y-61530000D01*
X125810001Y-61530000D01*
X125834505Y-61531204D01*
X125834505Y-61531204D01*
G37*
D16*
G04 #@! TD*
G04 #@! TO.P,R8,2*
G04 #@! TO.N,MOSI-SDA*
X125485000Y-62230000D03*
D15*
G04 #@! TO.N,+5V*
G04 #@! TO.C,R8*
G36*
X123784505Y-61531204D02*
X123808773Y-61534804D01*
X123832572Y-61540765D01*
X123855671Y-61549030D01*
X123877850Y-61559520D01*
X123898893Y-61572132D01*
X123918599Y-61586747D01*
X123936777Y-61603223D01*
X123953253Y-61621401D01*
X123967868Y-61641107D01*
X123980480Y-61662150D01*
X123990970Y-61684329D01*
X123999235Y-61707428D01*
X124005196Y-61731227D01*
X124008796Y-61755495D01*
X124010000Y-61779999D01*
X124010000Y-62680001D01*
X124008796Y-62704505D01*
X124005196Y-62728773D01*
X123999235Y-62752572D01*
X123990970Y-62775671D01*
X123980480Y-62797850D01*
X123967868Y-62818893D01*
X123953253Y-62838599D01*
X123936777Y-62856777D01*
X123918599Y-62873253D01*
X123898893Y-62887868D01*
X123877850Y-62900480D01*
X123855671Y-62910970D01*
X123832572Y-62919235D01*
X123808773Y-62925196D01*
X123784505Y-62928796D01*
X123760001Y-62930000D01*
X123109999Y-62930000D01*
X123085495Y-62928796D01*
X123061227Y-62925196D01*
X123037428Y-62919235D01*
X123014329Y-62910970D01*
X122992150Y-62900480D01*
X122971107Y-62887868D01*
X122951401Y-62873253D01*
X122933223Y-62856777D01*
X122916747Y-62838599D01*
X122902132Y-62818893D01*
X122889520Y-62797850D01*
X122879030Y-62775671D01*
X122870765Y-62752572D01*
X122864804Y-62728773D01*
X122861204Y-62704505D01*
X122860000Y-62680001D01*
X122860000Y-61779999D01*
X122861204Y-61755495D01*
X122864804Y-61731227D01*
X122870765Y-61707428D01*
X122879030Y-61684329D01*
X122889520Y-61662150D01*
X122902132Y-61641107D01*
X122916747Y-61621401D01*
X122933223Y-61603223D01*
X122951401Y-61586747D01*
X122971107Y-61572132D01*
X122992150Y-61559520D01*
X123014329Y-61549030D01*
X123037428Y-61540765D01*
X123061227Y-61534804D01*
X123085495Y-61531204D01*
X123109999Y-61530000D01*
X123760001Y-61530000D01*
X123784505Y-61531204D01*
X123784505Y-61531204D01*
G37*
D16*
G04 #@! TD*
G04 #@! TO.P,R8,1*
G04 #@! TO.N,+5V*
X123435000Y-62230000D03*
D15*
G04 #@! TO.N,+5V*
G04 #@! TO.C,R9*
G36*
X123784505Y-84200704D02*
X123808773Y-84204304D01*
X123832572Y-84210265D01*
X123855671Y-84218530D01*
X123877850Y-84229020D01*
X123898893Y-84241632D01*
X123918599Y-84256247D01*
X123936777Y-84272723D01*
X123953253Y-84290901D01*
X123967868Y-84310607D01*
X123980480Y-84331650D01*
X123990970Y-84353829D01*
X123999235Y-84376928D01*
X124005196Y-84400727D01*
X124008796Y-84424995D01*
X124010000Y-84449499D01*
X124010000Y-85349501D01*
X124008796Y-85374005D01*
X124005196Y-85398273D01*
X123999235Y-85422072D01*
X123990970Y-85445171D01*
X123980480Y-85467350D01*
X123967868Y-85488393D01*
X123953253Y-85508099D01*
X123936777Y-85526277D01*
X123918599Y-85542753D01*
X123898893Y-85557368D01*
X123877850Y-85569980D01*
X123855671Y-85580470D01*
X123832572Y-85588735D01*
X123808773Y-85594696D01*
X123784505Y-85598296D01*
X123760001Y-85599500D01*
X123109999Y-85599500D01*
X123085495Y-85598296D01*
X123061227Y-85594696D01*
X123037428Y-85588735D01*
X123014329Y-85580470D01*
X122992150Y-85569980D01*
X122971107Y-85557368D01*
X122951401Y-85542753D01*
X122933223Y-85526277D01*
X122916747Y-85508099D01*
X122902132Y-85488393D01*
X122889520Y-85467350D01*
X122879030Y-85445171D01*
X122870765Y-85422072D01*
X122864804Y-85398273D01*
X122861204Y-85374005D01*
X122860000Y-85349501D01*
X122860000Y-84449499D01*
X122861204Y-84424995D01*
X122864804Y-84400727D01*
X122870765Y-84376928D01*
X122879030Y-84353829D01*
X122889520Y-84331650D01*
X122902132Y-84310607D01*
X122916747Y-84290901D01*
X122933223Y-84272723D01*
X122951401Y-84256247D01*
X122971107Y-84241632D01*
X122992150Y-84229020D01*
X123014329Y-84218530D01*
X123037428Y-84210265D01*
X123061227Y-84204304D01*
X123085495Y-84200704D01*
X123109999Y-84199500D01*
X123760001Y-84199500D01*
X123784505Y-84200704D01*
X123784505Y-84200704D01*
G37*
D16*
G04 #@! TD*
G04 #@! TO.P,R9,1*
G04 #@! TO.N,+5V*
X123435000Y-84899500D03*
D15*
G04 #@! TO.N,INT2*
G04 #@! TO.C,R9*
G36*
X125834505Y-84200704D02*
X125858773Y-84204304D01*
X125882572Y-84210265D01*
X125905671Y-84218530D01*
X125927850Y-84229020D01*
X125948893Y-84241632D01*
X125968599Y-84256247D01*
X125986777Y-84272723D01*
X126003253Y-84290901D01*
X126017868Y-84310607D01*
X126030480Y-84331650D01*
X126040970Y-84353829D01*
X126049235Y-84376928D01*
X126055196Y-84400727D01*
X126058796Y-84424995D01*
X126060000Y-84449499D01*
X126060000Y-85349501D01*
X126058796Y-85374005D01*
X126055196Y-85398273D01*
X126049235Y-85422072D01*
X126040970Y-85445171D01*
X126030480Y-85467350D01*
X126017868Y-85488393D01*
X126003253Y-85508099D01*
X125986777Y-85526277D01*
X125968599Y-85542753D01*
X125948893Y-85557368D01*
X125927850Y-85569980D01*
X125905671Y-85580470D01*
X125882572Y-85588735D01*
X125858773Y-85594696D01*
X125834505Y-85598296D01*
X125810001Y-85599500D01*
X125159999Y-85599500D01*
X125135495Y-85598296D01*
X125111227Y-85594696D01*
X125087428Y-85588735D01*
X125064329Y-85580470D01*
X125042150Y-85569980D01*
X125021107Y-85557368D01*
X125001401Y-85542753D01*
X124983223Y-85526277D01*
X124966747Y-85508099D01*
X124952132Y-85488393D01*
X124939520Y-85467350D01*
X124929030Y-85445171D01*
X124920765Y-85422072D01*
X124914804Y-85398273D01*
X124911204Y-85374005D01*
X124910000Y-85349501D01*
X124910000Y-84449499D01*
X124911204Y-84424995D01*
X124914804Y-84400727D01*
X124920765Y-84376928D01*
X124929030Y-84353829D01*
X124939520Y-84331650D01*
X124952132Y-84310607D01*
X124966747Y-84290901D01*
X124983223Y-84272723D01*
X125001401Y-84256247D01*
X125021107Y-84241632D01*
X125042150Y-84229020D01*
X125064329Y-84218530D01*
X125087428Y-84210265D01*
X125111227Y-84204304D01*
X125135495Y-84200704D01*
X125159999Y-84199500D01*
X125810001Y-84199500D01*
X125834505Y-84200704D01*
X125834505Y-84200704D01*
G37*
D16*
G04 #@! TD*
G04 #@! TO.P,R9,2*
G04 #@! TO.N,INT2*
X125485000Y-84899500D03*
D19*
G04 #@! TO.P, ,1*
G04 #@! TO.N,RESET*
X129300000Y-93300000D03*
G04 #@! TO.P, ,2*
G04 #@! TO.N,Earth*
X129300000Y-97200000D03*
G04 #@! TO.P, ,3*
G04 #@! TO.N,N/C*
X135700000Y-97200000D03*
G04 #@! TO.P, ,4*
X135700000Y-93300000D03*
G04 #@! TD*
D20*
G04 #@! TO.P,ATtiny1634,1*
G04 #@! TO.N,INT1*
X107060000Y-75565000D03*
G04 #@! TO.P,ATtiny1634,2*
G04 #@! TO.N,INB*
X107060000Y-76835000D03*
G04 #@! TO.P,ATtiny1634,3*
G04 #@! TO.N,INA*
X107060000Y-78105000D03*
G04 #@! TO.P,ATtiny1634,4*
G04 #@! TO.N,PWM*
X107060000Y-79375000D03*
G04 #@! TO.P,ATtiny1634,5*
G04 #@! TO.N,CS*
X107060000Y-80645000D03*
G04 #@! TO.P,ATtiny1634,6*
G04 #@! TO.N,ENABLE*
X107060000Y-81915000D03*
G04 #@! TO.P,ATtiny1634,7*
G04 #@! TO.N,DIRECTION2*
X107060000Y-83185000D03*
G04 #@! TO.P,ATtiny1634,8*
G04 #@! TO.N,DIRECTION1*
X107060000Y-84455000D03*
G04 #@! TO.P,ATtiny1634,9*
G04 #@! TO.N,Net-(R2-Pad1)*
X107060000Y-85725000D03*
G04 #@! TO.P,ATtiny1634,10*
G04 #@! TO.N,Earth*
X107060000Y-86995000D03*
G04 #@! TO.P,ATtiny1634,11*
G04 #@! TO.N,+5V*
X116460000Y-86995000D03*
G04 #@! TO.P,ATtiny1634,12*
G04 #@! TO.N,Net-(C4-Pad2)*
X116460000Y-85725000D03*
G04 #@! TO.P,ATtiny1634,13*
G04 #@! TO.N,Net-(C3-Pad2)*
X116460000Y-84455000D03*
G04 #@! TO.P,ATtiny1634,14*
G04 #@! TO.N,RESET*
X116460000Y-83185000D03*
G04 #@! TO.P,ATtiny1634,15*
G04 #@! TO.N,INT2*
X116460000Y-81915000D03*
G04 #@! TO.P,ATtiny1634,16*
G04 #@! TO.N,SCK-SCL*
X116460000Y-80645000D03*
G04 #@! TO.P,ATtiny1634,17*
G04 #@! TO.N,Net-(R3-Pad1)*
X116460000Y-79375000D03*
G04 #@! TO.P,ATtiny1634,18*
G04 #@! TO.N,HANDSHAKE*
X116460000Y-78105000D03*
G04 #@! TO.P,ATtiny1634,19*
G04 #@! TO.N,MISO*
X116460000Y-76835000D03*
G04 #@! TO.P,ATtiny1634,20*
G04 #@! TO.N,MOSI-SDA*
X116460000Y-75565000D03*
G04 #@! TD*
D21*
G04 #@! TO.P,L7805,4*
G04 #@! TO.N,N/C*
X117080000Y-46940000D03*
D22*
G04 #@! TO.P,L7805,2*
G04 #@! TO.N,Earth*
X117080000Y-40640000D03*
G04 #@! TO.P,L7805,3*
G04 #@! TO.N,+5V*
X114780000Y-40640000D03*
G04 #@! TO.P,L7805,1*
G04 #@! TO.N,Net-(D5-Pad1)*
X119380000Y-40640000D03*
G04 #@! TD*
D23*
G04 #@! TO.P,CLK,1*
G04 #@! TO.N,Net-(C3-Pad2)*
X114681000Y-60000000D03*
G04 #@! TO.P,CLK,2*
G04 #@! TO.N,Net-(C4-Pad2)*
X114681000Y-64900000D03*
G04 #@! TD*
D24*
G04 #@! TO.P, ,4*
G04 #@! TO.N,Earth*
X136290000Y-60247109D03*
G04 #@! TO.P, ,3*
G04 #@! TO.N,SCK-SCL*
X133750000Y-60247109D03*
G04 #@! TO.P, ,2*
G04 #@! TO.N,MOSI-SDA*
X131210000Y-60247109D03*
D15*
G04 #@! TD*
G04 #@! TO.N,HANDSHAKE*
G04 #@! TO.C, *
G36*
X129314505Y-59148313D02*
X129338773Y-59151913D01*
X129362572Y-59157874D01*
X129385671Y-59166139D01*
X129407850Y-59176629D01*
X129428893Y-59189241D01*
X129448599Y-59203856D01*
X129466777Y-59220332D01*
X129483253Y-59238510D01*
X129497868Y-59258216D01*
X129510480Y-59279259D01*
X129520970Y-59301438D01*
X129529235Y-59324537D01*
X129535196Y-59348336D01*
X129538796Y-59372604D01*
X129540000Y-59397108D01*
X129540000Y-61097110D01*
X129538796Y-61121614D01*
X129535196Y-61145882D01*
X129529235Y-61169681D01*
X129520970Y-61192780D01*
X129510480Y-61214959D01*
X129497868Y-61236002D01*
X129483253Y-61255708D01*
X129466777Y-61273886D01*
X129448599Y-61290362D01*
X129428893Y-61304977D01*
X129407850Y-61317589D01*
X129385671Y-61328079D01*
X129362572Y-61336344D01*
X129338773Y-61342305D01*
X129314505Y-61345905D01*
X129290001Y-61347109D01*
X128049999Y-61347109D01*
X128025495Y-61345905D01*
X128001227Y-61342305D01*
X127977428Y-61336344D01*
X127954329Y-61328079D01*
X127932150Y-61317589D01*
X127911107Y-61304977D01*
X127891401Y-61290362D01*
X127873223Y-61273886D01*
X127856747Y-61255708D01*
X127842132Y-61236002D01*
X127829520Y-61214959D01*
X127819030Y-61192780D01*
X127810765Y-61169681D01*
X127804804Y-61145882D01*
X127801204Y-61121614D01*
X127800000Y-61097110D01*
X127800000Y-59397108D01*
X127801204Y-59372604D01*
X127804804Y-59348336D01*
X127810765Y-59324537D01*
X127819030Y-59301438D01*
X127829520Y-59279259D01*
X127842132Y-59258216D01*
X127856747Y-59238510D01*
X127873223Y-59220332D01*
X127891401Y-59203856D01*
X127911107Y-59189241D01*
X127932150Y-59176629D01*
X127954329Y-59166139D01*
X127977428Y-59157874D01*
X128001227Y-59151913D01*
X128025495Y-59148313D01*
X128049999Y-59147109D01*
X129290001Y-59147109D01*
X129314505Y-59148313D01*
X129314505Y-59148313D01*
G37*
D25*
G04 #@! TO.P, ,1*
G04 #@! TO.N,HANDSHAKE*
X128670000Y-60247109D03*
G04 #@! TD*
D15*
G04 #@! TO.N,HANDSHAKE*
G04 #@! TO.C, *
G36*
X129314505Y-66133313D02*
X129338773Y-66136913D01*
X129362572Y-66142874D01*
X129385671Y-66151139D01*
X129407850Y-66161629D01*
X129428893Y-66174241D01*
X129448599Y-66188856D01*
X129466777Y-66205332D01*
X129483253Y-66223510D01*
X129497868Y-66243216D01*
X129510480Y-66264259D01*
X129520970Y-66286438D01*
X129529235Y-66309537D01*
X129535196Y-66333336D01*
X129538796Y-66357604D01*
X129540000Y-66382108D01*
X129540000Y-68082110D01*
X129538796Y-68106614D01*
X129535196Y-68130882D01*
X129529235Y-68154681D01*
X129520970Y-68177780D01*
X129510480Y-68199959D01*
X129497868Y-68221002D01*
X129483253Y-68240708D01*
X129466777Y-68258886D01*
X129448599Y-68275362D01*
X129428893Y-68289977D01*
X129407850Y-68302589D01*
X129385671Y-68313079D01*
X129362572Y-68321344D01*
X129338773Y-68327305D01*
X129314505Y-68330905D01*
X129290001Y-68332109D01*
X128049999Y-68332109D01*
X128025495Y-68330905D01*
X128001227Y-68327305D01*
X127977428Y-68321344D01*
X127954329Y-68313079D01*
X127932150Y-68302589D01*
X127911107Y-68289977D01*
X127891401Y-68275362D01*
X127873223Y-68258886D01*
X127856747Y-68240708D01*
X127842132Y-68221002D01*
X127829520Y-68199959D01*
X127819030Y-68177780D01*
X127810765Y-68154681D01*
X127804804Y-68130882D01*
X127801204Y-68106614D01*
X127800000Y-68082110D01*
X127800000Y-66382108D01*
X127801204Y-66357604D01*
X127804804Y-66333336D01*
X127810765Y-66309537D01*
X127819030Y-66286438D01*
X127829520Y-66264259D01*
X127842132Y-66243216D01*
X127856747Y-66223510D01*
X127873223Y-66205332D01*
X127891401Y-66188856D01*
X127911107Y-66174241D01*
X127932150Y-66161629D01*
X127954329Y-66151139D01*
X127977428Y-66142874D01*
X128001227Y-66136913D01*
X128025495Y-66133313D01*
X128049999Y-66132109D01*
X129290001Y-66132109D01*
X129314505Y-66133313D01*
X129314505Y-66133313D01*
G37*
D25*
G04 #@! TD*
G04 #@! TO.P, ,1*
G04 #@! TO.N,HANDSHAKE*
X128670000Y-67232109D03*
D24*
G04 #@! TO.P, ,2*
G04 #@! TO.N,MOSI-SDA*
X131210000Y-67232109D03*
G04 #@! TO.P, ,3*
G04 #@! TO.N,SCK-SCL*
X133750000Y-67232109D03*
G04 #@! TO.P, ,4*
G04 #@! TO.N,Earth*
X136290000Y-67232109D03*
G04 #@! TD*
D15*
G04 #@! TO.N,+5V*
G04 #@! TO.C, *
G36*
X132002005Y-80728704D02*
X132026273Y-80732304D01*
X132050072Y-80738265D01*
X132073171Y-80746530D01*
X132095350Y-80757020D01*
X132116393Y-80769632D01*
X132136099Y-80784247D01*
X132154277Y-80800723D01*
X132170753Y-80818901D01*
X132185368Y-80838607D01*
X132197980Y-80859650D01*
X132208470Y-80881829D01*
X132216735Y-80904928D01*
X132222696Y-80928727D01*
X132226296Y-80952995D01*
X132227500Y-80977499D01*
X132227500Y-82217501D01*
X132226296Y-82242005D01*
X132222696Y-82266273D01*
X132216735Y-82290072D01*
X132208470Y-82313171D01*
X132197980Y-82335350D01*
X132185368Y-82356393D01*
X132170753Y-82376099D01*
X132154277Y-82394277D01*
X132136099Y-82410753D01*
X132116393Y-82425368D01*
X132095350Y-82437980D01*
X132073171Y-82448470D01*
X132050072Y-82456735D01*
X132026273Y-82462696D01*
X132002005Y-82466296D01*
X131977501Y-82467500D01*
X130277499Y-82467500D01*
X130252995Y-82466296D01*
X130228727Y-82462696D01*
X130204928Y-82456735D01*
X130181829Y-82448470D01*
X130159650Y-82437980D01*
X130138607Y-82425368D01*
X130118901Y-82410753D01*
X130100723Y-82394277D01*
X130084247Y-82376099D01*
X130069632Y-82356393D01*
X130057020Y-82335350D01*
X130046530Y-82313171D01*
X130038265Y-82290072D01*
X130032304Y-82266273D01*
X130028704Y-82242005D01*
X130027500Y-82217501D01*
X130027500Y-80977499D01*
X130028704Y-80952995D01*
X130032304Y-80928727D01*
X130038265Y-80904928D01*
X130046530Y-80881829D01*
X130057020Y-80859650D01*
X130069632Y-80838607D01*
X130084247Y-80818901D01*
X130100723Y-80800723D01*
X130118901Y-80784247D01*
X130138607Y-80769632D01*
X130159650Y-80757020D01*
X130181829Y-80746530D01*
X130204928Y-80738265D01*
X130228727Y-80732304D01*
X130252995Y-80728704D01*
X130277499Y-80727500D01*
X131977501Y-80727500D01*
X132002005Y-80728704D01*
X132002005Y-80728704D01*
G37*
D25*
G04 #@! TD*
G04 #@! TO.P, ,1*
G04 #@! TO.N,+5V*
X131127500Y-81597500D03*
D26*
G04 #@! TO.P, ,2*
G04 #@! TO.N,Earth*
X131127500Y-84137500D03*
G04 #@! TO.P, ,3*
G04 #@! TO.N,INT1*
X131127500Y-86677500D03*
G04 #@! TO.P, ,4*
G04 #@! TO.N,INT2*
X131127500Y-89217500D03*
G04 #@! TD*
D27*
G04 #@! TO.N,+5V*
X124460000Y-80010000D03*
X117456644Y-89070000D03*
X123126500Y-69088000D03*
G04 #@! TO.N,Earth*
X135890000Y-71120000D03*
G04 #@! TO.N,RESET*
X118341500Y-84391500D03*
X120586500Y-74739500D03*
X120586500Y-71501000D03*
G04 #@! TO.N,SCK-SCL*
X127000000Y-54610000D03*
X125476000Y-68008500D03*
G04 #@! TO.N,INT1*
X104140000Y-73660000D03*
X128242750Y-85117250D03*
G04 #@! TO.N,MOSI-SDA*
X123702500Y-60447500D03*
G04 #@! TO.N,DIRECTION2*
X107505500Y-73490000D03*
G04 #@! TO.N,DIRECTION1*
X104140000Y-85090000D03*
G04 #@! TO.N,INA*
X102870000Y-77470000D03*
G04 #@! TO.N,Net-(R3-Pad1)*
X102870000Y-71120000D03*
X115570000Y-71120000D03*
G04 #@! TO.N,HANDSHAKE*
X121920000Y-62230000D03*
G04 #@! TD*
D28*
G04 #@! TO.N,+5V*
X123435000Y-64525000D02*
X123190000Y-64770000D01*
X122930000Y-43180000D02*
X124200000Y-41910000D01*
X115570000Y-43180000D02*
X122930000Y-43180000D01*
X114780000Y-40640000D02*
X114780000Y-42390000D01*
X114780000Y-42390000D02*
X115570000Y-43180000D01*
X104140000Y-91440000D02*
X113030000Y-91440000D01*
X102270000Y-89500000D02*
X102270000Y-89570000D01*
X99000000Y-89500000D02*
X102270000Y-89500000D01*
X102270000Y-89570000D02*
X104140000Y-91440000D01*
X123435000Y-82359500D02*
X123435000Y-81035000D01*
X123435000Y-81035000D02*
X124460000Y-80010000D01*
X133223000Y-73533000D02*
X133223000Y-76073000D01*
X136523490Y-45328490D02*
X135645000Y-44450000D01*
X124200000Y-37335000D02*
X125975000Y-35560000D01*
X124200000Y-41910000D02*
X124200000Y-37335000D01*
X134620000Y-49530000D02*
X136523490Y-47626510D01*
X133350000Y-49530000D02*
X134620000Y-49530000D01*
X136523490Y-47626510D02*
X136523490Y-45328490D01*
X113030000Y-91440000D02*
X115086644Y-91440000D01*
X115086644Y-91440000D02*
X117456644Y-89070000D01*
X125070710Y-42780710D02*
X124200000Y-41910000D01*
X128522500Y-46232500D02*
X125070710Y-42780710D01*
X133862500Y-46232500D02*
X128522500Y-46232500D01*
X135645000Y-44450000D02*
X133862500Y-46232500D01*
X121595000Y-91440000D02*
X123435000Y-89600000D01*
X113030000Y-91440000D02*
X121595000Y-91440000D01*
X120490300Y-89600000D02*
X123435000Y-89600000D01*
X116460000Y-86995000D02*
X117885300Y-86995000D01*
X117885300Y-86995000D02*
X120490300Y-89600000D01*
X123435000Y-82359500D02*
X123435000Y-84899500D01*
X123435000Y-73660000D02*
X123435000Y-76200000D01*
X123435000Y-78985000D02*
X124460000Y-80010000D01*
X123435000Y-76200000D02*
X123435000Y-78985000D01*
X123435000Y-62230000D02*
X123435000Y-64770000D01*
X123126500Y-65078500D02*
X123435000Y-64770000D01*
X123126500Y-69088000D02*
X123126500Y-65078500D01*
G04 #@! TO.N,Earth*
X133350000Y-41910000D02*
X129800000Y-41910000D01*
X117080000Y-40640000D02*
X117080000Y-40289200D01*
X129800000Y-41910000D02*
X129800000Y-37335000D01*
X129800000Y-37335000D02*
X128025000Y-35560000D01*
X95250000Y-40640000D02*
X97790000Y-40640000D01*
X107060000Y-86995000D02*
X108485300Y-86995000D01*
X100300300Y-86960000D02*
X100335300Y-86995000D01*
X99000000Y-86960000D02*
X100300300Y-86960000D01*
X108608000Y-44894500D02*
X108882999Y-45169499D01*
X106045000Y-86995000D02*
X107060000Y-86995000D01*
X100335300Y-86995000D02*
X106045000Y-86995000D01*
X108882999Y-44619501D02*
X108608000Y-44894500D01*
X108608000Y-44894500D02*
X108608000Y-45494499D01*
X108608000Y-44894500D02*
X109207999Y-44894500D01*
X110493766Y-46198385D02*
X110490000Y-46198385D01*
X109207999Y-44894500D02*
X110490000Y-46198385D01*
X126755000Y-34290000D02*
X128025000Y-35560000D01*
X117080000Y-38940000D02*
X118110000Y-37910000D01*
X118110000Y-37910000D02*
X118110000Y-34290000D01*
X118110000Y-34290000D02*
X119380000Y-33020000D01*
X119380000Y-33020000D02*
X125485000Y-33020000D01*
X117080000Y-40640000D02*
X117080000Y-38940000D01*
X125485000Y-33020000D02*
X126755000Y-34290000D01*
X113220000Y-37910000D02*
X118110000Y-37910000D01*
X110588674Y-40541326D02*
X113220000Y-37910000D01*
X109207999Y-44894500D02*
X110588674Y-43278674D01*
X110588674Y-43278674D02*
X110588674Y-40541326D01*
X136461500Y-40195500D02*
X134264500Y-40195500D01*
X131000000Y-97200000D02*
X132950000Y-95250000D01*
X129300000Y-97200000D02*
X131000000Y-97200000D01*
X136390002Y-95250000D02*
X138049000Y-93591002D01*
X132950000Y-95250000D02*
X136390002Y-95250000D01*
X138049000Y-41783000D02*
X136461500Y-40195500D01*
X135890000Y-71120000D02*
X138049000Y-73279000D01*
X138049000Y-93591002D02*
X138049000Y-73279000D01*
X133595000Y-40865000D02*
X134264500Y-40195500D01*
X133595000Y-41910000D02*
X133595000Y-40865000D01*
X110490000Y-50800000D02*
X110490000Y-46198385D01*
X108195000Y-53095000D02*
X110490000Y-50800000D01*
X108195000Y-53871400D02*
X108195000Y-53095000D01*
X107043000Y-52719400D02*
X108195000Y-53871400D01*
X100557400Y-46233800D02*
X107043000Y-52719400D01*
X100557400Y-42137400D02*
X100557400Y-46233800D01*
X98200000Y-40640000D02*
X99060000Y-40640000D01*
X99060000Y-40640000D02*
X100557400Y-42137400D01*
X108195000Y-60007500D02*
X108195000Y-62540000D01*
X108195000Y-59207500D02*
X108195000Y-53095000D01*
X108195000Y-60007500D02*
X108195000Y-59207500D01*
X109220000Y-86995000D02*
X106045000Y-86995000D01*
X111089000Y-66234000D02*
X111089000Y-85126000D01*
X108195000Y-63340000D02*
X111089000Y-66234000D01*
X111089000Y-85126000D02*
X109220000Y-86995000D01*
X108195000Y-62540000D02*
X108195000Y-63340000D01*
X136290000Y-67232109D02*
X136290000Y-60247109D01*
X138049000Y-56688109D02*
X138049000Y-41783000D01*
X136290000Y-58447109D02*
X138049000Y-56688109D01*
X136290000Y-60247109D02*
X136290000Y-58447109D01*
X135890000Y-67632109D02*
X136290000Y-67232109D01*
X135890000Y-71120000D02*
X135890000Y-67632109D01*
D29*
G04 #@! TO.N,Net-(C3-Pad2)*
X116460000Y-84455000D02*
X115034700Y-84455000D01*
X114673500Y-60007500D02*
X114681000Y-60000000D01*
X110245000Y-60007500D02*
X114673500Y-60007500D01*
X116776500Y-62095500D02*
X114681000Y-60000000D01*
X116776500Y-66040000D02*
X116776500Y-62095500D01*
X113284000Y-69532500D02*
X116776500Y-66040000D01*
X113284000Y-83121500D02*
X113284000Y-69532500D01*
X114617500Y-84455000D02*
X113284000Y-83121500D01*
X116460000Y-84455000D02*
X114617500Y-84455000D01*
G04 #@! TO.N,Net-(C4-Pad2)*
X116460000Y-85725000D02*
X115034700Y-85725000D01*
X116460000Y-85725000D02*
X113855500Y-85725000D01*
X113855500Y-85725000D02*
X112265300Y-84134800D01*
X112265300Y-67315700D02*
X112652000Y-66929000D01*
X112265300Y-84134800D02*
X112265300Y-67315700D01*
X112652000Y-66929000D02*
X114681000Y-64900000D01*
X112321000Y-62540000D02*
X114681000Y-64900000D01*
X110245000Y-62540000D02*
X112321000Y-62540000D01*
G04 #@! TO.N,Net-(D1-Pad2)*
X95250000Y-45640000D02*
X98200000Y-42690000D01*
X95250000Y-62230000D02*
X95250000Y-45640000D01*
X99305000Y-64770000D02*
X97790000Y-64770000D01*
X97790000Y-64770000D02*
X95250000Y-62230000D01*
G04 #@! TO.N,Net-(D2-Pad2)*
X93980000Y-43710000D02*
X95000000Y-42690000D01*
X93980000Y-63500000D02*
X93980000Y-43710000D01*
X99305000Y-67310000D02*
X97790000Y-67310000D01*
X97790000Y-67310000D02*
X93980000Y-63500000D01*
G04 #@! TO.N,RESET*
X125485000Y-89835000D02*
X125485000Y-89700000D01*
X128950000Y-93300000D02*
X125485000Y-89835000D01*
X129300000Y-93300000D02*
X128950000Y-93300000D01*
X116460000Y-83185000D02*
X117135000Y-83185000D01*
X118575000Y-85555000D02*
X118575000Y-84625000D01*
X123515000Y-87630000D02*
X120650000Y-87630000D01*
X125485000Y-89600000D02*
X123515000Y-87630000D01*
X120650000Y-87630000D02*
X118575000Y-85555000D01*
X117135000Y-83185000D02*
X118341500Y-84391500D01*
X118341500Y-84391500D02*
X118575000Y-84625000D01*
X120586500Y-74739500D02*
X120586500Y-71501000D01*
G04 #@! TO.N,VPP*
X104272999Y-44619501D02*
X104307999Y-44619501D01*
X103333001Y-44619501D02*
X103333001Y-44194501D01*
D28*
X103333001Y-44619501D02*
X103608000Y-44894500D01*
X103608000Y-44894500D02*
X103882999Y-44619501D01*
D29*
X103882999Y-44229501D02*
X104272999Y-44619501D01*
X103882999Y-44619501D02*
X103882999Y-44229501D01*
X104272999Y-45169499D02*
X103882999Y-45559499D01*
X103882999Y-45559499D02*
X103882999Y-45169499D01*
X103882999Y-44619501D02*
X104307999Y-44619501D01*
X104307999Y-44619501D02*
X104307999Y-45169499D01*
D28*
X103882999Y-45169499D02*
X103608000Y-44894500D01*
D29*
X104307999Y-45169499D02*
X103882999Y-45169499D01*
X104272999Y-45169499D02*
X104307999Y-45169499D01*
D28*
X104076500Y-44894500D02*
X103608000Y-44894500D01*
X103608000Y-44486500D02*
X103608000Y-44894500D01*
X103799999Y-44294501D02*
X103608000Y-44486500D01*
X103608000Y-44294501D02*
X103799999Y-44294501D01*
X103608000Y-44894500D02*
X103608000Y-44294501D01*
X104207999Y-44894500D02*
X103608000Y-44894500D01*
X115664000Y-36258500D02*
X112686002Y-36258500D01*
X107950000Y-39370000D02*
X106107999Y-41212001D01*
X106107999Y-41212001D02*
X106107999Y-43364501D01*
X106107999Y-43364501D02*
X104207999Y-44894500D01*
X109042749Y-38277251D02*
X107950000Y-39370000D01*
X110667251Y-38277251D02*
X109042749Y-38277251D01*
X112686002Y-36258500D02*
X110667251Y-38277251D01*
D29*
G04 #@! TO.N,SCK-SCL*
X127000000Y-54610000D02*
X129540000Y-52070000D01*
X129540000Y-52070000D02*
X130810000Y-52070000D01*
X133750000Y-65632109D02*
X133750000Y-60247109D01*
X133750000Y-67232109D02*
X133750000Y-65632109D01*
X121515000Y-77065000D02*
X121515000Y-71969500D01*
X117935000Y-80645000D02*
X121515000Y-77065000D01*
X121515000Y-71969500D02*
X125476000Y-68008500D01*
X116460000Y-80645000D02*
X117935000Y-80645000D01*
X125476000Y-64779000D02*
X125485000Y-64770000D01*
X125476000Y-68008500D02*
X125476000Y-64779000D01*
G04 #@! TO.N,CS*
X99000000Y-81880000D02*
X100300300Y-81880000D01*
X107060000Y-80645000D02*
X101535300Y-80645000D01*
X101535300Y-80645000D02*
X100300300Y-81880000D01*
D28*
G04 #@! TO.N,PWM*
X99000000Y-74260000D02*
X100300300Y-74260000D01*
X101285150Y-75244850D02*
X101285150Y-78425150D01*
X100300300Y-74260000D02*
X101285150Y-75244850D01*
X102235000Y-79375000D02*
X107060000Y-79375000D01*
X101285150Y-78425150D02*
X102235000Y-79375000D01*
D29*
G04 #@! TO.N,Net-(R2-Pad1)*
X108535000Y-85725000D02*
X107060000Y-85725000D01*
X109982000Y-84278000D02*
X108535000Y-85725000D01*
X109982000Y-72127000D02*
X109982000Y-84278000D01*
X102625000Y-64770000D02*
X103382500Y-65527500D01*
X101355000Y-64770000D02*
X102625000Y-64770000D01*
X103382500Y-65527500D02*
X109982000Y-72127000D01*
G04 #@! TO.N,INT2*
X125485000Y-85471000D02*
X125485000Y-86271000D01*
X117935000Y-81915000D02*
X116460000Y-81915000D01*
X119610000Y-83590000D02*
X117935000Y-81915000D01*
X119610000Y-84860000D02*
X119610000Y-83590000D01*
X125396000Y-86360000D02*
X125485000Y-86271000D01*
X121110000Y-86360000D02*
X125396000Y-86360000D01*
X119610000Y-84860000D02*
X121110000Y-86360000D01*
X125574000Y-86360000D02*
X126922000Y-87708000D01*
X125396000Y-86360000D02*
X125574000Y-86360000D01*
X126922000Y-87708000D02*
X126616490Y-87402490D01*
X128431500Y-89217500D02*
X131127500Y-89217500D01*
X126922000Y-87708000D02*
X128431500Y-89217500D01*
G04 #@! TO.N,INT1*
X107060000Y-75565000D02*
X106045000Y-75565000D01*
X106045000Y-75565000D02*
X104140000Y-73660000D01*
X128242750Y-85117250D02*
X125485000Y-82359500D01*
G04 #@! TO.N,Net-(D0-Pad2)*
X133595000Y-43960000D02*
X135645000Y-41910000D01*
X133595000Y-44450000D02*
X133595000Y-43960000D01*
D28*
G04 #@! TO.N,Net-(D5-Pad1)*
X121064000Y-38956000D02*
X119380000Y-40640000D01*
X121064000Y-36258500D02*
X121064000Y-38956000D01*
D29*
G04 #@! TO.N,MISO*
X129460000Y-49530000D02*
X130810000Y-49530000D01*
X118745000Y-60245000D02*
X129460000Y-49530000D01*
X116460000Y-76835000D02*
X115034700Y-76835000D01*
X115034700Y-76835000D02*
X115034700Y-74104100D01*
X118745000Y-66675000D02*
X118745000Y-60245000D01*
X116794400Y-68625600D02*
X118745000Y-66675000D01*
X116794400Y-72344400D02*
X116794400Y-68625600D01*
X115034700Y-74104100D02*
X116794400Y-72344400D01*
G04 #@! TO.N,MOSI-SDA*
X125802500Y-62547500D02*
X125485000Y-62230000D01*
X134199999Y-52919999D02*
X133350000Y-52070000D01*
X116460000Y-75565000D02*
X117935000Y-75565000D01*
X118340000Y-75160000D02*
X118340000Y-69620000D01*
X117935000Y-75565000D02*
X118340000Y-75160000D01*
X118340000Y-69620000D02*
X120650000Y-67310000D01*
X121162500Y-60447500D02*
X120650000Y-60960000D01*
X123702500Y-60447500D02*
X121162500Y-60447500D01*
X131210000Y-60247109D02*
X131210000Y-67232109D01*
X131210000Y-58647109D02*
X132326109Y-57531000D01*
X131210000Y-60247109D02*
X131210000Y-58647109D01*
X132326109Y-57531000D02*
X133540500Y-57531000D01*
X133540500Y-57531000D02*
X134810500Y-56261000D01*
X134810500Y-53530500D02*
X133350000Y-52070000D01*
X134810500Y-56261000D02*
X134810500Y-53530500D01*
X120650000Y-60960000D02*
X120650000Y-67310000D01*
X123702500Y-60447500D02*
X125485000Y-62230000D01*
G04 #@! TO.N,DIRECTION2*
X107060000Y-83185000D02*
X107735000Y-83185000D01*
X107505500Y-73490000D02*
X108941500Y-74926000D01*
X108941500Y-74926000D02*
X108941500Y-81978500D01*
X107735000Y-83185000D02*
X108941500Y-81978500D01*
X130493000Y-76200000D02*
X130620000Y-76073000D01*
X125485000Y-76200000D02*
X130493000Y-76200000D01*
G04 #@! TO.N,DIRECTION1*
X125612000Y-73533000D02*
X125485000Y-73660000D01*
X107060000Y-84455000D02*
X104775000Y-84455000D01*
X104775000Y-84455000D02*
X104140000Y-85090000D01*
X130493000Y-73660000D02*
X130620000Y-73533000D01*
X125485000Y-73660000D02*
X130493000Y-73660000D01*
G04 #@! TO.N,ENABLE*
X99000000Y-84420000D02*
X100300300Y-84420000D01*
X107060000Y-81915000D02*
X102805300Y-81915000D01*
X102805300Y-81915000D02*
X100300300Y-84420000D01*
G04 #@! TO.N,INA*
X107060000Y-78105000D02*
X103505000Y-78105000D01*
X103505000Y-78105000D02*
X102870000Y-77470000D01*
G04 #@! TO.N,INB*
X99000000Y-76800000D02*
X97091500Y-74891500D01*
X100774500Y-72580500D02*
X105029000Y-76835000D01*
X97091500Y-74891500D02*
X97091500Y-73279000D01*
X97091500Y-73279000D02*
X97917000Y-72453500D01*
X105029000Y-76835000D02*
X107060000Y-76835000D01*
X100774500Y-72453500D02*
X100774500Y-72580500D01*
X97917000Y-72453500D02*
X100774500Y-72453500D01*
G04 #@! TO.N,Net-(R3-Pad1)*
X101355000Y-69605000D02*
X101355000Y-67310000D01*
X102870000Y-71120000D02*
X101355000Y-69605000D01*
X114325800Y-72364200D02*
X115570000Y-71120000D01*
X114985000Y-79375000D02*
X114325800Y-78715800D01*
X114325800Y-78715800D02*
X114325800Y-72364200D01*
X116460000Y-79375000D02*
X114985000Y-79375000D01*
G04 #@! TO.N,HANDSHAKE*
X117135000Y-78105000D02*
X116460000Y-78105000D01*
X119675010Y-70544952D02*
X121920000Y-68299962D01*
X119675010Y-76364990D02*
X119675010Y-70544952D01*
X117935000Y-78105000D02*
X119675010Y-76364990D01*
X116460000Y-78105000D02*
X117935000Y-78105000D01*
X121920000Y-68299962D02*
X121920000Y-62230000D01*
X128670000Y-61447109D02*
X128670000Y-67232109D01*
X128670000Y-60247109D02*
X128670000Y-61447109D01*
G04 #@! TD*
M02*
