G04 #@! TF.GenerationSoftware,KiCad,Pcbnew,5.0.2-bee76a0~70~ubuntu16.04.1*
G04 #@! TF.CreationDate,2019-07-23T17:30:48+02:00*
G04 #@! TF.ProjectId,ATtiny_3.0,41547469-6e79-45f3-932e-302e6b696361,rev?*
G04 #@! TF.SameCoordinates,Original*
G04 #@! TF.FileFunction,Legend,Top*
G04 #@! TF.FilePolarity,Positive*
%FSLAX46Y46*%
G04 Gerber Fmt 4.6, Leading zero omitted, Abs format (unit mm)*
G04 Created by KiCad (PCBNEW 5.0.2-bee76a0~70~ubuntu16.04.1) date mar 23 jul 2019 17:30:48 CEST*
%MOMM*%
%LPD*%
G01*
G04 APERTURE LIST*
%ADD10C,0.200000*%
%ADD11C,0.250000*%
%ADD12C,0.120000*%
%ADD13C,0.150000*%
G04 APERTURE END LIST*
D10*
X135058342Y-81705714D02*
X135972628Y-81705714D01*
X135515485Y-82162857D02*
X135515485Y-81248571D01*
X137115485Y-80962857D02*
X136544057Y-80962857D01*
X136486914Y-81534285D01*
X136544057Y-81477142D01*
X136658342Y-81420000D01*
X136944057Y-81420000D01*
X137058342Y-81477142D01*
X137115485Y-81534285D01*
X137172628Y-81648571D01*
X137172628Y-81934285D01*
X137115485Y-82048571D01*
X137058342Y-82105714D01*
X136944057Y-82162857D01*
X136658342Y-82162857D01*
X136544057Y-82105714D01*
X136486914Y-82048571D01*
X137515485Y-80962857D02*
X137915485Y-82162857D01*
X138315485Y-80962857D01*
X135686914Y-83560000D02*
X135572628Y-83502857D01*
X135401200Y-83502857D01*
X135229771Y-83560000D01*
X135115485Y-83674285D01*
X135058342Y-83788571D01*
X135001200Y-84017142D01*
X135001200Y-84188571D01*
X135058342Y-84417142D01*
X135115485Y-84531428D01*
X135229771Y-84645714D01*
X135401200Y-84702857D01*
X135515485Y-84702857D01*
X135686914Y-84645714D01*
X135744057Y-84588571D01*
X135744057Y-84188571D01*
X135515485Y-84188571D01*
X136258342Y-84702857D02*
X136258342Y-83502857D01*
X136944057Y-84702857D01*
X136944057Y-83502857D01*
X137515485Y-84702857D02*
X137515485Y-83502857D01*
X137801200Y-83502857D01*
X137972628Y-83560000D01*
X138086914Y-83674285D01*
X138144057Y-83788571D01*
X138201200Y-84017142D01*
X138201200Y-84188571D01*
X138144057Y-84417142D01*
X138086914Y-84531428D01*
X137972628Y-84645714D01*
X137801200Y-84702857D01*
X137515485Y-84702857D01*
X127292142Y-71789857D02*
X127292142Y-70589857D01*
X127292142Y-71161285D02*
X127977857Y-71161285D01*
X127977857Y-71789857D02*
X127977857Y-70589857D01*
X128971857Y-71732714D02*
X129143285Y-71789857D01*
X129429000Y-71789857D01*
X129543285Y-71732714D01*
X129600428Y-71675571D01*
X129657571Y-71561285D01*
X129657571Y-71447000D01*
X129600428Y-71332714D01*
X129543285Y-71275571D01*
X129429000Y-71218428D01*
X129200428Y-71161285D01*
X129086142Y-71104142D01*
X129029000Y-71047000D01*
X128971857Y-70932714D01*
X128971857Y-70818428D01*
X129029000Y-70704142D01*
X129086142Y-70647000D01*
X129200428Y-70589857D01*
X129486142Y-70589857D01*
X129657571Y-70647000D01*
X130171857Y-71789857D02*
X130171857Y-70589857D01*
X130457571Y-70589857D01*
X130629000Y-70647000D01*
X130743285Y-70761285D01*
X130800428Y-70875571D01*
X130857571Y-71104142D01*
X130857571Y-71275571D01*
X130800428Y-71504142D01*
X130743285Y-71618428D01*
X130629000Y-71732714D01*
X130457571Y-71789857D01*
X130171857Y-71789857D01*
X131314714Y-71447000D02*
X131886142Y-71447000D01*
X131200428Y-71789857D02*
X131600428Y-70589857D01*
X132000428Y-71789857D01*
X107746914Y-48269600D02*
X107632628Y-48212457D01*
X107461200Y-48212457D01*
X107289771Y-48269600D01*
X107175485Y-48383885D01*
X107118342Y-48498171D01*
X107061200Y-48726742D01*
X107061200Y-48898171D01*
X107118342Y-49126742D01*
X107175485Y-49241028D01*
X107289771Y-49355314D01*
X107461200Y-49412457D01*
X107575485Y-49412457D01*
X107746914Y-49355314D01*
X107804057Y-49298171D01*
X107804057Y-48898171D01*
X107575485Y-48898171D01*
X108318342Y-49412457D02*
X108318342Y-48212457D01*
X109004057Y-49412457D01*
X109004057Y-48212457D01*
X109575485Y-49412457D02*
X109575485Y-48212457D01*
X109861200Y-48212457D01*
X110032628Y-48269600D01*
X110146914Y-48383885D01*
X110204057Y-48498171D01*
X110261200Y-48726742D01*
X110261200Y-48898171D01*
X110204057Y-49126742D01*
X110146914Y-49241028D01*
X110032628Y-49355314D01*
X109861200Y-49412457D01*
X109575485Y-49412457D01*
X102184400Y-48212457D02*
X102584400Y-49412457D01*
X102984400Y-48212457D01*
X104070114Y-49298171D02*
X104012971Y-49355314D01*
X103841542Y-49412457D01*
X103727257Y-49412457D01*
X103555828Y-49355314D01*
X103441542Y-49241028D01*
X103384400Y-49126742D01*
X103327257Y-48898171D01*
X103327257Y-48726742D01*
X103384400Y-48498171D01*
X103441542Y-48383885D01*
X103555828Y-48269600D01*
X103727257Y-48212457D01*
X103841542Y-48212457D01*
X104012971Y-48269600D01*
X104070114Y-48326742D01*
X105270114Y-49298171D02*
X105212971Y-49355314D01*
X105041542Y-49412457D01*
X104927257Y-49412457D01*
X104755828Y-49355314D01*
X104641542Y-49241028D01*
X104584400Y-49126742D01*
X104527257Y-48898171D01*
X104527257Y-48726742D01*
X104584400Y-48498171D01*
X104641542Y-48383885D01*
X104755828Y-48269600D01*
X104927257Y-48212457D01*
X105041542Y-48212457D01*
X105212971Y-48269600D01*
X105270114Y-48326742D01*
D11*
X103193771Y-105234514D02*
X103122342Y-105305942D01*
X102908057Y-105377371D01*
X102765200Y-105377371D01*
X102550914Y-105305942D01*
X102408057Y-105163085D01*
X102336628Y-105020228D01*
X102265200Y-104734514D01*
X102265200Y-104520228D01*
X102336628Y-104234514D01*
X102408057Y-104091657D01*
X102550914Y-103948800D01*
X102765200Y-103877371D01*
X102908057Y-103877371D01*
X103122342Y-103948800D01*
X103193771Y-104020228D01*
X104479485Y-104377371D02*
X104479485Y-105377371D01*
X103836628Y-104377371D02*
X103836628Y-105163085D01*
X103908057Y-105305942D01*
X104050914Y-105377371D01*
X104265200Y-105377371D01*
X104408057Y-105305942D01*
X104479485Y-105234514D01*
X105836628Y-105377371D02*
X105836628Y-104591657D01*
X105765200Y-104448800D01*
X105622342Y-104377371D01*
X105336628Y-104377371D01*
X105193771Y-104448800D01*
X105836628Y-105305942D02*
X105693771Y-105377371D01*
X105336628Y-105377371D01*
X105193771Y-105305942D01*
X105122342Y-105163085D01*
X105122342Y-105020228D01*
X105193771Y-104877371D01*
X105336628Y-104805942D01*
X105693771Y-104805942D01*
X105836628Y-104734514D01*
X107193771Y-104377371D02*
X107193771Y-105591657D01*
X107122342Y-105734514D01*
X107050914Y-105805942D01*
X106908057Y-105877371D01*
X106693771Y-105877371D01*
X106550914Y-105805942D01*
X107193771Y-105305942D02*
X107050914Y-105377371D01*
X106765200Y-105377371D01*
X106622342Y-105305942D01*
X106550914Y-105234514D01*
X106479485Y-105091657D01*
X106479485Y-104663085D01*
X106550914Y-104520228D01*
X106622342Y-104448800D01*
X106765200Y-104377371D01*
X107050914Y-104377371D01*
X107193771Y-104448800D01*
X108550914Y-105377371D02*
X108550914Y-104591657D01*
X108479485Y-104448800D01*
X108336628Y-104377371D01*
X108050914Y-104377371D01*
X107908057Y-104448800D01*
X108550914Y-105305942D02*
X108408057Y-105377371D01*
X108050914Y-105377371D01*
X107908057Y-105305942D01*
X107836628Y-105163085D01*
X107836628Y-105020228D01*
X107908057Y-104877371D01*
X108050914Y-104805942D01*
X108408057Y-104805942D01*
X108550914Y-104734514D01*
X109765200Y-104591657D02*
X109265200Y-104591657D01*
X109265200Y-105377371D02*
X109265200Y-103877371D01*
X109979485Y-103877371D01*
X110765200Y-105377371D02*
X110622342Y-105305942D01*
X110550914Y-105234514D01*
X110479485Y-105091657D01*
X110479485Y-104663085D01*
X110550914Y-104520228D01*
X110622342Y-104448800D01*
X110765200Y-104377371D01*
X110979485Y-104377371D01*
X111122342Y-104448800D01*
X111193771Y-104520228D01*
X111265200Y-104663085D01*
X111265200Y-105091657D01*
X111193771Y-105234514D01*
X111122342Y-105305942D01*
X110979485Y-105377371D01*
X110765200Y-105377371D01*
X111908057Y-105377371D02*
X111908057Y-104377371D01*
X111908057Y-104663085D02*
X111979485Y-104520228D01*
X112050914Y-104448800D01*
X112193771Y-104377371D01*
X112336628Y-104377371D01*
X113479485Y-105305942D02*
X113336628Y-105377371D01*
X113050914Y-105377371D01*
X112908057Y-105305942D01*
X112836628Y-105234514D01*
X112765200Y-105091657D01*
X112765200Y-104663085D01*
X112836628Y-104520228D01*
X112908057Y-104448800D01*
X113050914Y-104377371D01*
X113336628Y-104377371D01*
X113479485Y-104448800D01*
X114693771Y-105305942D02*
X114550914Y-105377371D01*
X114265200Y-105377371D01*
X114122342Y-105305942D01*
X114050914Y-105163085D01*
X114050914Y-104591657D01*
X114122342Y-104448800D01*
X114265200Y-104377371D01*
X114550914Y-104377371D01*
X114693771Y-104448800D01*
X114765200Y-104591657D01*
X114765200Y-104734514D01*
X114050914Y-104877371D01*
X117050914Y-104591657D02*
X117265200Y-104663085D01*
X117336628Y-104734514D01*
X117408057Y-104877371D01*
X117408057Y-105091657D01*
X117336628Y-105234514D01*
X117265200Y-105305942D01*
X117122342Y-105377371D01*
X116550914Y-105377371D01*
X116550914Y-103877371D01*
X117050914Y-103877371D01*
X117193771Y-103948800D01*
X117265200Y-104020228D01*
X117336628Y-104163085D01*
X117336628Y-104305942D01*
X117265200Y-104448800D01*
X117193771Y-104520228D01*
X117050914Y-104591657D01*
X116550914Y-104591657D01*
X118265200Y-105377371D02*
X118122342Y-105305942D01*
X118050914Y-105234514D01*
X117979485Y-105091657D01*
X117979485Y-104663085D01*
X118050914Y-104520228D01*
X118122342Y-104448800D01*
X118265200Y-104377371D01*
X118479485Y-104377371D01*
X118622342Y-104448800D01*
X118693771Y-104520228D01*
X118765200Y-104663085D01*
X118765200Y-105091657D01*
X118693771Y-105234514D01*
X118622342Y-105305942D01*
X118479485Y-105377371D01*
X118265200Y-105377371D01*
X120050914Y-105377371D02*
X120050914Y-104591657D01*
X119979485Y-104448800D01*
X119836628Y-104377371D01*
X119550914Y-104377371D01*
X119408057Y-104448800D01*
X120050914Y-105305942D02*
X119908057Y-105377371D01*
X119550914Y-105377371D01*
X119408057Y-105305942D01*
X119336628Y-105163085D01*
X119336628Y-105020228D01*
X119408057Y-104877371D01*
X119550914Y-104805942D01*
X119908057Y-104805942D01*
X120050914Y-104734514D01*
X120765200Y-105377371D02*
X120765200Y-104377371D01*
X120765200Y-104663085D02*
X120836628Y-104520228D01*
X120908057Y-104448800D01*
X121050914Y-104377371D01*
X121193771Y-104377371D01*
X122336628Y-105377371D02*
X122336628Y-103877371D01*
X122336628Y-105305942D02*
X122193771Y-105377371D01*
X121908057Y-105377371D01*
X121765200Y-105305942D01*
X121693771Y-105234514D01*
X121622342Y-105091657D01*
X121622342Y-104663085D01*
X121693771Y-104520228D01*
X121765200Y-104448800D01*
X121908057Y-104377371D01*
X122193771Y-104377371D01*
X122336628Y-104448800D01*
X124050914Y-104377371D02*
X124408057Y-105377371D01*
X124765200Y-104377371D01*
X125193771Y-103877371D02*
X126122342Y-103877371D01*
X125622342Y-104448800D01*
X125836628Y-104448800D01*
X125979485Y-104520228D01*
X126050914Y-104591657D01*
X126122342Y-104734514D01*
X126122342Y-105091657D01*
X126050914Y-105234514D01*
X125979485Y-105305942D01*
X125836628Y-105377371D01*
X125408057Y-105377371D01*
X125265200Y-105305942D01*
X125193771Y-105234514D01*
X126765200Y-105234514D02*
X126836628Y-105305942D01*
X126765200Y-105377371D01*
X126693771Y-105305942D01*
X126765200Y-105234514D01*
X126765200Y-105377371D01*
X127765200Y-103877371D02*
X127908057Y-103877371D01*
X128050914Y-103948800D01*
X128122342Y-104020228D01*
X128193771Y-104163085D01*
X128265200Y-104448800D01*
X128265200Y-104805942D01*
X128193771Y-105091657D01*
X128122342Y-105234514D01*
X128050914Y-105305942D01*
X127908057Y-105377371D01*
X127765200Y-105377371D01*
X127622342Y-105305942D01*
X127550914Y-105234514D01*
X127479485Y-105091657D01*
X127408057Y-104805942D01*
X127408057Y-104448800D01*
X127479485Y-104163085D01*
X127550914Y-104020228D01*
X127622342Y-103948800D01*
X127765200Y-103877371D01*
D10*
X135337771Y-76742857D02*
X135337771Y-75542857D01*
X135623485Y-75542857D01*
X135794914Y-75600000D01*
X135909200Y-75714285D01*
X135966342Y-75828571D01*
X136023485Y-76057142D01*
X136023485Y-76228571D01*
X135966342Y-76457142D01*
X135909200Y-76571428D01*
X135794914Y-76685714D01*
X135623485Y-76742857D01*
X135337771Y-76742857D01*
X136537771Y-76742857D02*
X136537771Y-75542857D01*
X137794914Y-76742857D02*
X137394914Y-76171428D01*
X137109200Y-76742857D02*
X137109200Y-75542857D01*
X137566342Y-75542857D01*
X137680628Y-75600000D01*
X137737771Y-75657142D01*
X137794914Y-75771428D01*
X137794914Y-75942857D01*
X137737771Y-76057142D01*
X137680628Y-76114285D01*
X137566342Y-76171428D01*
X137109200Y-76171428D01*
X138252057Y-75657142D02*
X138309200Y-75600000D01*
X138423485Y-75542857D01*
X138709200Y-75542857D01*
X138823485Y-75600000D01*
X138880628Y-75657142D01*
X138937771Y-75771428D01*
X138937771Y-75885714D01*
X138880628Y-76057142D01*
X138194914Y-76742857D01*
X138937771Y-76742857D01*
X135388571Y-74202857D02*
X135388571Y-73002857D01*
X135674285Y-73002857D01*
X135845714Y-73060000D01*
X135960000Y-73174285D01*
X136017142Y-73288571D01*
X136074285Y-73517142D01*
X136074285Y-73688571D01*
X136017142Y-73917142D01*
X135960000Y-74031428D01*
X135845714Y-74145714D01*
X135674285Y-74202857D01*
X135388571Y-74202857D01*
X136588571Y-74202857D02*
X136588571Y-73002857D01*
X137845714Y-74202857D02*
X137445714Y-73631428D01*
X137160000Y-74202857D02*
X137160000Y-73002857D01*
X137617142Y-73002857D01*
X137731428Y-73060000D01*
X137788571Y-73117142D01*
X137845714Y-73231428D01*
X137845714Y-73402857D01*
X137788571Y-73517142D01*
X137731428Y-73574285D01*
X137617142Y-73631428D01*
X137160000Y-73631428D01*
X138988571Y-74202857D02*
X138302857Y-74202857D01*
X138645714Y-74202857D02*
X138645714Y-73002857D01*
X138531428Y-73174285D01*
X138417142Y-73288571D01*
X138302857Y-73345714D01*
X134893257Y-89782857D02*
X134893257Y-88582857D01*
X135464685Y-89782857D02*
X135464685Y-88582857D01*
X136150400Y-89782857D01*
X136150400Y-88582857D01*
X136550400Y-88582857D02*
X137236114Y-88582857D01*
X136893257Y-89782857D02*
X136893257Y-88582857D01*
X137578971Y-88697142D02*
X137636114Y-88640000D01*
X137750400Y-88582857D01*
X138036114Y-88582857D01*
X138150400Y-88640000D01*
X138207542Y-88697142D01*
X138264685Y-88811428D01*
X138264685Y-88925714D01*
X138207542Y-89097142D01*
X137521828Y-89782857D01*
X138264685Y-89782857D01*
X134944057Y-87242857D02*
X134944057Y-86042857D01*
X135515485Y-87242857D02*
X135515485Y-86042857D01*
X136201200Y-87242857D01*
X136201200Y-86042857D01*
X136601200Y-86042857D02*
X137286914Y-86042857D01*
X136944057Y-87242857D02*
X136944057Y-86042857D01*
X138315485Y-87242857D02*
X137629771Y-87242857D01*
X137972628Y-87242857D02*
X137972628Y-86042857D01*
X137858342Y-86214285D01*
X137744057Y-86328571D01*
X137629771Y-86385714D01*
X130337142Y-100342857D02*
X129937142Y-99771428D01*
X129651428Y-100342857D02*
X129651428Y-99142857D01*
X130108571Y-99142857D01*
X130222857Y-99200000D01*
X130280000Y-99257142D01*
X130337142Y-99371428D01*
X130337142Y-99542857D01*
X130280000Y-99657142D01*
X130222857Y-99714285D01*
X130108571Y-99771428D01*
X129651428Y-99771428D01*
X130851428Y-99714285D02*
X131251428Y-99714285D01*
X131422857Y-100342857D02*
X130851428Y-100342857D01*
X130851428Y-99142857D01*
X131422857Y-99142857D01*
X131880000Y-100285714D02*
X132051428Y-100342857D01*
X132337142Y-100342857D01*
X132451428Y-100285714D01*
X132508571Y-100228571D01*
X132565714Y-100114285D01*
X132565714Y-100000000D01*
X132508571Y-99885714D01*
X132451428Y-99828571D01*
X132337142Y-99771428D01*
X132108571Y-99714285D01*
X131994285Y-99657142D01*
X131937142Y-99600000D01*
X131880000Y-99485714D01*
X131880000Y-99371428D01*
X131937142Y-99257142D01*
X131994285Y-99200000D01*
X132108571Y-99142857D01*
X132394285Y-99142857D01*
X132565714Y-99200000D01*
X133080000Y-99714285D02*
X133480000Y-99714285D01*
X133651428Y-100342857D02*
X133080000Y-100342857D01*
X133080000Y-99142857D01*
X133651428Y-99142857D01*
X133994285Y-99142857D02*
X134680000Y-99142857D01*
X134337142Y-100342857D02*
X134337142Y-99142857D01*
X126850857Y-55152857D02*
X126450857Y-54581428D01*
X126165142Y-55152857D02*
X126165142Y-53952857D01*
X126622285Y-53952857D01*
X126736571Y-54010000D01*
X126793714Y-54067142D01*
X126850857Y-54181428D01*
X126850857Y-54352857D01*
X126793714Y-54467142D01*
X126736571Y-54524285D01*
X126622285Y-54581428D01*
X126165142Y-54581428D01*
X127308000Y-55095714D02*
X127479428Y-55152857D01*
X127765142Y-55152857D01*
X127879428Y-55095714D01*
X127936571Y-55038571D01*
X127993714Y-54924285D01*
X127993714Y-54810000D01*
X127936571Y-54695714D01*
X127879428Y-54638571D01*
X127765142Y-54581428D01*
X127536571Y-54524285D01*
X127422285Y-54467142D01*
X127365142Y-54410000D01*
X127308000Y-54295714D01*
X127308000Y-54181428D01*
X127365142Y-54067142D01*
X127422285Y-54010000D01*
X127536571Y-53952857D01*
X127822285Y-53952857D01*
X127993714Y-54010000D01*
X128336571Y-53952857D02*
X129022285Y-53952857D01*
X128679428Y-55152857D02*
X128679428Y-53952857D01*
X125965142Y-52555714D02*
X126136571Y-52612857D01*
X126422285Y-52612857D01*
X126536571Y-52555714D01*
X126593714Y-52498571D01*
X126650857Y-52384285D01*
X126650857Y-52270000D01*
X126593714Y-52155714D01*
X126536571Y-52098571D01*
X126422285Y-52041428D01*
X126193714Y-51984285D01*
X126079428Y-51927142D01*
X126022285Y-51870000D01*
X125965142Y-51755714D01*
X125965142Y-51641428D01*
X126022285Y-51527142D01*
X126079428Y-51470000D01*
X126193714Y-51412857D01*
X126479428Y-51412857D01*
X126650857Y-51470000D01*
X127850857Y-52498571D02*
X127793714Y-52555714D01*
X127622285Y-52612857D01*
X127508000Y-52612857D01*
X127336571Y-52555714D01*
X127222285Y-52441428D01*
X127165142Y-52327142D01*
X127108000Y-52098571D01*
X127108000Y-51927142D01*
X127165142Y-51698571D01*
X127222285Y-51584285D01*
X127336571Y-51470000D01*
X127508000Y-51412857D01*
X127622285Y-51412857D01*
X127793714Y-51470000D01*
X127850857Y-51527142D01*
X128365142Y-52612857D02*
X128365142Y-51412857D01*
X129050857Y-52612857D02*
X128536571Y-51927142D01*
X129050857Y-51412857D02*
X128365142Y-52098571D01*
X125368285Y-50072857D02*
X125368285Y-48872857D01*
X125768285Y-49730000D01*
X126168285Y-48872857D01*
X126168285Y-50072857D01*
X126739714Y-50072857D02*
X126739714Y-48872857D01*
X127254000Y-50015714D02*
X127425428Y-50072857D01*
X127711142Y-50072857D01*
X127825428Y-50015714D01*
X127882571Y-49958571D01*
X127939714Y-49844285D01*
X127939714Y-49730000D01*
X127882571Y-49615714D01*
X127825428Y-49558571D01*
X127711142Y-49501428D01*
X127482571Y-49444285D01*
X127368285Y-49387142D01*
X127311142Y-49330000D01*
X127254000Y-49215714D01*
X127254000Y-49101428D01*
X127311142Y-48987142D01*
X127368285Y-48930000D01*
X127482571Y-48872857D01*
X127768285Y-48872857D01*
X127939714Y-48930000D01*
X128682571Y-48872857D02*
X128911142Y-48872857D01*
X129025428Y-48930000D01*
X129139714Y-49044285D01*
X129196857Y-49272857D01*
X129196857Y-49672857D01*
X129139714Y-49901428D01*
X129025428Y-50015714D01*
X128911142Y-50072857D01*
X128682571Y-50072857D01*
X128568285Y-50015714D01*
X128454000Y-49901428D01*
X128396857Y-49672857D01*
X128396857Y-49272857D01*
X128454000Y-49044285D01*
X128568285Y-48930000D01*
X128682571Y-48872857D01*
X135991714Y-54010000D02*
X135877428Y-53952857D01*
X135706000Y-53952857D01*
X135534571Y-54010000D01*
X135420285Y-54124285D01*
X135363142Y-54238571D01*
X135306000Y-54467142D01*
X135306000Y-54638571D01*
X135363142Y-54867142D01*
X135420285Y-54981428D01*
X135534571Y-55095714D01*
X135706000Y-55152857D01*
X135820285Y-55152857D01*
X135991714Y-55095714D01*
X136048857Y-55038571D01*
X136048857Y-54638571D01*
X135820285Y-54638571D01*
X136563142Y-55152857D02*
X136563142Y-53952857D01*
X137248857Y-55152857D01*
X137248857Y-53952857D01*
X137820285Y-55152857D02*
X137820285Y-53952857D01*
X138106000Y-53952857D01*
X138277428Y-54010000D01*
X138391714Y-54124285D01*
X138448857Y-54238571D01*
X138506000Y-54467142D01*
X138506000Y-54638571D01*
X138448857Y-54867142D01*
X138391714Y-54981428D01*
X138277428Y-55095714D01*
X138106000Y-55152857D01*
X137820285Y-55152857D01*
X135020285Y-52612857D02*
X135020285Y-51412857D01*
X135420285Y-52270000D01*
X135820285Y-51412857D01*
X135820285Y-52612857D01*
X136620285Y-51412857D02*
X136848857Y-51412857D01*
X136963142Y-51470000D01*
X137077428Y-51584285D01*
X137134571Y-51812857D01*
X137134571Y-52212857D01*
X137077428Y-52441428D01*
X136963142Y-52555714D01*
X136848857Y-52612857D01*
X136620285Y-52612857D01*
X136506000Y-52555714D01*
X136391714Y-52441428D01*
X136334571Y-52212857D01*
X136334571Y-51812857D01*
X136391714Y-51584285D01*
X136506000Y-51470000D01*
X136620285Y-51412857D01*
X137591714Y-52555714D02*
X137763142Y-52612857D01*
X138048857Y-52612857D01*
X138163142Y-52555714D01*
X138220285Y-52498571D01*
X138277428Y-52384285D01*
X138277428Y-52270000D01*
X138220285Y-52155714D01*
X138163142Y-52098571D01*
X138048857Y-52041428D01*
X137820285Y-51984285D01*
X137706000Y-51927142D01*
X137648857Y-51870000D01*
X137591714Y-51755714D01*
X137591714Y-51641428D01*
X137648857Y-51527142D01*
X137706000Y-51470000D01*
X137820285Y-51412857D01*
X138106000Y-51412857D01*
X138277428Y-51470000D01*
X138791714Y-52612857D02*
X138791714Y-51412857D01*
X135363142Y-49615714D02*
X136277428Y-49615714D01*
X135820285Y-50072857D02*
X135820285Y-49158571D01*
X137420285Y-48872857D02*
X136848857Y-48872857D01*
X136791714Y-49444285D01*
X136848857Y-49387142D01*
X136963142Y-49330000D01*
X137248857Y-49330000D01*
X137363142Y-49387142D01*
X137420285Y-49444285D01*
X137477428Y-49558571D01*
X137477428Y-49844285D01*
X137420285Y-49958571D01*
X137363142Y-50015714D01*
X137248857Y-50072857D01*
X136963142Y-50072857D01*
X136848857Y-50015714D01*
X136791714Y-49958571D01*
X137820285Y-48872857D02*
X138220285Y-50072857D01*
X138620285Y-48872857D01*
X137601285Y-70647000D02*
X137487000Y-70589857D01*
X137315571Y-70589857D01*
X137144142Y-70647000D01*
X137029857Y-70761285D01*
X136972714Y-70875571D01*
X136915571Y-71104142D01*
X136915571Y-71275571D01*
X136972714Y-71504142D01*
X137029857Y-71618428D01*
X137144142Y-71732714D01*
X137315571Y-71789857D01*
X137429857Y-71789857D01*
X137601285Y-71732714D01*
X137658428Y-71675571D01*
X137658428Y-71275571D01*
X137429857Y-71275571D01*
X133127928Y-71732714D02*
X133299357Y-71789857D01*
X133585071Y-71789857D01*
X133699357Y-71732714D01*
X133756500Y-71675571D01*
X133813642Y-71561285D01*
X133813642Y-71447000D01*
X133756500Y-71332714D01*
X133699357Y-71275571D01*
X133585071Y-71218428D01*
X133356500Y-71161285D01*
X133242214Y-71104142D01*
X133185071Y-71047000D01*
X133127928Y-70932714D01*
X133127928Y-70818428D01*
X133185071Y-70704142D01*
X133242214Y-70647000D01*
X133356500Y-70589857D01*
X133642214Y-70589857D01*
X133813642Y-70647000D01*
X135013642Y-71675571D02*
X134956500Y-71732714D01*
X134785071Y-71789857D01*
X134670785Y-71789857D01*
X134499357Y-71732714D01*
X134385071Y-71618428D01*
X134327928Y-71504142D01*
X134270785Y-71275571D01*
X134270785Y-71104142D01*
X134327928Y-70875571D01*
X134385071Y-70761285D01*
X134499357Y-70647000D01*
X134670785Y-70589857D01*
X134785071Y-70589857D01*
X134956500Y-70647000D01*
X135013642Y-70704142D01*
X136099357Y-71789857D02*
X135527928Y-71789857D01*
X135527928Y-70589857D01*
X93199142Y-89747714D02*
X94113428Y-89747714D01*
X93656285Y-90204857D02*
X93656285Y-89290571D01*
X95256285Y-89004857D02*
X94684857Y-89004857D01*
X94627714Y-89576285D01*
X94684857Y-89519142D01*
X94799142Y-89462000D01*
X95084857Y-89462000D01*
X95199142Y-89519142D01*
X95256285Y-89576285D01*
X95313428Y-89690571D01*
X95313428Y-89976285D01*
X95256285Y-90090571D01*
X95199142Y-90147714D01*
X95084857Y-90204857D01*
X94799142Y-90204857D01*
X94684857Y-90147714D01*
X94627714Y-90090571D01*
X95656285Y-89004857D02*
X96056285Y-90204857D01*
X96456285Y-89004857D01*
X93827714Y-86522000D02*
X93713428Y-86464857D01*
X93542000Y-86464857D01*
X93370571Y-86522000D01*
X93256285Y-86636285D01*
X93199142Y-86750571D01*
X93142000Y-86979142D01*
X93142000Y-87150571D01*
X93199142Y-87379142D01*
X93256285Y-87493428D01*
X93370571Y-87607714D01*
X93542000Y-87664857D01*
X93656285Y-87664857D01*
X93827714Y-87607714D01*
X93884857Y-87550571D01*
X93884857Y-87150571D01*
X93656285Y-87150571D01*
X94399142Y-87664857D02*
X94399142Y-86464857D01*
X95084857Y-87664857D01*
X95084857Y-86464857D01*
X95656285Y-87664857D02*
X95656285Y-86464857D01*
X95942000Y-86464857D01*
X96113428Y-86522000D01*
X96227714Y-86636285D01*
X96284857Y-86750571D01*
X96342000Y-86979142D01*
X96342000Y-87150571D01*
X96284857Y-87379142D01*
X96227714Y-87493428D01*
X96113428Y-87607714D01*
X95942000Y-87664857D01*
X95656285Y-87664857D01*
X93856285Y-84496285D02*
X94256285Y-84496285D01*
X94427714Y-85124857D02*
X93856285Y-85124857D01*
X93856285Y-83924857D01*
X94427714Y-83924857D01*
X94942000Y-85124857D02*
X94942000Y-83924857D01*
X95627714Y-85124857D01*
X95627714Y-83924857D01*
X94542000Y-82470571D02*
X94484857Y-82527714D01*
X94313428Y-82584857D01*
X94199142Y-82584857D01*
X94027714Y-82527714D01*
X93913428Y-82413428D01*
X93856285Y-82299142D01*
X93799142Y-82070571D01*
X93799142Y-81899142D01*
X93856285Y-81670571D01*
X93913428Y-81556285D01*
X94027714Y-81442000D01*
X94199142Y-81384857D01*
X94313428Y-81384857D01*
X94484857Y-81442000D01*
X94542000Y-81499142D01*
X94999142Y-82527714D02*
X95170571Y-82584857D01*
X95456285Y-82584857D01*
X95570571Y-82527714D01*
X95627714Y-82470571D01*
X95684857Y-82356285D01*
X95684857Y-82242000D01*
X95627714Y-82127714D01*
X95570571Y-82070571D01*
X95456285Y-82013428D01*
X95227714Y-81956285D01*
X95113428Y-81899142D01*
X95056285Y-81842000D01*
X94999142Y-81727714D01*
X94999142Y-81613428D01*
X95056285Y-81499142D01*
X95113428Y-81442000D01*
X95227714Y-81384857D01*
X95513428Y-81384857D01*
X95684857Y-81442000D01*
X93599142Y-80044857D02*
X93599142Y-78844857D01*
X94170571Y-80044857D02*
X94170571Y-78844857D01*
X94856285Y-80044857D01*
X94856285Y-78844857D01*
X95370571Y-79702000D02*
X95942000Y-79702000D01*
X95256285Y-80044857D02*
X95656285Y-78844857D01*
X96056285Y-80044857D01*
X93513428Y-77504857D02*
X93513428Y-76304857D01*
X94084857Y-77504857D02*
X94084857Y-76304857D01*
X94770571Y-77504857D01*
X94770571Y-76304857D01*
X95742000Y-76876285D02*
X95913428Y-76933428D01*
X95970571Y-76990571D01*
X96027714Y-77104857D01*
X96027714Y-77276285D01*
X95970571Y-77390571D01*
X95913428Y-77447714D01*
X95799142Y-77504857D01*
X95342000Y-77504857D01*
X95342000Y-76304857D01*
X95742000Y-76304857D01*
X95856285Y-76362000D01*
X95913428Y-76419142D01*
X95970571Y-76533428D01*
X95970571Y-76647714D01*
X95913428Y-76762000D01*
X95856285Y-76819142D01*
X95742000Y-76876285D01*
X95342000Y-76876285D01*
X92992785Y-74837857D02*
X92992785Y-73637857D01*
X93449928Y-73637857D01*
X93564214Y-73695000D01*
X93621357Y-73752142D01*
X93678500Y-73866428D01*
X93678500Y-74037857D01*
X93621357Y-74152142D01*
X93564214Y-74209285D01*
X93449928Y-74266428D01*
X92992785Y-74266428D01*
X94078500Y-73637857D02*
X94364214Y-74837857D01*
X94592785Y-73980714D01*
X94821357Y-74837857D01*
X95107071Y-73637857D01*
X95564214Y-74837857D02*
X95564214Y-73637857D01*
X95964214Y-74495000D01*
X96364214Y-73637857D01*
X96364214Y-74837857D01*
X97750000Y-47250000D02*
X97750000Y-102550000D01*
X97750000Y-102550000D02*
X125550000Y-102550000D01*
X125550000Y-47250000D02*
X125550000Y-102550000D01*
X97750000Y-47250000D02*
X125550000Y-47250000D01*
D12*
G04 #@! TO.C,ICSP*
X129480000Y-55940000D02*
X134680000Y-55940000D01*
X129480000Y-50800000D02*
X129480000Y-55940000D01*
X134680000Y-48200000D02*
X134680000Y-55940000D01*
X129480000Y-50800000D02*
X132080000Y-50800000D01*
X132080000Y-50800000D02*
X132080000Y-48200000D01*
X132080000Y-48200000D02*
X134680000Y-48200000D01*
X129480000Y-49530000D02*
X129480000Y-48200000D01*
X129480000Y-48200000D02*
X130810000Y-48200000D01*
D13*
G04 #@! TO.C, *
X111108000Y-31694500D02*
X111108000Y-40694500D01*
X101108000Y-31694500D02*
X101108000Y-40694500D01*
X101108000Y-31694500D02*
X111108000Y-31694500D01*
D12*
G04 #@! TO.C,R10*
X124198748Y-83069500D02*
X124721252Y-83069500D01*
X124198748Y-81649500D02*
X124721252Y-81649500D01*
G04 #@! TO.C,C1*
X126738748Y-34850000D02*
X127261252Y-34850000D01*
X126738748Y-36270000D02*
X127261252Y-36270000D01*
G04 #@! TO.C,C2*
X130410000Y-45320000D02*
X130410000Y-42970000D01*
X130410000Y-38500000D02*
X130410000Y-40850000D01*
X124654437Y-38500000D02*
X130410000Y-38500000D01*
X124654437Y-45320000D02*
X130410000Y-45320000D01*
X123590000Y-44255563D02*
X123590000Y-42970000D01*
X123590000Y-39564437D02*
X123590000Y-40850000D01*
X123590000Y-39564437D02*
X124654437Y-38500000D01*
X123590000Y-44255563D02*
X124654437Y-45320000D01*
X122562500Y-40062500D02*
X123350000Y-40062500D01*
X122956250Y-39668750D02*
X122956250Y-40456250D01*
G04 #@! TO.C,C3*
X108958748Y-59297500D02*
X109481252Y-59297500D01*
X108958748Y-60717500D02*
X109481252Y-60717500D01*
G04 #@! TO.C,C4*
X108958748Y-63250000D02*
X109481252Y-63250000D01*
X108958748Y-61830000D02*
X109481252Y-61830000D01*
G04 #@! TO.C,POWER*
X135620000Y-40950000D02*
X132760000Y-40950000D01*
X132760000Y-40950000D02*
X132760000Y-42870000D01*
X132760000Y-42870000D02*
X135620000Y-42870000D01*
G04 #@! TO.C,LED1*
X99160000Y-42665000D02*
X99160000Y-39805000D01*
X99160000Y-39805000D02*
X97240000Y-39805000D01*
X97240000Y-39805000D02*
X97240000Y-42665000D01*
G04 #@! TO.C,LED2*
X94040000Y-39805000D02*
X94040000Y-42665000D01*
X95960000Y-39805000D02*
X94040000Y-39805000D01*
X95960000Y-42665000D02*
X95960000Y-39805000D01*
G04 #@! TO.C,D5*
X122964000Y-37710000D02*
X122964000Y-33410000D01*
X122964000Y-33410000D02*
X115664000Y-33410000D01*
X122964000Y-37710000D02*
X115664000Y-37710000D01*
G04 #@! TO.C, *
X129290000Y-72203000D02*
X130620000Y-72203000D01*
X129290000Y-73533000D02*
X129290000Y-72203000D01*
X129290000Y-74803000D02*
X131950000Y-74803000D01*
X131950000Y-74803000D02*
X131950000Y-77403000D01*
X129290000Y-74803000D02*
X129290000Y-77403000D01*
X129290000Y-77403000D02*
X131950000Y-77403000D01*
X131893000Y-77403000D02*
X134553000Y-77403000D01*
X131893000Y-74803000D02*
X131893000Y-77403000D01*
X134553000Y-74803000D02*
X134553000Y-77403000D01*
X131893000Y-74803000D02*
X134553000Y-74803000D01*
X131893000Y-73533000D02*
X131893000Y-72203000D01*
X131893000Y-72203000D02*
X133223000Y-72203000D01*
X100330000Y-72930000D02*
X97670000Y-72930000D01*
X100330000Y-88230000D02*
X100330000Y-72930000D01*
X97670000Y-88230000D02*
X97670000Y-72930000D01*
X100330000Y-88230000D02*
X97670000Y-88230000D01*
X100330000Y-89500000D02*
X100330000Y-90830000D01*
X100330000Y-90830000D02*
X99000000Y-90830000D01*
G04 #@! TO.C,R1*
X134358748Y-43740000D02*
X134881252Y-43740000D01*
X134358748Y-45160000D02*
X134881252Y-45160000D01*
G04 #@! TO.C,R2*
X100591252Y-65480000D02*
X100068748Y-65480000D01*
X100591252Y-64060000D02*
X100068748Y-64060000D01*
G04 #@! TO.C,R3*
X100591252Y-66600000D02*
X100068748Y-66600000D01*
X100591252Y-68020000D02*
X100068748Y-68020000D01*
G04 #@! TO.C,R4*
X124198748Y-88890000D02*
X124721252Y-88890000D01*
X124198748Y-90310000D02*
X124721252Y-90310000D01*
G04 #@! TO.C,R5*
X124198748Y-72950000D02*
X124721252Y-72950000D01*
X124198748Y-74370000D02*
X124721252Y-74370000D01*
G04 #@! TO.C,R6*
X124198748Y-76910000D02*
X124721252Y-76910000D01*
X124198748Y-75490000D02*
X124721252Y-75490000D01*
G04 #@! TO.C,R7*
X124721252Y-64060000D02*
X124198748Y-64060000D01*
X124721252Y-65480000D02*
X124198748Y-65480000D01*
G04 #@! TO.C,R8*
X124198748Y-62940000D02*
X124721252Y-62940000D01*
X124198748Y-61520000D02*
X124721252Y-61520000D01*
G04 #@! TO.C,R9*
X124198748Y-84189500D02*
X124721252Y-84189500D01*
X124198748Y-85609500D02*
X124721252Y-85609500D01*
D13*
G04 #@! TO.C, *
X137000000Y-98250000D02*
X128000000Y-98250000D01*
X137000000Y-92250000D02*
X128000000Y-92250000D01*
X128000000Y-92250000D02*
X128000000Y-98250000D01*
X137000000Y-92250000D02*
X137000000Y-98250000D01*
G04 #@! TO.C,ATtiny1634*
X107885000Y-74705000D02*
X107885000Y-74955000D01*
X115635000Y-74705000D02*
X115635000Y-75040000D01*
X115635000Y-87855000D02*
X115635000Y-87520000D01*
X107885000Y-87855000D02*
X107885000Y-87520000D01*
X107885000Y-74705000D02*
X115635000Y-74705000D01*
X107885000Y-87855000D02*
X115635000Y-87855000D01*
X107885000Y-74955000D02*
X106085000Y-74955000D01*
D12*
G04 #@! TO.C,L7805*
X113670000Y-45700000D02*
X114930000Y-45700000D01*
X120490000Y-45700000D02*
X119230000Y-45700000D01*
X113670000Y-41940000D02*
X113670000Y-45700000D01*
X120490000Y-39690000D02*
X120490000Y-45700000D01*
G04 #@! TO.C,CLK*
X117206000Y-59250000D02*
X117206000Y-65650000D01*
X112156000Y-59250000D02*
X112156000Y-65650000D01*
X112156000Y-59250000D02*
G75*
G02X117206000Y-59250000I2525000J0D01*
G01*
X112156000Y-65650000D02*
G75*
G03X117206000Y-65650000I2525000J0D01*
G01*
G04 #@! TO.C, *
X137090000Y-57817109D02*
X137090000Y-57217109D01*
X135490000Y-57817109D02*
X137090000Y-57817109D01*
X135490000Y-57217109D02*
X135490000Y-57817109D01*
X134550000Y-57817109D02*
X134550000Y-57217109D01*
X132950000Y-57817109D02*
X134550000Y-57817109D01*
X132950000Y-57217109D02*
X132950000Y-57817109D01*
X132010000Y-57817109D02*
X132010000Y-57217109D01*
X130410000Y-57817109D02*
X132010000Y-57817109D01*
X130410000Y-57217109D02*
X130410000Y-57817109D01*
X129470000Y-57817109D02*
X129470000Y-57217109D01*
X127870000Y-57817109D02*
X129470000Y-57817109D01*
X127870000Y-57217109D02*
X127870000Y-57817109D01*
X136040000Y-63237109D02*
X136040000Y-62237109D01*
X128920000Y-63237109D02*
X128920000Y-62237109D01*
X136040000Y-61707109D02*
X136290000Y-62237109D01*
X128920000Y-61707109D02*
X136040000Y-61707109D01*
X128670000Y-62237109D02*
X128920000Y-61707109D01*
X136290000Y-62237109D02*
X136290000Y-63237109D01*
X128670000Y-62237109D02*
X136290000Y-62237109D01*
X128670000Y-63237109D02*
X128670000Y-62237109D01*
X127000000Y-58247109D02*
X127000000Y-62247109D01*
X137670000Y-57217109D02*
X127290000Y-57217109D01*
X137670000Y-63237109D02*
X137670000Y-57217109D01*
X127290000Y-63237109D02*
X137670000Y-63237109D01*
X127290000Y-57217109D02*
X127290000Y-63237109D01*
X127290000Y-64202109D02*
X127290000Y-70222109D01*
X127290000Y-70222109D02*
X137670000Y-70222109D01*
X137670000Y-70222109D02*
X137670000Y-64202109D01*
X137670000Y-64202109D02*
X127290000Y-64202109D01*
X127000000Y-65232109D02*
X127000000Y-69232109D01*
X128670000Y-70222109D02*
X128670000Y-69222109D01*
X128670000Y-69222109D02*
X136290000Y-69222109D01*
X136290000Y-69222109D02*
X136290000Y-70222109D01*
X128670000Y-69222109D02*
X128920000Y-68692109D01*
X128920000Y-68692109D02*
X136040000Y-68692109D01*
X136040000Y-68692109D02*
X136290000Y-69222109D01*
X128920000Y-70222109D02*
X128920000Y-69222109D01*
X136040000Y-70222109D02*
X136040000Y-69222109D01*
X127870000Y-64202109D02*
X127870000Y-64802109D01*
X127870000Y-64802109D02*
X129470000Y-64802109D01*
X129470000Y-64802109D02*
X129470000Y-64202109D01*
X130410000Y-64202109D02*
X130410000Y-64802109D01*
X130410000Y-64802109D02*
X132010000Y-64802109D01*
X132010000Y-64802109D02*
X132010000Y-64202109D01*
X132950000Y-64202109D02*
X132950000Y-64802109D01*
X132950000Y-64802109D02*
X134550000Y-64802109D01*
X134550000Y-64802109D02*
X134550000Y-64202109D01*
X135490000Y-64202109D02*
X135490000Y-64802109D01*
X135490000Y-64802109D02*
X137090000Y-64802109D01*
X137090000Y-64802109D02*
X137090000Y-64202109D01*
X134157500Y-80217500D02*
X128137500Y-80217500D01*
X128137500Y-80217500D02*
X128137500Y-90597500D01*
X128137500Y-90597500D02*
X134157500Y-90597500D01*
X134157500Y-90597500D02*
X134157500Y-80217500D01*
X133127500Y-79927500D02*
X129127500Y-79927500D01*
X128137500Y-81597500D02*
X129137500Y-81597500D01*
X129137500Y-81597500D02*
X129137500Y-89217500D01*
X129137500Y-89217500D02*
X128137500Y-89217500D01*
X129137500Y-81597500D02*
X129667500Y-81847500D01*
X129667500Y-81847500D02*
X129667500Y-88967500D01*
X129667500Y-88967500D02*
X129137500Y-89217500D01*
X128137500Y-81847500D02*
X129137500Y-81847500D01*
X128137500Y-88967500D02*
X129137500Y-88967500D01*
X134157500Y-80797500D02*
X133557500Y-80797500D01*
X133557500Y-80797500D02*
X133557500Y-82397500D01*
X133557500Y-82397500D02*
X134157500Y-82397500D01*
X134157500Y-83337500D02*
X133557500Y-83337500D01*
X133557500Y-83337500D02*
X133557500Y-84937500D01*
X133557500Y-84937500D02*
X134157500Y-84937500D01*
X134157500Y-85877500D02*
X133557500Y-85877500D01*
X133557500Y-85877500D02*
X133557500Y-87477500D01*
X133557500Y-87477500D02*
X134157500Y-87477500D01*
X134157500Y-88417500D02*
X133557500Y-88417500D01*
X133557500Y-88417500D02*
X133557500Y-90017500D01*
X133557500Y-90017500D02*
X134157500Y-90017500D01*
G04 #@! TD*
M02*
